<?xml version="1.0" encoding="utf-8"?>
<!-- Generator: Adobe Illustrator 26.0.3, SVG Export Plug-In . SVG Version: 6.00 Build 0)  -->
<svg version="1.1" id="Layer_1" xmlns="http://www.w3.org/2000/svg" xmlns:xlink="http://www.w3.org/1999/xlink" x="0px" y="0px"
	 viewBox="0 0 2638.98 3854.3" style="enable-background:new 0 0 2638.98 3854.3;" xml:space="preserve">
<style type="text/css">
	.st0{opacity:0.35;}
	.st1{fill:#3F2039;}
	.st2{fill:#623D5A;}
	.st3{opacity:0.5;}
	.st4{fill:#FEE8EA;}
	.st5{fill:#6D4968;}
	.st6{opacity:0.6;}
	.st7{opacity:0.3;}
	.st8{fill:#FFFFFF;}
	.st9{fill:#F70D45;stroke:#3F2039;stroke-width:29;stroke-miterlimit:10;}
	.st10{opacity:0.55;}
	.st11{opacity:0.2;}
	.st12{opacity:0.25;fill:#3F2039;}
</style>
<g>
	<g>
		<g class="st0">
			<ellipse class="st1" cx="1467.95" cy="3542.8" rx="902.12" ry="84.8"/>
		</g>
		<g>
			<g>
				<g>
					<path class="st2" d="M1741.53,1954.23l33.5,103.85l148.76,461.25c39.03,12.86,42.66,9.66,75.94,15.99
						c54.08,10.37,148.06-100.1,154.27-208.34c6.41-111.69-43.37-208.89-45.7-212.21c-34.01-48.69-71.29-83.57-108.57-108.5
						c-62.79-41.93-125.8-55.3-173.76-58.07C1775.47,1945.37,1741.53,1954.23,1741.53,1954.23z"/>
				</g>
				<g class="st3">
					<path class="st1" d="M1825.98,1948.2l57.7,90.48c41.79-9.23,80.38-20.13,116.06-32.41
						C1936.95,1964.34,1873.94,1950.96,1825.98,1948.2z"/>
				</g>
				<g>
					<path class="st1" d="M2047.37,2538.17c27.67-21.94,71.27-63.18,99.1-128.19c60.59-141.54-4.85-275.96-15.93-297.81
						c-16.95-25.31-58.59-81.97-121.31-123.37c-40-26.4-83.95-44.5-130.66-53.78c-79.64-15.83-139.54-0.56-142.05,0.1
						c-5.27,1.38-9.73,4.87-12.35,9.64c-2.62,4.77-3.15,10.42-1.48,15.6l182.27,565.08c4.22,4.24,8.43,8.49,12.65,12.73
						 M1939.56,2503.64l-172.17-533.77c22.27-2.78,60.45-4.8,105.24,4.36c94.65,19.36,172.86,77.05,232.47,171.47
						c11.31,22.95,49.75,107.93,22.55,212.21c-20.31,77.86-66.72,126.22-87.8,145.73"/>
				</g>
			</g>
			<g>
				<g>
					
						<ellipse transform="matrix(0.9877 -0.1562 0.1562 0.9877 -439.2919 176.6384)" class="st4" cx="904.23" cy="2883.35" rx="141.37" ry="158.19"/>
				</g>
				<g class="st0">
					<path class="st1" d="M791.15,2974.13c-47.25-71.28-34.93-169.71,27.52-219.85c6.43-5.16,13.15-9.57,20.06-13.32
						c-36.91,53.41-38.55,130.76,0.47,189.62c42.39,63.94,118.31,84.28,178.57,51.6c-7.79,11.27-17.11,21.5-27.99,30.23
						C927.34,3062.56,838.41,3045.42,791.15,2974.13z"/>
				</g>
				<g>
					<path class="st1" d="M1020.73,2999.47c20.28-24.81,33.36-55.76,37.63-89.82c5.6-44.74-4.78-89.69-29.23-126.57
						s-60.18-61.49-100.6-69.28c-41.54-8.01-83.07,2.57-116.96,29.77c-33.88,27.2-55.71,67.5-61.47,113.48
						c-5.6,44.74,4.78,89.69,29.23,126.57c24.45,36.88,60.18,61.49,100.6,69.28c41.54,8.01,83.07-2.57,116.96-29.77
						C1005.67,3016.08,1013.64,3008.15,1020.73,2999.47z M807.47,2783.16c5.47-6.69,11.58-12.78,18.3-18.17
						c26.52-21.29,59.58-29.47,93.08-23.01c34.61,6.67,65.38,28,86.64,60.07c21.26,32.07,30.32,70.82,25.53,109.13
						c-4.64,37.07-21.8,69.22-48.33,90.52c-55.84,44.83-136.46,28.2-179.72-37.06l0,0c-21.26-32.07-30.32-70.82-25.53-109.13
						C780.91,2827.82,791.36,2802.89,807.47,2783.16z"/>
				</g>
			</g>
			<g>
				<g>
					<path class="st2" d="M947.95,2931.93c0.58,157.48,11.55,297.01,23.18,401.8c2.91,25.36,5.74,48.76,8.5,69.91
						c9.81,74.13,72.89,129.5,147.67,129.5h288.07c0,0,102.76-3.12,113.01-110.39c1.82-18.46-0.44-35.68-5.31-51.38
						c-22.53-72.45-101.6-114.02-107.26-116.93c-0.29-0.07-0.44-0.15-0.44-0.15c8.87-90.77,1.45-189.75,0.22-204.43
						c-0.15-1.24-0.22-1.82-0.22-1.82c88.15,4.43,171.72-7.12,171.72-7.12c-4.94,69.62-3.85,170.85-1.16,263.36
						c1.16,43.31,2.91,84.74,4.51,120.13c2.69,60.54,52.69,108.14,113.22,108.14h239.75c0,0,127.61,14.03,151.89-97.02
						c3.56-16.28,3.85-31.83,1.6-46.51c-2.62-17.01-8.43-32.92-16.13-47.45c0-0.07,0-0.07,0-0.07
						c-30.74-57.99-91.42-93.6-91.42-93.6c62.06-272.45,63.3-510.96,42.37-699.25c-7.63-68.68-18.17-130.74-29.87-185.31
						c-36.63-171.65-84.01-269.69-84.01-269.69l-22.6-35.32l-4.36-6.83l-7.7-12.06l-57.7-90.48l-34.66-54.29l-8.28-13.01
						l-651.58,80.01l-14.9,1.74c-3.05,7.12-6.03,14.32-9.01,21.51c-0.65,1.67-1.38,3.27-2.03,4.94c-3.27,7.92-6.32,15.84-9.45,23.76
						c-2.11,5.38-4.22,10.83-6.25,16.28c-7.63,20.2-14.83,40.55-21.73,61.04c-3.78,11.05-7.34,22.16-10.83,33.21
						c-26.16,82.92-46.66,167.58-62.35,252.25c-17.15,92.15-28.71,184.22-36.05,273.83c-1.89,23.11-3.49,46.07-4.8,68.89
						c-2.76,47.38-4.51,93.97-5.23,139.31C947.95,2883.32,947.8,2907.81,947.95,2931.93z"/>
				</g>
				<g>
					<path class="st4" d="M1587.66,3303.94l-1.22-0.36c1.22,43.27,2.94,84.68,4.51,120.07c2.72,60.54,52.66,108.18,113.19,108.18
						h239.72c0,0,127.67,14.04,151.95-97.08c3.58-16.26,3.8-31.81,1.58-46.5c-0.07,0-0.07,0-0.07,0s-50.01-166.71-243.44-143.71
						c0,0-121.29,2.72-187.7,110.47C1666.18,3355.02,1590.6,3376.01,1587.66,3303.94z"/>
				</g>
				<g>
					<path class="st4" d="M971.68,3332.95c2.87,25.43,5.73,48.79,8.53,69.92c9.74,74.15,72.79,129.53,147.58,129.53h288.15
						c0,0,102.73-3.15,112.98-110.4c9.96-104.02-105.67-164.78-112.62-168.36l-0.36-0.14c0,0-257.2-44.06-326.47,101.52
						C1089.46,3355.02,1014.24,3365.48,971.68,3332.95z"/>
				</g>
				<g>
					<ellipse class="st4" cx="1541.16" cy="2402.23" rx="394.01" ry="489.92"/>
				</g>
				<g>
					<path class="st5" d="M971.68,3332.95c2.87,25.43,5.73,48.79,8.53,69.92c9.74,74.15,72.79,129.53,147.58,129.53h288.15
						c0,0,102.73-3.15,112.98-110.4c1.79-18.48-0.43-35.68-5.3-51.37l-0.07,0.07c0,0-1.86,103.67-199.31,103.67
						c-197.52,0-268.01-3.87-285.49-119.36c0,0-103.2-680.05,66.59-1250.4c17.27-58.03,31.56-100.63,26.11-143.76l-14.9,1.79
						C910.43,2444.44,938.08,3031.7,971.68,3332.95z"/>
				</g>
				<g>
					<path class="st5" d="M1445.66,2943.29c-14.67-10.45-35.02,0.56-35.02,18.57l0,85.38l5.52,1.86c-0.14-1.22-0.21-1.86-0.21-1.86
						c88.12,4.51,171.73-7.02,171.73-7.02c-4.94,69.56-3.94,170.79-1.22,263.36c1.22,43.27,2.94,84.68,4.51,120.07
						c2.72,60.54,52.66,108.18,113.19,108.18h239.72c0,0,127.67,14.04,151.95-97.08c3.58-16.26,3.8-31.81,1.58-46.5
						c-2.58-17.05-8.38-32.96-16.12-47.43c0.43,3.8,11.18,120.86-196.16,125.88c-210.63,5.09-233.63-43.42-241.29-111.69v-184.44
						c0-38.72,19.25-74.48,50.56-97.26c26.88-19.56,58.53-52.98,79.05-108.77c4.77-12.96-6.85-25.98-20.17-22.35
						C1685.87,2960.58,1521.5,2997.34,1445.66,2943.29z"/>
				</g>
				<g class="st6">
					<path class="st4" d="M1918.36,2092.9c0,0,144.8,490.44,13.66,1153.01c0,0,31.69-17.27,57.84,1.22
						C1989.86,3247.12,2158.42,2677.69,1918.36,2092.9z"/>
				</g>
				<g>
					<path class="st1" d="M2073.58,3302.59l-0.82-1.18l-0.67-0.93c-0.44-0.61-0.87-1.17-1.29-1.72c-0.85-1.14-1.71-2.16-2.58-3.22
						c-1.74-2.05-3.51-4.04-5.33-5.95c-3.6-3.85-7.41-7.4-11.35-10.77c-7.85-6.75-16.19-12.82-24.98-18.08
						c-17.5-10.68-36.45-18.51-55.87-24.06c-2.42-0.71-4.88-1.29-7.31-1.94l-3.66-0.95c-1.22-0.29-2.46-0.54-3.69-0.8l-7.38-1.57
						l-7.41-1.28l-3.71-0.64l-3.72-0.51l-7.44-0.96c-2.48-0.3-4.97-0.47-7.45-0.7c-2.48-0.2-4.97-0.49-7.45-0.6
						c-19.88-1.23-39.71-0.68-59.26,1.33c-4.89,0.54-9.75,0.96-14.71,1.76l-7.39,1.11c-2.46,0.43-4.91,0.93-7.36,1.4
						c-9.81,1.83-19.52,4.36-29.1,7.24l-7.13,2.38l-3.56,1.2l-3.52,1.34c-2.34,0.9-4.69,1.77-7.02,2.71l-6.91,2.98
						c-9.12,4.17-18.1,8.7-26.55,14.13c-2.15,1.28-4.22,2.7-6.3,4.1c-2.08,1.4-4.14,2.82-6.13,4.34c-1.99,1.52-4.06,2.92-5.98,4.53
						c-1.93,1.6-3.88,3.15-5.78,4.77c-7.61,6.47-14.62,13.6-21.07,21.13c-6.42,7.56-12.21,15.62-17.21,24.1
						c-4.98,8.51-9.28,17.31-12.07,26.87c-0.3,1.02,0.29,2.1,1.31,2.4c0.79,0.23,1.6-0.06,2.07-0.68l0.08-0.11
						c2.8-3.65,5.88-7.27,8.99-10.71c3.09-3.48,6.33-6.81,9.6-10.06c6.58-6.47,13.35-12.62,20.48-18.26
						c14.16-11.38,29.36-21.01,45.26-29.03c15.9-8.01,32.58-14.37,49.79-18.89c8.66-2.08,17.34-4.09,26.2-5.34
						c2.21-0.33,4.41-0.69,6.62-0.99l6.67-0.73c4.4-0.59,8.98-0.84,13.51-1.21c18.12-1.28,36.22-1.43,54.09-0.11
						c17.87,1.32,35.46,4.27,52.5,8.81c16.96,4.74,33.44,10.99,48.6,19.47c7.57,4.24,14.85,8.94,21.64,14.15
						c3.39,2.61,6.68,5.34,9.77,8.16c1.55,1.41,3.04,2.86,4.48,4.3c0.68,0.72,1.41,1.46,2.05,2.16l0.94,1.03l0.42,0.47
						c0.11,0.12,0.3,0.35,0.24,0.24c4.6,6.58,13.67,8.18,20.24,3.57C2076.59,3318.23,2078.19,3309.16,2073.58,3302.59z"/>
				</g>
				<g>
					<path class="st1" d="M1500.6,3302.21l-0.85-1.15l-0.69-0.9l-1.33-1.68c-0.88-1.09-1.77-2.12-2.66-3.13
						c-1.79-2.02-3.61-3.95-5.47-5.83c-3.7-3.76-7.57-7.25-11.57-10.56c-7.99-6.63-16.44-12.58-25.29-17.8
						c-17.66-10.51-36.65-18.47-56.18-24.02c-19.52-5.62-39.56-8.86-59.56-10.28c-10-0.73-20.01-0.91-29.97-0.74
						c-9.97,0.16-19.89,0.77-29.76,1.73c-39.51,3.55-79.84,14.63-114.27,35.95c-17.17,10.65-32.74,23.84-45.73,39.05
						c-6.48,7.62-12.36,15.7-17.39,24.25c-5.02,8.58-9.37,17.43-12.17,27.07c-0.3,1.02,0.29,2.1,1.31,2.4
						c0.79,0.23,1.6-0.07,2.07-0.68l0.08-0.11c2.81-3.69,5.93-7.32,9.06-10.79c3.13-3.5,6.37-6.87,9.67-10.14
						c6.63-6.52,13.49-12.68,20.66-18.36c14.29-11.42,29.6-21.14,45.66-29.16c16.06-8,32.86-14.41,50.26-18.8
						c8.7-2.17,17.5-4.02,26.41-5.31c8.9-1.3,17.87-2.19,27.06-2.82c36.48-2.46,73.06-0.18,107.46,9.29
						c17.16,4.74,33.78,11.16,49.23,19.58c7.69,4.26,15.15,8.89,22.12,14.07c3.48,2.59,6.85,5.31,10.07,8.1
						c1.6,1.4,3.16,2.83,4.64,4.27l2.15,2.15l0.99,1.04l0.44,0.48l0.19,0.21l0.07,0.08c0.01,0.01,0.06,0.07-0.01-0.03
						c4.81,6.43,13.92,7.74,20.34,2.93C1504.1,3317.75,1505.41,3308.64,1500.6,3302.21z"/>
				</g>
				<g>
					<path class="st1" d="M1435.73,3047.27l-16.09-100.87c-0.33-2.05-2.26-3.45-4.31-3.12c-1.65,0.26-2.87,1.56-3.12,3.12
						l-16.09,100.87c-1.74,10.94,5.71,21.22,16.65,22.97c10.94,1.75,21.22-5.71,22.97-16.65
						C1436.07,3051.47,1436.04,3049.29,1435.73,3047.27z"/>
				</g>
				<g>
					<path class="st1" d="M1592.69,3059.41l3.13-0.9c1-0.3,2.02-0.57,2.99-0.89l5.87-1.87c3.86-1.33,7.74-2.61,11.54-4.05
						c7.65-2.78,15.18-5.83,22.66-9.02c3.74-1.58,7.44-3.27,11.14-4.96c3.71-1.64,7.37-3.42,11.01-5.24
						c3.63-1.84,7.32-3.52,10.89-5.48l10.75-5.77c7.09-4.05,14.17-8,21.03-12.46c6.96-4.19,13.63-8.99,20.3-13.61
						c13.13-9.71,25.69-20.28,36.73-32.23c1.54-1.67,1.44-4.27-0.23-5.81c-1.38-1.27-3.4-1.42-4.93-0.49l-0.1,0.06
						c-13.38,8.17-27.16,15.23-41.26,21.58c-7.17,3-14.21,6.11-21.47,8.83c-3.61,1.4-7.17,2.84-10.85,4.07l-10.9,3.92
						c-14.66,4.94-29.42,9.53-44.25,13.81c-7.4,2.18-14.83,4.25-22.23,6.28l-11.09,3.01l-10.8,2.88l-0.48,0.13
						c-10.57,2.82-16.85,13.68-14.03,24.25c2.82,10.57,13.68,16.85,24.25,14.03C1592.43,3059.48,1592.61,3059.43,1592.69,3059.41z"
						/>
				</g>
				<g>
					<path class="st1" d="M1974.83,3536.39l0.37-0.56l0.24-0.4l0.44-0.76l0.77-1.41c0.49-0.92,0.95-1.82,1.38-2.71
						c0.88-1.79,1.68-3.55,2.44-5.31c1.51-3.53,2.89-7.05,4.08-10.61c2.44-7.1,4.31-14.29,5.68-21.55
						c1.36-7.25,2.21-14.55,2.5-21.84c0.27-7.29-0.02-14.55-0.83-21.69c-0.76-7.14-2.22-14.16-4.1-20.95
						c-1.81-6.82-4.36-13.37-7.13-19.69c-5.76-12.6-13.16-24.08-21.66-34.38c5.73,12.07,9.9,24.68,12.21,37.35
						c1.05,6.36,1.84,12.68,1.9,19c0.13,6.3-0.15,12.54-1.03,18.66c-0.84,6.12-2.12,12.11-3.84,17.93
						c-1.74,5.82-3.91,11.46-6.43,16.88c-2.53,5.42-5.41,10.63-8.64,15.52c-1.59,2.46-3.3,4.81-5.03,7.06
						c-0.87,1.12-1.76,2.21-2.64,3.23c-0.44,0.52-0.88,1.01-1.31,1.47c-0.22,0.25-0.42,0.43-0.62,0.65
						c-0.11,0.11-0.19,0.19-0.28,0.26l-0.12,0.11c-0.05,0.05,0-0.05,0-0.06c-6.57,8.74-4.82,21.16,3.93,27.73
						C1955.84,3546.89,1968.25,3545.13,1974.83,3536.39z"/>
				</g>
				<g>
					<path class="st1" d="M1826.72,3536.39l0.37-0.56l0.24-0.4l0.44-0.76l0.77-1.41c0.49-0.92,0.95-1.82,1.38-2.71
						c0.88-1.79,1.68-3.55,2.44-5.31c1.51-3.53,2.89-7.05,4.08-10.61c2.44-7.1,4.31-14.29,5.68-21.55
						c1.36-7.25,2.21-14.55,2.5-21.84c0.27-7.29-0.02-14.55-0.83-21.69c-0.76-7.14-2.22-14.16-4.1-20.95
						c-1.81-6.82-4.36-13.37-7.13-19.69c-5.76-12.6-13.16-24.08-21.66-34.38c5.73,12.07,9.9,24.68,12.21,37.35
						c1.05,6.36,1.84,12.68,1.9,19c0.13,6.3-0.15,12.54-1.03,18.66c-0.84,6.12-2.12,12.11-3.84,17.93
						c-1.74,5.82-3.91,11.46-6.43,16.88c-2.53,5.42-5.41,10.63-8.64,15.52c-1.59,2.46-3.3,4.81-5.03,7.06
						c-0.87,1.12-1.76,2.21-2.64,3.23c-0.44,0.52-0.88,1.01-1.31,1.47c-0.22,0.25-0.42,0.43-0.62,0.65
						c-0.11,0.11-0.19,0.19-0.28,0.26l-0.12,0.11c-0.05,0.05,0-0.05,0-0.06c-6.57,8.74-4.82,21.16,3.93,27.73
						C1807.73,3546.89,1820.15,3545.13,1826.72,3536.39z"/>
				</g>
				<g>
					<path class="st1" d="M1403.46,3536.39l0.37-0.56l0.24-0.4l0.44-0.76l0.77-1.41c0.49-0.92,0.95-1.82,1.38-2.71
						c0.88-1.79,1.68-3.55,2.44-5.31c1.51-3.53,2.89-7.05,4.08-10.61c2.44-7.1,4.31-14.29,5.68-21.55
						c1.36-7.25,2.21-14.55,2.5-21.84c0.27-7.29-0.02-14.55-0.83-21.69c-0.76-7.14-2.22-14.16-4.1-20.95
						c-1.81-6.82-4.36-13.37-7.13-19.69c-5.76-12.6-13.16-24.08-21.66-34.38c5.73,12.07,9.9,24.68,12.21,37.35
						c1.05,6.36,1.84,12.68,1.9,19c0.13,6.3-0.15,12.54-1.03,18.66c-0.84,6.12-2.12,12.11-3.84,17.93
						c-1.74,5.82-3.91,11.46-6.43,16.88c-2.53,5.42-5.41,10.63-8.64,15.52c-1.59,2.46-3.3,4.81-5.03,7.06
						c-0.87,1.12-1.76,2.21-2.64,3.23c-0.44,0.52-0.88,1.01-1.31,1.47c-0.22,0.25-0.42,0.43-0.62,0.65
						c-0.11,0.11-0.19,0.19-0.28,0.26l-0.12,0.11c-0.05,0.05,0-0.05,0-0.06c-6.57,8.74-4.82,21.16,3.93,27.73
						C1384.47,3546.89,1396.89,3545.13,1403.46,3536.39z"/>
				</g>
				<g>
					<path class="st1" d="M1255.36,3536.39l0.37-0.56l0.24-0.4l0.44-0.76l0.77-1.41c0.49-0.92,0.95-1.82,1.38-2.71
						c0.88-1.79,1.68-3.55,2.44-5.31c1.51-3.53,2.89-7.05,4.08-10.61c2.44-7.1,4.31-14.29,5.68-21.55
						c1.36-7.25,2.21-14.55,2.5-21.84c0.27-7.29-0.02-14.55-0.83-21.69c-0.76-7.14-2.22-14.16-4.1-20.95
						c-1.81-6.82-4.36-13.37-7.13-19.69c-5.76-12.6-13.16-24.08-21.66-34.38c5.73,12.07,9.9,24.68,12.21,37.35
						c1.05,6.36,1.84,12.68,1.9,19c0.13,6.3-0.15,12.54-1.03,18.66c-0.84,6.12-2.12,12.11-3.84,17.93
						c-1.74,5.82-3.91,11.46-6.43,16.88c-2.53,5.42-5.41,10.63-8.64,15.52c-1.59,2.46-3.3,4.81-5.03,7.06
						c-0.87,1.12-1.76,2.21-2.64,3.23c-0.44,0.52-0.88,1.01-1.31,1.47c-0.22,0.25-0.42,0.43-0.62,0.65
						c-0.11,0.11-0.19,0.19-0.27,0.26l-0.12,0.11c-0.05,0.05,0-0.05,0-0.06c-6.57,8.74-4.82,21.16,3.93,27.73
						C1236.37,3546.89,1248.78,3545.13,1255.36,3536.39z"/>
				</g>
				<g class="st3">
					<path class="st1" d="M1148.74,2042.75c100.58,20.71,218.89,32.34,357.84,32.34h0.51c99.56,0,188.51-5.96,267.94-17.01
						c38.37-5.3,74.56-11.77,108.65-19.4l-57.7-90.48l-34.66-54.29l-8.28-13.01l-651.58,80.01l-14.9,1.74
						c-3.05,7.12-6.03,14.32-9.01,21.51c25.65,6.03,53.27,11.41,82.63,15.55C1190.17,1999.73,1171.42,2009.9,1148.74,2042.75z"/>
				</g>
				<g>
					<path class="st1" d="M1916.18,2093.92c3.82,11.56,7.39,23.3,10.94,34.95c3.45,11.71,6.87,23.4,10.13,35.14
						c6.61,23.43,12.71,46.97,18.56,70.54c11.61,47.16,22.06,94.49,31.22,142.08c9.2,47.58,16.32,95.54,21.89,143.65l2.11,18.04
						l1.7,18.09l1.7,18.08l0.86,9.04l0.66,9.06l2.64,36.22l1.79,36.28c0.75,12.08,0.91,24.19,1.27,36.29
						c0.26,12.1,0.82,24.2,0.7,36.31l0.13,36.31c0.04,3.03-0.02,6.05-0.09,9.08l-0.19,9.08l-0.39,18.15l-0.38,18.15
						c-0.15,6.05-0.51,12.09-0.76,18.14l-1.64,36.28c-0.76,12.08-1.68,24.15-2.49,36.23l-1.26,18.11c-0.18,3.02-0.46,6.04-0.77,9.05
						l-0.88,9.04l-3.43,36.16c-0.31,3.01-0.51,6.03-0.91,9.04l-1.1,9.01l-2.19,18.03l-2.16,18.04c-0.74,6.01-1.37,12.03-2.33,18.02
						l-5.28,35.96l-2.63,17.98l-3.09,17.91l-6.16,35.83l-1.55,8.96l-1.78,8.92l-3.52,17.84l-6.98,35.71l-0.21,1.05
						c-1.63,8.34,2.44,16.48,9.48,20.42l0,0l2.27,1.41l2.53,1.63c1.7,1.13,3.4,2.28,5.1,3.46c3.39,2.38,6.76,4.82,10.06,7.37
						c6.62,5.08,13.03,10.45,19.16,16.06c6.12,5.63,12.03,11.46,17.52,17.59c5.49,6.12,10.63,12.48,15.37,19.03
						c4.65,6.61,8.86,13.41,12.58,20.39c3.56,7.03,6.66,14.21,9.05,21.53c4.59,14.66,6.59,29.8,4.98,44.81
						c-0.57,7.5-2.34,14.95-4.38,22.37c-1.27,3.56-2.27,7.26-3.86,10.63l-1.08,2.58l-0.54,1.29c-0.2,0.42-0.42,0.82-0.63,1.23
						l-2.54,4.92c-3.66,6.37-7.92,12.29-12.86,17.63c-4.96,5.32-10.68,9.94-16.89,14.01c-12.44,8.12-27.1,13.66-42.61,16.87
						c-7.76,1.61-15.73,2.65-23.74,3.19c-4.01,0.27-8.03,0.41-12.02,0.39c-1.99,0-3.98-0.04-5.93-0.12l-2.88-0.14l-2.42-0.19
						l-0.94-0.07c-0.4-0.03-0.83-0.05-1.23-0.05h-199.04h-24.88h-12.44h-3.11l-2.61-0.06c-0.86-0.03-1.72-0.02-2.57-0.07l-2.56-0.19
						c-13.67-1.02-27-5.21-38.89-11.99c-11.88-6.79-22.26-16.25-30.14-27.44c-7.86-11.21-13.28-24.09-15.56-37.59l-0.43-2.53
						l-0.3-2.55c-0.24-1.7-0.35-3.41-0.47-5.12c-0.14-1.55-0.21-3.83-0.31-5.85l-0.27-6.2l-1.06-24.8l-1.88-49.6
						c-1.14-33.06-2.06-66.12-2.66-99.16c-0.59-33.03-0.88-66.05-0.6-98.98c0.31-32.91,1.11-65.81,3.32-98.21
						c0.75-10.94-7.52-20.42-18.46-21.16c-1.3-0.09-2.58-0.05-3.82,0.1l-0.17,0.03c-3.21,0.42-6.78,0.86-10.22,1.24l-10.46,1.13
						c-6.99,0.7-14,1.34-21.02,1.92c-14.04,1.15-28.11,2.01-42.18,2.61c-7.03,0.35-14.06,0.5-21.1,0.72
						c-7.02,0.08-14.06,0.29-21.07,0.22c-14.05,0.09-28.03-0.39-41.99-0.98l-0.07,0c-10.98-0.46-20.25,8.06-20.71,19.03
						c-0.03,0.81-0.01,1.72,0.05,2.5c0.33,4,0.66,8.29,0.94,12.48l0.8,12.67c0.5,8.46,0.9,16.94,1.26,25.42
						c0.68,16.96,1.05,33.93,1.14,50.88c0.13,16.95-0.21,33.87-0.83,50.74c-0.59,16.88-1.81,33.65-3.3,50.34
						c-0.74,8.29,3.68,15.85,10.61,19.51l0.28,0.14l1.52,0.8l1.77,0.97l3.61,2.05c2.42,1.42,4.84,2.89,7.24,4.41
						c4.8,3.03,9.53,6.24,14.14,9.61c9.25,6.68,17.98,14.02,26.12,21.8c16.23,15.59,29.81,33.46,38.35,52.92
						c4.26,9.72,7.23,19.82,8.69,30.09c0.72,5.14,1.12,10.32,1.1,15.52c0.16,2.59-0.18,5.2-0.28,7.81
						c-0.11,1.31-0.06,2.58-0.28,3.93l-0.51,4c-1.38,10.66-3.97,20.88-7.93,30.27c-3.89,9.44-9.39,17.85-16.05,25.23
						c-13.37,14.68-32.36,24.74-53.01,29.47c-2.57,0.56-5.15,1.11-7.72,1.51c-2.55,0.42-5.17,0.75-7.47,0.93
						c-0.55,0.04-1.21,0.09-1.09,0.07h-2.3h-4.59h-9.18l-36.73,0l-146.94,0h-73.47h-9.18h-4.59l-4.06-0.09
						c-2.66,0-5.31-0.28-7.97-0.43c-1.33-0.1-2.64-0.3-3.96-0.44c-1.32-0.15-2.64-0.28-3.95-0.52c-5.26-0.75-10.44-1.97-15.57-3.32
						c-5.08-1.53-10.15-3.15-15.02-5.27c-19.57-8.24-37.11-21.38-50.45-37.95c-13.34-16.56-22.53-36.38-26.4-57.31
						c-0.3-1.3-0.43-2.63-0.65-3.94l-0.31-1.97l-0.16-0.99l-0.15-1.13l-1.16-9.07l-2.3-18.13c-1.42-12.11-2.97-24.2-4.27-36.32
						l-2.02-18.17l-1.89-18.19l-1.86-18.19l-1.71-18.21c-4.52-48.56-8.09-97.22-10.75-145.92c-2.62-48.7-4.45-97.45-5.15-146.21
						c-0.69-48.76-0.42-97.52,0.77-146.25c1.37-48.72,3.8-97.4,7.15-146c2.02-24.27,3.7-48.57,6.26-72.78l1.78-18.17l0.89-9.09
						l1.05-9.07l4.21-36.27c0.65-6.05,1.55-12.07,2.34-18.1l2.45-18.09l2.45-18.09c0.83-6.03,1.84-12.02,2.76-18.04l5.61-36.05
						l6.36-35.92c1.09-5.98,2.06-11.98,3.24-17.95l3.58-17.88l3.58-17.88c1.23-5.95,2.29-11.94,3.69-17.85
						c5.36-23.7,10.4-47.47,16.55-70.97c23.22-94.33,53.81-186.7,91.45-275.95l0.08-0.18c4.25-10.08-0.47-21.7-10.55-25.95
						c-10.08-4.25-21.69,0.47-25.95,10.55c-38.59,91.45-69.8,185.83-93.47,281.93c-6.26,23.95-11.4,48.14-16.85,72.27
						c-1.42,6.02-2.5,12.11-3.75,18.16l-3.64,18.18l-3.64,18.18c-1.2,6.06-2.19,12.16-3.29,18.24l-6.47,36.5l-5.7,36.61
						c-0.93,6.11-1.95,12.2-2.8,18.32l-2.48,18.35l-2.48,18.35c-0.81,6.12-1.72,12.23-2.37,18.37l-4.27,36.79l-1.07,9.2l-0.9,9.21
						l-1.8,18.42c-2.59,24.55-4.3,49.17-6.34,73.76c-3.4,49.23-5.86,98.5-7.24,147.8c-1.21,49.3-1.48,98.61-0.78,147.9
						c0.71,49.29,2.55,98.55,5.2,147.76c2.68,49.21,6.29,98.37,10.86,147.44l1.73,18.4l1.88,18.39l1.91,18.38l2.05,18.37
						c1.32,12.25,2.88,24.48,4.32,36.72l2.33,18.34l1.17,9.17l0.15,1.15l0.2,1.28l0.4,2.57c0.29,1.71,0.48,3.43,0.86,5.13
						c5.05,27.3,17.09,53.31,34.52,74.92c17.42,21.64,40.29,38.79,65.9,49.58c6.38,2.76,13,4.92,19.66,6.9
						c6.71,1.8,13.49,3.37,20.37,4.36c1.71,0.31,3.44,0.49,5.16,0.69c1.73,0.19,3.45,0.43,5.18,0.56c3.46,0.23,6.92,0.55,10.39,0.57
						l5.13,0.1h4.6h9.2h73.62l147.24,0l36.81,0h9.2h4.6h2.3c1.65-0.02,2.51-0.11,3.49-0.18c3.82-0.29,7.27-0.75,10.77-1.32
						c3.49-0.55,6.91-1.26,10.32-2.02c13.59-3.14,26.85-8.01,39.35-14.86c6.27-3.37,12.29-7.34,17.99-11.77
						c5.75-4.36,11.06-9.38,16-14.72c9.79-10.77,17.79-23.24,23.27-36.47c5.58-13.21,8.97-26.98,10.74-40.61l0.64-5.12
						c0.25-1.68,0.26-3.49,0.4-5.23c0.16-3.52,0.53-7.02,0.37-10.56c0.02-7.06-0.52-14.13-1.5-21.12
						c-1.99-14-6.03-27.62-11.61-40.34c-5.58-12.74-12.66-24.58-20.66-35.49c-8.03-10.9-16.93-20.95-26.51-30.09
						c-9.58-9.15-19.67-17.62-30.29-25.29c-5.29-3.87-10.71-7.55-16.27-11.06c-2.78-1.76-5.6-3.47-8.46-5.15
						c-1.46-0.83-2.88-1.67-4.38-2.49l-2.27-1.23l-2.55-1.33l10.89,19.65c1.58-17.58,2.84-35.14,3.46-52.65
						c0.64-17.51,0.98-35,0.85-52.45c-0.09-17.46-0.47-34.89-1.17-52.31c-0.37-8.71-0.78-17.42-1.29-26.13l-0.83-13.08
						c-0.3-4.39-0.62-8.68-1-13.25l-20.73,21.53c14.69,0.63,29.38,1.12,44.02,1.03c7.33,0.07,14.63-0.15,21.95-0.23
						c7.3-0.22,14.61-0.38,21.9-0.74c14.59-0.62,29.15-1.51,43.69-2.71c7.27-0.6,14.54-1.26,21.82-1.99l10.93-1.18
						c3.68-0.41,7.23-0.84,11.13-1.36l-22.45-21.03c-2.3,33.79-3.1,67.26-3.42,100.68c-0.29,33.41,0,66.75,0.6,100.05
						c0.6,33.3,1.53,66.57,2.68,99.81l1.89,49.85l1.06,24.92l0.27,6.23c0.1,2.12,0.15,3.99,0.35,6.57c0.16,2.43,0.33,4.85,0.66,7.26
						l0.45,3.62l0.61,3.6c3.27,19.22,11,37.67,22.2,53.6c11.21,15.93,25.94,29.35,42.85,39.02c16.91,9.67,36,15.63,55.43,17.1
						l3.64,0.26c1.21,0.07,2.43,0.08,3.64,0.11l3.6,0.08h3.11h12.44h24.88h199.04l-2.17-0.12l2.28,0.21l1.96,0.14
						c1.27,0.07,2.55,0.15,3.79,0.19c2.51,0.1,4.97,0.15,7.44,0.15c4.93,0.02,9.81-0.16,14.7-0.48c9.76-0.66,19.51-1.92,29.21-3.94
						c19.35-4.02,38.69-11.08,56.16-22.45c8.69-5.68,16.92-12.35,24.14-20.07c7.2-7.73,13.41-16.35,18.59-25.45l3.6-6.95
						c0.29-0.58,0.6-1.16,0.88-1.75l0.76-1.79l1.51-3.57c2.16-4.74,3.58-9.64,5.24-14.49c0.75-2.44,1.3-4.9,1.95-7.35
						c0.61-2.46,1.31-4.88,1.7-7.43l1.34-7.57c0.1-0.63,0.23-1.26,0.32-1.89l0.19-1.92l0.38-3.84l0.36-3.84l0.18-1.92l0.04-1.93
						l0.14-7.73c0-0.64,0.03-1.29,0.01-1.93l-0.11-1.93l-0.22-3.85c-0.18-2.57-0.24-5.15-0.65-7.68l-1.03-7.63
						c-0.42-2.53-1-5.01-1.5-7.52l-0.79-3.75l-1.02-3.67c-0.7-2.44-1.33-4.91-2.11-7.32c-3.14-9.64-7.13-18.86-11.64-27.71
						c-4.65-8.76-9.85-17.12-15.46-25.09c-5.7-7.89-11.79-15.4-18.2-22.55c-6.41-7.15-13.2-13.86-20.2-20.29
						c-7.01-6.42-14.28-12.5-21.8-18.27c-3.75-2.9-7.6-5.69-11.5-8.43c-1.96-1.37-3.94-2.72-5.96-4.05l-3.09-2
						c-1.09-0.69-2.01-1.27-3.41-2.11l-0.01,0l9.27,21.47l8.28-36.1l4.11-18.06l2.04-9.04l1.79-9.09l7.03-36.38l3.49-18.2l2.95-18.3
						l5.87-36.6c1.04-6.09,1.75-12.23,2.57-18.36l2.39-18.38l2.36-18.39l1.17-9.2c0.41-3.06,0.64-6.15,0.98-9.22l3.67-36.9l0.9-9.23
						c0.31-3.08,0.61-6.15,0.79-9.24l1.3-18.5c0.84-12.33,1.8-24.66,2.51-37l1.54-37.06c0.23-6.18,0.57-12.35,0.71-18.53l0.25-18.55
						c1.14-49.45-0.39-98.93-3.07-148.3l-2.47-37.01l-3.35-36.94l-0.84-9.23l-1.04-9.21l-2.14-18.42l-2.16-18.41l-2.56-18.37
						c-6.68-48.99-15.43-97.68-26.1-145.95c-10.71-48.25-24.14-95.93-40.62-142.53c-8.29-23.28-17.2-46.34-27.26-68.92
						c-10.08-22.57-20.81-44.83-33.74-66.06c-0.69-1.14-2.18-1.5-3.32-0.81c-0.98,0.59-1.38,1.77-1.04,2.82L1916.18,2093.92z"/>
				</g>
			</g>
			<g>
				<path class="st2" d="M696.54,1731.44c110.72,162.15,344.43,292.8,810.02,292.8h0.53c459.57-0.07,693.09-127.55,805.39-286.99
					c42.39-60.08,67.47-124.71,81.01-188.75c46.35-219.65-43.77-432.57-43.77-432.57c63.05-429.27-26.8-705.64-81.27-825.53
					c-22.05-48.66-76.65-74.14-127.82-58.89c-194.04,57.57-388.6,323.17-388.6,323.17c-120.03-36.51-245.47-34.13-245.47-34.13
					s-125.44-2.38-245.47,34.13c0,0-194.57-265.6-388.6-323.17c-51.17-15.25-105.77,10.23-127.82,58.89
					c-54.47,119.89-144.32,396.26-81.27,825.53C663.4,1115.92,515.25,1465.96,696.54,1731.44z"/>
			</g>
			<g>
				<path class="st4" d="M657.92,1641.05c10.43,32.02,23.44,62.13,38.62,90.38c110.72,162.15,344.43,292.8,810.02,292.8h0.53
					c459.57-0.07,693.09-127.55,805.39-286.99c17.23-30.04,31.69-62.06,42.72-96.19c0,0,53.87-181.49-43.44-295.12
					c-97.38-113.62-232.13-65.23-293.27,22.91c-61.2,88.14-202.22,71.63-278.35,11.22c-76.12-60.41-136.47-92.83-233.58-92.83
					s-157.46,32.42-233.58,92.83c-76.12,60.41-217.14,76.91-278.35-11.22c-61.14-88.14-195.89-136.53-293.27-22.91
					C604.05,1459.56,657.92,1641.05,657.92,1641.05z"/>
			</g>
			<g class="st7">
				<path class="st1" d="M1296.84,1475.01c-0.67-11.55,13.86-17.29,21.23-8.38c19.88,24.04,41.09,36.12,85.08,33.75
					c52.67-2.84,45.46-80.8,45.46-80.8h57.94h57.94c0,0-7.21,77.96,45.46,80.8c43.99,2.37,65.2-9.71,85.08-33.75
					c7.37-8.91,21.9-3.17,21.23,8.38c-1.75,30.22-14.65,71.56-69.11,85.59c-84.77,21.85-137.97,7.31-140.61-118.91
					c-2.63,126.22-55.83,140.76-140.61,118.91C1311.5,1546.57,1298.6,1505.23,1296.84,1475.01z"/>
			</g>
			<g>
				<path class="st1" d="M1387.25,1391.71c2.17-29.7,36.25-44.65,67.44-52.13c34.05-8.17,69.7-8.17,103.74,0
					c31.18,7.48,65.27,22.43,67.44,52.13c2.82,38.6-56.11,65.42-92.18,78.16c-17.58,6.21-36.67,6.21-54.25,0
					C1443.36,1457.14,1384.43,1430.31,1387.25,1391.71z"/>
			</g>
			<g>
				<ellipse class="st8" cx="1506.07" cy="1367.45" rx="64.64" ry="11.19"/>
			</g>
			<g>
				<path class="st9" d="M1594.6,1574.81v174.64c-7.68,40.4-42.97,69.99-83.74,70.47c-41.51,0.49-77.96-29.32-85.79-70.47
					c0-60.94-1.79-102.21-1.79-163.15c0,0,71.42-57.18,74.39-76.72S1555.8,1584,1594.6,1574.81z"/>
				<path class="st1" d="M1406.21,1594.73c37.55,0,67.39-12.05,88.7-35.8c39.75-44.32,32.77-112.95,32.45-115.84
					c-1.25-11.49-11.57-19.79-23.07-18.53c-11.47,1.25-19.76,11.56-18.54,23.03c0.11,1.12,5.01,53.45-22.12,83.53
					c-13.21,14.65-31.99,21.77-57.42,21.77c-29.89,0-52.33-7.74-66.68-23.02c-21.14-22.49-19.36-55.41-19.34-55.74
					c0.85-11.53-7.81-21.5-19.33-22.35c-11.51-0.85-21.56,7.86-22.41,19.39c-0.15,2.06-3.33,50.84,30.18,86.92
					C1331.21,1582.4,1364.04,1594.73,1406.21,1594.73z"/>
			</g>
			<g>
				<path class="st1" d="M1606.9,1594.73c42.17,0,75-12.33,97.59-36.65c33.52-36.08,30.33-84.86,30.18-86.92
					c-0.85-11.53-10.89-20.18-22.41-19.33c-11.53,0.85-20.18,10.88-19.33,22.41c0.01,0.21,1.79,33.14-19.35,55.62
					c-14.36,15.27-36.79,23.02-66.68,23.02c-25.51,0-44.33-7.16-57.54-21.89c-26.97-30.08-22.06-82.84-22.01-83.36
					c1.25-11.49-7.04-21.82-18.53-23.07c-11.49-1.26-21.82,7.04-23.07,18.53c-0.32,2.9-7.29,71.53,32.45,115.84
					C1539.51,1582.69,1569.35,1594.73,1606.9,1594.73z"/>
			</g>
			<g>
				<path class="st4" d="M2172.72,824.45c-49.22-42.33-134.08-109.21-238.64-166.81c-13-7.16-18.63-22.85-13.29-36.69
					c24.64-63.89,138.94-211.3,201.18-233.94c92.45-33.63,102.89,283.91,99.86,415.59C2221.26,827.71,2191.77,840.83,2172.72,824.45
					z"/>
			</g>
			<g>
				<path class="st4" d="M840.39,824.45c49.22-42.33,134.08-109.21,238.64-166.81c13-7.16,18.63-22.85,13.29-36.69
					c-24.64-63.89-138.94-211.3-201.18-233.94c-92.45-33.63-102.89,283.91-99.86,415.59C791.85,827.71,821.34,840.83,840.39,824.45z
					"/>
			</g>
			<g class="st7">
				<path class="st1" d="M623.86,1251.16c-7.18,110.8,8.34,242.16,86.99,357.33c108.76,159.28,338.35,287.63,795.71,287.63h0.52
					c451.45-0.06,680.85-125.3,791.16-281.92c41.64-59.02,66.28-122.51,79.58-185.42c12.93-61.28,15.03-122.01,11.44-177.58
					c16.58,80.54,27.28,188.07,4.23,297.29c-13.53,64.04-38.62,128.68-81.01,188.75c-112.3,159.44-345.82,286.93-805.39,286.99
					h-0.53c-465.58,0-699.3-130.66-810.02-292.8C586.33,1570.05,597.87,1377.42,623.86,1251.16z"/>
			</g>
			<g class="st6">
				<path class="st4" d="M872.49,231.5c194.04,57.57,388.6,323.17,388.6,323.17c120.03-36.51,245.47-34.13,245.47-34.13
					s125.44-2.38,245.47,34.13c0,0,194.57-265.6,388.6-323.17c47.38-14.12,97.65,6.73,122.35,48.52
					c-22.27-7.94-47.03-9.12-71.1-1.95c-167.09,49.58-334.54,241.88-395.71,318.01c-14.19,17.67-36.95,25.61-59.05,21.44
					c-4.43,25.13-52.96,38.96-109.17,30.9c-54.27-7.78-95.88-33.12-96.18-57.69c-15.93-0.44-25.2-0.27-25.2-0.27
					s-110.4-2.09-227.27,26.49c-23.1,5.65-47.43-2.35-62.33-20.89c-61.17-76.13-228.62-268.43-395.71-318.01
					c-24.07-7.17-48.83-5.99-71.1,1.95C774.84,238.22,825.11,217.37,872.49,231.5z"/>
			</g>
			<g>
				<path class="st1" d="M1506.56,2044.04c221.99,0,407.07-29.92,550.12-88.92c123.74-51.04,218.02-124.52,280.21-218.38
					c41.6-62.78,69.07-135.07,81.66-214.86c10-63.39,10.66-131.6,1.96-202.73c-12.89-105.48-42.18-184.9-50.4-205.72
					c27.11-187.84,27.99-365.91,2.61-529.33c-21.85-140.69-58.95-241.83-86.22-301.9c-26.16-57.62-91.3-87.59-151.52-69.71
					c-83.68,24.83-176.37,88.16-275.48,188.23c-56.36,56.9-97.99,108.96-115.04,131.09c-115.17-32.35-229.11-31.23-237.9-31.09
					c-8.79-0.13-122.73-1.26-237.9,31.09c-17.04-22.13-58.68-74.2-115.04-131.09c-99.11-100.06-191.8-163.39-275.48-188.23
					c-60.22-17.87-125.36,12.1-151.52,69.71c-27.27,60.07-64.37,161.21-86.22,301.9c-25.38,163.42-24.5,341.49,2.61,529.33
					c-8.22,20.82-37.51,100.24-50.4,205.72c-8.69,71.14-8.03,139.35,1.96,202.73c12.58,79.79,40.06,152.08,81.66,214.86
					c62.2,93.86,156.47,167.34,280.21,218.38C1099.48,2014.12,1284.57,2044.04,1506.56,2044.04z M2170.51,246.93
					c33.49,0,65.39,19.64,79.91,51.64c56.24,123.88,141.39,394.4,79.72,814.44c-0.53,3.59-0.06,7.26,1.36,10.6
					c0.35,0.84,35.89,86,49.84,201.54c12.72,105.34,9.58,258.5-77.61,389.92c-127.38,192-395.58,289.36-797.17,289.36
					s-669.79-97.35-797.17-289.36c-87.19-131.42-90.33-284.58-77.61-389.92c13.95-115.54,49.49-200.7,49.84-201.55
					c1.41-3.34,1.88-7,1.35-10.59c-61.67-420.04,23.47-690.57,79.72-814.44c18.03-39.71,62.81-60.39,104.18-48.11
					c185.28,54.99,376.35,313.29,378.26,315.9c4.97,6.78,13.69,9.69,21.73,7.24c115.44-35.09,238.11-33.29,239.33-33.27
					c0.25,0,0.49,0,0.74,0c1.21-0.02,123.88-1.82,239.32,33.27c8.05,2.45,16.77-0.46,21.74-7.25
					c1.91-2.6,192.98-260.91,378.25-315.89C2154.27,248.07,2162.44,246.93,2170.51,246.93z"/>
			</g>
			<g>
				<g>
					<path class="st2" d="M138.45,1703.51c33.07,53.78,86.84,146.58,150.87,249.12c141.06,226.08,331.75,499.48,458.78,505.65
						c100.72,4.87,188.22-40.48,246.79-82.63c48.84-35.1,77.69-68.02,77.69-68.02c2.04-25.87,4.87-49.64,8.36-71.51
						c15.48-99.2,43.82-158.79,67.8-193.38c22.67-32.85,41.42-43.02,41.42-43.02c-29.36-4.14-56.97-9.52-82.63-15.55
						c-115.84-27.32-189.75-68.17-189.75-68.17l-47.96,25l-60.39,31.47l-181.32-225.79l-21.73-27.11c0,0,51.16-160.39,4.36-225.28
						c-46.66-64.9-108.28,29.87-108.28,29.87c-51.23-157.63-156.25-177.47-234-163.44c-25.73,4.51-48.47,12.86-65.41,21.08
						C134.89,1415.08,32.71,1531.35,138.45,1703.51z"/>
				</g>
				<g>
					<path class="st4" d="M138.47,1703.54c33.05,53.72,86.84,146.52,150.82,249.13c181.53,2.79,283.31-104.87,338.84-205.98
						l-21.73-27.09c0,0,51.15-160.41,4.38-225.29c-46.7-64.89-108.34,29.88-108.34,29.88c-68.13-209.75-231.25-175.65-299.38-142.37
						C134.92,1415.1,32.69,1531.36,138.47,1703.54z"/>
				</g>
				<g class="st10">
					<path class="st5" d="M138.47,1703.54c33.05,53.72,86.84,146.52,150.82,249.13c141.09,226.05,331.75,499.47,458.81,505.59
						c175.12,8.52,311.19-134.75,324.74-149.52c1.03-1.12,1.22-2.86,1.22-2.86c4.95-12.84,4.1-28.86,0.21-33.28
						c-10.44-11.86-69.97,28.85-120.51,54.38c0,0-73.48,37.12-162.55,51.23c-161.26,25.55-320.13-247.68-573.43-683.32
						c-18.57-31.95-53.42-93.78-43.76-170.64c10.07-80.17,63.47-136.16,94.46-163.56c-25.73,4.53-48.51,12.9-65.41,21.13
						C134.92,1415.1,32.69,1531.36,138.47,1703.54z"/>
				</g>
				<g class="st3">
					<path class="st1" d="M869.83,1941.01c59.81,35.39,132.34,65.48,219.98,88.15c18.97,4.87,38.59,9.45,58.94,13.59
						c22.67-32.85,41.42-43.02,41.42-43.02c-29.36-4.14-56.97-9.52-82.63-15.55c-115.84-27.32-189.75-68.17-189.75-68.17
						L869.83,1941.01z"/>
				</g>
				<g>
					<path class="st1" d="M1070.47,2305.85c-10.15,5.36-19.77,11.04-29.26,16.64c-9.51,5.59-18.75,11.28-27.95,16.9l-54.32,33.54
						c-35.71,22.36-74.01,40.31-113.92,50.86c-19.93,5.29-40.23,8.75-60.57,10.08c-10.17,0.67-20.35,0.81-30.5,0.4l-3.8-0.16
						l-0.94-0.04l-0.77-0.07l-1.53-0.12c-2.05-0.2-4.12-0.44-6.23-0.83c-4.2-0.72-8.49-1.79-12.81-3.15
						c-17.36-5.53-34.91-15.53-51.59-27.24c-16.73-11.78-32.77-25.41-48.25-39.85c-15.46-14.5-30.37-29.88-44.85-45.76
						c-14.51-15.87-28.59-32.26-42.35-48.99c-27.52-33.47-53.76-68.25-79.22-103.69c-51.02-70.83-98.78-144.36-145.42-218.68
						c-46.59-74.42-91.47-149.87-137-225.61c-5.71-9.47-11.49-18.93-17.34-28.41l-2.1-3.43l-2-3.31c-1.36-2.2-2.62-4.43-3.89-6.66
						l-1.91-3.34l-1.82-3.38c-1.23-2.25-2.44-4.5-3.58-6.78c-9.32-18.15-16.79-36.97-21.69-56.14c-2.47-9.58-4.25-19.25-5.31-28.92
						c-0.59-4.84-0.85-9.68-1.08-14.51c-0.1-4.83-0.16-9.66,0.12-14.46c0.9-19.21,5.01-38.12,12.29-55.9
						c7.27-17.77,17.58-34.45,30.26-49.25c12.67-14.75,27.78-27.79,44.08-37.48c4.12-2.44,8.02-4.47,12.57-6.62
						c4.45-2.1,9.02-4.05,13.67-5.86c9.3-3.62,18.88-6.66,28.58-9.08c19.41-4.81,39.32-7.09,58.81-6.29
						c19.49,0.82,38.54,4.91,56.09,12.56c17.56,7.62,33.62,18.71,47.55,32.56c13.99,13.8,26.01,30.13,36.06,47.97
						c5.04,8.91,9.6,18.19,13.76,27.72c4.19,9.52,7.98,19.29,11.43,29.23c3.6,10.35,14.91,15.83,25.27,12.22
						c4.16-1.45,7.54-4.14,9.85-7.52l0.04-0.06l1.24-1.8l1.47-2.05c1-1.37,2.04-2.75,3.1-4.11c2.12-2.72,4.32-5.39,6.59-7.97
						c4.53-5.15,9.32-9.97,14.27-14.16c4.94-4.18,10.07-7.73,15-10.13c2.46-1.19,4.84-2.09,7.07-2.68c2.22-0.56,4.26-0.8,6.12-0.79
						c3.68,0.13,6.91,1.12,10.65,3.71c1.84,1.28,3.73,2.93,5.59,4.89c1.84,1.93,3.72,4.33,5.36,6.68
						c6.39,9.19,10.56,21.6,12.83,34.92c2.31,13.35,2.91,27.6,2.53,42c-0.4,14.42-1.8,29.03-3.86,43.64
						c-2.06,14.61-4.79,29.23-8.02,43.76c-1.61,7.27-3.36,14.51-5.23,21.71c-0.93,3.6-1.9,7.18-2.9,10.75l-1.52,5.31l-1.53,5.07
						l-0.09,0.29c-1.93,6.4-0.37,13.11,3.49,17.98l203.1,252.79c5.97,7.43,16.25,9.37,24.39,5.12l108.31-56.44l-18.58-0.23
						l2.29,1.23l2.13,1.11l4.2,2.14c2.78,1.39,5.57,2.76,8.35,4.1c5.56,2.68,11.14,5.23,16.74,7.74
						c11.19,4.99,22.47,9.69,33.82,14.15c22.72,8.89,45.74,16.89,69.05,23.95c23.29,7.1,46.87,13.25,70.64,18.55
						c23.78,5.25,47.76,9.63,71.89,13.06c10.74,1.53,20.69-5.94,22.22-16.68c1.53-10.74-5.94-20.69-16.68-22.22l-0.05-0.01
						c-23.09-3.29-46.07-7.48-68.86-12.51c-22.78-5.09-45.4-10.98-67.73-17.79c-22.35-6.76-44.41-14.43-66.11-22.92
						c-10.84-4.26-21.58-8.74-32.17-13.46c-5.29-2.37-10.55-4.78-15.73-7.27c-2.59-1.24-5.16-2.51-7.71-3.78l-3.77-1.92l-3.49-1.85
						l-0.33-0.18c-5.89-3.11-12.74-2.87-18.25-0.05l-108.31,56.44l24.39,5.12l-203.1-252.79l3.4,18.27l1.8-5.95l1.65-5.75
						c1.07-3.83,2.1-7.65,3.1-11.48c1.99-7.66,3.84-15.34,5.56-23.06c3.43-15.44,6.34-31.02,8.57-46.81
						c2.22-15.79,3.77-31.78,4.23-48.06c0.42-16.28-0.19-32.85-3.09-49.78c-1.47-8.46-3.53-17-6.59-25.54
						c-3.06-8.52-7.1-17.06-12.69-25.09c-2.76-3.93-5.63-7.59-9.06-11.24c-3.42-3.61-7.29-7.09-11.76-10.19
						c-4.46-3.09-9.51-5.82-15.07-7.69c-5.53-1.88-11.47-2.92-17.29-3.03c-5.81-0.08-11.45,0.7-16.66,2.04
						c-5.2,1.36-10,3.25-14.45,5.41c-8.87,4.36-16.37,9.74-23.15,15.45c-6.77,5.73-12.81,11.85-18.41,18.22
						c-2.8,3.19-5.49,6.44-8.08,9.78c-1.3,1.67-2.57,3.36-3.83,5.09l-1.88,2.63l-0.95,1.37l-1.06,1.58l35.16,4.64
						c-6.8-21.99-15.24-43.75-26.27-64.62c-11.01-20.85-24.66-40.86-41.61-58.49c-16.92-17.6-37.35-32.54-60.03-42.96
						c-22.66-10.49-47.32-16.29-71.81-17.84c-24.54-1.6-48.9,0.91-72.34,6.27c-11.73,2.71-23.25,6.15-34.57,10.33
						c-5.66,2.09-11.26,4.37-16.82,6.88c-5.46,2.44-11.4,5.4-16.79,8.52c-21.77,12.57-40.61,28.52-56.94,46.93
						c-16.24,18.43-29.78,39.49-39.41,62.43c-9.68,22.91-15.34,47.63-16.75,72.42c-0.41,6.2-0.42,12.4-0.34,18.58
						c0.2,6.17,0.5,12.35,1.16,18.46c1.2,12.25,3.37,24.32,6.31,36.09c5.85,23.58,14.66,46.02,25.31,67.13
						c1.3,2.66,2.69,5.27,4.08,7.87l2.08,3.91l2.16,3.85c1.44,2.56,2.88,5.13,4.39,7.64l2.25,3.78l2.18,3.63l16.93,28.12
						l67.72,113.58c22.73,37.88,45.83,75.6,69.29,113.13c11.74,18.76,23.59,37.47,35.56,56.1c12.01,18.62,24.15,37.16,36.44,55.62
						c24.6,36.91,49.79,73.49,75.94,109.5c26.22,35.96,53.33,71.4,82.03,105.82c28.73,34.4,58.95,67.87,92.64,98.83
						c16.9,15.43,34.65,30.27,54.1,43.67c4.88,3.34,9.83,6.61,14.96,9.72c5.1,3.14,10.35,6.14,15.77,8.97
						c5.4,2.85,10.97,5.53,16.76,7.96c5.78,2.43,11.72,4.69,17.94,6.56c6.21,1.88,12.64,3.43,19.31,4.5
						c3.32,0.55,6.73,0.95,10.17,1.22l2.59,0.17l1.3,0.08l1.12,0.03l4.45,0.13c11.88,0.3,23.75-0.03,35.56-0.97
						c23.61-1.88,46.91-6.21,69.47-12.55c22.57-6.34,44.45-14.64,65.43-24.5c20.97-9.89,41.18-21.15,60.38-33.79
						c19.14-12.74,36.75-27.64,52.39-44.38c7.81-8.39,15.12-17.25,21.73-26.69c1.65-2.36,3.3-4.71,4.84-7.17
						c1.57-2.42,3.1-4.87,4.55-7.39c2.92-5.03,5.65-10.13,7.93-15.69c0.62-1.52-0.11-3.25-1.62-3.86c-0.84-0.34-1.74-0.27-2.49,0.12
						L1070.47,2305.85z"/>
				</g>
			</g>
			<g>
				<g>
					
						<ellipse transform="matrix(0.2484 -0.9687 0.9687 0.2484 -822.903 3615.5239)" class="st4" cx="1918.36" cy="2338.03" rx="238.65" ry="189.51"/>
				</g>
				<g class="st0">
					<path class="st1" d="M1734.79,2290.96c32.74-127.67,141.47-210.1,242.85-184.1c10.44,2.68,20.36,6.45,29.78,11.11
						c-83.74,8.15-162.6,82.65-189.63,188.08c-29.37,114.53,12.42,226.52,94.51,267.14c-17.67,1.72-35.55,0.55-53.22-3.98
						C1757.7,2543.21,1702.05,2418.63,1734.79,2290.96z"/>
				</g>
				<g>
					<path class="st1" d="M1897.39,2593.85c41.47,0,83.2-14.76,120.82-43.29c49.42-37.46,85.96-94.48,102.9-160.54
						c16.94-66.06,12.34-133.63-12.95-190.25c-25.99-58.19-70.6-98-125.61-112.1c-55.01-14.11-113.27-0.67-164.05,37.82
						c-49.42,37.46-85.96,94.48-102.9,160.54c-16.94,66.06-12.34,133.63,12.95,190.25c25.99,58.18,70.6,98,125.61,112.1
						C1868.41,2592.05,1882.89,2593.85,1897.39,2593.85z M1939.53,2121.87c11.18,0,22.29,1.38,33.19,4.18
						c43.06,11.04,78.32,42.96,99.28,89.89c21.66,48.49,25.48,106.82,10.75,164.25c-14.73,57.43-46.14,106.73-88.46,138.81
						c-40.95,31.05-87.22,42.06-130.28,31.02c-90.64-23.24-140-137.25-110.03-254.14l0,0c14.73-57.43,46.14-106.73,88.46-138.81
						C1873.02,2133.88,1906.57,2121.87,1939.53,2121.87z"/>
				</g>
			</g>
			<g>
				<g>
					<g>
						<g>
							<g>
								<path d="M1814.38,1083.85c67.77-12.95,136.19,47.07,152.81,134.06c16.63,86.99-24.84,168.01-92.61,180.96
									c-67.77,12.95-136.19-47.07-152.81-134.06C1705.15,1177.82,1746.61,1096.8,1814.38,1083.85z"/>
							</g>
						</g>
					</g>
					<g>
						<g>
							<g>
								<path class="st8" d="M1822.17,1120.21c22.41,5.89,34.2,34.89,26.35,64.77c-7.86,29.88-32.39,49.32-54.8,43.43
									c-22.41-5.89-34.2-34.89-26.35-64.77C1775.22,1133.76,1799.76,1114.31,1822.17,1120.21z"/>
							</g>
						</g>
					</g>
					<g class="st3">
						<g>
							<g>
								<path class="st1" d="M1910.72,1301.98c10.85,5.74,13.44,22.11,5.79,36.58c-7.65,14.46-22.64,21.54-33.49,15.8
									c-10.85-5.74-13.44-22.11-5.79-36.58C1884.88,1303.31,1899.88,1296.24,1910.72,1301.98z"/>
							</g>
						</g>
					</g>
				</g>
				<g>
					<g>
						<g>
							<g>
								<path d="M1198.73,1083.85c-67.77-12.95-136.19,47.07-152.81,134.06c-16.63,86.99,24.83,168.01,92.61,180.96
									c67.77,12.95,136.19-47.07,152.81-134.06C1307.97,1177.82,1266.5,1096.8,1198.73,1083.85z"/>
							</g>
						</g>
					</g>
					<g>
						<g>
							<g>
								<path class="st8" d="M1190.95,1120.21c-22.41,5.89-34.2,34.89-26.35,64.77c7.86,29.88,32.39,49.32,54.8,43.43
									c22.41-5.89,34.2-34.89,26.35-64.77C1237.89,1133.76,1213.36,1114.31,1190.95,1120.21z"/>
							</g>
						</g>
					</g>
					<g class="st3">
						<g>
							<g>
								<path class="st1" d="M1102.39,1301.98c-10.85,5.74-13.44,22.11-5.79,36.58c7.65,14.46,22.64,21.54,33.49,15.8
									c10.85-5.74,13.44-22.11,5.79-36.58C1128.23,1303.31,1113.24,1296.24,1102.39,1301.98z"/>
							</g>
						</g>
					</g>
				</g>
			</g>
			<g>
				<line class="st4" x1="1507.94" y1="1539.22" x2="1507.94" y2="1717.28"/>
				<path class="st1" d="M1514.12,1539.23c3.02,44.44,2.62,89.08-0.17,133.54c-1.15,14.91-2.64,29.75-5.45,44.51c0,0-1.11,0-1.11,0
					c-5.4-29.38-6.71-59.26-7.36-89.03c-0.43-22.26-0.45-44.52,0.46-66.77c0.29-7.43,0.66-14.84,1.28-22.26
					C1501.77,1539.23,1514.12,1539.23,1514.12,1539.23L1514.12,1539.23z"/>
			</g>
			<path class="st1" d="M1995.46,1055.49c7.56-6.68-31.8-101.84-114.89-130.21c-100.86-34.43-208.49,49.22-205.28,58.21
				c2.8,7.86,88.91-44.72,188.43-15.32C1948.29,993.16,1988.69,1061.46,1995.46,1055.49z"/>
			<path class="st1" d="M1008.97,1055.49c-7.56-6.68,31.8-101.84,114.89-130.21c100.86-34.43,208.49,49.22,205.28,58.21
				c-2.8,7.86-88.91-44.72-188.43-15.32C1056.14,993.16,1015.73,1061.46,1008.97,1055.49z"/>
			<g class="st11">
				<path class="st2" d="M882.48,798.76c33.68-28.97,91.75-74.73,163.3-114.15c8.89-4.9,12.75-15.63,9.09-25.11
					c-16.86-43.72-95.07-144.59-137.67-160.09c-63.27-23.01-70.41,194.28-68.34,284.38C849.26,800.99,869.44,809.97,882.48,798.76z"
					/>
			</g>
			<g class="st11">
				<path class="st2" d="M2140.46,798.76c-33.68-28.97-91.75-74.73-163.3-114.15c-8.89-4.9-12.75-15.63-9.09-25.11
					c16.86-43.72,95.07-144.59,137.67-160.09c63.27-23.01,70.41,194.28,68.34,284.38C2173.68,800.99,2153.5,809.97,2140.46,798.76z"
					/>
			</g>
			<path class="st12" d="M616.73,1555.15c0,0-23.49-57.19-63.32-30.64c-39.83,26.55-48.51,72.51-69.45,48.51
				c-10.01-11.47-25.22-91.44-54.13-128.43c-31.58-40.4-75.57-63.32-75.57-63.32s60.26-19.91,88.85,25.02
				c28.6,44.94,27.8,124.32,68.43,93.45C565.2,1458.97,630.82,1491.99,616.73,1555.15z"/>
		</g>
	</g>
</g>
</svg>
