<?xml version="1.0" encoding="utf-8"?>
<!-- Generator: Adobe Illustrator 25.3.1, SVG Export Plug-In . SVG Version: 6.00 Build 0)  -->
<svg version="1.1" id="Layer_1" xmlns="http://www.w3.org/2000/svg" xmlns:xlink="http://www.w3.org/1999/xlink" x="0px" y="0px"
	 viewBox="0 0 4000 4000" style="enable-background:new 0 0 4000 4000;" xml:space="preserve">
<style type="text/css">
	.st0{fill:#FEE8EA;}
	.st1{opacity:0.35;}
	.st2{fill:#3F2039;}
	.st3{opacity:0.2;}
	.st4{fill:#FFFFFF;}
	.st5{fill:#000072;}
	.st6{fill:#623D5A;}
	.st7{opacity:0.3;}
	.st8{fill:#FCCE00;}
	.st9{opacity:0.6;}
	.st10{fill:#F9A528;}
	.st11{fill:#F7F7F7;}
	.st12{opacity:0.4;}
	.st13{fill:#08BF08;}
	.st14{opacity:0.22;}
</style>
<g>
	<g>
		
			<ellipse transform="matrix(0.9877 -0.1562 0.1562 0.9877 -438.5248 244.6965)" class="st0" cx="1337.64" cy="2912.5" rx="141.37" ry="158.19"/>
	</g>
	<g class="st1">
		<path class="st2" d="M1224.56,3003.28c-47.25-71.28-34.93-169.71,27.52-219.85c6.43-5.16,13.15-9.57,20.06-13.32
			c-36.91,53.41-38.55,130.76,0.47,189.62c42.39,63.94,118.31,84.28,178.57,51.6c-7.79,11.27-17.11,21.5-27.99,30.23
			C1360.75,3091.7,1271.82,3074.56,1224.56,3003.28z"/>
	</g>
	<g>
		<path class="st2" d="M1454.14,3028.62c20.28-24.81,33.36-55.76,37.63-89.82c5.6-44.74-4.78-89.69-29.23-126.57
			c-24.45-36.88-60.18-61.49-100.6-69.28c-41.54-8.01-83.07,2.57-116.96,29.77c-33.88,27.2-55.71,67.5-61.47,113.48
			c-5.6,44.74,4.78,89.69,29.23,126.57c24.45,36.88,60.18,61.49,100.6,69.28c41.54,8.01,83.07-2.57,116.96-29.77
			C1439.08,3045.23,1447.05,3037.3,1454.14,3028.62z M1240.88,2812.31c5.47-6.69,11.58-12.78,18.3-18.17
			c26.52-21.29,59.58-29.47,93.08-23.01c34.61,6.67,65.38,28,86.64,60.07c21.26,32.07,30.32,70.82,25.53,109.13
			c-4.64,37.07-21.8,69.22-48.33,90.52c-55.84,44.83-136.46,28.2-179.72-37.06l0,0c-21.26-32.07-30.32-70.82-25.53-109.13
			C1214.32,2856.97,1224.77,2832.04,1240.88,2812.31z"/>
	</g>
</g>
<g>
	<g>
		<g class="st3">
			<ellipse class="st2" cx="2075" cy="3567.18" rx="1037.5" ry="112.82"/>
		</g>
		<g>
			<path class="st0" d="M1611.7,3330.74c6.23,47.95,15.39,92.33,27.34,132.21c17.87,59.65,113.57,112.36,253.73,112.36
				c140.15,0,227.15-50.3,227.15-112.36c0-30.91-21.62-58.95-60.73-79.3c5.47-34.85,12.08-67.21,19.46-97.1
				C2078.65,3286.54,1874.71,3215.51,1611.7,3330.74z"/>
		</g>
		<g>
			<path class="st2" d="M2006.16,3439.14c3.55,7.7,6.19,15.86,8.23,23.91c2.12,8.04,3.52,16.18,4.57,24.23
				c1.04,8.07,1.46,16.14,1.64,24.14c0.2,7.99-0.18,15.97-0.44,23.85l-0.01,0.36c-0.38,11.39,8.55,20.94,19.94,21.32
				c11.39,0.38,20.94-8.55,21.32-19.94c0.05-1.54-0.09-3.15-0.36-4.6c-0.89-4.62-1.88-9.19-2.96-13.73
				c-1.32-4.53-2.46-9.03-4.04-13.47c-2.86-8.9-6.78-17.47-10.87-25.77c-4.35-8.24-9.31-16.09-14.9-23.38
				c-5.75-7.22-11.88-13.96-19.44-19.37c-0.83-0.6-1.99-0.41-2.59,0.43c-0.4,0.56-0.45,1.27-0.18,1.85L2006.16,3439.14z"/>
		</g>
		<g>
			<path class="st2" d="M1897.94,3460.39c2.28,7.33,3.69,14.98,4.56,22.45c0.96,7.48,1.24,14.95,1.23,22.31
				c-0.02,7.38-0.6,14.67-1.38,21.88c-0.77,7.2-2.05,14.32-3.22,21.37l-0.05,0.32c-1.69,10.19,5.2,19.82,15.39,21.51
				c10.19,1.69,19.82-5.2,21.51-15.39c0.23-1.38,0.29-2.84,0.22-4.18c-0.26-4.25-0.6-8.48-1.03-12.69
				c-0.65-4.23-1.14-8.41-2.03-12.58c-1.52-8.33-4.02-16.49-6.71-24.44c-2.94-7.91-6.45-15.56-10.62-22.77
				c-4.31-7.16-9.02-13.94-15.17-19.7c-0.68-0.64-1.74-0.6-2.37,0.08c-0.43,0.45-0.55,1.09-0.38,1.64L1897.94,3460.39z"/>
		</g>
		<g>
			<path class="st0" d="M2253.21,3314.08c15.52,83.24,26.2,159.93,51.95,184.92c54.05,52.46,236.88,36.56,400.62,28.62
				c163.75-7.95,109.69-165.34,30.84-190.77c-14.5-4.71-30.71-6.42-47.5-6.04v-0.06c3.69-22.32,7.06-44.39,10.24-66.13
				c0,0-100.09-32.12-207.43,11.26c-163.75,66.13-238.66,38.22-238.66,38.22H2253.21z"/>
		</g>
		<g>
			<path class="st4" d="M1437.06,3120.72l8.43,29.55c18.5-3.98,36.43-9.71,53.55-17.11l-5.31-18.61
				C1475.33,3119.99,1456.21,3122.34,1437.06,3120.72z"/>
		</g>
		<g>
			<path class="st5" d="M1517.77,2805.06c-3.6-6.17-7.57-12.33-12.56-17.8c-4.77-5.68-10.49-10.68-16.75-15.13
				c-12.54-8.93-28.1-14.59-44.37-15.71c-16.29-1.23-32.93,2.45-47.76,9.71c-7.38,3.73-14.34,8.32-20.74,13.66
				c-6.33,5.42-11.97,11.66-16.94,18.45c-9.78,13.65-16.45,29.93-18.62,46.83c-0.69,4.22-0.85,8.46-1.07,12.71
				c0.03,4.17,0.29,8.29,0.48,12.44c0.82,8.22,2.15,16.44,4.5,24.33c9.05,31.76,29.29,59.01,54.34,78.05
				c6.16,5,12.86,9.04,19.49,13.25c6.88,3.64,13.66,7.6,20.85,10.46c14.16,6.41,28.99,10.74,43.92,13.89l11.26,1.97
				c1.82,0.37,3.79,0.61,5.88,0.73l6.11,0.48c4.07,0.19,8.17,0.84,12.22,0.58l12.18-0.56c4.09-0.04,8.02-0.89,12.01-1.48
				c3.95-0.71,8.01-1.14,11.87-2.14c7.67-2.12,15.52-3.92,22.74-7.09c14.92-5.38,28.42-13.3,41.38-21.77
				c6.19-4.63,12.62-8.97,18.22-14.29c2.85-2.6,5.85-5.03,8.56-7.78l8.04-8.33c10.33-11.49,19.88-23.79,27.18-37.99
				c7.4-14.05,13.33-29.47,15.31-46.88c1.41-12.34-7.46-23.49-19.8-24.9c-11.63-1.33-22.2,6.47-24.56,17.7l-0.23,1.14
				c-2,9.65-6.56,19.82-12.32,29.53c-5.67,9.82-13.49,18.83-21.53,27.35c-8.2,8.53-17.69,15.72-27.31,22.48
				c-9.94,6.19-20.16,12.1-31.01,15.72c-5.3,2.31-10.85,3.31-16.25,5c-2.72,0.75-5.49,0.95-8.23,1.49
				c-2.74,0.41-5.49,1.13-8.23,1.07l-8.23,0.43c-2.75,0.26-5.44-0.32-8.16-0.4l-4.08-0.26c-1.33-0.03-2.74-0.18-4.25-0.5l-8.87-1.51
				c-11.7-2.36-23.31-5.28-34.08-9.94c-5.57-1.99-10.59-4.91-15.85-7.44c-4.9-3.04-10.01-5.84-14.5-9.38
				c-18.64-13.29-33.24-31.46-40.04-51.97c-3.4-10.08-4.98-21.24-4.23-31.27c0.3-5.11,1.28-10.15,2.79-15.06
				c1.48-4.91,3.49-9.73,6.16-14.22c10.27-18.23,29.69-32.05,51.69-34.69c11.02-1.48,22.58,0.29,33.84,4.6
				c11.19,4.49,21.9,11.68,31.79,20.55l0.15,0.13c2.06,1.85,5.22,1.68,7.07-0.38C1518.66,2809.28,1518.83,2806.89,1517.77,2805.06z"
				/>
		</g>
		<g>
			<path class="st6" d="M1645.98,2608.79c-0.57,48.78,1.02,77.84,1.02,77.84c58.38,104.92,30.14,198.59-32.69,252.39l0.44,0.51
				c-17.04,140.6-18.25,276.05-3.05,391.21c263.01-115.23,466.95-44.2,466.95-44.2c23.34-94.56,54.18-164.38,79.87-211.37h0.06
				c54.94,47.69,77.71,147.27,94.62,238.91h0.06c0,0,74.91,27.92,238.66-38.22c107.34-43.37,207.43-11.26,207.43-11.26
				c78.6-535.63,18.95-908.21-45.47-1127.47l0.32-0.06c156.56-9.03,259.39-65.25,324.82-138.44
				c-243.55-31.03-295.25-309.11-295.25-309.11c-49.28,32.94-130.42,56.02-262.18,30.01c-290.42-57.36-954.24,3.18-1060.25,477.95
				c-37.14,166.42-62.32,302.12-72.56,411.3C1464.74,2519.89,1645.98,2608.79,1645.98,2608.79z"/>
		</g>
		<g>
			<path class="st0" d="M1403.76,2969.1c73.38,33.7,155.35,17.23,210.55-30.08c62.83-53.8,91.06-147.47,32.69-252.39
				c0,0-1.59-29.06-1.02-77.84c0,0-181.23-88.9-357.19,0C1269.77,2811.07,1301.89,2922.23,1403.76,2969.1z"/>
		</g>
		<g class="st7">
			<path class="st2" d="M1288.79,2608.79c10.24-109.18,35.42-244.89,72.56-411.3c90.97-407.45,592.77-509.8,916.82-494.38
				c-314.8,14.29-710.86,136.9-790.68,494.38c-37.14,166.42-62.32,302.12-72.56,411.3c-4.13,43.9-5.84,78.77-4.96,109.4
				c1.89,65.5,52.91,120.26,118.33,123.97c27.39,1.55,51.8-6.65,64.46-35.77l5.15,36.03l31.55,16.85l25.06,21.75l-10.29,24.45
				h-189.99c18.78,28.04,43.81,48.97,75.66,63.63c6.07,2.79,12.22,5.11,18.39,7.22c-45.32,15.29-96.73,14.73-144.54-7.22
				C1301.89,2922.23,1269.77,2811.07,1288.79,2608.79z"/>
		</g>
		<g>
			<path class="st0" d="M1776.24,2288.43c-22.73,280.84,33.45,518.35,336.02,546.04c302.58,27.69,498.73-185.98,497.28-472.36
				c-1.45-286.37-203.11-716.68-519.88-666.22C1670.84,1762.63,1804.65,1937.52,1776.24,2288.43z"/>
		</g>
		<g>
			<path class="st8" d="M2350.89,1748.45c0,0-7.67,134.65-148.79,217.22c-293.43,171.68-548.41-37.64-548.41-37.64L2350.89,1748.45"
				/>
		</g>
		<g class="st7">
			<path class="st2" d="M1443.63,1899.1c-10.15-21.85-19.63-43.27-28.58-64.33c47.06-36.98,101.52-59.17,161.92-49.03
				c163.64,27.47,226.8-132.09,247.31-207.66c13.86-51.07,47.07-93.08,94.02-114.02c32.31-14.41,74.49-22.06,127.76-11.38
				c151.39,30.36,304.97,30.1,296.33-165.22c0-0.02,0-0.03,0-0.04c14.76,19.81,30.03,39.26,45.97,58.17
				c39.22,46.53,68.42,91.11,83.77,129.73c102.76,258.73-73.12,417.68-351.59,535.09C1841.99,2127.76,1562.98,2156.2,1443.63,1899.1
				z"/>
		</g>
		<g>
			<path class="st2" d="M1960.82,2055.59c75.66,0,162.36-17.69,252.64-70.5c149.81-87.65,159.55-229.37,159.89-235.36
				c0.41-7.17-2.63-14.11-8.18-18.66c-5.55-4.56-12.94-6.2-19.9-4.4l-697.2,179.58c-8.21,2.11-14.53,8.66-16.36,16.93
				c-1.83,8.27,1.15,16.88,7.69,22.25c2.74,2.25,68.36,55.51,171.83,87.31C1852.58,2045.44,1903.54,2055.59,1960.82,2055.59z
				 M2322.57,1778.98c-11.06,41.62-42.63,115.08-131.84,167.27c-115.52,67.59-238.21,82.37-364.66,43.97
				c-50.05-15.21-90.92-36.21-118.56-52.82L2322.57,1778.98z"/>
		</g>
		<g>
			<polygon class="st8" points="2068.2,2099.72 1969.57,2028.99 2002.29,1945.01 2146.63,1898.36 2218.11,1953.78 2196.44,2042.49 
							"/>
		</g>
		<g>
			<path class="st2" d="M2068.2,2122.22c3.11,0,6.23-0.64,9.17-1.95l128.24-57.23c6.35-2.84,11.04-8.45,12.69-15.21l21.67-88.72
				c2.11-8.63-1.05-17.69-8.07-23.12l-71.48-55.42c-5.88-4.55-13.63-5.91-20.71-3.63l-144.34,46.66
				c-6.43,2.08-11.59,6.94-14.04,13.24l-32.72,83.98c-3.73,9.58-0.5,20.46,7.85,26.45l98.62,70.73
				C2058.97,2120.79,2063.57,2122.22,2068.2,2122.22z M2177.2,2026.44l-106.38,47.48l-73.94-53.03l22.5-57.75l122.86-39.72
				l50.56,39.19L2177.2,2026.44z"/>
		</g>
		<g>
			<path class="st8" d="M2068.2,2099.73l128.24-57.23c0,0,100.69,148.37,187.59,430.29c0,0-42.39,136.72-118.7,201.9l-198.72-104.92
				C2066.61,2569.77,2080.92,2233.79,2068.2,2099.73z"/>
		</g>
		<g class="st9">
			<path class="st4" d="M2335.54,2485.51c-76.05-246.71-162.65-391.14-183.1-423.38l44-19.63c0,0,100.69,148.37,187.59,430.29
				c0,0-42.39,136.72-118.7,201.9l-23.48-12.4C2302.34,2592.48,2335.54,2485.51,2335.54,2485.51z"/>
		</g>
		<g class="st7">
			<path class="st2" d="M2065.16,2101.46l-99.45-71.32l34.16-87.68l146.75-44.1l64.59,61.78l-55.11,11.9
				c-46.01,9.93-58.42,69.71-20.18,97.14l0,0c8.24,89.16,4.64,269.51,1.36,379.1c-1.68,55.91,28.61,107.87,78.08,133.99l93.33,49.27
				c-12.42,16.93-26.2,32.67-41.29,45.57l-1.64,1.4l-202.41-106.87l0.09-2.01C2063.57,2566.29,2077.48,2234.71,2065.16,2101.46z"/>
		</g>
		<g>
			<path class="st2" d="M2265.32,2697.19c5.25,0,10.45-1.84,14.62-5.39c80.33-68.62,123.77-206.51,125.58-212.35
				c1.34-4.33,1.35-8.96,0.01-13.29c-86.9-281.9-186.29-430.13-190.48-436.3c-6.12-9.01-17.84-12.35-27.79-7.91l-128.24,57.23
				c-8.82,3.94-14.14,13.06-13.23,22.67c12.43,130.99-1.53,463.61-1.67,466.96c-0.37,8.68,4.29,16.8,11.98,20.85l198.72,104.93
				C2258.13,2696.34,2261.74,2697.19,2265.32,2697.19z M2360.4,2472.56c-8.71,25.41-43.66,119.97-98.65,174.81l-172.09-90.87
				c2.49-63.39,11.49-316.09,2.28-442.72l95.86-42.78C2214.82,2115.5,2291.95,2252.8,2360.4,2472.56z"/>
		</g>
		<g>
			<path class="st2" d="M2680.75,3422.83c2.84,8.34,4.69,17.07,5.93,25.61c1.33,8.55,1.89,17.11,2.1,25.55
				c0.21,8.46-0.23,16.85-0.91,25.14c-0.66,8.29-1.91,16.49-3.04,24.61l-0.05,0.37c-1.62,11.74,6.58,22.57,18.31,24.2
				c11.74,1.63,22.57-6.57,24.2-18.31c0.22-1.59,0.25-3.27,0.12-4.8c-0.42-4.87-0.95-9.71-1.58-14.52
				c-0.88-4.83-1.56-9.61-2.72-14.36c-2-9.51-5.12-18.79-8.45-27.82c-3.61-8.99-7.88-17.64-12.88-25.78
				c-5.16-8.08-10.77-15.71-18.01-22.13c-0.8-0.71-2.01-0.63-2.72,0.16c-0.48,0.53-0.6,1.26-0.38,1.89L2680.75,3422.83z"/>
		</g>
		<g>
			<path class="st2" d="M2566.57,3433.11c1.56,7.83,2.19,15.89,2.29,23.71c0.18,7.84-0.33,15.59-1.13,23.2
				c-0.82,7.63-2.2,15.11-3.79,22.47c-1.57,7.37-3.67,14.59-5.64,21.75l-0.09,0.32c-2.85,10.35,3.23,21.06,13.59,23.91
				c10.35,2.85,21.06-3.23,23.91-13.59c0.39-1.4,0.61-2.91,0.68-4.3c0.2-4.43,0.29-8.83,0.3-13.23c-0.21-4.44-0.27-8.82-0.74-13.22
				c-0.67-8.78-2.38-17.49-4.3-25.99c-2.18-8.5-4.99-16.78-8.52-24.69c-3.68-7.87-7.82-15.39-13.55-22.01
				c-0.63-0.73-1.73-0.81-2.46-0.18c-0.49,0.42-0.69,1.06-0.57,1.66L2566.57,3433.11z"/>
		</g>
		<g>
			<path class="st10" d="M1892.77,3350.64c70.27,0,127.18,12.65,166.42,33"/>
		</g>
		<g>
			<path class="st6" d="M1694.79,2912.46c106.23,58.14,248.76,93.71,405.45,93.71c240.97,0,448.47-84.14,541.92-205.11"/>
		</g>
		<g>
			<path class="st10" d="M2689.12,3330.8c-74.27,1.34-159.8,42.61-159.8,42.61"/>
		</g>
		<g>
			<path class="st10" d="M2557.04,1898.35c0,0,49.73,78.34,96.85,238.78"/>
		</g>
		<g>
			<path class="st10" d="M1645.98,2608.79c1.14-105.18,12.34-302.18,70.97-497.66"/>
		</g>
		<g>
			<path class="st10" d="M1892.77,3350.64c70.27,0,127.18,12.65,166.42,33"/>
		</g>
		<g class="st7">
			<path class="st2" d="M1847.88,3573.4c14.37,1.27,29.38,1.91,44.9,1.91c140.15,0,227.15-50.3,227.15-112.36
				c0-30.91-21.62-58.95-60.73-79.3c5.47-34.85,12.08-67.21,19.46-97.1c12.59-51.06,114.27-249.15,129.28-286.09
				c-49.37,0.01-88.01,11.45-136.65,5.72c0,0-59.47,185.81-82.8,280.37c-7.38,29.89-13.99,62.26-19.46,97.1
				c39.11,20.35,60.73,48.39,60.73,79.3C2029.75,3518.01,1961.26,3563.86,1847.88,3573.4z"/>
		</g>
		<g>
			<path class="st10" d="M2158.52,3075.17c27.73-50.62,49.41-74.72,49.41-74.72"/>
		</g>
		<g>
			<path class="st10" d="M2689.12,3330.8c-74.27,1.34-159.8,42.61-159.8,42.61"/>
		</g>
		<g>
			<path class="st10" d="M2557.04,1898.35c0,0,49.73,78.34,96.85,238.78"/>
		</g>
		<g>
			<path class="st10" d="M1645.98,2608.79c1.14-105.18,12.34-302.18,70.97-497.66"/>
		</g>
		<g>
			<path class="st0" d="M2683.78,1689.52c0,0,51.7,278.08,295.25,309.11c106.96-119.61,114.21-284.63,92.72-364.06
				c-24.55-90.55-88.96-168.9-176.02-168.84c-74.59,0-131.06,55.52-139.39,130.04C2756.34,1595.79,2743.11,1649.78,2683.78,1689.52z
				"/>
		</g>
		<g>
			<path class="st2" d="M1892.79,3597.81c147,0,249.66-55.45,249.66-134.84c0-79.39-102.66-134.84-249.66-134.84
				c-12.43,0-22.5,10.07-22.5,22.5s10.07,22.5,22.5,22.5c132.93,0,204.66,46.29,204.66,89.84s-71.73,89.84-204.66,89.84
				c-132.04,0-218.19-49.62-232.2-96.31c-39.46-131.44-47.81-314.08-23.5-514.28c1.5-12.33-7.29-23.55-19.62-25.04
				c-12.32-1.48-23.55,7.29-25.05,19.62c-25.04,206.22-16.13,395.39,25.07,532.64C1640.18,3545.02,1753.39,3597.81,1892.79,3597.81z
				"/>
		</g>
		<g>
			<path class="st2" d="M1757.79,2947.61c33.09,19.39,68.19,35.03,104.31,46.88c18,6.16,36.3,11.22,54.72,15.68
				c9.2,2.3,18.48,4.12,27.72,6.2c9.3,1.72,18.6,3.48,27.94,4.91c9.35,1.33,18.67,2.92,28.05,3.91c9.37,1.12,18.73,2.3,28.14,2.93
				c9.39,0.85,18.8,1.4,28.2,1.83c9.4,0.6,18.81,0.7,28.21,0.94c37.55,0.73,75.38-1.54,112.7-6.2
				c74.64-9.61,147.84-30.35,215.3-63.05c33.59-16.53,65.97-35.74,95.25-59.02c29.24-23.17,56.19-49.62,76.99-80.42
				c1.11-1.64,0.68-3.86-0.96-4.97c-1.5-1.01-3.5-0.74-4.67,0.58l-0.02,0.02c-24.12,26.99-52.26,49.8-82.6,68.86
				c-30.37,19.03-62.59,34.88-95.92,47.7c-66.61,25.82-137.11,40.44-207.88,45.5c-17.71,1.17-35.43,1.95-53.15,1.92
				c-17.69,0-35.47-0.69-53.19-1.64c-8.86-0.58-17.72-1.02-26.54-1.94c-8.83-0.75-17.65-1.62-26.43-2.77
				c-17.6-1.96-35.09-4.58-52.48-7.64c-69.52-12.33-137.27-33.24-199.68-64.06l-0.29-0.14c-12.39-6.11-27.38-1.03-33.5,11.35
				C1742.17,2926.78,1746.61,2941.02,1757.79,2947.61z"/>
		</g>
		<g>
			<path class="st2" d="M2550.73,1902.38c24.42,54.55,43.73,112.1,61.37,169.4c17.31,57.59,32.18,115.83,45.37,174.51
				c26.68,117.26,44.88,236.98,51.49,357.62c2.26,30.11,2.91,60.33,4.23,90.51l0.74,45.32l0.34,22.66
				c0.08,7.55-0.1,15.11-0.13,22.67l-0.41,45.34c-0.19,15.11-0.92,30.22-1.35,45.34c-0.61,15.11-0.76,30.23-1.74,45.33l-2.59,45.3
				c-7.45,120.78-21.52,241.2-41.15,360.76c-2.01,12.26,6.3,23.83,18.56,25.85s23.84-6.3,25.85-18.56l0-0.01
				c19.85-120.9,34.11-242.81,41.66-365.24l2.62-45.93c0.99-15.3,1.15-30.65,1.77-45.98c0.44-15.33,1.17-30.66,1.37-46l0.42-46.03
				c0.04-7.67,0.21-15.34,0.13-23.02l-0.34-23.02l-0.76-46.04c-1.34-30.68-2.01-61.39-4.3-92.04
				c-3.62-61.33-9.75-122.55-17.78-183.55c-8.1-60.98-17.8-121.9-31.88-181.98c-13.99-60.08-32.16-119.28-54.58-176.88
				c-11.42-28.73-23.89-57.06-37.97-84.63c-7.06-13.78-14.39-27.41-22.4-40.7c-7.94-13.39-16.23-26.28-25.88-39.03
				c-2.51-3.31-7.22-3.96-10.53-1.46c-2.85,2.15-3.73,5.94-2.33,9.06L2550.73,1902.38z"/>
		</g>
		<g>
			<path class="st2" d="M1484.97,3009.21c37.11,0,74.3-9.35,107.67-27.89c59.78-33.21,98.82-89.78,107.09-155.18
				c1.56-12.33-7.17-23.59-19.5-25.15c-12.28-1.51-23.59,7.17-25.15,19.5c-6.46,51.03-37.19,95.31-84.3,121.49
				c-48.79,27.11-107.71,29.58-157.64,6.66c-133.18-61.19-140.71-249.49-29.83-746.22c56.08-251.23,273.32-368.14,445.69-421.98
				c210.02-65.6,446.75-66.78,588.19-38.82c158.53,31.31,247.78-7.13,294.75-44.89c52.72-42.4,65.7-93.41,66.23-95.57
				c0.23-0.94,0.4-1.89,0.51-2.86c7.23-64.77,55.35-110.02,117.03-110.05c0.01,0,0.04,0,0.06,0c83.44,0,135.23,81.99,154.25,152.21
				c17.78,65.66,15.22,203.59-64.67,314.48c-70.06,97.25-181.92,150.98-332.46,159.69c-12.41,0.72-21.88,11.35-21.16,23.76
				c0.72,12.4,11.39,21.95,23.76,21.16c162.41-9.39,289.1-71.05,366.37-178.31c83.42-115.79,95.58-263.91,71.59-352.54
				c-30.5-112.67-108.1-185.45-197.69-185.45c-0.03,0-0.05,0-0.07,0c-83.44,0.04-151.1,62.3-161.52,148.29
				c-4.38,15.06-52.75,156.42-308.24,105.93c-136.26-26.91-377.88-32.59-610.33,40.01c-183.7,57.38-415.43,182.92-476.19,455.13
				c-103.61,464.19-123.56,714.89,54.96,796.91C1423,3002.67,1453.96,3009.21,1484.97,3009.21z"/>
		</g>
		<g>
			<path class="st2" d="M1710.56,2109.21c-5.64,11.03-10.57,22.33-15.39,33.69c-2.32,5.71-4.82,11.38-7,17.14l-6.09,17.41
				c-3.88,11.67-7.6,23.4-11.14,35.19c-3.24,11.85-6.08,23.79-8.93,35.74c-2.92,11.94-5.47,23.95-7.44,36.07
				c-2.14,12.08-4.15,24.19-5.93,36.33c-3.02,24.35-6.25,48.65-8.79,73.02c-5.62,48.67-9.79,97.5-11.91,146.43l-1.35,36.72
				l-0.67,36.76c-0.15,24.62,0,48.85,1.11,74.01c0.13,3.02,0.96,5.84,2.32,8.32l0.17,0.31c9.46,17.1,17.15,34.99,22.26,53.4
				c5.12,18.39,7.61,37.29,7.01,55.97l0,0.07c-0.36,11.04,8.3,20.28,19.34,20.64c11.04,0.36,20.28-8.29,20.63-19.33
				c0.76-23.13-2.36-46.16-8.44-68.03c-6.08-21.91-15.06-42.68-25.85-62.15l2.49,8.63c-1.02-23.3-1.21-47.59-1.05-71.48l0.65-35.99
				l1.33-36c2.13-47.99,6.07-95.92,11.79-143.58c2.59-23.88,6.86-47.51,10.62-71.2c2.08-11.81,4.35-23.57,6.27-35.4
				c1.04-5.9,1.95-11.82,2.85-17.75c1.07-5.89,2.22-11.77,3.15-17.69c7.25-47.48,16.26-94.39,20.76-143.39l0.01-0.13
				c0.34-3.73-2.4-7.03-6.13-7.37C1714.38,2105.29,1711.79,2106.83,1710.56,2109.21z"/>
		</g>
		<g>
			<path class="st2" d="M1892.79,3595.31c145.52,0,247.16-54.42,247.16-132.34s-101.64-132.34-247.16-132.34c-11.04,0-20,8.96-20,20
				c0,11.04,8.96,20,20,20c134.56,0,207.16,47.58,207.16,92.34s-72.6,92.34-207.16,92.34c-134.68,0-219.96-49.35-234.6-98.1
				c-39.56-131.76-47.93-314.77-23.59-515.3c1.33-10.97-6.48-20.94-17.44-22.27c-10.97-1.28-20.94,6.48-22.26,17.44
				c-25,205.89-16.12,394.69,24.99,531.63C1642.26,3543.25,1754.49,3595.31,1892.79,3595.31z"/>
		</g>
		<g>
			<path class="st2" d="M2059.23,3406.17c10.89,0,20.46-7.92,22.2-19.02c39.63-253,142.21-370.53,143.24-371.68
				c8.25-9.26,7.47-23.47-1.77-31.75c-9.24-8.28-23.42-7.53-31.72,1.68c-4.57,5.08-112.33,127.35-154.22,394.79
				c-1.92,12.28,6.47,23.79,18.75,25.71C2056.9,3406.08,2058.07,3406.17,2059.23,3406.17z"/>
		</g>
		<g>
			<path class="st2" d="M2489.69,3558.76c51.74,0,108.8-3.02,167.06-6.1c16.8-0.88,33.56-1.77,50.12-2.57
				c104.48-5.07,123.69-65.43,127.1-91.15c7.74-58.41-34.5-125.47-90.41-143.51c-12.99-4.19-27.68-6.58-43.66-7.1
				c-12.3-0.18-22.82,9.34-23.22,21.76c-0.41,12.42,9.34,22.82,21.76,23.22c11.78,0.38,22.32,2.05,31.31,4.95
				c34.93,11.27,64.46,58.22,59.62,94.77c-5.3,39.94-48.97,50.38-84.67,52.11c-16.63,0.81-33.45,1.7-50.31,2.59
				c-136.88,7.24-292.03,15.43-333.55-24.87c-17.25-16.74-28.64-79.98-39.65-141.14c-19-105.49-40.52-225.06-107.87-283.56
				c-9.39-8.14-23.6-7.15-31.74,2.23c-8.15,9.38-7.15,23.59,2.23,31.74c55.38,48.11,76.29,164.25,93.09,257.56
				c13.95,77.46,24.96,138.64,52.59,165.46C2324.89,3549.51,2399.11,3558.76,2489.69,3558.76z"/>
		</g>
		<g>
			<path class="st6" d="M1457.81,812.29c0,0-412.28-32.86-535.22,100.69s358.57,568.08,358.57,568.08"/>
		</g>
		<g class="st9">
			<path class="st11" d="M922.59,968.76c-7.54,8.19-12.78,17.53-16.03,27.82c-8.1-35.63-4.49-66.33,16.03-88.62
				c122.94-133.54,535.22-100.68,535.22-100.68l-15.79,59.76C1365.48,862.67,1031.19,850.8,922.59,968.76z"/>
		</g>
		<g>
			<path class="st0" d="M1363.13,925.4c0,0-256.61-18.88-333.13,57.85c-76.52,76.73,223.18,326.4,223.18,326.4"/>
			<path class="st2" d="M1253.17,1330.9c6.09,0,12.13-2.6,16.34-7.65c7.51-9.02,6.29-22.42-2.72-29.93
				c-62.27-51.89-224.61-202.64-227.99-276.03c-0.51-10.94,3.33-16.1,6.25-19.04c57.06-57.21,247.84-56.69,316.53-51.67
				c11.65,0.8,21.89-7.93,22.75-19.63c0.86-11.7-7.93-21.89-19.63-22.75c-27.26-2.01-268.67-17.25-349.73,64.04
				c-13.11,13.14-19.55,30.79-18.62,51.01c4.85,105.21,218.85,286.41,243.24,306.72C1243.55,1329.28,1248.38,1330.9,1253.17,1330.9z
				"/>
		</g>
		<g class="st7">
			<path class="st2" d="M1030.01,983.25c4.34-4.35,9.28-8.38,14.7-12.13c10.2,24.25,28.08,51.22,49.51,78.29
				c69.9,88.32,210.61,60.02,241.59-48.26l21.78-76.1c3.58,0.21,5.56,0.35,5.56,0.35l-109.95,384.25
				C1253.18,1309.65,953.48,1059.98,1030.01,983.25z"/>
		</g>
		<g>
			<path class="st2" d="M1281.16,1503.55c6.15,0,12.27-2.5,16.71-7.43c8.33-9.22,7.6-23.45-1.63-31.78
				c-101.14-91.28-364.96-357.45-371.13-491c-0.89-19.15,3.71-33.92,14.04-45.14c114.11-123.95,512.87-93.81,516.89-93.5
				c12.38,1.02,23.23-8.26,24.21-20.64c0.99-12.38-8.25-23.22-20.64-24.21c-17.28-1.39-424.68-32.12-553.56,107.88
				c-18.63,20.23-27.33,46.37-25.88,77.71c8.31,179.56,370.52,508.4,385.93,522.31C1270.39,1501.64,1275.78,1503.55,1281.16,1503.55
				z"/>
		</g>
		<g>
			<path class="st6" d="M2294.82,869.5c0,0-67.43-408.05-226.66-495.2c-159.22-87.15-464.97,484.86-464.97,484.86"/>
		</g>
		<g class="st9">
			<path class="st11" d="M2068.17,445.31c-124.07-67.91-337.1,264.4-425.11,414.45l-39.85-0.59c0,0,305.74-572.02,464.97-484.86
				c159.22,87.15,226.66,495.2,226.66,495.2l-14.4-0.21C2253.07,748.33,2185.58,509.58,2068.17,445.31z"/>
		</g>
		<g>
			<path class="st0" d="M2187.5,813.44c0,0-43.45-253.35-136.26-309.08c-92.81-55.73-262.76,294.95-262.76,294.95"/>
			<path class="st2" d="M2187.47,835.91c1.26,0,2.54-0.1,3.83-0.33c12.24-2.1,20.45-13.72,18.35-25.95
				c-4.63-26.97-48.05-265.22-146.85-324.55c-16.21-9.74-35.21-11.78-54.94-5.9c-101.36,30.18-225.77,281.73-239.63,310.32
				c-5.42,11.17-0.75,24.62,10.42,30.03c11.18,5.41,24.62,0.74,30.04-10.42c49.02-101.09,149.92-268.35,212-286.84
				c9.89-2.94,15.33-0.82,18.96,1.36c68.8,41.31,114.05,225.95,125.68,293.6C2167.23,828.19,2176.73,835.91,2187.47,835.91z"/>
		</g>
		<g class="st7">
			<path class="st2" d="M2051.24,504.37c0.44,0.27,0.87,0.57,1.31,0.84c-2.18,2.16-4.36,4.37-6.54,6.65
				c-92.73,97-25.87,258.3,108.24,263.05l25.64,0.91c5.1,22.98,7.61,37.62,7.61,37.62l-399.03-14.13
				C1788.47,799.32,1958.43,448.64,2051.24,504.37z"/>
		</g>
		<g>
			<path class="st2" d="M2294.79,892.01c1.22,0,2.45-0.1,3.7-0.31c12.26-2.03,20.56-13.6,18.53-25.86
				c-2.83-17.1-71.14-419.91-238.05-511.27c-24.12-13.2-51.59-15.36-81.65-6.4c-172.27,51.33-404.17,482.09-413.96,500.4
				c-5.86,10.96-1.72,24.59,9.24,30.45c10.97,5.85,24.59,1.72,30.45-9.24c64.24-120.14,259-440.31,387.13-478.48
				c18.38-5.47,33.81-4.58,47.19,2.75c147.91,80.96,214.6,475.17,215.26,479.14C2274.44,884.19,2283.98,892.01,2294.79,892.01z"/>
		</g>
		<g>
			<path class="st6" d="M1306.41,1773.66c106.89,292.41,437.02,261.01,777.94,128.63c340.83-132.45,566.91-312.43,479.64-606.64
				c-13.04-43.92-41.52-94.65-81.49-147.63c-37.35-49.5-70.42-102.03-100.7-156.14c-179.73-321.21-549.18-381.49-789.07-284.11
				C1246.39,848.36,1090.83,1184.14,1306.41,1773.66z"/>
		</g>
		<g class="st9">
			<path class="st11" d="M1592.74,707.77c239.89-97.37,609.34-37.1,789.07,284.11c30.28,54.11,63.35,106.64,100.7,156.14
				c26.41,35,47.76,69.02,63,100.74c-9.42-14.61-19.83-29.49-31.21-44.57c-37.35-49.51-70.42-102.03-100.7-156.14
				c-144.77-258.73-412.62-348.13-636.72-322.25c0.95,1.91,1.69,3.9,2.22,5.97c8.52,33.16-40.87,74.51-110.32,92.36
				c-60.59,15.57-116.41,8.09-135.33-16.1c-280.87,160.81-390.89,486.82-195.25,1021.79c3.91,10.7,8.15,20.91,12.65,30.75
				c-17.45-25.07-32.38-53.92-44.45-86.92C1090.83,1184.14,1246.39,848.36,1592.74,707.77z"/>
		</g>
		<g>
			<path class="st0" d="M1306.41,1773.65c-9.09-24.85-17.46-49.21-25.24-73.16c59.78-41.85,126.35-66.88,195.73-55.16
				c187.99,31.74,282.25-149.3,315.88-235.06c22.73-57.97,66.95-105.58,124.56-129.2c39.64-16.26,89.99-24.82,150.95-12.51
				c173.28,34.97,353.05,35.18,367.83-186.7c0-0.02,0-0.03,0.01-0.05c14.75,22.55,30.14,44.69,46.39,66.22
				c39.97,52.97,68.45,103.71,81.49,147.63c87.27,294.21-138.81,474.19-479.64,606.64
				C1743.42,2034.67,1413.3,2066.06,1306.41,1773.65z"/>
		</g>
		<g class="st7">
			<path class="st2" d="M1306.41,1624.44c106.89,292.41,450.63,279.96,791.55,147.58c268.36-104.29,451.91-257,481.06-452.77
				c35.22,254.16-181.17,416.21-494.67,538.04c-340.92,132.38-671.05,163.77-777.94-128.63c-76.43-209-106.16-386.07-97.33-533.9
				C1216.01,1319.65,1247.17,1462.45,1306.41,1624.44z"/>
		</g>
		<g>
			<path class="st2" d="M1758.9,1398.8c-4.08-33.92-24.28-67.26-55.61-87.87c-15.71-10.1-34.14-17.07-53.44-19.06
				c-19.29-2.02-39.02,1-57.04,8.12c-18.03,7.18-33.99,18.66-46.62,32.56c-12.63,13.94-22.05,30.23-27.98,47.36
				c-5.99,17.12-8.59,35.11-7.81,52.64c0.32,4.38,0.79,8.73,1.2,13.04c0.42,4.31,1.54,8.55,2.4,12.75
				c1.71,8.4,4.59,16.53,8.13,24.22c1.87,4.05,6.66,5.82,10.71,3.95c3.07-1.41,4.82-4.5,4.69-7.68l-0.01-0.21
				c-0.67-15.26,0.36-30.05,3-44.1c2.86-14.04,7.61-27.26,13.94-39.26c12.74-23.95,32.48-42.68,55.49-51.12
				c11.46-4.23,23.78-6.08,36.01-5.53c12.22,0.81,24.53,3.77,36.36,9.17c23.8,10.84,44.66,30.69,61.59,56.27l0.13,0.2
				c2.48,3.75,7.52,4.77,11.27,2.29C1757.96,1404.8,1759.25,1401.75,1758.9,1398.8z"/>
		</g>
		<g>
			<path class="st2" d="M2295.94,1131.4c-9.78-32.74-35.35-62.16-69.73-77.15c-17.2-7.28-36.54-11.03-55.9-9.7
				c-19.35,1.29-38.28,7.61-54.83,17.69c-16.55,10.13-30.33,24.16-40.41,40c-10.08,15.89-16.59,33.53-19.53,51.43
				c-3,17.89-2.5,36.05,1.25,53.2c1.06,4.26,2.26,8.47,3.4,12.65c1.14,4.17,2.97,8.16,4.53,12.16c3.11,7.99,7.33,15.51,12.13,22.48
				c2.53,3.67,7.55,4.6,11.23,2.08c2.78-1.91,3.99-5.26,3.32-8.36l-0.05-0.2c-3.25-14.92-4.75-29.67-4.53-43.96
				c0.43-14.32,2.87-28.16,7.07-41.06c8.48-25.76,24.76-47.58,46-59.81c10.57-6.12,22.4-10.03,34.55-11.57
				c12.18-1.27,24.81-0.46,37.39,2.86c25.3,6.64,49.22,22.66,70.25,45l0.16,0.17c3.08,3.27,8.23,3.43,11.5,0.35
				C2296.04,1137.48,2296.79,1134.25,2295.94,1131.4z"/>
		</g>
		<g>
			<path class="st2" d="M2035.41,1495.32c1.88,0,3.79-0.22,5.69-0.69c12.77-3.13,20.59-16.01,17.47-28.78
				c-0.5-2.05-12.58-50.66-39.52-86.97c-7.84-10.58-22.77-12.78-33.33-4.94c-10.57,7.84-12.78,22.76-4.94,33.33
				c21.1,28.44,31.4,69.5,31.5,69.91C2014.97,1488.05,2024.71,1495.32,2035.41,1495.32z"/>
		</g>
		<g>
			<path class="st2" d="M2172.42,1399.67c-9.56,10.96-20.11,22.08-30.75,31.7c-10.57,9.67-21.93,18.38-32.5,23.17
				c-5.39,2.5-9.46,3.41-14.32,3.72c-4.78,0.4-9.95-0.13-15.45-1.14c-5.47-1.09-11.23-2.75-17.04-4.9c-2.89-1.09-5.82-2.25-8.69-3.5
				l-4.26-1.89l-2.04-0.93c-0.58-0.24-1.49-0.72-1.54-0.65h0l-36.71,15.24l-4.22,11.47c-1.57,3.98-3.1,7.97-4.79,11.84
				c-3.39,7.73-6.96,15.24-11,21.94c-3.9,6.81-8.43,12.67-12.82,17.43c-2.24,2.31-4.52,4.27-6.76,5.87
				c-2.39,1.61-4.14,2.65-6.91,3.81c-12.65,5.15-29.79,7.47-47.26,8.85c-17.53,1.5-36.37,1.5-54.75,2.29l-0.92,0.04
				c-7.76,0.33-13.77,6.89-13.44,14.64c0.23,5.34,3.43,9.87,7.93,12.05c9.77,4.72,19.17,8,29.15,10.82
				c9.9,2.81,20.05,4.83,30.48,6.23c20.86,2.5,42.9,2.62,66.72-4.97c6.26-2.13,13.23-5.29,18.83-9.08
				c5.72-3.8,10.82-8.08,15.37-12.59c9.08-9.01,15.74-19.02,21.25-28.98c5.46-10.04,9.61-20.24,12.87-30.56
				c1.62-5.16,3.08-10.33,4.21-15.58c0.58-2.62,1.15-5.25,1.6-7.93c0.47-2.8,0.85-5.13,1.26-8.58l-36.71,15.24l0,0l3.39,2.43
				c1,0.7,1.98,1.37,2.98,1.99c2,1.24,3.96,2.48,6,3.56c4.05,2.23,8.2,4.24,12.53,5.98c8.61,3.52,17.83,6.2,27.68,7.48
				c9.8,1.43,20.32,1.19,30.85-0.9c10.46-2.16,21.09-6.96,28.99-12.4c16.17-11.05,27.32-24.29,37.18-37.82
				c9.7-13.77,17.57-27.72,24.29-43.13c2.67-6.12-0.13-13.25-6.25-15.92c-4.95-2.16-10.57-0.74-13.94,3.12L2172.42,1399.67z"/>
		</g>
		<g>
			<path class="st2" d="M2008.07,1311.81c-21.8,6.15-50.65,17.05-76.1,35.78c-20.1,14.79-30.59,39.34-27.12,64.05v0
				c1.21,8.6,8.24,15.2,16.89,15.87l72.46,5.57c13.52,1.04,26.51-5.45,33.8-16.87l37.71-59.1c4.07-6.38,3.84-14.61-0.58-20.75
				l-4.24-5.89C2048.91,1313.82,2027.82,1306.24,2008.07,1311.81z"/>
		</g>
		<g>
			<path class="st2" d="M1657.89,2021.85c120.12,0,265.46-32.91,434.6-98.58c192.07-74.64,325.84-155.96,408.96-248.61
				c98.95-110.29,127.25-239.96,84.11-385.4c-13.64-45.95-42.27-98.02-85.1-154.78c-34.1-45.2-66.49-95.43-99.02-153.57
				c-108.23-193.42-269.21-275.13-385.2-309.6c-144.34-42.91-301.78-37.21-431.97,15.63c-188.33,76.45-311.77,203.85-366.88,378.68
				c-59.56,188.91-36.72,429.74,67.89,715.78c35.37,96.74,96.34,165.27,181.23,203.69C1520.7,2009.6,1584.6,2021.85,1657.89,2021.85
				z M1818.75,687.67c203.85,0,422.43,98.97,543.42,315.2c33.54,59.95,67.03,111.86,102.37,158.7
				c39.02,51.71,65.95,100.29,77.88,140.48c38.93,131.25,14.58,243.3-74.46,342.55c-78.29,87.27-206.44,164.69-391.76,236.71
				c-164.28,63.79-304.07,95.76-417.9,95.77c-66.77,0-124.58-10.99-173.24-33.01c-73.46-33.24-126.46-93.18-157.52-178.14
				c0,0,0,0,0,0c-192.94-527.62-98.31-886.31,273.66-1037.3C1667.65,701.65,1742.17,687.67,1818.75,687.67z"/>
		</g>
		<g class="st7">
			<path class="st5" d="M2882.48,1595.79c0,0-13.23,53.99-72.56,93.73c-44.15,29.51-113.99,50.99-222.76,36.47
				c41.13-6.85,72.67-20.47,96.61-36.47c59.33-39.74,72.56-93.73,72.56-93.73c8.33-74.53,64.8-130.04,139.39-130.04
				c22.71-0.02,43.85,5.34,63.17,14.82C2917.04,1501.85,2888.24,1544.26,2882.48,1595.79z"/>
		</g>
		<g class="st7">
			<path class="st2" d="M2263.83,3010.94c80.55,85.32,98.61,211.5,115.53,303.14c15.52,83.24,26.2,159.93,51.95,184.92
				c23.12,22.45,69.86,32.35,128.55,35.75c-114.37,4.24-216.57,1.25-254.7-35.75c-25.75-24.99-36.44-101.68-51.95-184.92
				c-6.72-36.42-62.15-199.54-94.69-238.91C2176.92,3020.77,2263.83,3010.94,2263.83,3010.94z"/>
		</g>
		<g class="st7">
			<path class="st2" d="M1740.46,2939.02l0.45,0.51c-17.04,140.6-18.25,276.05-3.05,391.21c6.23,47.95,15.39,92.33,27.34,132.21
				c15.05,50.25,85.34,95.57,190.9,108.61c-19.64,2.44-40.78,3.76-63.32,3.76c-140.15,0-235.86-52.72-253.73-112.36
				c-11.96-39.87-21.11-84.26-27.34-132.21c-13.49-102.2-14.02-220.39-2.07-343.96C1658.05,2987.13,1704.83,2969.55,1740.46,2939.02
				z"/>
		</g>
		<g>
			<path class="st4" d="M1712.48,2954.84c23.39,0,42.35-18.96,42.35-42.35c0-70.01-51.06-130.39-116.25-137.43
				c-23.23-2.54-44.14,14.29-46.66,37.55c-2.52,23.25,14.3,44.14,37.55,46.66c23.96,2.6,40.66,30.13,40.66,53.23
				C1670.13,2935.88,1689.09,2954.84,1712.48,2954.84z"/>
			<path class="st2" d="M1712.48,2974.84c34.38,0,62.35-27.97,62.35-62.34c0-80.09-58.91-149.19-134.1-157.31
				c-16.52-1.83-32.77,2.94-45.75,13.38c-13,10.45-21.14,25.33-22.93,41.9c-1.79,16.56,2.97,32.82,13.41,45.8
				c10.44,12.97,25.31,21.11,41.87,22.9c12.28,1.33,22.81,19.45,22.81,33.34C1650.13,2946.87,1678.1,2974.84,1712.48,2974.84z
				 M1633.95,2794.81c0.81,0,1.63,0.04,2.45,0.14c55.2,5.97,98.43,57.6,98.43,117.55c0,12.32-10.02,22.34-22.35,22.34
				c-12.33,0-22.35-10.02-22.35-22.34c0-32.25-23.51-69.32-58.5-73.11c-5.94-0.64-11.27-3.56-15.02-8.21
				c-3.74-4.65-5.45-10.48-4.81-16.41c0.64-5.94,3.57-11.28,8.23-15.03C1624.03,2796.52,1628.9,2794.81,1633.95,2794.81z"/>
		</g>
		<g class="st7">
			<path class="st2" d="M1629.47,2859.27c-23.26-2.52-40.07-23.41-37.55-46.66c0.05-0.42,0.14-0.82,0.2-1.23
				c6.01-2.27,12.62-3.23,19.44-2.48c65.19,7.04,116.25,67.42,116.25,137.43c0,1.96-0.18,3.88-0.44,5.77
				c-4.64,1.74-9.64,2.74-14.88,2.74c-23.39,0-42.35-18.96-42.35-42.35C1670.13,2889.4,1653.43,2861.86,1629.47,2859.27z"/>
		</g>
		<g>
			
				<rect x="1251.14" y="2912.5" transform="matrix(-1 -1.224647e-16 1.224647e-16 -1 3267.3931 6350.1401)" class="st8" width="765.11" height="525.14"/>
		</g>
		<g>
			<path class="st4" d="M1403.32,3141.51c-8.25-9.18-12.3-21.96-9.85-35.03c4.17-22.29,25.62-36.98,47.91-32.8
				c21.91,4.1,36.46,24.9,32.99,46.77l187.89,35.17c4.76-21.55,25.78-35.58,47.63-31.49c22.29,4.17,36.98,25.62,32.8,47.91
				c-2.45,13.07-10.84,23.52-21.85,29.09c8.25,9.18,12.3,21.96,9.85,35.03c-4.17,22.29-25.62,36.98-47.91,32.8
				c-21.85-4.09-36.38-24.78-33.02-46.58l-187.9-35.17c-4.84,21.44-25.81,35.38-47.59,31.3c-22.29-4.17-36.98-25.62-32.8-47.91
				C1383.91,3157.53,1392.3,3147.09,1403.32,3141.51z"/>
		</g>
		<g class="st12">
			<polygon class="st11" points="1994.92,2955.19 1251.14,2955.19 1251.14,2912.5 2016.25,2912.5 2016.25,3437.64 1994.92,3437.64 
							"/>
		</g>
		<g class="st7">
			<path class="st5" d="M1316.97,2912.5c17,267.53,277.22,480.01,595.77,480.01h103.51v45.13h-765.11V2912.5H1316.97z"/>
		</g>
		<g>
			<path class="st2" d="M1251.14,3460.14h765.1c12.43,0,22.5-10.07,22.5-22.5V2912.5c0-12.43-10.07-22.5-22.5-22.5h-765.1
				c-12.43,0-22.5,10.07-22.5,22.5v525.14C1228.64,3450.07,1238.72,3460.14,1251.14,3460.14z M1993.75,3415.14h-720.1V2935h720.1
				V3415.14z"/>
		</g>
		<g>
			<path class="st2" d="M1251.14,3452.64h687.71c8.28,0,15-6.71,15-15V2912.5c0-8.29-6.72-15-15-15h-687.71c-8.28,0-15,6.71-15,15
				v525.14C1236.14,3445.93,1242.86,3452.64,1251.14,3452.64z M1923.85,3422.64h-657.71V2927.5h657.71V3422.64z"/>
		</g>
		<g>
			<path class="st2" d="M1251.14,3452.64h603.68c8.28,0,15-6.71,15-15V2912.5c0-8.29-6.72-15-15-15h-603.68c-8.28,0-15,6.71-15,15
				v525.14C1236.14,3445.93,1242.86,3452.64,1251.14,3452.64z M1839.83,3422.64h-573.68V2927.5h573.68V3422.64z"/>
		</g>
		<g>
			<path class="st13" d="M3044.6,1350.85l-324.31-89.03h-135.66c0,0-67.83,220.45-89.03,527.8l91.15,31.8l275.56,55.11
				C2862.31,1876.54,2849.59,1581.9,3044.6,1350.85z"/>
		</g>
		<g class="st9">
			<path class="st4" d="M2697.24,1301.9h-126.34c8.29-32.35,13.74-50.08,13.74-50.08h135.66l324.31,89.03
				c-12.88,15.27-24.84,30.81-35.97,46.53L2697.24,1301.9z"/>
		</g>
		<g class="st14">
			<path class="st5" d="M2533.49,1485.36c-0.16,2.29-0.35,4.53-0.51,6.82l91.15,31.8l275.56,55.11c0,0,17.13-29.58,47.64-77.83
				c-92.94,191.23-85.03,375.28-85.03,375.28l-275.56-55.11l-91.15-31.8C2503.62,1673.34,2518.32,1569.53,2533.49,1485.36z"/>
		</g>
		<g>
			<path class="st2" d="M2641.26,1850.2c0.21,0,0.41,0,0.62-0.01c9.86-0.34,17.59-8.61,17.25-18.47
				c-11.89-348.01,111.14-548.49,112.38-550.48c5.24-8.35,2.72-19.38-5.62-24.63c-8.34-5.24-19.37-2.75-24.62,5.6
				c-5.32,8.44-130.14,210.93-117.85,570.73C2623.74,1842.59,2631.67,1850.2,2641.26,1850.2z"/>
		</g>
		<g>
			<path class="st2" d="M2862.31,1900.37c5.64,0,11.14-2,15.5-5.73c5.56-4.76,8.62-11.81,8.3-19.12
				c-0.12-2.84-9.71-288.44,176.7-509.3c5.15-6.1,6.9-14.37,4.67-22.03c-2.23-7.66-8.15-13.7-15.77-16.08l-315.17-98.43
				c-2.3-0.72-4.69-1.08-7.1-1.08h-24.64c-13.16,0-23.83,10.67-23.83,23.83c0,13.16,10.67,23.83,23.83,23.83h21.01l278.36,86.93
				c-144.01,188.68-163.58,405.62-165.67,484.3l-245.45-49.09l-5.09-1.77c-12.43-4.35-26.01,2.22-30.34,14.65
				c-4.34,12.42,2.22,26.01,14.65,30.34l6.65,2.32c1.04,0.36,2.1,0.65,3.18,0.87l275.56,55.11
				C2859.19,1900.21,2860.75,1900.37,2862.31,1900.37z"/>
		</g>
		<g>
			<path class="st2" d="M2580.1,1831.48c9.93,0,19.2-6.25,22.56-16.18c4.23-12.47-2.45-25.99-14.91-30.21l-65.36-22.16
				c18.41-242.95,64.92-423.31,80.1-477.27h86.4c13.16,0,23.83-10.67,23.83-23.83c0-13.16-10.67-23.83-23.83-23.83h-104.26
				c-10.41,0-19.61,6.76-22.73,16.68c-2.73,8.7-67.22,216.61-88.37,523.25c-0.74,10.79,5.87,20.73,16.12,24.2l82.8,28.07
				C2574.98,1831.07,2577.56,1831.48,2580.1,1831.48z"/>
		</g>
		<g>
			<path class="st2" d="M2792.75,1804.46c4.41,0,8.23-3.26,8.84-7.73c1.87-13.7,13.26-24.31,27.08-25.21
				c2.64-0.18,5.35,0.03,8.06,0.62c2.54,0.54,5.18-0.04,7.25-1.61s3.36-3.95,3.53-6.53c5.74-86.2,27.04-215.35,95.83-341.12
				c2.32-4.25,0.84-9.57-3.34-12.01c-8.45-4.92-13.87-13.67-14.51-23.39c-0.18-2.7,0.04-5.45,0.64-8.2
				c1.05-4.82-1.99-9.58-6.81-10.64l-82.85-18.22c-2.32-0.52-4.74-0.08-6.73,1.2c-2,1.27-3.4,3.29-3.91,5.61
				c-2.78,12.64-13.73,22.07-26.64,22.91c-5.84,0.37-11.64-0.98-16.68-3.94c-2.08-1.22-4.56-1.55-6.89-0.9
				c-2.32,0.64-4.29,2.19-5.46,4.3c-73.32,133.12-94.65,269.9-99.63,361.19c-0.13,2.39,0.7,4.73,2.31,6.5
				c1.61,1.77,3.86,2.82,6.26,2.91c14.99,0.59,27.02,12.33,28,27.32c0.17,2.54-0.03,5.18-0.57,7.83c-0.51,2.47,0.05,5.03,1.53,7.07
				c1.48,2.04,3.75,3.35,6.26,3.62l77.46,8.37C2792.11,1804.44,2792.43,1804.46,2792.75,1804.46z M2830.36,1753.59
				c-0.95,0-1.9,0.03-2.84,0.1c-19.31,1.26-35.67,14.27-41.64,32.11l-60.85-6.58c0-0.96-0.03-1.91-0.1-2.86
				c-1.37-21.04-16.28-38.11-36.08-42.78c5.59-87.59,26.59-214.14,93.01-338.09c5.89,2.05,12.16,2.89,18.49,2.48
				c17.78-1.17,33.25-12.41,40.17-28.37l67.07,14.75c-0.04,1.44-0.01,2.87,0.08,4.29c0.83,12.74,6.76,24.43,16.25,32.61
				C2858.9,1543.24,2836.99,1667.4,2830.36,1753.59z"/>
		</g>
		<g>
			<path class="st8" d="M2580.1,1604.16l-55.38-2.37c-14.46-0.58-25.09-13.77-22.59-28.02l14.93-84.85
				c2.12-12.06,13.02-20.57,25.23-19.69l70.05,4.99"/>
			<path class="st2" d="M2580.12,1627.98c12.69,0,23.24-10.01,23.79-22.81c0.56-13.14-9.64-24.26-22.79-24.82l-55.38-2.37
				l14.79-84.94l70.13,4.93c13.11,0.98,24.52-8.95,25.46-22.07c0.94-13.12-8.95-24.53-22.07-25.46l-70.05-5
				c-24.52-1.68-46.14,15.17-50.39,39.33l-14.93,84.85c-2.39,13.57,1.2,27.5,9.85,38.22c8.64,10.72,21.49,17.19,35.25,17.74
				l55.31,2.36C2579.43,1627.98,2579.77,1627.98,2580.12,1627.98z"/>
		</g>
		<g>
			<polyline class="st8" points="2614.8,1456.67 2721.29,1464.26 2925.34,1550.74 2883.17,1679.32 2668.2,1589.85 2586.77,1586.61 
							"/>
			<polygon class="st2" points="2897.79,1711.21 2954.81,1537.35 2726.94,1440.78 2616.49,1432.9 2613.1,1480.43 2715.64,1487.74 
				2895.88,1564.13 2868.56,1647.43 2673.41,1566.21 2587.72,1562.8 2585.82,1610.42 2662.99,1613.49 			"/>
		</g>
		<g class="st14">
			<path class="st2" d="M2510.66,1521.67c4.12,4.46,9.87,7.46,16.51,7.72l141.03,5.61l90.05,37.48
				c50.99,21.22,107.45,6.15,141.77-32.47l25.32,10.73l-42.17,128.58l-214.98-89.47l-141.03-5.61
				c-14.46-0.57-25.09-13.77-22.59-28.02L2510.66,1521.67z"/>
		</g>
		<g>
			<path class="st2" d="M2586.73,1833.93c0.49,0,0.98-0.03,1.48-0.09c6.86-0.81,11.76-7.02,10.95-13.87
				c-38.69-328.58,108.09-548.92,109.58-551.1c3.88-5.71,2.4-13.48-3.3-17.36c-5.71-3.9-13.48-2.42-17.36,3.29
				c-1.54,2.26-153.58,229.81-113.75,568.1C2575.08,1829.25,2580.48,1833.93,2586.73,1833.93z"/>
		</g>
		<g>
			<path class="st11" d="M3078.43,1777.56c7.06-56.75,2.75-108.1-6.69-142.98c-24.52-90.57-88.94-168.87-176.03-168.83
				c-87.09,0.04-149.49,75.69-139.36,168.98c10.13,93.28,88.94,168.87,176.03,168.83c14-0.01,27.35-1.97,39.88-5.64"/>
			<path class="st5" d="M2932.31,1827.38c0.03,0,0.05,0,0.08,0c15.98-0.01,31.65-2.23,46.57-6.61c12.63-3.7,19.86-16.94,16.16-29.57
				c-3.7-12.63-16.94-19.88-29.57-16.16c-10.57,3.1-21.73,4.67-33.18,4.67c-0.02,0-0.04,0-0.06,0
				c-75.14,0-143.44-66.19-152.28-147.58c-4.35-40.11,6.96-78.51,31.05-105.37c21.51-23.98,51.56-37.2,84.63-37.21
				c0.02,0,0.04,0,0.06,0c82.69,0,134.08,81.45,152.97,151.23c9.88,36.5,12.09,85.28,6.05,133.82c-1.63,13.06,7.64,24.96,20.7,26.58
				c13.04,1.67,24.96-7.64,26.58-20.7c6.77-54.44,4.1-109.9-7.34-152.15c-30.66-113.26-108.76-186.44-198.97-186.44
				c-0.03,0-0.05,0-0.07,0c-46.78,0.02-89.42,18.86-120.09,53.05c-33.11,36.91-48.76,88.79-42.95,142.33
				C2744.04,1742.12,2833.6,1827.37,2932.31,1827.38z"/>
		</g>
		<g>
			<path class="st0" d="M3078.43,1777.56c7.06-56.75,2.75-108.1-6.69-142.98c-24.52-90.57-88.94-168.87-176.03-168.83
				c-87.09,0.04-149.49,75.69-139.36,168.98c10.13,93.28,88.94,168.87,176.03,168.83c14-0.01,27.35-1.97,39.88-5.64"/>
			<path class="st2" d="M2932.31,1827.38c0.03,0,0.05,0,0.08,0c15.98-0.01,31.65-2.23,46.57-6.61c12.63-3.7,19.86-16.94,16.16-29.57
				c-3.7-12.63-16.94-19.88-29.57-16.16c-10.57,3.1-21.73,4.67-33.18,4.67c-0.02,0-0.04,0-0.06,0
				c-75.14,0-143.44-66.19-152.28-147.58c-4.35-40.11,6.96-78.51,31.05-105.37c21.51-23.98,51.56-37.2,84.63-37.21
				c0.02,0,0.04,0,0.06,0c82.69,0,134.08,81.45,152.97,151.23c9.88,36.5,12.09,85.28,6.05,133.82c-1.63,13.06,7.64,24.96,20.7,26.58
				c13.04,1.67,24.96-7.64,26.58-20.7c6.77-54.44,4.1-109.9-7.34-152.15c-30.66-113.26-108.76-186.44-198.97-186.44
				c-0.03,0-0.05,0-0.07,0c-46.78,0.02-89.42,18.86-120.09,53.05c-33.11,36.91-48.76,88.79-42.95,142.33
				C2744.04,1742.12,2833.6,1827.37,2932.31,1827.38z"/>
		</g>
		<g>
			<path class="st2" d="M2925.15,1562.88c-5.99-11.37-13.53-21.32-22.38-30.59c-8.82-9.22-18.92-17.56-30.22-24.37
				c-11.25-6.8-23.52-12.66-36.55-16.32c-6.47-2.24-13.12-3.33-19.84-4.73c-6.72-1.26-13.49-1.63-20.37-2.41
				c-12.5-1.43-23.79,7.55-25.21,20.05s7.55,23.79,20.05,25.21c1.86,0.21,3.7,0.19,5.48-0.03l2.25-0.31
				c5.09-0.68,10.33-1.88,15.54-2.27c5.2-0.26,10.56-0.89,15.8-0.46c10.66,0.07,21.28,2.05,31.82,5.08
				c10.56,3.02,20.84,7.68,30.56,13.61c9.68,5.87,19.05,13.24,26.73,21.55l0.25,0.27c1.41,1.52,3.78,1.61,5.3,0.21
				C2925.66,1566.21,2925.93,1564.35,2925.15,1562.88z"/>
		</g>
		<g>
			<path class="st2" d="M2902.42,1648.65c-11.02-6.61-22.63-11.21-35-14.55c-12.32-3.31-25.29-5.2-38.47-5.16
				c-13.15,0.02-26.67,1.38-39.71,5c-6.69,1.44-12.94,3.96-19.42,6.25c-6.4,2.41-12.38,5.61-18.67,8.51
				c-11.43,5.26-16.42,18.8-11.16,30.22c5.26,11.43,18.8,16.42,30.22,11.16c1.7-0.78,3.27-1.75,4.67-2.87l1.76-1.43
				c4-3.22,7.85-6.96,12.11-10c4.31-2.92,8.56-6.24,13.27-8.59c9.15-5.47,19.26-9.28,29.84-12.16c10.6-2.9,21.8-4.24,33.19-4.21
				c11.32-0.01,23.15,1.44,34.04,4.56l0.36,0.1c1.99,0.57,4.07-0.58,4.64-2.57C2904.58,1651.23,2903.84,1649.5,2902.42,1648.65z"/>
		</g>
		<g class="st7">
			<path class="st2" d="M2610.51,2027.02c154.71-9.62,256.62-65.51,321.59-138.19c99.7-111.49,112.75-262.41,96.66-346.71
				c19.24,26.87,33.87,58.82,42.99,92.45c21.49,79.42,14.24,244.44-92.72,364.06c-65,72.7-166.96,128.61-321.77,138.2
				C2649.92,2097.46,2632.86,2058.32,2610.51,2027.02z"/>
		</g>
		<g>
			<path class="st2" d="M2529.32,3373.41c26.75-8.23,54-14.19,81.09-18.11c13.55-1.92,27.08-3.08,40.39-3.64
				c13.32-0.41,26.4,0.13,38.87,1.59c12.45,1.46,23.73-7.45,25.19-19.91s-7.45-23.74-19.91-25.2c-2.04-0.24-4.17-0.18-6.1,0.11
				c-15.29,2.35-29.86,5.82-43.91,10.16c-13.99,4.49-27.54,9.53-40.69,15.24C2578.01,3345.14,2552.98,3358.34,2529.32,3373.41z"/>
		</g>
		<g>
			
				<ellipse transform="matrix(0.9298 -0.3682 0.3682 0.9298 -357.0155 825.1271)" class="st11" cx="1983.94" cy="1348.21" rx="27.44" ry="5.88"/>
		</g>
	</g>
</g>
</svg>
