<?xml version="1.0" encoding="utf-8"?>
<!-- Generator: Adobe Illustrator 26.0.3, SVG Export Plug-In . SVG Version: 6.00 Build 0)  -->
<svg version="1.1" id="Layer_1" xmlns="http://www.w3.org/2000/svg" xmlns:xlink="http://www.w3.org/1999/xlink" x="0px" y="0px"
	 viewBox="0 0 4000 4000" style="enable-background:new 0 0 4000 4000;" xml:space="preserve">
<style type="text/css">
	.st0{fill:#23DB0F;}
	.st1{opacity:0.3;}
	.st2{fill:#3F2039;}
	.st3{opacity:0.4;}
	.st4{fill:#FFFFFF;}
	.st5{fill:#FF0025;}
	.st6{fill:#F6CECA;}
	.st7{fill:#FEE8EA;}
	.st8{opacity:0.35;}
	.st9{fill:#F5F5F5;}
	.st10{opacity:0.6;}
	.st11{fill:#FF5F89;}
	.st12{fill:#623D5A;}
	.st13{fill:#EA4949;}
</style>
<g>
	<g>
		<g>
			<g>
				<g>
					<path class="st0" d="M3161.52,2930.32c4.33,6.49,57.66,11.74,107.92-13.43c50.23-25.17,52.59-64.13,55.71-86.43
						c0.3-2.18,0.62-4.21,1-6.15c5.47-30.11,16.77-37.12,16.13-41.06l-26.65-13.64c0,0-38.51-7.14-72.31,15.72
						c-9.33,6.28-18.26,14.88-25.96,26.51c-14.92,22.58-14.6,50.61-23.9,69.2C3178.54,2910.91,3158.83,2926.3,3161.52,2930.32z"/>
				</g>
			</g>
		</g>
	</g>
	<g class="st1">
		<g>
			<g>
				<g>
					<path class="st2" d="M3326.16,2824.32c5.47-30.11,16.77-37.12,16.13-41.06l-26.65-13.64c0,0-38.51-7.14-72.31,15.72
						C3263.69,2798.73,3297.15,2813.17,3326.16,2824.32z"/>
				</g>
			</g>
		</g>
	</g>
	<g>
		<g>
			<g>
				<g>
					<path class="st2" d="M3161.56,2944.62c23.05,8.24,73.82,3.68,113.62-16.25c53.51-26.79,59.15-69.41,62.18-92.31l0.52-3.83
						c3.05-21.77,9.06-31,12.65-36.51c2.43-3.73,5.46-8.37,4.42-14.58c-1.15-6.99-7.77-11.72-14.77-10.56
						c-5.38,0.89-9.42,5.01-10.47,10.05c-0.21,0.32-0.44,0.68-0.7,1.07c-4.14,6.34-12.73,19.53-16.57,46.97l-0.54,4.02
						c-2.91,21.96-6.89,52.03-48.22,72.73c-31.66,15.85-64.43,18.44-82.16,17.2c6.69-8.41,15.62-20.23,23.43-35.84
						c4.55-9.1,6.92-19.22,9.43-29.94c3.07-13.12,6.26-26.69,13.68-37.93c30.3-45.85,83.04-37.06,85.27-36.66
						c6.96,1.24,13.64-3.38,14.9-10.34c1.27-6.96-3.34-13.62-10.26-14.91c-2.9-0.54-71.51-12.5-111.33,47.76
						c-9.95,15.07-13.83,31.62-17.26,46.23c-2.16,9.21-4.2,17.91-7.4,24.31c-7.65,15.3-16.58,26.41-23.11,34.51
						c-7.45,9.26-14.49,18.01-8.05,27.64C3152.83,2940.43,3156.54,2942.83,3161.56,2944.62z M3173.34,2933.19l-0.05-0.02
						L3173.34,2933.19z M3169.34,2920.41L3169.34,2920.41L3169.34,2920.41z"/>
				</g>
			</g>
		</g>
	</g>
	<g>
		<g>
			<g>
				<g>
					<path class="st0" d="M3297.58,2712.46c-23.18-34.79-33.08-62.72-10.83-110.17c13.58-28.96,30.47-56.94,49.18-82.55
						c9.17-12.55,15.77-29.92,21.65-9.12c11.33,40.11,32.04,77.67,37.13,119.86c5.13,41.95-18.27,97.94-64.16,102.99
						c-4.37,0.72-4.15,11.47-11.69,5.42C3318.86,2738.91,3304.94,2724.69,3297.58,2712.46z"/>
				</g>
			</g>
		</g>
	</g>
	<g class="st3">
		<g>
			<g>
				<g>
					<path class="st4" d="M3286.75,2602.28c13.58-28.96,30.46-56.94,49.18-82.53c9.19-12.56,15.76-29.92,21.67-9.13
						c11.33,40.14,32.03,77.69,37.11,119.86c2.1,16.94-0.49,36.19-7.32,53.41c0.25-5.57,0.04-11.09-0.6-16.37
						c-5.07-42.2-25.77-79.75-37.11-119.86c-5.89-20.81-12.47-3.43-21.65,9.1c-18.73,25.62-35.61,53.6-49.19,82.56
						c-1.71,3.65-3.25,7.19-4.55,10.64C3274.38,2635.97,3278.18,2620.56,3286.75,2602.28z"/>
				</g>
			</g>
		</g>
	</g>
	<g class="st1">
		<g>
			<g>
				<g>
					<path class="st2" d="M3286.75,2602.28c0.73-1.58,1.49-3.12,2.22-4.69c1.77,19,7.27,37.47,19.8,56.29
						c9.78,19.92,25.04,25.29,29.39,24.56c22.36-2.48,46.1-22.18,57.08-41.29c2.09,41-21.19,91.57-64.71,96.34
						c-4.35,0.73-4.13,11.47-11.68,5.41c0,0-13.91-14.2-21.26-26.44C3274.4,2677.69,3264.48,2649.74,3286.75,2602.28z"/>
				</g>
			</g>
		</g>
	</g>
	<g>
		<g>
			<g>
				<g>
					<path class="st2" d="M3317.24,2752.61c2.76,0.99,5.56,1.23,8.38,0.72c5.86-1.06,9.27-4.97,11.17-7.78
						c18.03-3.22,34.1-13.23,46.7-29.14c18.24-23.03,27.65-57.36,23.97-87.47c-3.38-27.99-13.13-53.74-22.57-78.65
						c-5.59-14.77-10.87-28.72-14.95-43.15c-1.32-4.68-4.89-17.12-16.3-18.85c-11.41-1.7-17.82,8.26-23.48,17.04
						c-1.45,2.26-2.97,4.63-4.59,6.84c-19.88,27.21-36.85,55.69-50.44,84.67c-24.14,51.46-14.04,83.92,11.61,122.5
						c8.07,13.29,22.34,27.92,22.95,28.55l1.14,1.03C3312.93,2750.61,3315.07,2751.84,3317.24,2752.61z M3318.86,2738.9l-0.05-0.02
						L3318.86,2738.9z M3348.33,2524.42c3.81,11.92,8.23,23.59,12.54,34.96c9.3,24.56,18.09,47.75,21.09,72.65
						c2.84,23.3-4.63,50.79-18.61,68.43c-9.5,11.99-21.01,18.8-34.21,20.25l-0.7,0.1c-2.57,0.43-4.68,1.41-6.4,2.61
						c-4.26-4.83-9.86-11.58-13.47-17.58l-0.32-0.5c-22.13-33.22-29.26-56.3-9.89-97.6c12.89-27.49,29.01-54.55,47.92-80.42
						C3346.99,2526.38,3347.67,2525.4,3348.33,2524.42z"/>
				</g>
			</g>
		</g>
	</g>
	<g>
		<g>
			<g>
				<g>
					<path class="st2" d="M3339.9,2601.89c-2.99,20.75-6.77,41.54-11.47,61.83c-2.32,10.16-5.04,20.17-8.13,29.85
						c-3.07,9.56-6.76,19.28-11.3,26.2c-3.9,5.95-2.24,13.93,3.7,17.83c5.95,3.9,13.93,2.24,17.83-3.7
						c0.34-0.53,0.65-1.07,0.91-1.63l0.04-0.1c5.4-11.77,7.55-22.57,9.57-33.45c1.9-10.84,3.28-21.56,4.24-32.26
						c1.98-21.41,2.91-42.64,3.08-63.99c0.02-2.35-1.87-4.27-4.22-4.29c-2.15-0.02-3.95,1.57-4.24,3.64L3339.9,2601.89z"/>
				</g>
			</g>
		</g>
	</g>
	<g>
		<g>
			<g>
				<g>
					<path class="st0" d="M3212.8,2674.16c0,0,116.72,64.36,297.09,119.93c160.61,49.48,456.26,165.52,483.48,232.57l-56.74,48
						c0,0-84.53-82.3-203.89-143.81c-119.36-61.51-328.01-121.06-395.42-149.95c-76.61-32.83-130.28-61.34-143.03-78.83"/>
				</g>
			</g>
		</g>
	</g>
	<g class="st1">
		<g>
			<g>
				<g>
					<path class="st2" d="M3194.31,2702.08c12.74,17.47,66.43,45.98,143.03,78.83c67.42,28.89,276.05,88.44,395.41,149.95
						c119.36,61.51,203.9,143.81,203.9,143.81l56.74-48c-2.55-6.33-7.5-13.07-14.5-20.18l0,0c-21.08,17.55-51.49,18.08-73.18,1.3
						c-36.35-28.13-97.55-71.33-171.48-107.12c-120.71-58.49-330.12-115.11-398.12-142.57c-64.65-26.16-113.25-49.41-135.16-66.03
						L3194.31,2702.08z"/>
				</g>
			</g>
		</g>
	</g>
	<g>
		<g>
			<g>
				<g>
					<path class="st2" d="M3936.03,3091.99l72.74-61.53l-3.5-8.62c-34.13-84.05-396.46-210.7-491.6-240.01
						c-176.9-54.51-293.52-118.26-294.68-118.9c-6.22-3.41-14.02-1.17-17.44,5.05c-3.42,6.21-1.16,14.01,5.04,17.44
						c1.18,0.65,119.95,65.65,299.51,120.95c171.57,52.85,428.39,157.62,470.94,217.31l-39.99,33.82
						c-24.49-22.38-99.09-86.84-198.44-138.04c-78.61-40.51-193.02-79.33-284.95-110.52c-47.36-16.07-88.25-29.95-111.29-39.82
						c-112.47-48.2-133.84-69.28-137.72-74.59c-4.17-5.72-12.2-6.99-17.94-2.81c-5.73,4.18-6.99,12.21-2.81,17.94
						c13.71,18.81,63.62,46.76,148.35,83.07c23.96,10.27,65.29,24.29,113.15,40.53c91.12,30.91,204.54,69.4,281.44,109.03
						c116.14,59.85,199.98,140.79,200.81,141.6L3936.03,3091.99z"/>
				</g>
			</g>
		</g>
	</g>
	<g>
		<g>
			<g>
				<g>
					<path class="st5" d="M2926.89,2644.22c3.61-2.66,6.38-5.46,8.37-8.46c5.24-7.98,5.14-17.25,1.13-28.26
						c-4.04-11.12-6.48-23.27-3.14-35.48c-2.11-10.88-7.12-8.3-10.09-1.22c-3.63,8.62-17.9,18.52-27.48,27.23
						c-3.07,2.79-5.67,5.47-7.25,7.98C2868.51,2637.17,2903.57,2636.81,2926.89,2644.22z"/>
				</g>
			</g>
		</g>
	</g>
	<g>
		<g>
			<g>
				<g>
					<path class="st6" d="M3290.97,2604.44c-0.01,0.03,0,0.1-0.01,0.13c0.02-0.06,0.03-0.09,0.02-0.16L3290.97,2604.44z"/>
				</g>
			</g>
		</g>
	</g>
	<g>
		<g>
			<g>
				<g>
					<path class="st5" d="M2979.61,2670.66c-25.34-29.33-35.96-64.88-37.72-103.27c1.54-4.49,1.81-9.27,2.72-13.82
						c5.77-29.02,12.91-57.52,44.1-70.81c105.39-2.71,172.06,54.33,218.98,141.84c2.49,4.67,4.73,9.46,7.07,14.18
						c4.37,37.28-15.2,63.35-40.49,86.76C3097.21,2750.46,3032.17,2731.42,2979.61,2670.66z"/>
				</g>
			</g>
		</g>
	</g>
	<g class="st3">
		<g>
			<g>
				<g>
					<path class="st4" d="M2955.13,2516.39c5.07-4.84,11.25-8.97,18.84-12.19c105.39-2.71,172.06,54.33,218.98,141.84
						c2.49,4.67,4.73,9.46,7.07,14.18c2.16,18.29-1.47,33.9-8.72,47.8c16.3-19.12,26.79-40.94,23.47-69.25
						c-2.34-4.72-4.58-9.51-7.07-14.18c-46.92-87.51-113.59-144.55-218.98-141.84C2971.41,2490.1,2961.51,2502.17,2955.13,2516.39z"
						/>
				</g>
			</g>
		</g>
	</g>
	<g class="st1">
		<g>
			<g>
				<g>
					<path class="st2" d="M2944.62,2553.56c-0.91,4.55-1.18,9.32-2.72,13.82c1.76,38.39,12.37,73.94,37.72,103.27
						c52.56,60.76,117.6,79.8,194.66,54.87c21.53-19.92,38.92-41.79,40.91-70.83c-5.32,6.31-11.3,12.36-17.62,18.21
						c-77.06,24.93-142.1,5.89-194.66-54.87c-25.34-29.33-35.96-64.88-37.72-103.27c1.54-4.49,1.81-9.27,2.72-13.82
						c0.33-1.69,0.66-3.38,1.02-5.05C2953.91,2510.84,2948.89,2532.05,2944.62,2553.56z"/>
				</g>
			</g>
		</g>
	</g>
	<g>
		<g>
			<g>
				<g>
					<path class="st2" d="M3053.86,2739.39c37.7,13.47,79.27,12.95,124.37-1.64l2.7-0.87l2.08-1.92
						c24.97-23.11,49.79-52.79,44.52-97.67l-0.26-2.21l-3.01-6.12c-1.7-3.48-3.4-6.96-5.22-10.39
						c-55.01-102.6-130.44-151.22-230.65-148.65l-2.45,0.06l-2.25,0.96c-39.05,16.64-46.34,53.33-51.66,80.12
						c-0.34,1.73-0.62,3.5-0.88,5.28c-0.39,2.58-0.75,5.02-1.39,6.89l-0.79,2.31l0.11,2.44c2.08,45.36,15.43,81.69,40.83,111.08l0,0
						C2995.23,2708.33,3023.27,2728.46,3053.86,2739.39z M3167.63,2714.18c-70.73,21.99-129.09,4.99-178.31-51.91
						c-21.08-24.4-32.37-54.94-34.49-93.29c0.85-3.13,1.3-6.11,1.71-8.81c0.2-1.37,0.41-2.73,0.67-4.07
						c5.49-27.59,11.56-49.67,34.4-60.55c89.48-1.47,154.6,41.53,204.79,135.13c1.66,3.12,3.22,6.33,4.78,9.53l1.07,2.18
						C3204.56,2667.75,3194.39,2688.85,3167.63,2714.18z M2979.61,2670.66l-0.05-0.02L2979.61,2670.66z"/>
				</g>
			</g>
		</g>
	</g>
	<g>
		<g>
			<g>
				<g>
					<path class="st5" d="M2938.79,2723.81c-15.48-5.7-38.19-14.03-53.75-19.51c-6.66-2.34-5.79-15.33-5.29-24.08
						c0.41-7.63,9.91-8.39,16.23-10.8c13.63-5.25,28.94-6.8,39.78-18.17c0.92-1.82,1.83-3.61,2.75-5.42
						c8.33-6.43,11.16-2.42,13.46,2.59c0.81,1.82,1.58,3.77,2.5,5.39c0.18,0.27,0.33,0.49,0.48,0.75
						c23.5,40.97,58.59,67.92,102.27,84.45c1.89,0.54,3.78,1.04,5.69,1.52c29.22,7.61,58.64,9.39,88.61,3.05
						c6.44-1.34,12.46-6.73,19.73-3.14c-11.69,8.98-26.1,9.47-39.58,15.41C3047.45,2792.94,2967.82,2734.52,2938.79,2723.81z"/>
				</g>
			</g>
		</g>
	</g>
	<g>
		<g>
			<g>
				<g>
					<path class="st5" d="M3026.23,2472.09c25.22,2.87,49.21,9.84,75.49,23.76c-1.77-5.64-3.23-11.1-4.38-16.46
						c-3.32-15.23-4.19-29.48-3.53-43.83c-14.74-1.86-29.35-4.86-44.39-2.8c-9.97,1.38-18.78,5.05-26.71,10.84l-0.01,0.03
						c-1.11,0.83-2.24,1.69-3.31,2.6c-1.19,2.37-2.44,4.72-3.57,7.14C3008.15,2469.58,3008.4,2470.01,3026.23,2472.09z"/>
				</g>
			</g>
		</g>
	</g>
	<g class="st3">
		<g>
			<g>
				<g>
					<path class="st4" d="M3022.71,2443.6c33.7-0.09,58.98,19.02,74.63,35.79c-3.32-15.23-4.19-29.48-3.53-43.83
						c-14.74-1.86-29.35-4.86-44.39-2.8C3039.45,2434.14,3030.64,2437.81,3022.71,2443.6z"/>
				</g>
			</g>
		</g>
	</g>
	<g>
		<g>
			<g>
				<g>
					<path class="st5" d="M3104.01,2447.93c0.18,1.87,0.37,3.74,0.55,5.62c0.27,2.86,0.57,5.76,0.97,8.63
						c3.31,22.41,8.43,42.51,30.24,56.64c28.98,18.77,49.6,46.72,68.93,75.13c6.22,14.66,16.14,27.71,19.19,43.8
						c0.16,0.02,0.32,0.05,0.49,0.07c3.16,0.51,6.13,0.86,4.45-4.34c-4.48-13.97,13.36-28.9,4.37-41.14
						c-8.38-19.08-17.07-42.09-30.32-58.03c-23.98-28.95-64.96-67.37-83.66-100.22C3117.6,2431.25,3108.55,2440.76,3104.01,2447.93z
						"/>
				</g>
			</g>
		</g>
	</g>
	<g class="st3">
		<g>
			<g>
				<g>
					<path class="st4" d="M3104.01,2447.93c0.18,1.87,0.37,3.74,0.55,5.62c12.83,20.94,48.67,41.58,75.23,75.64
						c30.05,38.58,41.14,88.54,44.6,108.63c3.16,0.51,6.13,0.86,4.45-4.34c-4.48-13.97,13.36-28.9,4.37-41.14
						c-8.38-19.08-17.07-42.09-30.32-58.03c-23.98-28.95-64.96-67.37-83.66-100.22C3117.6,2431.25,3108.55,2440.76,3104.01,2447.93z
						"/>
				</g>
			</g>
		</g>
	</g>
	<g>
		<g>
			<g>
				<g>
					<path class="st2" d="M3201.03,2700.02c5.29,1.89,11.23,0.09,14.58-4.4l0.24-0.29c12.19-14.48,49.8-66.69,22.12-130.46
						c-16.04-36.93-43.5-66.09-67.73-91.83c-20.03-21.28-38.96-41.37-46.73-61.22l-5.74-14.64l-13.19,8.55
						c-4.22,2.73-40.22,29.06-7.1,111.89c2.63,6.58,10.09,9.79,16.69,7.15c6.59-2.63,9.79-10.1,7.16-16.68
						c-13.18-32.95-13.36-53.53-10.52-65.67c10.72,16.34,25.43,31.97,40.74,48.23c23.9,25.39,48.62,51.64,62.87,84.45
						c21.21,48.85-5.66,88.79-18.21,103.7c-0.86,1.02-1.54,1.82-2.22,3.11c-3.32,6.26-0.94,14.04,5.33,17.36
						C3199.88,2699.56,3200.45,2699.82,3201.03,2700.02z"/>
				</g>
			</g>
		</g>
	</g>
	<g>
		<g>
			<g>
				<g>
					<path class="st2" d="M3007.47,2495.23c3.54,1.26,7.59,0.97,11.03-1.14c6.05-3.7,7.95-11.6,4.25-17.65
						c-2.12-3.59-12.04-22.64,6.27-36.7c15.56-11.94,51.51,4.25,62.88,10.85c6.13,3.55,13.99,1.49,17.55-4.63
						c3.57-6.12,1.51-13.97-4.61-17.54c-6.01-3.51-59.54-33.55-91.46-9.04c-29.96,23-21.3,56.15-12.53,70.47
						C3002.44,2492.45,3004.81,2494.28,3007.47,2495.23z"/>
				</g>
			</g>
		</g>
	</g>
	<g>
		<g>
			<g>
				<g>
					<path class="st2" d="M3003.4,2765.64c32.13,11.48,70.15,19.37,110.27,10.53c73.33-16.14,90.58-63.76,91.28-65.77
						c2.31-6.66-1.19-13.92-7.81-16.29c-0.04-0.01-0.08-0.03-0.12-0.04c-6.66-2.3-13.93,1.19-16.29,7.82
						c-0.63,1.69-14.27,36.37-72.58,49.2c-53.97,11.88-104.53-11.73-141.45-28.97c-5.67-2.65-10.93-5.1-15.74-7.21
						c-9.83-4.3-20.34-7.7-30.51-10.97c-34.41-11.1-42.13-16.13-39.35-25.67c1.55-5.3,14.55-9.33,26.02-12.88
						c19.55-6.05,43.87-13.58,56.25-36.23c3.4-6.22,1.11-14.02-5.11-17.42c-6.25-3.42-14.02-1.11-17.42,5.11
						c-7.38,13.51-24.63,18.85-41.31,24.02c-18.52,5.73-37.66,11.66-43.08,30.21c-10.47,35.84,26.44,47.74,56.12,57.31
						c9.55,3.08,19.43,6.26,28.08,10.05c4.64,2.03,9.71,4.4,15.18,6.95C2969.43,2751.74,2985.5,2759.25,3003.4,2765.64z"/>
				</g>
			</g>
		</g>
	</g>
	<g>
		<g>
			<g>
				<g>
					<path class="st2" d="M2901.84,2662.72c1.01,0.36,2.04,0.7,3.11,1.03c6.78,2.07,13.96-1.74,16.03-8.53
						c2.07-6.78-1.68-13.9-8.52-16.03c-9.02-2.73-15.06-7.77-16.94-14.09c-1.36-4.57-0.18-8.75,1.58-10.85
						c0.54-0.65,1.34-1.56,2.35-2.69c7.19-8.11,22.13-24.99,30.91-43.51c7.14-15.06,24.08-23.09,24.25-23.17
						c6.41-2.98,9.22-10.6,6.27-17.02c-2.96-6.42-10.51-9.25-16.95-6.33c-1.04,0.47-25.55,11.83-36.77,35.52
						c-7.22,15.22-21.03,30.82-26.93,37.48c-1.2,1.36-2.16,2.45-2.81,3.22c-7.65,9.13-10.15,22.4-6.52,34.64
						C2873.34,2640.61,2880.58,2655.12,2901.84,2662.72z"/>
				</g>
			</g>
		</g>
	</g>
	<g class="st1">
		<g>
			<g>
				<g>
					<path class="st2" d="M2907.86,2587.67c5.29,14.19,14.12,29.75,26.45,38.82c4.94,27.29,15.65,52.55,34.5,74.38
						c52.56,60.76,117.6,79.8,194.66,54.87c20.1-18.59,36.57-38.84,40.29-65.09c-7.42,12.75-17.84,24.1-29.49,34.86
						c-77.06,24.93-142.1,5.89-194.66-54.87c-25.34-29.33-35.96-64.88-37.72-103.27c1.54-4.49,1.81-9.27,2.72-13.82
						c0.89-4.39,1.76-8.74,2.79-13.05c-7.15,12.85-10.54,28-13.58,43.27c-0.58,2.86-0.9,5.85-1.46,8.75
						c-1.04-6.71-1.01-13.58,0.88-20.51c-2.11-10.88-7.12-8.3-10.09-1.22C2919.53,2579.43,2917.45,2578.96,2907.86,2587.67z"/>
				</g>
			</g>
		</g>
	</g>
</g>
<g>
	<g>
		<g>
			<g>
				
					<ellipse transform="matrix(0.9877 -0.1562 0.1562 0.9877 -439.303 176.9878)" class="st7" cx="906.45" cy="2883.6" rx="141.37" ry="158.19"/>
			</g>
			<g class="st8">
				<path class="st2" d="M793.37,2974.38c-47.25-71.28-34.93-169.71,27.52-219.85c6.43-5.16,13.15-9.57,20.06-13.32
					c-36.91,53.41-38.55,130.76,0.47,189.62c42.39,63.94,118.31,84.28,178.57,51.6c-7.79,11.27-17.11,21.5-27.99,30.23
					C929.56,3062.8,840.62,3045.66,793.37,2974.38z"/>
			</g>
			<g>
				<path class="st2" d="M1022.95,2999.72c20.28-24.81,33.36-55.76,37.63-89.82c5.6-44.74-4.78-89.69-29.23-126.57
					c-24.45-36.88-60.18-61.49-100.6-69.28c-41.54-8.01-83.07,2.57-116.96,29.77c-33.88,27.2-55.71,67.5-61.47,113.48
					c-5.6,44.74,4.78,89.69,29.23,126.57c24.45,36.88,60.18,61.49,100.6,69.28c41.54,8.01,83.07-2.57,116.96-29.77
					C1007.89,3016.33,1015.86,3008.4,1022.95,2999.72z M809.69,2783.41c5.47-6.69,11.58-12.78,18.3-18.17
					c26.52-21.29,59.58-29.47,93.08-23.01c34.61,6.67,65.38,28,86.64,60.07c21.26,32.07,30.32,70.82,25.53,109.13
					c-4.64,37.07-21.8,69.22-48.33,90.52c-55.84,44.83-136.46,28.2-179.72-37.06l0,0c-21.26-32.07-30.32-70.82-25.53-109.14
					C783.13,2828.07,793.57,2803.13,809.69,2783.41z"/>
			</g>
		</g>
		<g>
			<path class="st9" d="M3585.1,1450.7c-25.3,208.7-124,345.5-270.1,435.95c-47.05,298.15-115,488.65-290,551.7l-353.2,102.45
				l-282.4-137l-313.95-241.4l-17.1-399.05c-6.7-38.1,2.85-80.3,19.65-120.8l0.05-0.05c39.35-95.05,118.2-180.55,118.2-180.55
				c-3.25-146.1,18.1-280.45,61.75-404.25c16.35-46.4,68.5-69.25,113.65-49.75c112.15,48.45,213.6,120.9,303.35,219.55
				c168.85,2.85,317.8,67,455,167.5c143.85-53.6,279.95-65.1,406.05-22.05C3568.65,1384.05,3589.25,1416.5,3585.1,1450.7z"/>
		</g>
		<g class="st10">
			<path class="st9" d="M2177.6,1483.65c0,8.7,0.1,17.45,0.3,26.25c0,0-70.7,76.7-111.65,165.55
				C2089.5,1597.5,2147.6,1520.15,2177.6,1483.65z"/>
		</g>
		<g class="st10">
			<path class="st9" d="M3296.65,1934.6c3.95-2.45,7.85-4.9,11.7-7.45c-19.85,116.55-43.85,215.4-77.55,295.1
				C3258.65,2142.05,3279.1,2045.85,3296.65,1934.6z"/>
		</g>
		<g class="st10">
			<path class="st9" d="M3585.1,1450.7c-8.4,69.2-24.85,130.5-48.45,184.8c13.95-41.8,24.1-87.3,30.1-136.85
				c4.15-34.2-16.45-66.65-49.05-77.75c-126.1-43.05-262.2-31.55-406.05,22.05c-137.15-100.5-286.15-164.65-455-167.5
				c-89.75-98.65-191.15-171.1-303.3-219.55c-39.5-17.05-84.35-1.75-105.95,33.4c3.4-10.6,6.9-21.15,10.6-31.6
				c16.35-46.4,68.5-69.25,113.65-49.75c112.15,48.45,213.6,120.9,303.35,219.55c168.85,2.85,317.8,67,455,167.5
				c143.85-53.6,279.95-65.1,406.05-22.05C3568.65,1384.05,3589.25,1416.5,3585.1,1450.7z"/>
		</g>
		<g class="st10">
			<path class="st9" d="M2247.4,1089.3c-36.5,115-54.15,238.9-51.15,372.65c0,0-7.35,7.95-18.65,21.7
				c-0.3-136,21.05-261.65,62.05-378C2241.7,1099.8,2244.35,1094.35,2247.4,1089.3z"/>
		</g>
		<g class="st10">
			<path class="st9" d="M3536.65,1635.5c-43.15,129.45-122.7,223.3-228.3,291.65c2.25-13.25,4.5-26.75,6.65-40.5
				C3412.65,1826.2,3489.15,1745.05,3536.65,1635.5z"/>
		</g>
		<g>
			<path class="st4" d="M2697.21,2236.11c112.5-4.16,148.35-129.53,74.74-214.66c-31.93-36.93-48.06-85.53-39.32-133.55
				c5.39-29.58,18.46-59.15,37.38-88.72c43.87-83.86,31.53-138.36-23.75-170.42c-95.97-15.06-138.01,70.27-167.5,178.94
				c-25.39,70.86-73.04,99.88-134.32,103.29c-18.39,1.02-36.62,5.49-52.46,14.88c-62.22,36.9-69.77,122.42-20.97,175.5
				l119.45,147.85"/>
		</g>
		<g>
			<path class="st2" d="M3025,2453.85c-6.35,0-12.32-3.94-14.59-10.26c-2.91-8.06,1.27-16.95,9.34-19.85
				c80.54-29.02,139.09-86.16,184.26-179.83c39.99-82.91,69.49-193.83,95.67-359.66c0.71-4.46,3.32-8.39,7.16-10.77
				c153.79-95.21,239.78-234.11,262.87-424.63c3.24-26.73-13.02-52.48-38.66-61.24c-118.26-40.37-247.67-33.19-395.62,21.93
				c-4.89,1.83-10.38,1.06-14.58-2.02c-147.58-108.12-293.5-161.93-446.09-164.5c-4.28-0.07-8.33-1.91-11.21-5.07
				c-86.53-95.12-186.79-167.7-298.01-215.73c-17.85-7.71-37.47-7.67-55.25,0.1c-17.81,7.79-31.18,22.19-37.66,40.55
				c-43.54,123.53-64.01,257.68-60.85,398.73c0.09,4.01-1.38,7.91-4.1,10.86c-1.55,1.68-154.94,169.76-134.04,288.18
				c1.49,8.44-4.15,16.48-12.58,17.97c-8.44,1.48-16.49-4.15-17.97-12.58c-21.72-123.06,111.27-280.27,137.56-309.91
				c-2.52-142.55,18.58-278.3,62.73-403.56c9.23-26.18,29.09-47.57,54.49-58.67c25.38-11.1,54.53-11.15,79.98-0.16
				c113.36,48.96,215.66,122.42,304.14,218.41c154.45,4.06,301.96,58.23,450.46,165.45c149.73-54.28,287.18-60.79,408.64-19.34
				c39.44,13.46,64.44,53.14,59.44,94.34c-23.99,197.97-112.77,343.12-271.29,443.49c-45.79,286.37-114.73,490.47-298.96,556.86
				C3028.52,2453.55,3026.75,2453.85,3025,2453.85z"/>
		</g>
		<g>
			<g class="st1">
				<path class="st2" d="M2729.64,2493.77l88.98-70.41c353.39,59.13,421.91-300.63,433.98-398.96
					c-275.73,351.81-1270.75,105.37-1174.54-381.9l-0.05,0.05c-16.8,40.5-26.35,82.7-19.65,120.8l17.1,399.05l313.95,241.4
					l282.4,137l61.3-17.78C2730.6,2505.59,2729.64,2493.77,2729.64,2493.77z"/>
			</g>
		</g>
		<g>
			<path class="st11" d="M2286.25,1376.25c0,0,90-81.25,206.25-110c-42.63-66.6-90.06-124.62-148.75-162.5
				C2305.91,1186.73,2289.38,1278.67,2286.25,1376.25z"/>
		</g>
		<g class="st1">
			<path class="st2" d="M2492.5,1266.25c-17.05,4.2-33.55,9.55-49.3,15.65c-28.8-35.4-60.35-65.95-96.1-89
				c-24.8,54.35-40.45,112.5-49.2,173.55c-7.55,6.1-11.65,9.8-11.65,9.8c3.15-97.6,19.65-189.5,57.5-272.5
				C2402.45,1141.65,2449.85,1199.65,2492.5,1266.25z"/>
		</g>
		<g>
			<path class="st11" d="M3226.67,1511.67c48.46,70.71,74.68,161.07,84.58,265.83c72.77-75.24,137.46-161.41,176.04-282.85
				c2.94-9.25-2.74-19.13-12.28-20.95C3401.4,1459.68,3319.74,1469.07,3226.67,1511.67z"/>
		</g>
		<g class="st1">
			<path class="st2" d="M3487.3,1494.65c-7.6,23.9-16.2,46.45-25.75,67.8c-59.3-17.75-127.55-20.7-207.55-4.2
				c-8.15-16.35-17.25-31.9-27.35-46.6c93.1-42.6,174.75-51.95,248.35-37.95C3484.55,1475.5,3490.25,1485.4,3487.3,1494.65z"/>
		</g>
		<g>
			<path class="st2" d="M2286.25,1391.76c-2.21,0-4.44-0.47-6.53-1.44c-5.64-2.62-9.17-8.35-8.97-14.57
				c3.46-108.07,22.73-199.15,58.89-278.44c1.87-4.1,5.43-7.19,9.75-8.45c4.32-1.27,8.98-0.59,12.77,1.85
				c53.94,34.81,102.69,87.93,153.4,167.17c2.7,4.21,3.2,9.47,1.34,14.11s-5.83,8.11-10.68,9.31
				c-110.9,27.43-198.71,105.68-199.59,106.46C2293.73,1390.39,2290.01,1391.76,2286.25,1391.76z M2350.46,1127.19
				c-26.08,62.87-41.56,133.73-47.02,215.29c32.9-24.63,92.47-63.62,164.43-85.52C2428.69,1198.57,2390.78,1156.66,2350.46,1127.19z
				"/>
		</g>
		<g>
			<path class="st2" d="M3311.25,1793.02c-1.72,0-3.45-0.29-5.13-0.88c-5.71-2-9.74-7.15-10.31-13.18
				c-10.25-108.48-37.06-193.04-81.93-258.52c-2.59-3.77-3.38-8.5-2.15-12.91c1.22-4.41,4.33-8.06,8.49-9.96
				c91.55-41.9,175.84-54.69,257.71-39.1c8.83,1.68,16.54,7.09,21.16,14.85c4.68,7.84,5.77,17.34,3,26.04
				c-43.27,136.17-118.75,225.94-179.68,288.94C3319.43,1791.36,3315.38,1793.02,3311.25,1793.02z M3249.64,1518.51
				c37.29,60.17,61.41,133.86,73.27,223.95c53.61-58.81,113.51-138.94,149.6-252.51c0.09-0.27,0.06-0.52-0.09-0.76
				C3401.7,1475.54,3328.74,1485.2,3249.64,1518.51z"/>
		</g>
		<g>
			<path class="st2" d="M2246.2,1748.14c14.08-22.6,32.41-42.81,55.83-58.85c11.77-7.87,24.9-14.79,39.91-19.02
				c14.85-4.3,32.04-5.94,49.25-1.66c17.29,3.8,33.03,14.28,44.03,26.75c11.13,12.6,17.84,26.91,22.18,40.94
				c8.52,28.24,8.11,56.04,2.59,82.26c-1.17,5.56-6.62,9.11-12.18,7.94c-3.75-0.79-6.59-3.53-7.68-6.94l-0.13-0.43
				c-3.86-12.18-7.09-23.99-10.84-35.28c-3.82-11.23-8-21.9-12.89-31.42c-4.95-9.44-10.48-17.87-16.78-23.76
				c-6.3-5.93-12.71-9.81-20.23-11.65c-14.81-4.21-35.65,0.49-56.06,9.65c-10.31,4.51-20.65,10.09-31.07,16.11
				c-10.42,6.08-20.73,12.82-31.66,19.37l-0.3,0.18c-4.85,2.91-11.14,1.34-14.05-3.51
				C2244.07,1755.42,2244.24,1751.3,2246.2,1748.14z"/>
		</g>
		<g>
			<path class="st2" d="M3041.02,1985.81c-23.94,68.19-85.59,103.64-137.7,85.34c-52.11-18.29-74.95-83.4-51.01-151.59
				c23.94-68.19,81.83-99.73,133.94-81.44S3064.96,1917.63,3041.02,1985.81z"/>
		</g>
		<g>
			<path class="st9" d="M2982.35,1924.69c-6.87,19.56-27.75,28.6-46.51,22.01c-18.76-6.59-28.29-26.3-21.42-45.86
				s26.52-27.53,45.28-20.95C2978.46,1886.48,2989.22,1905.13,2982.35,1924.69z"/>
		</g>
		<g>
			<path class="st9" d="M3568.35,2573.35c0,0-35.55-10.55-76.2,10c-27.35,13.85-57,41.8-79.65,96.65
				c-56.25,136.25-80.85,461.65-424.15,415.85L3054,2927.6c81.85-31.65,143.8-90,167.65-199.25
				c26.4-139.3,75.75-256.35,144.2-327.75c82.3-85.95,192.25-105.75,322.95-18.5c23.65,15.8,41.9,38.9,49.95,66.15
				C3764.1,2534.2,3680.7,2608.65,3568.35,2573.35z"/>
		</g>
		<g>
			<path class="st4" d="M3568.35,2573.35c0,0-35.55-10.55-76.2,10c25.5-180-126.3-182.75-126.3-182.75
				c82.3-85.95,192.25-105.75,322.95-18.5c23.65,15.8,41.9,38.9,49.95,66.15C3764.1,2534.2,3680.7,2608.65,3568.35,2573.35z"/>
		</g>
		<g class="st1">
			<path class="st2" d="M3568.35,2573.35c0,0-35.55-10.55-76.2,10c-27.35,13.85-57,41.8-79.65,96.65
				c-56.25,136.25-80.85,461.65-424.15,415.85l36.55-93.7c268.8,2.65,308.05-279.75,365.85-401.95c25.4-53.65,56.4-80.05,84.45-92.5
				c41.6-18.5,76.6-6.15,76.6-6.15c91.8,34,167.45-8.75,178.3-74.25c3.6,6.65,6.5,13.65,8.65,20.95
				C3764.1,2534.2,3680.7,2608.65,3568.35,2573.35z"/>
		</g>
		<g class="st10">
			<path class="st9" d="M3727.35,2422.35c-4.75-4.35-9.85-8.3-15.2-11.9c-130.7-87.25-240.65-67.45-322.95,18.5
				c-68.45,71.4-117.8,188.45-144.2,327.75c-16.73,76.65-52.22,128.23-100.17,163.1c-25.73,18.71-59.88,21.18-88.23,6.76l0,0
				c80.55-31.85,141.45-90.1,165.05-198.2c26.4-139.3,75.75-256.35,144.2-327.75c82.3-85.95,192.25-105.75,322.95-18.5
				C3704.5,2392.6,3717.85,2406.35,3727.35,2422.35z"/>
		</g>
		<g>
			<path class="st12" d="M2021.8,3034.1c-42.95,67.75-135.1,47.25-236.8,9.65c-55.2,32.95-122.6,59.7-197.45,82.65
				c-16.8,5.2-34,10.2-51.55,15l-259.75-53.65l-83.75-180.55l-55-269.9l400.9-62.3l423.9,402.6L2021.8,3034.1z"/>
		</g>
		<g>
			<path class="st12" d="M1361.4,1174.31c79.69-138.86,167.79-259.19,276.37-334.45c25.77-17.86,60.83-13.53,81.32,10.2
				c120.86,140.01,181.74,324.84,173.07,561.64"/>
		</g>
		<g class="st10">
			<path class="st9" d="M1746.25,883.65c-0.3-0.35-0.65-0.75-0.95-1.1c-20.45-23.7-55.55-28.05-81.3-10.2
				c-104.25,72.25-189.65,186.05-266.8,317.95l-35.8-16c79.7-138.85,167.8-259.2,276.35-334.45c25.8-17.85,60.85-13.5,81.35,10.2
				C1728.55,861,1737.6,872.15,1746.25,883.65z"/>
		</g>
		<g class="st1">
			<path class="st2" d="M2579.43,3108.45c-198.9,28.45-314.15-32.79-314.15-32.79l-101.04-220.78l326.2-508.82l238.73,112.3
				l217.5,126.88l-68.33,324.6"/>
		</g>
		<g>
			<path class="st12" d="M2205.85,1863.65c16.74,63.44-12.85,213.75-130.4,298.75c-257.4,325-643.85,360.1-1070.45,305.1
				c-25.75-5.15-47.55-13.35-66.2-24.35c0-0.05-0.05-0.05-0.05-0.05c-111.45-65.8-109.95-230.5-162.65-423.15
				c-1.8-6.65-3.65-13.25-5.6-19.95c-174.1-188.6-350.35-377.6-403.45-545.65c-9.05-28.6,3.9-59.3,30.75-72.8
				c157.25-79.05,344.35-97,565.55-44.9c352.05-245.85,800.29-266.57,991.55,170c64.09,146.28,128.67,203.29,209.33,308.14"/>
		</g>
		<g class="st10">
			<path class="st9" d="M2217.03,1875.98c-0.25,2.8-0.5,5.75-0.8,8.85c-4.15-8-9.95-15.2-17.15-21.05
				c-87.1-70.65-167.95-178.25-244.35-312c-237.4-413.3-639.5-415.85-991.55-170c-221.2-52.1-408.3-34.15-565.55,44.9
				c-17.3,8.7-28.85,24.6-32.4,42.45c-1.75-4.9-3.4-9.8-4.95-14.65c-9.05-28.6,3.9-59.3,30.75-72.8
				c157.25-79.05,344.35-97,565.55-44.9c352.05-245.85,754.15-243.3,991.55,170c76.4,133.75,157.25,241.35,244.35,312
				C2209.58,1832.68,2218.78,1854.03,2217.03,1875.98z"/>
		</g>
		<g>
			<path class="st9" d="M2785,2696.83c0,175.31-129.36,317.43-288.94,317.43c-159.58,0-230.78-181.45-230.78-356.76
				s71.2-278.11,230.78-278.11C2655.64,2379.39,2785,2521.51,2785,2696.83z"/>
		</g>
		<g>
			<path class="st9" d="M2223.8,1875.85c-5.3,65.4-30.8,201.55-148.35,286.55c-257.4,325-643.85,360.1-1070.45,305.1
				c-25.75-5.15-47.55-13.35-66.2-24.35c0-0.05-0.05-0.05-0.05-0.05c-0.05-0.05-0.1-0.1-0.1-0.1c74.05-141.75,169-264.85,392.6-273
				c61.1-5.25,108.05-25.7,125.55-77.8c6.2-18.5,13.15-36.8,22.4-54c60.3-112.3,151.45-173,307.05-125.7
				c50.65,24.3,98,28.7,138.75-6.25c0,0,121-137.65,274.25-87.6C2216.35,1832.55,2225.55,1853.9,2223.8,1875.85z"/>
		</g>
		<g>
			<g class="st1">
				<path class="st2" d="M2191.77,1832.81c-2.6,1.15-4.85,2.29-6.76,3.34c-42.63,54.93-86.37,104.16-130.85,147.97
					c0.01-0.01,0.01-0.01,0.02-0.02c-530.74,539.39-1173.42,295.77-1280.87-270.83c0,0,0,0,0,0l-6.96,42.62l28.86,216.78l1.66,1.8
					c1.63,1.76,2.83,3.88,3.5,6.19c17.18,59.04,29.1,116.77,39.62,167.7c31.57,152.83,54.38,263.25,183.04,288.93
					c0.81,0.16,1.58,0.43,2.33,0.71c55.47,6.16,111.11,10.04,166.35,8.31c28.2-0.91,56.27-3.33,83.87-7.87l10.34-1.72l10.25-2.09
					c6.86-1.29,13.6-3,20.36-4.67c13.5-3.51,26.82-7.26,39.37-12.24c25.36-9.9,49.33-23.75,71.63-40.11l8.71-6.37l9.15-6.57
					c6.35-4.05,12.48-8.41,19.1-12.08c12.9-7.83,26.66-14.37,40.75-20.12c28.25-11.28,59.09-18,90.73-16.41
					c15.77,0.86,31.73,3.98,46.88,10.13c15.12,6.11,29.38,15.36,40.94,27.52c11.68,12.07,20.06,27.18,24.99,42.9
					c1.94,6.16,3.34,12.41,4.3,18.69c16.88-5.82,33.56-12.1,50-18.92c0.1-0.04,0.2-0.08,0.3-0.12c4.96-2.06,9.91-4.17,14.83-6.33
					c0.25-0.11,0.49-0.21,0.74-0.32c4.78-2.1,9.54-4.25,14.28-6.43c0.39-0.18,0.79-0.36,1.18-0.54c4.63-2.14,9.23-4.34,13.82-6.57
					c0.49-0.24,0.99-0.47,1.48-0.71c4.5-2.2,8.98-4.45,13.45-6.73c0.56-0.29,1.13-0.57,1.69-0.86c4.39-2.26,8.76-4.57,13.12-6.91
					c0.63-0.34,1.26-0.67,1.89-1.01c4.3-2.33,8.58-4.7,12.84-7.11c0.66-0.38,1.33-0.75,2-1.13c4.22-2.4,8.41-4.85,12.59-7.33
					c0.7-0.42,1.41-0.83,2.11-1.25c4.14-2.48,8.26-5,12.37-7.56c0.72-0.45,1.44-0.89,2.16-1.34c4.08-2.56,8.13-5.16,12.17-7.8
					c0.74-0.49,1.48-0.97,2.22-1.46c4.02-2.64,8.01-5.33,11.99-8.06c0.74-0.5,1.47-1.01,2.21-1.51c3.97-2.74,7.92-5.52,11.85-8.34
					c0.74-0.53,1.48-1.06,2.21-1.59c3.92-2.83,7.82-5.71,11.7-8.62c0.73-0.55,1.46-1.1,2.19-1.65c3.88-2.94,7.73-5.91,11.57-8.93
					c0.72-0.56,1.43-1.13,2.14-1.69c3.84-3.04,7.67-6.13,11.47-9.26c0.69-0.57,1.38-1.14,2.07-1.71c3.81-3.16,7.6-6.35,11.38-9.6
					c0.67-0.57,1.33-1.15,2-1.73c3.78-3.28,7.55-6.59,11.29-9.96c0.63-0.57,1.26-1.15,1.89-1.72c3.77-3.41,7.52-6.87,11.25-10.37
					c0.58-0.54,1.15-1.09,1.72-1.63c3.16-2.99,6.31-6.04,9.44-9.09c0.32-0.33,0.64-0.67,0.97-1c3.78-3.9,7.54-7.83,11.27-11.84
					c0.36-0.39,0.72-0.79,1.09-1.18c3.81-4.1,7.6-8.24,11.36-12.45c0.28-0.31,0.56-0.63,0.84-0.94c3.84-4.31,7.66-8.67,11.45-13.1
					c0.15-0.18,0.31-0.36,0.46-0.54c3.91-4.57,7.79-9.2,11.65-13.9c0,0,0,0,0,0c-1.04-0.84-2.02-1.78-2.84-2.92
					c-5.02-6.94-3.46-16.64,3.48-21.67c13.52-9.77,25.75-20.25,36.85-31.23c-8.49,8.39-17.64,16.48-27.52,24.2
					c0.96-3.09,2.84-5.92,5.67-7.96c11.14-8.06,21.38-16.61,30.87-25.51c-2.72,2.92-5.52,5.81-8.39,8.67
					c79.24-78.8,99.62-183.46,104.46-243.39C2209.6,1858.82,2203.4,1843.47,2191.77,1832.81z"/>
			</g>
		</g>
		<g>
			<path class="st7" d="M1570,1178.33c31.67-165,115-256.67,115-256.67s125.97,148.83,126.32,400.25"/>
		</g>
		<g class="st1">
			<path class="st2" d="M1811.3,1321.9l-9.25-5.5C1772.9,1135.55,1685,1031.65,1685,1031.65s-51.8,57-89.25,162l-25.75-15.3
				c31.65-165,115-256.7,115-256.7S1810.95,1070.5,1811.3,1321.9z"/>
		</g>
		<g>
			<path class="st4" d="M1275.94,2679.46c0,0-47.7,86.13,0,90.88c38.96,3.88,297.73,325.39,280.94,365.2l228.12-91.78
				c0,0,45-109.75,16.67-215.08c-28.33-105.33-266.99-203.44-266.99-203.44"/>
		</g>
		<g class="st1">
			<path class="st2" d="M2021.8,3034.1c-42.95,67.75-135.1,47.25-236.8,9.65c-55.2,32.95-122.6,59.7-197.45,82.65
				c-18.75-1-30.65-1.65-30.65-1.65l42.75-132.25c0,0-41.7-9.1-43.7-10c1.05,0,14.05,2.5,50.7,10c110,22.5,153.35-67.5,153.35-67.5
				l202.3,52.6L2021.8,3034.1z"/>
		</g>
		<g>
			<path class="st5" d="M2061.2,3014.26c-526.64-64.18-706.57-389.83-657.86-606.76c39.26-174.88,220.69-279.3,538.33-117.5
				C2504.12,1640,2830,2680,2061.2,3014.26z"/>
		</g>
		<g>
			<path class="st4" d="M1709.79,2595.55c-1.66,5.37-4.99,10.1-9.98,14.18c-5,4.08-11.75,6.97-20.26,8.66l-17.37,3.46l7.92,39.78
				l-20.78,4.14l-20.62-103.6l38.14-7.59c8.02-1.6,15.12-1.57,21.31,0.08c6.19,1.65,11.18,4.61,14.96,8.9
				c3.79,4.29,6.29,9.5,7.51,15.63C1711.73,2584.73,1711.45,2590.18,1709.79,2595.55z M1687.3,2595.32
				c2.25-3.17,2.9-7.14,1.95-11.89c-2.01-10.09-8.65-14.02-19.93-11.77l-16.47,3.28l6,30.13l16.47-3.28
				C1681.05,2600.66,1685.05,2598.5,1687.3,2595.32z"/>
			<path class="st4" d="M1772.73,2550.93l5.17,25.97l34.88-6.94l3.28,16.47l-34.88,6.94l5.47,27.46l39.33-7.83l3.37,16.92
				l-60.11,11.97l-20.65-103.74l60.11-11.97l3.37,16.92L1772.73,2550.93z"/>
			<path class="st4" d="M1927.76,2502.63l3.34,16.77l-27.61,5.5l17.29,86.82l-20.78,4.14l-17.28-86.83l-27.61,5.5l-3.34-16.77
				L1927.76,2502.63z"/>
			<path class="st4" d="M2008.92,2591.39c-6.28-1.32-11.57-3.97-15.86-7.95c-4.29-3.98-7.12-9.13-8.47-15.44l22.26-4.43
				c1.14,4.2,3.32,7.26,6.54,9.19c3.21,1.93,7.19,2.43,11.94,1.48c4.85-0.97,8.43-2.88,10.73-5.76c2.31-2.88,3.09-6.19,2.34-9.95
				c-0.61-3.07-2.05-5.4-4.33-7.01c-2.28-1.6-4.93-2.7-7.98-3.27c-3.04-0.57-7.18-1.06-12.4-1.47c-7.12-0.64-12.98-1.51-17.57-2.6
				c-4.59-1.09-8.78-3.29-12.58-6.6c-3.8-3.31-6.34-8.23-7.64-14.76c-1.22-6.13-0.75-11.78,1.41-16.95
				c2.16-5.16,5.77-9.5,10.83-13.03c5.06-3.53,11.15-6,18.27-7.42c10.69-2.13,19.89-1.26,27.6,2.6
				c7.71,3.87,12.84,10.38,15.39,19.54l-22.86,4.55c-0.91-3.52-3-6.17-6.29-7.93c-3.28-1.76-7.25-2.18-11.9-1.26
				c-4.06,0.81-7.09,2.49-9.1,5.05c-2.01,2.56-2.62,5.82-1.83,9.78c0.55,2.77,1.92,4.89,4.12,6.35c2.19,1.47,4.77,2.5,7.71,3.09
				c2.95,0.6,7.04,1.15,12.28,1.64c7.12,0.64,13.01,1.53,17.66,2.66c4.65,1.13,8.9,3.37,12.76,6.72c3.85,3.35,6.42,8.24,7.7,14.67
				c1.1,5.54,0.69,10.97-1.23,16.29c-1.93,5.32-5.38,9.94-10.36,13.86c-4.98,3.92-11.28,6.64-18.9,8.16
				C2021.96,2592.66,2015.21,2592.72,2008.92,2591.39z"/>
			<path class="st4" d="M2170.99,2486.61c-3.24-3.88-7.17-6.54-11.78-7.99c-4.61-1.45-9.69-1.62-15.22-0.52
				c-6.14,1.22-11.3,3.69-15.5,7.41c-4.2,3.72-7.12,8.41-8.77,14.09c-1.65,5.68-1.8,11.88-0.46,18.61
				c1.38,6.93,3.94,12.69,7.69,17.29c3.74,4.6,8.32,7.81,13.72,9.61c5.4,1.81,11.31,2.07,17.75,0.79
				c7.91-1.58,13.98-4.97,18.19-10.18c4.21-5.21,6.35-11.73,6.44-19.57l-35.62,7.09l-3.16-15.88l56.1-11.17l3.6,18.11
				c0.05,7.5-1.59,14.77-4.92,21.81c-3.33,7.04-8.21,13.13-14.65,18.27c-6.44,5.14-14.11,8.6-23.01,10.37
				c-10,1.99-19.47,1.54-28.43-1.36c-8.96-2.9-16.54-7.9-22.74-14.99c-6.2-7.1-10.31-15.74-12.34-25.93
				c-2.03-10.19-1.55-19.78,1.45-28.76c3-8.98,8.08-16.52,15.25-22.63c7.17-6.11,15.7-10.15,25.59-12.12
				c11.67-2.32,22.38-1.5,32.12,2.48c9.74,3.98,17.27,10.79,22.58,20.43L2170.99,2486.61z"/>
			<path class="st4" d="M2277.16,2534.75c-9.02-2.93-16.71-7.96-23.06-15.08c-6.36-7.12-10.55-15.77-12.58-25.97
				c-2.01-10.09-1.44-19.64,1.7-28.65c3.14-9.01,8.32-16.6,15.53-22.76c7.21-6.16,15.66-10.22,25.35-12.15
				c9.8-1.95,19.18-1.45,28.15,1.49c8.97,2.95,16.61,7.98,22.91,15.11c6.3,7.13,10.46,15.74,12.47,25.83
				c2.03,10.19,1.49,19.79-1.6,28.79c-3.09,9-8.25,16.58-15.45,22.75c-7.21,6.17-15.66,10.21-25.36,12.15
				C2295.54,2538.19,2286.18,2537.69,2277.16,2534.75z M2317.17,2510.2c4.19-3.76,7.1-8.53,8.72-14.31
				c1.63-5.78,1.75-12.13,0.37-19.05c-1.38-6.92-3.92-12.72-7.63-17.38c-3.71-4.66-8.21-7.91-13.51-9.73
				c-5.3-1.82-11.07-2.12-17.3-0.88c-6.23,1.24-11.47,3.73-15.72,7.45c-4.25,3.73-7.19,8.45-8.83,14.18
				c-1.64,5.73-1.77,12.06-0.39,18.98c1.38,6.93,3.93,12.75,7.64,17.46c3.72,4.71,8.25,8,13.61,9.87
				c5.36,1.87,11.16,2.18,17.39,0.94C2307.78,2516.47,2312.99,2513.96,2317.17,2510.2z"/>
		</g>
		<g>
			<path class="st13" d="M2514.05,2406.15c-3.35-30.9-15.8-55.6-23.6-109.9c-2.7-18.65-1.4-31.65,2.2-40.55
				C2507.6,2300.6,2515.05,2351.7,2514.05,2406.15z"/>
		</g>
		<g>
			<g class="st1">
				<path class="st2" d="M1416.94,2363.27c-1.29,4.69-2.52,9.42-3.59,14.23c-48.7,216.9,131.2,542.6,657.85,606.75
					c227.41-98.88,359.01-259.49,417.07-419.85c19.39-63.39,27.49-126.15,25.63-184.4c-58.3,159.95-189.8,320.05-416.7,418.7
					c-427.65-52.15-626.65-276.65-660.3-475.35c-13.44,21.85-23.63,46.11-30.58,72.09
					C1409.28,2384.39,1412.81,2373.65,1416.94,2363.27z"/>
			</g>
		</g>
		<g class="st10">
			<path class="st9" d="M2512.8,2359.55c-40.55-243.9-270.7-368.75-566.15-27.35c-317.65-161.8-499.05-57.4-538.3,117.5
				c-6.5,28.9-8.9,59.7-7,91.6c-8.25-46.85-7.3-92.3,2-133.8c39.25-174.9,220.65-279.3,538.3-117.5
				C2253.7,1929.4,2492.9,2088.95,2512.8,2359.55z"/>
		</g>
		<g>
			<path class="st2" d="M2061.2,3029.77c-0.62,0-1.25-0.04-1.88-0.11c-269.44-32.84-480.57-139.89-594.52-301.43
				c-72.01-102.08-99.93-220.22-76.6-324.13c18.93-84.31,68.83-149.3,140.51-182.99c72.73-34.19,202.42-52.83,409.19,49.63
				c199.05-225.41,345.58-218.33,415.7-193.61c103.09,36.33,170.43,151.49,175.74,300.53c7.29,204.41-109.32,497.51-461.96,650.83
				C2065.42,3029.34,2063.32,3029.77,2061.2,3029.77z M1659.91,2224.95c-50.52,0-89.25,10.73-118.01,24.25
				c-62.81,29.52-106.65,86.95-123.43,161.71c-21.41,95.37,4.71,204.51,71.68,299.45c108.25,153.46,310.11,255.65,568.73,287.99
				c335.29-147.54,446.37-425.66,439.46-619.57c-4.85-136.01-64.26-240.38-155.05-272.37c-109.81-38.7-248.28,30.11-389.89,193.76
				c-4.67,5.4-12.41,6.91-18.77,3.67C1818.47,2244.66,1728.37,2224.95,1659.91,2224.95z"/>
		</g>
		<g>
			<path class="st12" d="M1678.9,2492.65c-13.4,52.5-48.65,96.65-95.3,124.15c-9.15,5.4-18.65,10.45-28.5,15.1
				c-0.05,0-0.15,0.05-0.2,0.1c-11.1,5.25-22.65,10.1-34.6,14.4c-0.35,0.15-0.5,0.2-0.5,0.2c-90,32.75-203.2,40.05-334.8,27.15
				l125,207.5l20,132.6l7.3,48.25c-4.65-36.95-6.3-73.1-4.05-106.5c0.4-6.45,0.95-12.8,1.7-19c0-0.05,0-0.1,0.05-0.15
				c3.9-34.1,12.4-64.7,26.5-89.35c15.4-27,37.55-46.95,67.85-56.75c4.6-1.5,9.25-2.7,13.9-3.55c0.05-0.05,0.1-0.05,0.15-0.05
				c63.1-12.45,126,27,146.05,89.95c12.85,40.35,16.7,95.55-7.1,166.85c-2.9,8.55-6.15,17.4-9.85,26.45
				c-78.75,192.5-166.25,132.5-226.25,107.5c-17.85-7.45-38.5-11.1-59.95-12.8c-22.4-1.8-45.65-1.4-67.5-0.85
				c-61.05,1.5-121.85-12.15-175-42.2c-64.2-36.3-111.25-91.25-129.95-176.85c-14.4-65.7-7.4-134.3,17.6-196.7l39.85-99.55
				c9.05-22.6,15.95-46.05,20.4-70.05c6.8-36.65,11.6-73.6,13.3-111c87.05,9.95,170.5,13.45,246.1,2.75
				c26.95-3.8,52.85-9.4,77.6-17.15c19.65-6.15,38.45-14.5,56.3-24.6c14.3-8,28.05-17.1,41.15-27
				C1568.4,2294.25,1714.7,2352.35,1678.9,2492.65z"/>
		</g>
		<g>
			<path class="st4" d="M1572.5,3070c-78.75,192.5-166.25,132.5-226.25,107.5c-17.85-7.45-38.5-11.1-59.95-12.8
				c-22.3-68.45-4.6-131.45,15.45-173.85c15.4-32.7,32.25-53.1,33.2-54.25c0.05-0.05,0.05-0.05,0.05-0.05s0-0.05,0-0.1
				c-0.65-2.5-9.85-43.9,26.5-89.35c11.45-14.4,27.5-29.15,49.75-43.25c10.3-6.5,21.05-12.15,32-17.05c0.05-0.05,0.1-0.05,0.15-0.05
				c63.1-12.45,126,27,146.05,89.95C1603.85,2921.9,1606.95,2985.8,1572.5,3070z"/>
		</g>
		<g>
			<path class="st4" d="M1678.9,2492.65c-13.4,52.5-48.65,96.65-95.3,124.15c-9.15,5.4-18.65,10.45-28.5,15.1
				c-0.05,0-0.15,0.05-0.2,0.1c-19.25,8.1-32.05,13.35-34.6,14.4c-0.35,0.15-0.5,0.2-0.5,0.2c-139-38.4-134.8-218.1-134.8-218.1
				c14.3-8,28.05-17.1,41.15-27C1568.4,2294.25,1714.7,2352.35,1678.9,2492.65z"/>
		</g>
		<g>
			<path class="st2" d="M1338.83,3105.88c-5.66-21.17-10.3-42.69-13.6-64.5c-3.42-21.8-5.56-43.9-6.16-66.24
				c-0.26-22.31,0.32-44.97,4.66-67.46c4.34-22.44,12-44.64,23.33-65.5c11.4-20.77,27.9-39.92,48.95-52.89
				c21.08-12.84,45.23-19.3,69.66-19.79c24.42-0.18,48.72,6.4,69.79,18.28c20.91,12.12,39.2,28.97,51.89,49.55l4.71,7.73
				c1.4,2.67,2.68,5.4,4.01,8.11c2.86,5.33,4.67,11.1,6.83,16.73c3.8,11.18,6.42,22.43,8.39,33.88c3.85,22.89,4.11,46.12,1.95,68.87
				c-4.68,45.57-19.48,88.94-38.38,129.14c-9.52,20.24-20.4,40.13-33.98,58.82c-13.63,18.51-30.4,36.24-52.48,48.21
				c-11,5.91-23.34,9.97-35.92,11.57c-12.58,1.65-25.22,0.9-37.12-1.32c-23.91-4.48-44.82-14.48-64.42-23.16
				c-10.03-4.53-18.45-7.91-28.18-10.35c-9.6-2.47-19.65-4.09-29.89-5.17c-20.52-2.14-41.73-2.16-63.2-1.74
				c-10.54,0.25-22.16,0.5-33.39,0.1c-11.29-0.5-22.59-1.27-33.81-2.76c-22.44-2.9-44.69-7.76-66.24-14.93
				c-43.13-14.25-83.54-36.94-117.38-68.17c-33.64-31.45-58.58-72.3-71.92-115.9c-6.85-21.74-11.42-44.07-13.76-66.7
				c-2.24-22.61-2.25-45.42-0.08-67.99c2.31-22.55,6.48-44.92,12.98-66.61c3.1-10.89,6.96-21.54,11.03-32.09l12.11-30.28
				l24.21-60.47c4.12-10.25,7.93-19.69,11.21-29.65c3.3-9.89,6.19-19.9,8.61-30.02c2.44-10.08,4.28-20.34,6.12-30.98
				c1.8-10.53,3.41-21.09,4.83-31.66c2.85-21.13,4.81-42.33,5.79-63.54l0.01-0.16l0-0.05c0.42-8.29,7.48-14.67,15.76-14.25
				c0.3,0.01,0.64,0.04,0.93,0.08c56.68,6.4,113.56,10.47,170.01,8.7c28.2-0.91,56.27-3.33,83.87-7.87l10.34-1.72l10.25-2.09
				c6.86-1.29,13.61-3,20.36-4.67c13.5-3.51,26.82-7.26,39.37-12.24c25.36-9.9,49.33-23.75,71.63-40.11l8.71-6.37l9.15-6.57
				c6.35-4.05,12.48-8.41,19.1-12.08c12.9-7.83,26.66-14.37,40.75-20.12c28.25-11.28,59.09-18,90.73-16.41
				c15.77,0.86,31.73,3.98,46.88,10.13c15.12,6.11,29.38,15.36,40.94,27.52c11.68,12.07,20.06,27.18,24.99,42.9
				c4.96,15.77,6.5,32.15,5.73,48c-0.72,15.93-3.78,31.23-8.25,46.11c-4.5,14.89-10.75,29.22-18.47,42.67
				c-15.39,26.95-36.65,50.28-61.51,68.45c-6.21,4.56-12.67,8.75-19.26,12.71l-19.76,10.8l-20.29,9.58l-20.73,8.42
				c-27.8,10.74-56.53,18.4-85.43,24.36c-28.93,5.9-58.2,9.62-87.49,11.35c-29.29,1.52-58.57,1.08-87.65-1.07
				c-29.06-2.41-57.9-6.91-86.19-14.23c-2.71-0.7-4.33-3.46-3.63-6.17c0.56-2.16,2.43-3.63,4.53-3.78l0.08,0
				c28.99-2.07,57.54-2.36,85.99-3.15c28.43-0.72,56.7-1.66,84.84-3.58c28.1-2.12,56.06-5.11,83.63-9.99
				c27.57-4.83,54.63-12.07,80.61-21.78l19.18-7.98l18.65-9l18.02-10.05c5.71-3.49,11.29-7.17,16.65-11.16
				c21.4-15.97,39.63-36.13,52.86-59.1c6.61-11.48,11.95-23.68,15.78-36.32c3.82-12.64,6.42-25.77,6.98-38.59
				c1.41-25.62-5.47-50.86-22.25-68.23c-16.54-17.53-41.38-26.86-67.18-28.16c-25.91-1.35-52.66,4.19-77.71,14.2
				c-12.51,5.1-24.85,10.9-36.54,18c-5.98,3.29-11.58,7.3-17.37,10.95l-8.38,6.01l-4.21,3.02l-4.5,3.33
				c-24.07,17.62-50.33,32.82-78.59,43.82c-14.21,5.6-28.65,9.64-42.96,13.34c-7.21,1.78-14.41,3.58-21.69,4.95l-10.89,2.2
				l-10.94,1.81c-29.17,4.76-58.54,7.24-87.82,8.15c-58.6,1.76-116.79-2.51-174.36-9.08l16.69-14.22l-0.01,0.16
				c-1.03,22.17-3.08,44.25-6.03,66.15c-1.47,10.95-3.14,21.87-4.99,32.73c-1.85,10.75-3.84,21.87-6.51,32.91
				c-2.63,10.99-5.76,21.86-9.34,32.57c-3.51,10.68-7.83,21.38-11.81,31.27l-24.21,60.47l-12.07,30.2
				c-3.73,9.7-7.3,19.48-10.13,29.48c-5.98,19.91-9.78,40.43-11.91,61.06c-1.98,20.65-1.97,41.47,0.06,62.07
				c2.13,20.56,6.32,40.98,12.52,60.66c12.12,39.45,34.02,75.08,63.83,103.05c30.01,27.73,66.99,48.66,106.26,61.58
				c19.66,6.55,40.04,11,60.64,13.66c10.3,1.38,20.69,2.08,31.09,2.54c10.48,0.36,20.57,0.15,31.73-0.11
				c21.92-0.42,44.24-0.46,66.93,1.9c11.34,1.2,22.79,3.02,34.22,5.96c11.38,2.79,23.17,7.55,32.9,12
				c19.95,8.92,38.8,17.6,57.75,21.08c18.86,3.62,37.17,1.6,53.42-7.25c16.27-8.78,30.42-23.12,42.38-39.48
				c11.96-16.46,22.08-34.8,31.01-53.83c18-38.25,31.45-78.33,35.68-119.35c1.92-20.45,1.67-41-1.69-60.97
				c-1.7-9.93-4.04-19.9-7.24-29.26c-1.77-4.49-3.14-9.15-5.48-13.39l-3.19-6.5l-3.79-6.16c-10.09-16.48-24.78-29.85-41.33-39.5
				c-16.72-9.4-35.77-14.51-54.76-14.39c-18.92,0.39-38.12,5.52-54.17,15.33c-16.03,9.92-28.89,24.59-38.39,41.79
				c-9.33,17.38-15.08,37.01-19.07,57.14c-4.22,20.1-7.22,40.89-8.62,61.96c-0.67,10.55-1.23,21.15-1.26,31.8
				c-0.25,10.65-0.13,21.35,0.16,32.07c0.77,21.42,2.16,42.94,4.1,64.53c0.26,2.76-1.77,5.21-4.53,5.46
				C1341.68,3109.81,1339.45,3108.2,1338.83,3105.88z"/>
		</g>
		<g>
			<path class="st2" d="M1061.25,2833.61c9.41-12.18,19.99-22.72,31.21-33c11.26-10.15,23.4-19.47,36.48-27.6
				c25.95-16.25,56.29-28.43,89.06-29.57c16.28-0.69,32.86,1.54,48.56,6.48c15.89,4.63,30.24,12.92,43.51,22.02
				c26.22,18.94,46.59,43.62,62.37,69.92c4.27,7.11,1.96,16.33-5.14,20.6c-6.77,4.06-15.46,2.17-19.95-4.16l-0.05-0.07
				c-16.29-23.06-34.76-44.05-56.19-60c-10.75-7.81-22.19-14.6-34.48-18.89c-12.25-4.38-25.13-6.87-38.33-7.28
				c-13.19-0.36-26.64,1.41-39.92,4.81c-13.24,3.53-26.31,8.6-38.98,14.83c-12.66,6.25-24.95,13.59-36.78,21.77
				c-11.85,8.07-23.33,17.21-33.86,26.76l-0.17,0.16c-2.05,1.86-5.22,1.7-7.07-0.34C1059.85,2838.21,1059.79,2835.5,1061.25,2833.61
				z"/>
		</g>
		<g>
			<path class="st2" d="M1627.17,2372.59l-71.62,42.62c-2.39,1.42-5.48,0.64-6.9-1.75c-1.21-2.03-0.82-4.58,0.8-6.17l59.4-58.45
				c5.95-5.85,15.51-5.78,21.37,0.17s5.78,15.51-0.17,21.37C1629.18,2371.22,1628.17,2371.99,1627.17,2372.59z"/>
		</g>
		<g>
			<path class="st2" d="M1597.01,2484.06l77.1-39.35c7.43-3.79,16.52-0.84,20.32,6.59c3.79,7.43,0.84,16.52-6.59,20.31
				c-1.04,0.53-2.19,0.94-3.27,1.22l-84.07,20.6c-2.7,0.66-5.43-0.99-6.09-3.69C1593.84,2487.43,1594.97,2485.1,1597.01,2484.06z"/>
		</g>
		<g>
			<path class="st2" d="M1535.99,3156.92c-6.81,0-13.05-4.52-14.95-11.4c-2.27-8.26,2.58-16.8,10.84-19.07
				c105.25-28.96,185.44-60.36,245.16-96.01c4.03-2.41,8.94-2.86,13.33-1.23c124.38,45.99,187.63,45,218.32-3.41
				c4.59-7.24,14.18-9.38,21.41-4.8c7.24,4.59,9.38,14.17,4.8,21.41c-48.66,76.76-147.55,55.09-248.36,18.43
				c-61.39,35.54-142.12,66.82-246.42,95.52C1538.74,3156.74,1537.35,3156.92,1535.99,3156.92z"/>
		</g>
		<g>
			<path class="st4" d="M2193.31,2788.1c-148.33-138.67-289.64,69.08-203.31,191.9c96.43,199.08,321.92,248.31,279.94-42.29
				C2261.71,2880.72,2235.37,2827.43,2193.31,2788.1z"/>
		</g>
		<g class="st1">
			<path class="st2" d="M2275.05,3009.35C2271.55,3218,2077.6,3160.8,1990,2980c-34.55-49.1-32.65-111.8-8.45-160.5
				c1.6,26.1,9.75,52.1,25.95,75.1C2079.85,3044,2224.9,3109,2275.05,3009.35z"/>
		</g>
		<g>
			<path class="st2" d="M2183.11,3158.04c-71.42,0-156.88-68.44-206.54-170.16c-53.6-77.51-25.62-178.58,31.33-228.12
				c44.53-38.73,119.4-54.59,195.99,17.01l0,0c43.59,40.75,72.49,97.12,81.39,158.73c24.48,169.42-42.55,209.05-72.5,218.22
				C2203.29,3156.63,2193.34,3158.04,2183.11,3158.04z M2092.71,2757.47c-22.81,0-44.7,8.52-64.44,25.69
				c-47.25,41.1-68.81,126.41-25.58,187.91c0.48,0.68,0.9,1.41,1.27,2.16c55.23,114.03,146.69,167.07,199.75,150.82
				c47.15-14.45,65.7-81.55,50.88-184.12c-7.89-54.65-33.42-104.55-71.87-140.5C2152.89,2771.55,2122.03,2757.47,2092.71,2757.47z"
				/>
		</g>
		<g>
			<path class="st2" d="M2208.12,2986.09c17.46,37.96,7.42,79.85-22.42,93.57c-29.84,13.72-68.18-5.92-85.63-43.88
				c-17.46-37.96-3.84-72.07,26-85.79C2155.9,2936.27,2190.66,2948.13,2208.12,2986.09z"/>
		</g>
		<g>
			<path class="st2" d="M2103.07,2838.04c10.87,22.16,12.07,47.68-7.19,57.13c-19.26,9.45-38.82-3.24-49.69-25.4
				s-8.93-45.39,10.33-54.84C2075.78,2805.49,2092.2,2815.89,2103.07,2838.04z"/>
		</g>
		<g>
			<path class="st2" d="M2050.49,2910c11.47,14.66,15.89,33.65,2.25,44.32c-13.65,10.67-30.56,4.74-42.02-9.92
				c-11.47-14.66-13.15-32.5,0.5-43.18C2024.86,2890.55,2039.02,2895.34,2050.49,2910z"/>
		</g>
		<g>
			<path class="st2" d="M2188.44,2851.43c6.05,17.6,4.02,37-12.39,42.64c-16.41,5.64-30.48-5.48-36.53-23.08s-1.8-35.02,14.61-40.66
				C2170.55,2824.69,2182.39,2833.83,2188.44,2851.43z"/>
		</g>
		<g>
			<path class="st2" d="M1005.02,2483.02c-1.01,0-2.03-0.1-3.05-0.31c-148.82-29.7-174.65-154.75-207.35-313.07
				c-10.69-51.76-21.74-105.24-38.02-161.81l-6.44-6.97c-169.44-183.55-344.66-373.36-397.9-541.82
				c-11.37-35.98,4.84-74.39,38.55-91.34c161.76-81.32,353.28-97.36,569.34-47.71c201.45-138.93,413.27-192.81,597.13-151.71
				c166,37.1,308.16,151.44,411.11,330.65c80.54,141.01,101.23,227.04,188.2,285.55c37.45,25.19,55.77,73.21,53.59,100.21
				c-5.96,73.79-4.9,202.98-125.6,290.26c-6.94,5.02-16.64,3.46-21.66-3.48c-5.02-6.94-3.46-16.64,3.48-21.66
				c110.61-79.98,96.03-165.03,110.28-232.22c13.28-62.64-35.52-107.8-48.68-118.47c-84.43-68.5-104.06-140.4-186.53-284.76
				c-99.89-173.88-231.43-280.14-390.95-315.8c-176.99-39.56-382.37,14-578.29,150.82c-3.62,2.53-8.14,3.4-12.44,2.38
				c-211.53-49.84-398.27-35.14-555.03,43.66c-20.03,10.07-29.66,32.89-22.9,54.27c51.16,161.86,223.98,349.07,391.11,530.12
				l8.92,9.66c1.63,1.77,2.83,3.88,3.5,6.19c17.18,59.04,29.1,116.77,39.62,167.7c31.57,152.82,54.38,263.24,183.04,288.93
				c8.4,1.67,13.85,9.85,12.18,18.25C1018.74,2477.91,1012.26,2483.02,1005.02,2483.02z"/>
		</g>
		<g>
			<path class="st7" d="M833.33,1470c-69.68,110.49-91.65,232.61-78.33,363.33c-130.76-98.51-237.39-215.49-295-370
				C460,1463.33,638.33,1401.67,833.33,1470z"/>
		</g>
		<g class="st1">
			<path class="st2" d="M833.35,1470c-15.85,25.15-29.25,50.9-40.3,77.2c-117.35-18.3-220.8,4.1-282.05,23.55
				c-19.75-33.75-36.85-69.45-51-107.4C460,1463.35,638.35,1401.65,833.35,1470z"/>
		</g>
		<g>
			<path class="st2" d="M755,1848.85c-3.3,0-6.59-1.05-9.34-3.12c-149.39-112.55-247.59-235.86-300.2-376.97
				c-1.46-3.92-1.28-8.25,0.5-12.03c1.78-3.78,5.01-6.68,8.96-8.05c7.49-2.59,185.71-62.63,383.53,6.69
				c4.46,1.56,7.96,5.07,9.52,9.53c1.56,4.46,0.99,9.39-1.53,13.38c-64.9,102.9-89.77,218.53-76.02,353.48
				c0.62,6.14-2.44,12.06-7.82,15.09C760.24,1848.19,757.62,1848.85,755,1848.85z M480.54,1473.46
				c48.76,121.78,130.91,226.41,256.25,326.16c-6.59-120.06,17.47-225.55,73.17-321C661.91,1432.71,525.46,1461.43,480.54,1473.46z"
				/>
		</g>
		<g>
			<path class="st2" d="M1892.17,1427.21c-0.19,0-0.38,0-0.58-0.01c-8.56-0.31-15.25-7.51-14.94-16.07
				c8.26-225.85-48.7-411.21-169.31-550.93c-15.3-17.72-41.41-20.99-60.74-7.59c-93.7,64.94-180.05,169.62-271.75,329.42
				c-4.26,7.43-13.75,10-21.18,5.73c-7.43-4.26-10-13.75-5.73-21.18c94.08-163.95,183.36-271.82,280.99-339.48
				c32.4-22.46,76.21-16.95,101.9,12.82c125.9,145.85,185.39,338.41,176.83,572.34C1907.36,1420.63,1900.48,1427.21,1892.17,1427.21
				z"/>
		</g>
		<g>
			<path class="st2" d="M1811.32,1337.43c-8.56,0-15.5-6.93-15.51-15.49c-0.28-197.49-80.8-331.37-111.22-374.9
				c-23.6,31.71-76.07,112.9-99.36,234.22c-1.61,8.41-9.74,13.94-18.16,12.31c-8.41-1.61-13.93-9.74-12.31-18.16
				c32.12-167.36,115.23-260.3,118.75-264.17c3.01-3.3,7.26-5.17,11.76-5.08c4.47,0.08,8.68,2.08,11.56,5.49
				c5.29,6.25,129.64,156.08,129.99,410.25c0.01,8.57-6.92,15.52-15.49,15.53C1811.33,1337.43,1811.33,1337.43,1811.32,1337.43z"/>
		</g>
		<g>
			<path class="st2" d="M1176.68,2063.78c-7.47-30.13-7.42-63.1,2.48-94.93c4.92-15.89,12.6-31.34,22.99-45.34
				c10.45-13.93,23.83-26.27,39.49-35.35c15.61-9.16,33.56-14.5,51.43-15.92c17.91-1.46,35.69,1.13,51.83,6.56
				c32.45,11.06,58.19,32.39,76.8,57.12c3.38,4.49,2.48,10.88-2.01,14.26c-3.33,2.5-7.7,2.66-11.11,0.74l-0.29-0.16
				c-25.11-14.14-49.86-25.97-74.49-30.03c-24.49-4.2-47.7-0.71-67.17,10.69c-19.46,11.42-35.46,30.27-46.73,53.32
				c-11.44,23.09-18.01,49.72-23.24,78.15l-0.05,0.29c-1.02,5.54-6.33,9.2-11.87,8.18
				C1180.67,2070.61,1177.62,2067.54,1176.68,2063.78z"/>
		</g>
		<g>
			<path class="st2" d="M1760.04,1835.94c-8.77-27.76-11.93-57.9-6.56-88.82c2.67-15.42,7.84-31.03,16.4-45.78
				c1.08-1.85,2.15-3.68,3.33-5.47l3.84-5.28c2.45-3.57,5.58-6.82,8.53-10.13c3.12-3.19,6.57-6.19,10.06-9.08
				c3.75-2.65,7.28-5.6,11.44-7.7c7.94-4.78,16.84-7.91,25.77-10.22c9.01-1.72,18.18-2.93,27.01-2.17
				c17.76,0.93,34.18,6.25,48.35,13.77c28.49,15.2,49.33,37.94,64.35,62.93c2.9,4.83,1.34,11.1-3.48,14
				c-3.51,2.11-7.77,1.86-10.96-0.28l-0.3-0.21c-22.65-15.29-44.68-29.49-67.09-36.75c-11.08-3.76-22-5.5-31.93-5.2
				c-5.02,0.03-9.65,0.95-14.17,1.99c-4.33,1.54-8.71,2.81-12.55,5.4c-15.88,8.96-28.27,28.07-36.21,50.9
				c-4.03,11.42-7.04,23.72-9.6,36.48c-2.52,12.81-4.14,26.05-6.32,39.74l-0.07,0.41c-0.89,5.58-6.13,9.38-11.7,8.49
				C1764.24,1842.33,1761.18,1839.51,1760.04,1835.94z"/>
		</g>
		<g>
			<path class="st2" d="M1690,1938.54c3.29,52.96-24.62,65.23-74.23,49.21c-13.97-4.51-16.28-23.33-3.77-31l51.88-31.8
				C1674.91,1918.2,1689.2,1925.64,1690,1938.54z"/>
		</g>
		<g>
			<path class="st2" d="M1683.32,1978.22l16.87,42.5l0.15,0.38c1.47,3.69,1.24,7.68-0.29,11.03l-0.01,0.01
				c-2.93,8.09-6.82,15.95-11.7,23.31c-5.01,7.28-10.97,14.05-17.87,19.87c-13.74,11.61-31.33,19.6-50,20.61
				c-9.29,0.43-18.84-0.74-27.63-4.3c-8.77-3.56-16.67-9.26-22.6-16.37c-5.99-7.09-9.76-15.57-11.61-24.02
				c-1.89-8.47-2.1-16.94-1.14-25.05c0.33-2.76,2.83-4.72,5.58-4.4c2.36,0.28,4.14,2.15,4.4,4.41l0.02,0.14
				c0.84,7.25,2.39,14.24,5.14,20.44c2.79,6.16,6.48,11.6,11.19,15.6c9.4,8.08,22.01,10.45,33.95,8.08
				c12.03-2.24,23.12-9.06,32.05-18.05c9.1-8.93,16.2-20.01,22.62-32l0-0.01l-0.14,11.4l-16.87-42.5
				c-3.06-7.7,0.71-16.42,8.41-19.48C1671.54,1966.75,1680.26,1970.52,1683.32,1978.22z"/>
		</g>
		<g>
			<path class="st2" d="M1690.09,2011.75c13.31,2.13,26.57,3.21,39.21,1.55c12.56-1.48,24.49-5.83,32.08-12.8
				c3.58-3.58,6.14-7.59,7.23-12.47c0.96-4.88,0.59-10.7-1.36-16.73c-3.87-12.19-12.6-24.32-22.34-35.59l-0.09-0.11
				c-1.82-2.11-1.59-5.29,0.52-7.11c1.72-1.49,4.17-1.6,6-0.44c13.32,8.47,26.33,18.9,35.22,34.63c4.31,7.83,7.42,17.36,7.06,27.73
				c-0.25,10.36-4.53,20.81-10.89,28.74c-6.4,7.94-14.41,13.81-22.79,17.93c-8.37,4.24-17.19,6.71-25.98,8.17
				c-17.61,2.68-35.34,0.99-51.54-4.49c-7.86-2.66-12.08-11.19-9.42-19.05c2.38-7.05,9.49-11.17,16.6-10.03L1690.09,2011.75z"/>
		</g>
		<g class="st1">
			<path class="st2" d="M2946.67,2742.13c-186.67-87.87-231.52,43.4-231.52,43.4s103.61,60.09,100.21,174.23
				c-3.4,114.14,107.98-39.24,107.98-39.24"/>
		</g>
		<g>
			<path class="st9" d="M3043.3,2984.9c-29.8,110.85-96.55,157.7-186.45,164.35c-4.2,0.4-8.4,0.6-12.7,0.75
				c-24.65,30.9-53.2,48.25-84.05,57.6c-36.2,10.95-74.9,4.8-106.25-16.25c-57.05-38.25-92.45-103.2-107.9-171.4
				c-10.45-45.85-11.85-93.15-4.8-134.85c6.9-40.9,31.45-72.1,62.95-89.7c0,0,0-0.05,0.05-0.05c20.6-11.5,44.15-17.2,67.65-16.1
				c0.05,0,0.05,0,0.1,0c28.5,1.35,56.95,12.65,80.15,35.85c24.9,24.9,43.5,59.6,54.5,99.8c0.4,1.55,0.85,3.15,1.25,4.75
				c0.15,0.6,0.2,0.9,0.2,0.9c8,31.55,11.4,66.25,9.7,102.2l6.85-54.25l3.05-24.3l29.05-230.65l12.1-96.05
				c-32.5,51.25-113.75,32.5-113.75,32.5c-94-1.8-150.05-90.5-194.1-182.5c-16.9-35.25-32-70.95-46.75-102.5
				c-39.85-84.95-20.15-114.85-7.65-124.55c4.25-3.25,7.65-4.2,7.65-4.2c-10.85-80,92.1-65,92.1-65
				c58.85,13.9,106.2,75.65,149.5,154.25c21.25,38.65,41.55,81.4,61.75,124.5c34.85,10.4,65.9,14.35,92.7,14.6
				c48.45,0.5,83-11.1,100.85-19.05c0.1-0.05,0.2-0.05,0.25-0.1c9-4.05,13.7-7.1,13.7-7.1c-0.35,0.85-0.65,1.7-0.95,2.55
				c-41.85,109.85-5.3,232.15,22.1,353.35C3060.35,2857.1,3060.05,2922.65,3043.3,2984.9z"/>
		</g>
		<g class="st10">
			<path class="st9" d="M2739.78,2804.3c0,0,27.8-96.62,176.2-73.27c-90.56-33.71-158.8-15.54-204.73,54.5"/>
		</g>
		<g>
			<path class="st4" d="M2755.75,2325.5c0,0.1,0,0.15,0,0.15S2749.3,2470,2560.9,2467.5c-16.9-35.25-32-70.95-46.75-102.5
				c-53.35-113.75,0-128.75,0-128.75c-10.85-80,92.1-65,92.1-65C2665.1,2185.15,2712.45,2246.9,2755.75,2325.5z"/>
		</g>
		<g>
			<path class="st4" d="M2856.85,3149.25c-4.2,0.4-8.4,0.6-12.7,0.75c-24.65,30.9-53.2,48.25-84.05,57.6
				c-36.2,10.95-74.9,4.8-106.25-16.25c-95.35-63.95-130.25-202.45-112.7-306.25c6.9-40.9,31.45-72.1,62.95-89.7
				c0,0,0-0.05,0.05-0.05c0.25-0.15,0.55-0.25,0.85-0.4c25.1-11.05,47.25-15.7,66.8-15.7c0.05,0,0.05,0,0.1,0
				c102.65,0,133.25,128.35,135.9,140.4c0.15,0.6,0.2,0.9,0.2,0.9s7.4,17.25,16.55,47.95
				C2836.5,3008.6,2851.45,3071.65,2856.85,3149.25z"/>
		</g>
		<g>
			<path class="st2" d="M2805.1,3083.02c6.29-45.59,5.8-91.77-3.22-135.88c-4.38-22.05-11.29-43.44-20.44-63.48
				c-9.18-20.03-21.29-38.42-35.88-53.85c-14.23-15.52-32.15-26.23-51.76-31.36c-19.56-5.16-40.63-4.39-60.01,1.78
				c-19.39,6.14-37.08,17.61-50.29,32.86c-13.21,15.26-22.03,34.05-25.37,54.12c-3.5,21.53-4.52,43.8-3.55,65.9
				c0.4,5.53,0.4,11.08,1.11,16.58l1.88,16.52c1.9,10.92,3.47,21.91,6.24,32.64c9.89,43.15,28.66,84.22,55.83,117.96
				c13.78,16.55,30.26,31.05,47.6,42.56c17.11,10.63,37.06,16.6,57.19,16.68c10.06,0.1,20.11-1.38,29.84-4.06
				c10.09-2.88,20-6.73,29.22-11.61c9.29-4.81,17.94-10.75,26.11-17.39c8.08-6.76,15.57-14.36,22.42-22.64l0.03-0.03l0.18-0.21
				c2.97-3.51,7.18-5.41,11.44-5.62c16.53-0.73,32.87-2.61,48.71-6.15c15.74-3.82,30.83-9.42,44.81-16.94
				c14.09-7.38,26.59-17.34,37.65-28.72c5.77-5.48,10.48-12.01,15.53-18.2c4.39-6.76,9.21-13.21,12.89-20.51
				c15.91-28.31,25.83-60.76,31.8-93.56c5.91-32.88,7.2-66.6,4.2-99.97c-1.49-16.68-4.04-33.28-7.6-49.67l-11.67-50.68
				c-7.91-33.96-15.73-68.24-21.56-103.21c-5.74-34.95-9.84-70.68-8.59-106.96c1.12-36.17,7.38-72.86,20.71-107.28l22.9,18.67
				c-2.86,1.77-4.78,2.8-7.09,4c-2.23,1.2-4.43,2.21-6.65,3.25c-4.43,2.06-8.87,3.89-13.37,5.56c-4.49,1.65-8.99,3.27-13.56,4.56
				c-4.53,1.47-9.12,2.65-13.72,3.73c-18.4,4.45-37.15,6.74-55.88,7.53c-9.35-0.03-18.74,0.33-28.04-0.49
				c-4.65-0.35-9.34-0.43-13.95-1.01l-13.85-1.76c-4.64-0.48-9.2-1.33-13.75-2.26l-13.66-2.66c-9.02-2.08-17.92-4.62-26.88-6.93
				c-4.27-1.1-7.59-4.02-9.35-7.71l-0.27-0.58c-12.72-27.09-25.45-54.1-38.81-80.63c-13.38-26.51-27.28-52.66-42.65-77.61
				c-15.39-24.88-32.17-48.82-51.74-69.21c-19.52-20.25-42.35-36.79-67.56-42.78l1.33,0.25c-4.23-0.54-9.77-0.9-14.7-0.94
				c-5.06-0.05-10.11,0.15-15.03,0.66c-9.83,0.98-19.29,3.22-26.83,7.08c-7.6,3.87-12.91,9-15.67,15.81
				c-2.99,6.71-3.41,15.59-2.26,24.88l0.01,0.07l-11.17,17.02c0.94-0.29,0.23-0.03,0.23-0.03l-0.73,0.4
				c-0.52,0.22-1.1,0.78-1.69,1.09c-0.56,0.47-1.1,1.01-1.69,1.46l-1.56,1.78c-1.94,2.6-3.77,5.67-4.78,9.57
				c-2.19,7.63-2.7,17-1.34,26.75c2.24,19.51,9.66,39.81,18.39,59.27l27.48,60.98c9.1,20.33,18.27,40.45,27.98,60.19
				c19.54,39.21,40.9,77.77,69.61,108.62c14.36,15.32,30.53,28.23,48.03,37.85c8.73,4.9,17.93,8.62,27.4,11.74
				c9.51,3.02,19.47,4.48,29.58,5.49l2.07,0.21c0.25,0.02,0.51,0.08,0.74,0.14c3.94,1.12,9.1,2.14,13.77,2.88
				c4.79,0.77,9.66,1.35,14.5,1.67c9.69,0.74,19.45,0.69,28.93-0.62c9.46-1.34,18.59-3.95,27.17-7.93
				c8.43-4.26,15.64-10.47,22.08-17.87l0.28-0.32c1.81-2.08,4.97-2.3,7.06-0.49c1.8,1.57,2.21,4.15,1.1,6.17
				c-5.39,9.88-13,18.84-22.39,25.73c-9.46,6.68-20.16,11.35-31.14,14.48c-11,3.09-22.25,4.39-33.46,4.93
				c-5.62,0.29-11.21,0.13-16.82-0.17c-5.72-0.33-10.95-0.76-17.24-1.83l2.81,0.35c-12.17,0.06-24.51-0.89-36.6-3.58
				c-12.02-2.78-23.91-6.76-34.85-12.45c-22-11.28-40.53-27.49-56.19-45.11c-31.55-35.34-54.2-75.63-74.27-116.16
				c-9.99-20.31-19.33-40.81-28.46-61.22l-27.53-61.09c-9.39-21.16-17.84-43.26-20.84-68.2l-0.87-9.44
				c-0.18-3.19,0.02-6.53,0.05-9.79c-0.08-3.23,0.51-6.67,1-10.05c0.29-1.7,0.43-3.37,0.86-5.09l1.47-5.18
				c1.91-6.87,5.49-13.82,10.36-20c1.32-1.5,2.58-3.03,4.01-4.45c1.52-1.36,3.04-2.72,4.65-3.99c1.76-1.18,3.36-2.42,5.33-3.45
				c0.99-0.52,1.89-1.03,2.99-1.53c1.3-0.52,1.84-0.86,4.12-1.56l-11.17,17.02l-0.01-0.1c-0.71-6.5-1.26-13.13-0.58-20.13
				c0.46-6.91,2.1-14.16,5.04-21.05c2.91-6.88,7.2-13.48,12.57-18.73c5.32-5.31,11.4-9.44,17.61-12.59
				c12.5-6.3,25.31-8.98,37.72-10.28c6.22-0.63,12.39-0.88,18.53-0.82c3.07,0.03,6.13,0.14,9.21,0.34c3.17,0.21,5.95,0.43,9.62,0.92
				c0.44,0.06,0.86,0.14,1.28,0.24l0.04,0.01c16.58,4.08,32.17,11.17,45.83,20.28c13.72,9.08,25.9,19.76,36.93,31.15
				c21.96,22.92,39.71,48.44,55.83,74.48c16.07,26.1,30.32,52.94,43.95,79.94c13.6,27.01,26.43,54.24,39.19,81.41l-9.61-8.28
				c8.25,2.1,16.45,4.46,24.74,6.37l12.5,2.42c4.16,0.86,8.33,1.65,12.54,2.07l12.59,1.6c4.2,0.53,8.42,0.58,12.62,0.9
				c8.42,0.77,16.83,0.4,25.24,0.46c16.77-0.73,33.44-2.77,49.6-6.67c4.05-0.95,8.06-1.97,11.99-3.26c3.99-1.12,7.85-2.52,11.7-3.93
				c3.83-1.42,7.61-2.99,11.24-4.67c1.81-0.85,3.65-1.68,5.33-2.6c1.65-0.82,3.61-1.95,4.54-2.51l0.41-0.25
				c7.36-4.42,16.9-2.03,21.32,5.32c2.55,4.25,2.8,9.29,1.17,13.59c-11.82,30.62-17.54,63.51-18.58,96.87
				c-1.18,33.4,2.64,67.25,8.18,100.94c5.62,33.73,13.29,67.4,21.17,101.26l11.77,51.12c3.83,17.64,6.58,35.52,8.19,53.52
				c3.23,35.99,1.85,72.48-4.56,108.15c-6.52,35.57-17.09,70.74-35.27,103.28c-4.22,8.26-9.77,15.87-14.92,23.66
				c-5.89,7.33-11.48,14.91-18.32,21.51c-13.14,13.54-28.28,25.51-45.06,34.34c-16.67,8.99-34.47,15.53-52.59,19.9
				c-18.17,4.07-36.51,6.16-54.78,6.95l11.61-5.82l-0.03,0.04c-15.36,19.7-34.7,37.34-57.38,49.46
				c-11.27,6.16-23.1,10.97-35.32,14.66c-12.63,3.71-25.81,5.83-39.03,5.91c-26.43,0.25-52.94-7.05-75.42-20.9
				c-21.53-14.1-40.16-30.73-56.27-49.93c-31.38-38.79-52.08-84.6-63.1-132.04c-3.03-11.83-4.9-23.88-6.81-35.92l-1.93-18.18
				c-0.71-6.05-0.7-12.17-1.07-18.25c-0.86-24.39,0.43-48.83,4.61-73.23c4.48-25.83,16.31-50.71,34-70.31
				c17.61-19.68,40.68-34.09,65.76-41.61c25.06-7.56,52.33-8.17,77.72-1.04c25.38,6.97,48.4,22.23,65.12,41.42
				c17.05,18.75,29.5,40.65,38.84,63.27c9.37,22.67,15.04,46.45,18.45,70.26c6.42,47.77,2.54,96.13-9.52,141.74
				c-0.71,2.67-3.45,4.27-6.12,3.56c-2.48-0.65-4.03-3.05-3.68-5.53L2805.1,3083.02z"/>
		</g>
		<g>
			<path class="st2" d="M2700.47,2780.52c0.86-2.22,1.45-3.46,2.2-5.03c0.71-1.49,1.46-2.91,2.21-4.32
				c1.51-2.81,3.13-5.51,4.81-8.16c3.39-5.27,7.15-10.23,11.17-14.96c8.12-9.38,17.43-17.75,27.83-24.45
				c20.74-13.56,45.07-20.46,68.72-21.38c23.73-0.99,46.87,2.97,68.74,9.47c21.89,6.6,42.68,15.63,62.65,25.91
				c2.46,1.26,3.42,4.28,2.16,6.74c-1.2,2.33-3.98,3.32-6.36,2.33l-0.05-0.02c-20.27-8.49-41.06-15.6-62.19-20.18
				c-21.09-4.52-42.64-6.32-63.24-3.81c-20.59,2.46-39.95,9.93-55.58,22c-7.86,5.98-14.67,13.21-20.49,21.11
				c-2.87,3.98-5.51,8.12-7.8,12.4c-1.12,2.15-2.2,4.31-3.15,6.47c-0.47,1.08-0.93,2.16-1.33,3.22c-0.38,0.96-0.84,2.3-0.94,2.68
				c-1.98,8.37-10.37,13.55-18.74,11.57c-8.37-1.98-13.55-10.37-11.57-18.74c0.16-0.68,0.36-1.33,0.6-1.97L2700.47,2780.52z"/>
		</g>
		<g>
			<path class="st2" d="M2475.45,3131.56c-136.12,0-213.49-40.1-217.45-42.2c-7.57-4.02-10.44-13.41-6.42-20.98
				c4.02-7.56,13.4-10.43,20.96-6.43c1.51,0.79,114.22,58.38,304.7,31.14c8.46-1.21,16.34,4.68,17.55,13.16
				c1.21,8.48-4.68,16.34-13.16,17.55C2543.09,3129.32,2507.62,3131.56,2475.45,3131.56z"/>
		</g>
		<g>
			<path class="st2" d="M3051.44,3115.74c-20.42,0-42.09-1.46-65.16-4.54c-8.49-1.13-14.46-8.94-13.32-17.43
				c1.13-8.49,8.9-14.49,17.43-13.32c271.58,36.25,333.94-170.44,379.46-321.36c9.47-31.39,18.41-61.04,28.31-85.02
				c60.88-147.48,173.46-115.96,174.59-115.62c51.8,16.28,100.45,8.43,130.36-20.96c22.57-22.17,30.14-53.09,20.77-84.83
				c-6.75-22.86-22.27-43.33-43.7-57.64c-81.65-54.51-157.29-67.77-224.82-39.42c-101.69,42.69-181.32,179.6-218.46,375.61
				c-22.86,104.69-80.82,173.53-177.29,210.85c-8,3.09-16.97-0.88-20.07-8.87c-3.09-7.99,0.88-16.98,8.87-20.07
				c87.19-33.74,137.43-93.52,158.09-188.11c39.03-206.01,125.39-351.24,236.85-398.02c77.73-32.63,163.2-18.43,254.05,42.22
				c27.46,18.33,47.43,44.85,56.23,74.66c12.53,42.46,1.77,85.73-28.79,115.75c-38.23,37.56-98.48,48.2-161.17,28.5
				c-3.21-0.9-86.97-23.02-136.84,97.79c-9.31,22.56-18.04,51.5-27.28,82.14C3357.13,2908.72,3294.67,3115.73,3051.44,3115.74z"/>
		</g>
		<g>
			<path class="st2" d="M2512.48,2220.83c3.24-0.05,5.01,0.19,7.32,0.47c2.18,0.26,4.28,0.67,6.36,1.1c4.16,0.9,8.19,2.13,12.1,3.63
				c7.81,3.01,15.13,7.27,21.33,12.68c6.15,5.41,11.54,11.55,15.27,18.44c2.17,3.26,3.45,6.94,5.06,10.37
				c1.4,3.53,2.35,7.18,3.49,10.69c0.85,2.61-0.58,5.42-3.19,6.27c-2.19,0.72-4.53-0.18-5.72-2.03l-0.42-0.65
				c-1.81-2.81-3.38-5.7-5.29-8.31c-2.09-2.48-3.81-5.18-6.19-7.26c-4.23-4.61-9.4-7.95-14.58-10.59
				c-5.23-2.62-10.86-4.13-16.52-4.75c-2.83-0.29-5.67-0.41-8.45-0.27c-1.39,0.09-2.76,0.17-4.08,0.37
				c-1.18,0.15-2.9,0.46-3.14,0.68c-7.2,6.59-18.38,6.1-24.97-1.1c-6.59-7.2-6.1-18.38,1.09-24.97c3.31-3.03,7.47-4.57,11.63-4.64
				L2512.48,2220.83z"/>
		</g>
		<g>
			<path class="st2" d="M2583.66,2155.68c1.31,0.51,1.66,0.75,2.39,1.1c0.68,0.34,1.16,0.65,1.75,0.97
				c1.16,0.64,2.13,1.31,3.16,1.98c1.99,1.35,3.89,2.72,5.63,4.2c3.58,2.87,6.71,6.03,9.65,9.28c5.85,6.52,10.55,13.66,14.46,20.99
				c3.89,7.36,6.79,15,9.14,22.66c1.19,3.82,1.99,7.74,2.97,11.56l2.04,11.6c0.48,2.72-1.34,5.32-4.07,5.8
				c-2.33,0.41-4.57-0.87-5.47-2.95l-0.16-0.37l-4.33-10.1c-1.71-3.22-3.2-6.51-5.04-9.59c-3.62-6.18-7.59-12.02-12.13-17.18
				c-4.55-5.13-9.48-9.72-14.78-13.36c-2.65-1.8-5.34-3.47-8.08-4.72c-1.34-0.69-2.72-1.21-4.02-1.69c-0.64-0.21-1.31-0.48-1.88-0.6
				c-0.27-0.06-0.63-0.19-0.83-0.2c-0.14,0-0.65-0.14-0.24,0.06c-8.13-2.71-12.51-11.5-9.8-19.63
				C2566.75,2157.35,2575.54,2152.96,2583.66,2155.68z"/>
		</g>
		<g>
			<path class="st2" d="M2740.88,3044.65c14.13,40.06-0.68,81.81-33.09,93.24c-32.41,11.43-74.27-23.51-88.4-63.58
				c-14.13-40.06,4.82-70.07,37.23-81.5C2689.03,2981.37,2726.75,3004.59,2740.88,3044.65z"/>
		</g>
		<g>
			<ellipse class="st2" cx="2592.5" cy="2931.72" rx="27.5" ry="34.83"/>
		</g>
		<g>
			<ellipse class="st2" cx="2652.42" cy="2883.6" rx="32.43" ry="41.48"/>
		</g>
		<g>
			
				<ellipse transform="matrix(0.9873 -0.1586 0.1586 0.9873 -427.6255 470.3438)" class="st2" cx="2732.36" cy="2913.76" rx="30.17" ry="38.46"/>
		</g>
		<g>
			<path class="st2" d="M2665.21,1984.37c-14.06-35.92-44.2-50.56-86.08-49.65c-8.01,0.17-13.86,7.63-11.92,15.4
				c3.88,15.59,13.43,39.39,36.4,48.92c22.15,9.19,42.14,5.67,54.02,1.74C2664.41,1998.53,2667.82,1991.02,2665.21,1984.37z"/>
		</g>
		<g>
			<path class="st2" d="M2617.83,1994.13l-29.58,60c-1.05,2.12-2.54,3.88-4.31,5.22l-0.89,0.67c-16.78,12.61-39.82,16.8-59.83,12.44
				c-20.12-4.28-38.02-14.88-51.14-30.07c-6.54-7.59-11.84-16.55-14.57-26.61c-2.82-9.96-2.96-20.96,0.08-30.87
				c2.94-9.97,8.9-18.41,15.83-24.86c6.94-6.53,14.77-11.4,22.8-15.42c2.47-1.24,5.48-0.24,6.72,2.24c1.1,2.2,0.43,4.82-1.47,6.25
				l-0.18,0.13c-6.58,4.94-12.7,10.27-17.44,16.35c-4.73,6.06-7.9,12.83-8.95,19.58c-2.2,13.59,4.42,26.94,14.89,36.63
				c10.45,9.75,24.5,15.93,38.2,17.19c13.82,1.39,26.65-1.63,38.55-8.02l-5.2,5.89l29.58-60c3.66-7.43,12.66-10.48,20.09-6.82
				C2618.44,1977.71,2621.49,1986.7,2617.83,1994.13z"/>
		</g>
		<g>
			<path class="st13" d="M2520,2058.75c-51.25,111.39,69.72,117.66,87.92,47.5"/>
		</g>
		<g>
			<path class="st2" d="M2589.79,2047.5c1.11,11.21,6.75,21.77,16.41,30.84c9.48,9.02,22.6,15.72,36.12,17.82
				c13.44,2.02,27.47-0.08,37.24-9.15c4.87-4.47,8.8-10.39,11.58-17.21c2.68-6.88,4.13-14.48,5.11-22.29l0.03-0.24
				c0.35-2.75,2.85-4.69,5.6-4.35c2.4,0.3,4.19,2.26,4.37,4.59c0.66,8.59,0.5,17.43-1.33,26.37c-1.87,8.91-5.73,17.91-12.02,25.52
				c-6.19,7.68-14.77,13.59-24.02,17.05c-9.26,3.58-19.11,4.74-28.68,4.4c-19.16-0.86-37.73-7.31-53.47-19.27
				c-7.78-6.05-14.8-13.73-19.77-23.05c-5.03-9.24-7.76-20.25-7.16-31.01c0.46-8.28,7.54-14.62,15.83-14.16
				c7.5,0.42,13.4,6.26,14.11,13.51L2589.79,2047.5z"/>
		</g>
		<g>
			<path class="st2" d="M2550.23,2167.07c-18.08,0-34.58-7.28-45.12-20.44c-9.98-12.46-23.08-41.26,1.26-94.16
				c3.46-7.52,12.37-10.82,19.9-7.36c7.53,3.46,10.82,12.37,7.36,19.9c-12.86,27.94-14.71,50.85-5.1,62.87
				c6.21,7.75,17.76,10.92,30.13,8.28c13.31-2.85,29.42-13.19,34.74-33.67c2.08-8.02,10.26-12.83,18.28-10.75
				c8.02,2.08,12.83,10.27,10.75,18.28c-7.31,28.2-29.35,49.46-57.5,55.48C2559.98,2166.56,2555.05,2167.07,2550.23,2167.07z"/>
		</g>
		<g>
			<path class="st2" d="M2514.16,2080.55c37.98,1.4,66.22,16.55,83.33,47.46l2.2-30.51l-24.9-42.5l-50.62,13.75"/>
		</g>
		<g>
			<path class="st2" d="M3168.03,2190.96c2.09-0.55,3.34-0.73,4.91-1.04c1.54-0.32,2.91-0.45,4.37-0.69c2.9-0.47,5.7-0.69,8.53-0.96
				c2.83-0.32,5.61-0.39,8.41-0.51c2.79-0.12,5.58-0.26,8.34-0.15l8.29,0.13c2.75,0.12,5.49,0.39,8.22,0.58
				c5.49,0.29,10.89,1.09,16.29,1.87c21.57,3.22,42.35,9.38,62.2,17.32l14.64,6.48c4.92,2.04,9.46,4.87,14.19,7.27
				c9.52,4.72,18.33,10.61,27.26,16.22c4.55,2.68,8.69,5.96,12.93,9.05l12.67,9.35c8.12,6.63,15.98,13.55,23.95,20.29
				c2.1,1.78,2.37,4.93,0.59,7.04c-1.68,1.99-4.59,2.33-6.68,0.86l-0.34-0.24c-8.34-5.91-16.53-11.96-24.9-17.7l-12.97-7.96
				c-4.33-2.62-8.55-5.43-13.12-7.61c-8.98-4.62-17.8-9.52-27.16-13.18c-4.65-1.87-9.12-4.19-13.89-5.69l-14.15-4.88
				c-19.04-5.79-38.5-9.76-57.97-10.98c-4.87-0.28-9.72-0.6-14.56-0.42c-2.42,0.04-4.84,0-7.24,0.1l-7.18,0.5
				c-2.4,0.1-4.75,0.44-7.1,0.74c-2.35,0.3-4.71,0.55-6.99,1.02c-2.29,0.42-4.61,0.79-6.77,1.35c-1.07,0.27-2.26,0.48-3.23,0.79
				c-0.94,0.28-2.22,0.61-2.61,0.78c-7.88,3.48-17.1-0.08-20.58-7.96c-3.48-7.88,0.08-17.09,7.96-20.58c0.75-0.33,1.5-0.6,2.27-0.8
				L3168.03,2190.96z"/>
		</g>
		<g>
			<path class="st2" d="M3114.29,2303.42c2.01,0.32,3.15,0.58,4.6,0.91c1.37,0.31,2.7,0.65,4.01,1.01c2.63,0.7,5.19,1.49,7.72,2.32
				c5.05,1.69,9.96,3.61,14.76,5.76c9.59,4.31,18.7,9.54,27.22,15.56c17.06,12.04,31.51,27.52,42.35,44.91
				c5.35,8.75,9.9,17.88,13.63,27.27c3.52,9.46,6.64,19.02,8.6,28.79c4.27,19.46,5.76,39.2,5.32,58.69
				c-0.06,2.76-2.35,4.95-5.12,4.89c-2.6-0.06-4.7-2.12-4.88-4.66c-1.29-18.82-4.47-37.4-10.06-55c-2.63-8.85-6.3-17.28-10.21-25.47
				c-4.11-8.1-8.88-15.77-14.21-22.94c-10.82-14.23-24.25-26.1-39.41-34.85c-7.58-4.37-15.55-8.02-23.76-10.83
				c-4.1-1.4-8.26-2.59-12.42-3.57c-2.08-0.48-4.16-0.91-6.2-1.26c-1.92-0.35-4.36-0.66-5.52-0.72
				c-8.58-0.42-15.19-7.71-14.77-16.28c0.42-8.58,7.71-15.19,16.28-14.77c0.56,0.03,1.12,0.08,1.66,0.17L3114.29,2303.42z"/>
		</g>
		<g>
			<g class="st1">
				<path class="st2" d="M1586.25,2959.75c-30.15,141.45-122.7,118.35-253-4.15c-1.05-1.05-2.15-2.05-3.25-3.1v81.6
					c-210,59.1-293.75-175.9-293.75-175.9l88.1-70.1c-26.6-187.95,58.1-277.15,126.75-317.85c-66.98,9.48-140.13,7.8-216.48,0.38
					c0.07,0.01,0.13,0.01,0.2,0.02c-1.82,36.32-6.52,72.23-13.12,107.85c-4.45,24-11.35,47.45-20.4,70.05l-39.85,99.55
					c-25,62.4-32,131-17.6,196.7c18.7,85.6,65.75,140.55,129.95,176.85c46.5,26.29,98.86,40.03,152.12,42.05
					c-2.37,0.05-4.78,0.09-7.12,0.15c21.85-0.55,45.1-0.95,67.5,0.85c21.45,1.7,42.1,5.35,59.95,12.8c60,25,147.5,85,226.25-107.5
					c3.7-9.05,6.95-17.9,9.85-26.45C1588.55,2999.2,1586.25,2959.75,1586.25,2959.75z"/>
			</g>
		</g>
		<g class="st1">
			<path class="st2" d="M1643.75,2360.71c-1.8,128.55-108.83,194.79-277.5,224.53c0,0-180.13,34.58-153.82,90.92
				c181.81,16.14,350.01,0.24,457.88-157.73C1670.31,2518.44,1711.25,2413.92,1643.75,2360.71z"/>
		</g>
		<g class="st1">
			<path class="st2" d="M1212.43,2676.16c0,0,121.32,116.71,261.32,45.28l-27.54-52.64l-81.21,12.34"/>
		</g>
		<g>
			<g class="st1">
				<path class="st2" d="M2709.28,3211.99c6.99-0.86,13.95-2.32,20.82-4.39c30.85-9.35,64.97-18.66,89.62-49.56
					c4.3-0.15,2.93-8.39,7.13-8.79c89.9-6.65,156.65-53.5,186.45-164.35c16.75-62.25,17.05-127.8,2.85-190.65
					c-26.52-117.32-61.61-235.66-25.88-342.75c0.02-0.01,0.05-0.01,0.07-0.02c-27.36,6.95-56.24,10.93-80.14,13.12
					c-30.85,2.9-53.35,2.95-53.35,2.95c-48.15,99.2-96.85,97.45-185.05,32.7c-88.2-64.75-125.35-257.45-125.35-257.45
					s-23.05-10.25-39.95-2.35c-5.7,2.65-10.7,7.4-13.85,15.25c-3.6,8.9-4.9,21.9-2.2,40.55c7.8,54.3,20.25,79,23.6,109.9
					c1.85,16.65,1,35.15-4.6,61.05c0,0.1-0.05,0.2-0.05,0.3c-17.5,133.85-85,280.1-216.55,399.45c8.4-1.85,19-5.75,32.15-12.05
					c138.55-66.3,195.45-173.1,217.5-233.8c31.45,33.15,76.9,64.65,134.15,60.55c116.7-8.3,108.35,31.25,108.35,31.25
					s32.05-4.35,71.65,0.65c22,2.75,46.35,8.4,68.8,19.3c65.85,119.55-11.4,308.35-97.85,211.35c-6.95-7.85-14-17.55-21.05-29.3
					c-66.75,195.9-156.2,192.85-262.3,43.45l1.7,61.6c15.45,68.2,50.85,133.15,107.9,171.4c18.63,12.51,39.87,19.71,61.63,21.23
					C2713.41,3212.44,2711.34,3212.24,2709.28,3211.99z"/>
			</g>
		</g>
	</g>
	<g class="st1">
		<path class="st2" d="M1566.16,2058.52c-3.46-5.75,1.98-12.4,7.95-9.72c16.11,7.24,29.61,8.01,50.17-4.44
			c24.61-14.91-0.05-53.02-0.05-53.02l27.92-14.8l27.92-14.8c0,0,17.71,41.8,43.86,29.79c21.84-10.03,28.78-21.63,31.82-39.03
			c1.13-6.45,9.69-7.22,12.51-1.13c7.37,15.94,12.38,40.41-10.04,61.52c-34.91,32.85-64.5,39-100.06-25.02
			c33.03,65.36,11.35,86.4-35.44,96.86C1592.66,2091.45,1575.21,2073.56,1566.16,2058.52z"/>
	</g>
</g>
<g>
	<g>
		<g>
			<g>
				<g>
					<path class="st0" d="M3081.89,3443.29c-6.26,4.65-58.25-8.34-97.12-48.94c-38.83-40.6-27.95-78.09-23.4-100.14
						c0.45-2.15,0.83-4.17,1.12-6.13c4.97-30.2-3.31-40.6-1.38-44.1l29.69-3.88c0,0,38.67,6.23,62.81,39.12
						c6.68,9.05,12.2,20.16,15.53,33.7c6.45,26.29-3.27,52.57-0.77,73.21C3072.39,3419.29,3085.78,3440.4,3081.89,3443.29z"/>
				</g>
			</g>
		</g>
	</g>
	<g class="st1">
		<g>
			<g>
				<g>
					<path class="st2" d="M2962.5,3288.08c4.97-30.2-3.31-40.6-1.38-44.1l29.69-3.88c0,0,38.67,6.23,62.81,39.12
						C3029.93,3285,2993.57,3287.35,2962.5,3288.08z"/>
				</g>
			</g>
		</g>
	</g>
	<g>
		<g>
			<g>
				<g>
					<path class="st2" d="M3077.05,3456.74c-24.48,0-70.76-21.36-101.54-53.52c-41.38-43.23-32.36-85.27-27.51-107.85l0.8-3.78
						c4.45-21.53,1.89-32.24,0.37-38.64c-1.04-4.33-2.32-9.72,0.74-15.22c3.44-6.2,11.26-8.43,17.46-4.98
						c4.77,2.65,7.19,7.89,6.48,12.99c0.09,0.38,0.19,0.79,0.3,1.24c1.76,7.36,5.42,22.68-0.19,49.81l-0.84,3.96
						c-4.64,21.66-11.01,51.32,20.95,84.71c24.48,25.57,54.47,39.04,71.58,43.84c-3.48-10.17-7.91-24.31-10.01-41.63
						c-1.23-10.1-0.05-20.43,1.19-31.37c1.52-13.39,3.09-27.24-0.12-40.32c-13.11-53.36-65.74-62.83-67.97-63.2
						c-6.97-1.18-11.71-7.77-10.56-14.75c1.15-6.98,7.72-11.71,14.68-10.59c2.92,0.47,71.55,12.28,88.78,82.42
						c4.31,17.54,2.39,34.43,0.7,49.34c-1.06,9.4-2.07,18.27-1.21,25.39c2.06,16.98,6.73,30.44,10.15,40.28
						c3.9,11.23,7.59,21.83-1.72,28.73C3086.68,3455.73,3082.37,3456.74,3077.05,3456.74z M3069.8,3442.02h0.05H3069.8z
						 M3077.87,3431.33L3077.87,3431.33L3077.87,3431.33z"/>
				</g>
			</g>
		</g>
	</g>
	<g>
		<g>
			<g>
				<g>
					<path class="st0" d="M3027.04,3192.36c33.53-24.97,52.25-47.93,47.25-100.1c-3.05-31.84-9.54-63.87-18.55-94.28
						c-4.42-14.9-4.78-33.48-17.32-15.87c-24.16,33.96-56.29,62.37-75.28,100.39c-18.94,37.78-15.74,98.38,25.78,118.56
						c3.87,2.15,0.05,12.2,9.18,9.04C2998.1,3210.1,3016,3201.4,3027.04,3192.36z"/>
				</g>
			</g>
		</g>
	</g>
	<g class="st3">
		<g>
			<g>
				<g>
					<path class="st4" d="M3074.3,3092.24c-3.05-31.84-9.53-63.87-18.55-94.26c-4.43-14.92-4.78-33.47-17.33-15.89
						c-24.17,33.99-56.29,62.39-75.26,100.39c-7.67,15.24-11.71,34.24-11.07,52.76c1.64-5.33,3.69-10.46,6.07-15.21
						c18.97-38.03,51.09-66.44,75.26-100.39c12.55-17.62,12.9,0.96,17.33,15.85c9.02,30.43,15.5,62.46,18.55,94.29
						c0.39,4.01,0.64,7.86,0.71,11.55C3074.62,3128.12,3076.23,3112.33,3074.3,3092.24z"/>
				</g>
			</g>
		</g>
	</g>
	<g class="st1">
		<g>
			<g>
				<g>
					<path class="st2" d="M3074.3,3092.24c-0.16-1.73-0.35-3.43-0.51-5.17c-8.06,17.3-19.45,32.84-37.58,46.35
						c-15.91,15.47-32.09,15.4-35.94,13.25c-20.22-9.85-35.95-36.39-39.87-58.09c-15.76,37.9-10.85,93.36,28.53,112.49
						c3.85,2.15,0.03,12.2,9.18,9.02c0,0,17.88-8.7,28.92-17.75C3060.56,3167.41,3079.31,3144.43,3074.3,3092.24z"/>
				</g>
			</g>
		</g>
	</g>
	<g>
		<g>
			<g>
				<g>
					<path class="st2" d="M2995.03,3223.56c-2.93,0-5.65-0.72-8.13-2.14c-5.17-2.97-7.06-7.8-7.9-11.09
						c-15.9-9.1-27.66-23.92-34.18-43.15c-9.43-27.82-6.74-63.32,6.85-90.43c12.6-25.22,30.44-46.19,47.71-66.48
						c10.23-12.03,19.9-23.39,28.59-35.6c2.82-3.97,10.36-14.48,21.69-12.27c11.31,2.23,14,13.77,16.38,23.95
						c0.61,2.61,1.24,5.36,2.02,7.99c9.57,32.31,15.97,64.84,19.02,96.7c5.42,56.58-15,83.75-52.13,111.45
						c-12.08,9.8-30.43,18.78-31.22,19.16l-1.42,0.59C2999.75,3223.12,2997.32,3223.56,2995.03,3223.56z M2998.11,3210.1h0.05
						H2998.11z M3042.49,2998.2c-7.6,9.94-15.69,19.44-23.56,28.7c-17.02,20-33.1,38.89-44.3,61.33
						c-10.51,20.98-12.72,49.39-5.49,70.7c4.91,14.49,13.46,24.77,25.41,30.58l0.62,0.32c2.28,1.27,3.94,2.9,5.15,4.61
						c5.64-3.11,13.18-7.59,18.6-12.03l0.46-0.36c32.02-23.85,46.49-43.18,42.14-88.58c-2.9-30.22-8.97-61.13-18.08-91.86
						C3043.1,3000.5,3042.79,2999.35,3042.49,2998.2z"/>
				</g>
			</g>
		</g>
	</g>
	<g>
		<g>
			<g>
				<g>
					<path class="st2" d="M3024.38,3073.99c-4.16,20.55-7.6,41.39-10,62.09c-1.23,10.35-2.04,20.69-2.38,30.84
						c-0.33,10.04-0.12,20.43,1.83,28.47c1.67,6.91-2.57,13.87-9.48,15.54c-6.91,1.67-13.87-2.57-15.54-9.48
						c-0.15-0.61-0.25-1.23-0.31-1.84l-0.01-0.11c-1.13-12.91,0.49-23.79,2.24-34.72c1.86-10.84,4.16-21.41,6.86-31.81
						c5.34-20.83,11.6-41.13,18.62-61.3c0.77-2.22,3.2-3.39,5.41-2.62c2.03,0.71,3.19,2.8,2.77,4.86L3024.38,3073.99z"/>
				</g>
			</g>
		</g>
	</g>
	<g>
		<g>
			<g>
				<g>
					<path class="st0" d="M3119.76,3184.8c0,0-131.57,21.35-320.12,13.01c-167.9-7.43-485.35,2.41-533.54,56.4l37.29,64.29
						c0,0,107.28-49.07,240.38-66.85c133.1-17.78,349.62-3.68,422.82-8.21c83.19-5.15,143.32-13.95,161.21-26.13"/>
				</g>
			</g>
		</g>
	</g>
	<g class="st1">
		<g>
			<g>
				<g>
					<path class="st2" d="M3127.79,3217.31c-17.88,12.16-78.02,20.96-161.21,26.12c-73.21,4.53-289.72-9.56-422.81,8.22
						c-133.1,17.78-240.39,66.85-240.39,66.85l-37.29-64.29c4.53-5.1,11.46-9.79,20.44-14.12l0,0
						c13.95,23.61,42.41,34.35,68.48,25.84c43.69-14.26,115.86-34.36,197.52-43.2c133.35-14.47,349.61,2.63,422.88-0.35
						c69.68-2.89,123.28-8.44,149.5-16.72L3127.79,3217.31z"/>
				</g>
			</g>
		</g>
	</g>
	<g>
		<g>
			<g>
				<g>
					<path class="st2" d="M2298.13,3335.02l-47.81-82.41l6.2-6.94c60.41-67.67,444.23-65.07,543.69-60.68
						c184.92,8.17,316.2-12.65,317.5-12.86c7-1.12,13.6,3.62,14.73,10.62c1.13,7-3.62,13.59-10.62,14.72
						c-1.33,0.22-135.04,21.47-322.74,13.16c-179.36-7.94-456.45,4.35-516.59,46.24l26.28,45.3
						c30.59-12.84,122.52-48.45,233.31-63.25c87.65-11.71,208.45-9.78,305.52-8.24c50,0.8,93.18,1.48,118.2-0.06
						c122.13-7.56,149.35-20.22,154.78-23.92c5.85-3.99,13.84-2.48,17.84,3.38c3.99,5.86,2.48,13.85-3.38,17.84
						c-19.24,13.1-75.64,22.63-167.65,28.33c-26.02,1.61-69.66,0.91-120.2,0.11c-96.21-1.54-215.96-3.44-301.71,8.01
						c-129.5,17.3-235.68,65.32-236.74,65.8L2298.13,3335.02z"/>
				</g>
			</g>
		</g>
	</g>
	<g>
		<g>
			<g>
				<g>
					<path class="st5" d="M3399.08,3252.78c-2.5-3.72-4.17-7.29-5.04-10.78c-2.25-9.28,0.96-17.97,8.44-26.99
						c7.54-9.11,13.93-19.74,14.89-32.35c5.65-9.53,9.5-5.42,9.92,2.25c0.51,9.34,10.62,23.46,16.72,34.89
						c1.96,3.66,3.5,7.06,4.14,9.95C3456.44,3265.78,3423.54,3253.65,3399.08,3252.78z"/>
				</g>
			</g>
		</g>
	</g>
	<g>
		<g>
			<g>
				<g>
					<path class="st6" d="M3069.6,3092.86c0,0.03-0.03,0.1-0.03,0.13c0-0.06,0-0.1,0.03-0.16V3092.86z"/>
				</g>
			</g>
		</g>
	</g>
	<g>
		<g>
			<g>
				<g>
					<path class="st5" d="M3340.54,3259.94c33.73-19.1,55.68-49.01,70.26-84.57c0.06-4.75,1.41-9.34,2.09-13.93
						c4.33-29.27,7.19-58.51-17.72-81.52c-98.34-38-180.31-6.71-253.93,59.92c-3.92,3.56-7.64,7.32-11.43,10.98
						c-16.66,33.64-7,64.77,8.95,95.32C3202.95,3295.54,3270.61,3299.48,3340.54,3259.94z"/>
				</g>
			</g>
		</g>
	</g>
	<g class="st3">
		<g>
			<g>
				<g>
					<path class="st4" d="M3415.48,3122.89c-3.15-6.26-7.57-12.23-13.64-17.81c-98.34-38-180.31-6.71-253.93,59.92
						c-3.92,3.56-7.64,7.32-11.43,10.98c-8.18,16.5-10.01,32.42-7.86,47.95c-8.92-23.49-11.46-47.56,1.19-73.11
						c3.79-3.66,7.51-7.41,11.43-10.98c73.62-66.63,155.59-97.92,253.93-59.92C3409,3092.66,3414.27,3107.36,3415.48,3122.89z"/>
				</g>
			</g>
		</g>
	</g>
	<g class="st1">
		<g>
			<g>
				<g>
					<path class="st2" d="M3412.89,3161.44c-0.67,4.59-2.02,9.18-2.09,13.93c-14.57,35.56-36.52,65.47-70.26,84.57
						c-69.93,39.54-137.59,35.59-201.78-13.8c-13.58-26-22.59-52.44-14.7-80.46c2.89,7.73,6.48,15.44,10.46,23.08
						c64.19,49.39,131.84,53.34,201.78,13.8c33.73-19.1,55.68-49.01,70.26-84.57c0.06-4.75,1.41-9.34,2.09-13.93
						c0.26-1.7,0.51-3.4,0.74-5.1C3418.5,3118.08,3416.09,3139.74,3412.89,3161.44z"/>
				</g>
			</g>
		</g>
	</g>
	<g>
		<g>
			<g>
				<g>
					<path class="st2" d="M3247.51,3299.69c-40.03,0-79-14.47-116.57-43.38l-2.25-1.72l-1.31-2.51
						c-15.74-30.16-29.13-66.46-9.08-106.96l0.99-1.99l4.89-4.75c2.77-2.71,5.54-5.41,8.41-8.02
						c86.32-78.12,173.7-98.54,267.21-62.4l2.29,0.88l1.8,1.66c31.18,28.81,25.7,65.81,21.7,92.83c-0.26,1.74-0.6,3.5-0.94,5.27
						c-0.5,2.56-0.98,4.98-1.01,6.95l-0.03,2.44l-0.92,2.26c-17.22,42.01-42.01,71.74-75.81,90.87l0,0
						C3313.16,3290.17,3279.99,3299.69,3247.51,3299.69z M3148.84,3237.68c59.21,44.5,119.89,48.12,185.38,11.09
						c28.06-15.89,48.96-40.85,63.86-76.26c0.25-3.23,0.83-6.19,1.36-8.87c0.27-1.36,0.54-2.71,0.74-4.06
						c4.12-27.83,5.83-50.67-12.03-68.59c-83.77-31.48-159.56-12.89-238.31,58.37c-2.61,2.38-5.16,4.88-7.71,7.37l-1.74,1.7
						C3129.68,3181.54,3132.16,3204.83,3148.84,3237.68z M3340.54,3259.94h0.05H3340.54z"/>
				</g>
			</g>
		</g>
	</g>
	<g>
		<g>
			<g>
				<g>
					<path class="st5" d="M3361.11,3323.72c16.5-0.16,40.68-0.36,57.18-0.3c7.06,0.03,10.61-12.48,13.08-20.89
						c2.18-7.32-6.52-11.23-11.65-15.63c-11.07-9.53-24.97-16.14-31.36-30.49c-0.26-2.02-0.51-4.01-0.77-6.03
						c-5.68-8.86-9.69-6.03-13.54-2.09c-1.38,1.44-2.76,3.02-4.17,4.24c-0.26,0.19-0.48,0.35-0.71,0.55
						c-35.91,30.68-78.02,44.26-124.72,45.12c-1.96-0.13-3.92-0.29-5.87-0.48c-30.07-2.66-58.38-10.88-84.47-26.93
						c-5.62-3.43-9.47-10.53-17.52-9.6c7.99,12.39,21.39,17.7,32.09,27.83C3235.53,3352.28,3330.17,3324.04,3361.11,3323.72z"/>
				</g>
			</g>
		</g>
	</g>
	<g>
		<g>
			<g>
				<g>
					<path class="st5" d="M3363.43,3057.26c-24.71-5.78-49.65-7.29-79.08-3.02c3.56-4.72,6.77-9.37,9.66-14.03
						c8.25-13.22,13.86-26.35,18.07-40.09c14.51,3.21,29.27,5.3,42.75,12.29c8.92,4.65,15.98,11.07,21.5,19.19v0.03
						c0.77,1.16,1.54,2.34,2.25,3.56c0.32,2.63,0.71,5.26,0.96,7.93C3381.3,3060.98,3380.92,3061.3,3363.43,3057.26z"/>
				</g>
			</g>
		</g>
	</g>
	<g class="st3">
		<g>
			<g>
				<g>
					<path class="st4" d="M3376.33,3031.62c-31.71-11.43-61.94-1.93-82.32,8.6c8.25-13.22,13.86-26.35,18.07-40.09
						c14.51,3.21,29.27,5.3,42.75,12.29C3363.75,3017.08,3370.81,3023.5,3376.33,3031.62z"/>
				</g>
			</g>
		</g>
	</g>
	<g>
		<g>
			<g>
				<g>
					<path class="st5" d="M3298.31,3008.35c-0.8,1.7-1.6,3.4-2.41,5.1c-1.22,2.6-2.47,5.23-3.82,7.8
						c-10.66,19.99-22.24,37.2-47.53,43.17c-33.6,7.93-62.42,27.31-90.19,47.56c-10.78,11.71-24.52,20.67-32.8,34.79
						c-0.16-0.03-0.32-0.06-0.48-0.1c-3.15-0.58-6.07-1.25-2.73-5.58c8.92-11.65-2.86-31.71,9.72-40.21
						c14.31-15.15,30.23-33.89,48.08-44.45c32.32-19.19,83.83-41.59,112.49-66.24C3291.12,2988.06,3296.45,3000.07,3298.31,3008.35z
						"/>
				</g>
			</g>
		</g>
	</g>
	<g class="st3">
		<g>
			<g>
				<g>
					<path class="st4" d="M3298.31,3008.35c-0.8,1.7-1.6,3.4-2.41,5.1c-19.13,15.41-59.82,22.79-96.28,45.93
						c-41.27,26.22-68.52,69.55-78.54,87.3c-3.15-0.58-6.07-1.25-2.73-5.58c8.92-11.65-2.86-31.71,9.72-40.21
						c14.31-15.15,30.23-33.89,48.08-44.45c32.32-19.19,83.83-41.59,112.49-66.24C3291.12,2988.06,3296.45,3000.07,3298.31,3008.35z
						"/>
				</g>
			</g>
		</g>
	</g>
	<g>
		<g>
			<g>
				<g>
					<path class="st2" d="M3122.15,3213.12c-5.62,0-10.61-3.69-12.25-9.05l-0.13-0.36c-6.61-17.74-24.47-79.56,23.05-130.29
						c27.52-29.38,63.19-47.61,94.67-63.7c26.02-13.3,50.6-25.86,64.59-41.93l10.33-11.86l9.55,12.49
						c3.05,3.99,28.1,40.9-30.95,107.76c-4.69,5.32-12.8,5.83-18.12,1.12c-5.32-4.69-5.82-12.81-1.13-18.12
						c23.5-26.6,30.59-45.92,31.99-58.31c-15.59,11.79-34.7,21.55-54.58,31.71c-31.05,15.87-63.15,32.27-87.61,58.39
						c-36.41,38.87-24.53,85.52-17.73,103.78c0.46,1.25,0.83,2.23,1.04,3.68c1.02,7.01-3.84,13.53-10.85,14.55
						C3123.39,3213.07,3122.76,3213.12,3122.15,3213.12z"/>
				</g>
			</g>
		</g>
	</g>
	<g>
		<g>
			<g>
				<g>
					<path class="st2" d="M3373.31,3085.37c-3.75,0-7.47-1.64-10-4.79c-4.45-5.52-3.58-13.6,1.94-18.05
						c3.21-2.67,18.95-17.27,6.44-36.67c-10.63-16.48-49.94-13.33-62.87-10.93c-6.97,1.28-13.67-3.3-14.97-10.26
						c-1.3-6.96,3.28-13.66,10.24-14.97c6.84-1.28,67.36-11.57,89.17,22.25c20.48,31.74,1.17,60.05-11.9,70.58
						C3378.99,3084.44,3376.14,3085.36,3373.31,3085.37z"/>
				</g>
			</g>
		</g>
	</g>
	<g>
		<g>
			<g>
				<g>
					<path class="st2" d="M3286.19,3341.39c-34.12,0-72.58-5.36-107.39-27.17c-63.63-39.87-63.86-90.51-63.84-92.64
						c0.07-7.05,5.81-12.71,12.83-12.71c0.04,0,0.09,0,0.13,0c7.05,0.07,12.72,5.81,12.71,12.85c0.02,1.8,1.2,39.05,51.8,70.75
						c46.83,29.34,102.38,24.11,142.95,20.3c6.23-0.59,12.01-1.13,17.25-1.5c10.7-0.75,21.74-0.41,32.42-0.07
						c36.14,1.12,45.1-1.02,45.69-10.94c0.33-5.51-10.57-13.68-20.18-20.88c-16.37-12.27-36.74-27.55-40.78-53.04
						c-1.11-7,3.67-13.58,10.67-14.69c7.04-1.12,13.58,3.67,14.69,10.67c2.41,15.21,16.85,26.04,30.82,36.51
						c15.51,11.63,31.54,23.65,30.41,42.94c-2.19,37.28-40.96,36.06-72.13,35.09c-10.03-0.31-20.41-0.64-29.82,0.02
						c-5.05,0.35-10.62,0.88-16.63,1.44C3322.86,3339.73,3305.2,3341.39,3286.19,3341.39z"/>
				</g>
			</g>
		</g>
	</g>
	<g>
		<g>
			<g>
				<g>
					<path class="st2" d="M3416.45,3278.62c-1.07,0-2.16-0.02-3.28-0.08c-7.08-0.33-12.56-6.34-12.23-13.42
						c0.33-7.08,6.25-12.52,13.42-12.23c9.41,0.46,16.8-2.25,20.69-7.57c2.82-3.85,3.12-8.18,2.16-10.75
						c-0.29-0.79-0.74-1.92-1.31-3.33c-4.04-10.06-12.43-30.98-14.47-51.37c-1.66-16.58-14.91-29.85-15.04-29.98
						c-5.03-4.97-5.12-13.08-0.18-18.13c4.94-5.05,13.01-5.18,18.09-0.26c0.82,0.79,20.08,19.73,22.68,45.82
						c1.68,16.76,9.44,36.1,12.75,44.36c0.67,1.68,1.21,3.03,1.56,3.97c4.14,11.17,2.02,24.51-5.51,34.82
						C3450.73,3267.39,3439.03,3278.62,3416.45,3278.62z"/>
				</g>
			</g>
		</g>
	</g>
	<g class="st1">
		<g>
			<g>
				<g>
					<path class="st2" d="M3436.03,3205.92c-9.76,11.59-23.3,23.27-37.97,27.67c-13.83,24.04-32.42,44.23-57.51,58.44
						c-69.93,39.54-137.59,35.59-201.78-13.8c-12.68-24.26-21.38-48.88-16.05-74.84c2.7,14.51,8.7,28.69,16.05,42.75
						c64.19,49.39,131.84,53.34,201.78,13.8c33.73-19.1,55.68-49.01,70.26-84.57c0.06-4.75,1.41-9.34,2.09-13.93
						c0.64-4.43,1.28-8.83,1.77-13.22c2.41,14.51,0.51,29.91-1.77,45.32c-0.42,2.89-1.12,5.81-1.57,8.73
						c3.24-5.97,5.52-12.45,6.07-19.61c5.65-9.53,9.5-5.42,9.92,2.25C3427.81,3194.24,3429.93,3194.5,3436.03,3205.92z"/>
				</g>
			</g>
		</g>
	</g>
</g>
<g>
	<g>
		<g>
			<g>
				<g>
					<path class="st0" d="M1095.38,3327.41c4.33,6.49,57.66,11.74,107.92-13.43c50.23-25.17,52.59-64.13,55.71-86.43
						c0.3-2.18,0.62-4.21,1-6.15c5.47-30.11,16.77-37.12,16.13-41.06l-26.65-13.64c0,0-38.51-7.14-72.31,15.72
						c-9.33,6.28-18.26,14.88-25.96,26.51c-14.92,22.58-14.6,50.61-23.9,69.2C1112.4,3308,1092.69,3323.39,1095.38,3327.41z"/>
				</g>
			</g>
		</g>
	</g>
	<g class="st1">
		<g>
			<g>
				<g>
					<path class="st2" d="M1260.02,3221.41c5.47-30.11,16.77-37.12,16.13-41.06l-26.65-13.64c0,0-38.51-7.14-72.31,15.72
						C1197.55,3195.82,1231.01,3210.26,1260.02,3221.41z"/>
				</g>
			</g>
		</g>
	</g>
	<g>
		<g>
			<g>
				<g>
					<path class="st2" d="M1095.41,3341.71c23.05,8.24,73.82,3.68,113.62-16.25c53.51-26.79,59.15-69.41,62.18-92.31l0.52-3.83
						c3.05-21.77,9.06-31,12.65-36.51c2.43-3.73,5.46-8.37,4.42-14.58c-1.15-6.99-7.77-11.72-14.77-10.56
						c-5.38,0.89-9.42,5.01-10.47,10.05c-0.21,0.32-0.44,0.68-0.7,1.07c-4.14,6.34-12.73,19.53-16.57,46.97l-0.54,4.02
						c-2.91,21.96-6.89,52.03-48.22,72.73c-31.66,15.85-64.43,18.44-82.16,17.2c6.69-8.41,15.62-20.23,23.43-35.84
						c4.55-9.1,6.92-19.22,9.43-29.94c3.07-13.12,6.26-26.69,13.68-37.93c30.3-45.85,83.04-37.06,85.27-36.66
						c6.96,1.24,13.64-3.38,14.9-10.34c1.27-6.96-3.34-13.62-10.26-14.91c-2.9-0.54-71.51-12.5-111.33,47.76
						c-9.95,15.07-13.83,31.62-17.26,46.23c-2.16,9.21-4.2,17.91-7.4,24.31c-7.65,15.3-16.58,26.41-23.11,34.51
						c-7.45,9.26-14.49,18.01-8.05,27.64C1086.69,3337.52,1090.4,3339.92,1095.41,3341.71z M1107.19,3330.28l-0.05-0.02
						L1107.19,3330.28z M1103.19,3317.5L1103.19,3317.5L1103.19,3317.5z"/>
				</g>
			</g>
		</g>
	</g>
	<g>
		<g>
			<g>
				<g>
					<path class="st0" d="M1231.44,3109.55c-23.18-34.79-33.08-62.72-10.83-110.17c13.58-28.96,30.47-56.94,49.18-82.55
						c9.17-12.55,15.77-29.92,21.65-9.12c11.33,40.11,32.04,77.67,37.13,119.86c5.13,41.95-18.27,97.94-64.16,102.99
						c-4.37,0.72-4.15,11.47-11.69,5.42C1252.72,3135.99,1238.79,3121.78,1231.44,3109.55z"/>
				</g>
			</g>
		</g>
	</g>
	<g class="st3">
		<g>
			<g>
				<g>
					<path class="st4" d="M1220.61,2999.37c13.58-28.96,30.46-56.94,49.18-82.53c9.19-12.56,15.76-29.92,21.67-9.13
						c11.33,40.14,32.03,77.69,37.11,119.86c2.1,16.94-0.49,36.19-7.32,53.41c0.25-5.57,0.04-11.09-0.6-16.37
						c-5.07-42.2-25.77-79.75-37.11-119.86c-5.89-20.81-12.47-3.43-21.65,9.1c-18.73,25.62-35.61,53.6-49.19,82.56
						c-1.71,3.65-3.25,7.19-4.55,10.64C1208.23,3033.05,1212.03,3017.64,1220.61,2999.37z"/>
				</g>
			</g>
		</g>
	</g>
	<g class="st1">
		<g>
			<g>
				<g>
					<path class="st2" d="M1220.61,2999.37c0.73-1.58,1.49-3.12,2.22-4.69c1.77,19,7.27,37.47,19.8,56.29
						c9.78,19.92,25.04,25.29,29.39,24.56c22.36-2.48,46.1-22.18,57.08-41.29c2.09,41-21.19,91.57-64.71,96.34
						c-4.35,0.73-4.13,11.47-11.68,5.41c0,0-13.91-14.2-21.26-26.44C1208.26,3074.78,1198.34,3046.83,1220.61,2999.37z"/>
				</g>
			</g>
		</g>
	</g>
	<g>
		<g>
			<g>
				<g>
					<path class="st2" d="M1251.09,3149.7c2.76,0.99,5.56,1.23,8.38,0.72c5.86-1.06,9.27-4.97,11.17-7.78
						c18.03-3.22,34.1-13.23,46.7-29.14c18.24-23.03,27.65-57.36,23.97-87.47c-3.38-27.99-13.13-53.74-22.57-78.65
						c-5.59-14.77-10.87-28.72-14.95-43.15c-1.32-4.68-4.89-17.12-16.3-18.85c-11.41-1.7-17.82,8.26-23.48,17.04
						c-1.45,2.26-2.97,4.63-4.59,6.84c-19.88,27.21-36.85,55.69-50.44,84.67c-24.14,51.46-14.04,83.92,11.61,122.5
						c8.07,13.3,22.34,27.92,22.95,28.55l1.14,1.03C1246.79,3147.7,1248.93,3148.93,1251.09,3149.7z M1252.71,3135.99l-0.05-0.02
						L1252.71,3135.99z M1282.19,2921.51c3.81,11.92,8.23,23.59,12.54,34.96c9.3,24.56,18.09,47.75,21.09,72.65
						c2.84,23.29-4.63,50.79-18.61,68.43c-9.5,11.99-21.01,18.8-34.21,20.25l-0.7,0.1c-2.57,0.43-4.68,1.41-6.4,2.61
						c-4.26-4.83-9.86-11.58-13.47-17.58l-0.32-0.5c-22.13-33.22-29.26-56.3-9.89-97.6c12.89-27.49,29.01-54.55,47.92-80.42
						C1280.85,2923.46,1281.53,2922.49,1282.19,2921.51z"/>
				</g>
			</g>
		</g>
	</g>
	<g>
		<g>
			<g>
				<g>
					<path class="st2" d="M1273.76,2998.97c-2.99,20.75-6.77,41.54-11.47,61.83c-2.32,10.16-5.04,20.17-8.13,29.85
						c-3.07,9.57-6.76,19.28-11.3,26.2c-3.9,5.95-2.24,13.93,3.7,17.83c5.95,3.9,13.93,2.24,17.83-3.7
						c0.34-0.53,0.65-1.07,0.91-1.63l0.04-0.1c5.4-11.77,7.55-22.57,9.57-33.45c1.9-10.84,3.28-21.56,4.24-32.26
						c1.98-21.41,2.91-42.64,3.08-63.99c0.02-2.35-1.87-4.27-4.22-4.29c-2.15-0.02-3.95,1.57-4.24,3.64L1273.76,2998.97z"/>
				</g>
			</g>
		</g>
	</g>
	<g>
		<g>
			<g>
				<g>
					<path class="st0" d="M1146.66,3071.25c0,0,116.72,64.36,297.09,119.93c160.61,49.48,456.26,165.52,483.48,232.57l-56.74,48
						c0,0-84.53-82.3-203.89-143.81s-328.01-121.06-395.42-149.95c-76.61-32.83-130.28-61.34-143.03-78.83"/>
				</g>
			</g>
		</g>
	</g>
	<g class="st1">
		<g>
			<g>
				<g>
					<path class="st2" d="M1128.16,3099.16c12.74,17.47,66.43,45.98,143.03,78.83c67.42,28.89,276.05,88.44,395.41,149.95
						c119.36,61.51,203.9,143.81,203.9,143.81l56.74-48c-2.55-6.33-7.5-13.07-14.5-20.18l0,0c-21.08,17.55-51.49,18.08-73.18,1.3
						c-36.35-28.13-97.55-71.33-171.48-107.12c-120.71-58.49-330.12-115.11-398.12-142.57c-64.65-26.16-113.25-49.41-135.16-66.03
						L1128.16,3099.16z"/>
				</g>
			</g>
		</g>
	</g>
	<g>
		<g>
			<g>
				<g>
					<path class="st2" d="M1869.89,3489.07l72.74-61.53l-3.5-8.62c-34.13-84.05-396.46-210.7-491.6-240.01
						c-176.9-54.51-293.52-118.26-294.68-118.9c-6.22-3.41-14.02-1.17-17.44,5.05c-3.42,6.21-1.16,14.01,5.04,17.44
						c1.18,0.65,119.95,65.65,299.51,120.95c171.57,52.85,428.39,157.62,470.94,217.31l-39.99,33.82
						c-24.49-22.38-99.09-86.84-198.44-138.04c-78.61-40.51-193.02-79.33-284.95-110.52c-47.36-16.07-88.25-29.95-111.29-39.82
						c-112.47-48.2-133.84-69.28-137.72-74.59c-4.17-5.72-12.2-6.99-17.94-2.81c-5.73,4.18-6.99,12.21-2.81,17.94
						c13.71,18.81,63.62,46.75,148.35,83.07c23.96,10.27,65.29,24.29,113.15,40.53c91.12,30.91,204.54,69.4,281.44,109.03
						c116.14,59.85,199.98,140.79,200.81,141.6L1869.89,3489.07z"/>
				</g>
			</g>
		</g>
	</g>
	<g>
		<g>
			<g>
				<g>
					<path class="st5" d="M860.75,3041.31c3.61-2.66,6.38-5.46,8.37-8.46c5.24-7.98,5.14-17.25,1.13-28.26
						c-4.04-11.12-6.48-23.27-3.14-35.48c-2.11-10.88-7.12-8.3-10.09-1.22c-3.63,8.62-17.9,18.52-27.48,27.23
						c-3.07,2.79-5.67,5.47-7.25,7.98C802.36,3034.26,837.42,3033.9,860.75,3041.31z"/>
				</g>
			</g>
		</g>
	</g>
	<g>
		<g>
			<g>
				<g>
					<path class="st6" d="M1224.83,3001.53c-0.01,0.03,0,0.1-0.01,0.13c0.02-0.06,0.03-0.09,0.02-0.16L1224.83,3001.53z"/>
				</g>
			</g>
		</g>
	</g>
	<g>
		<g>
			<g>
				<g>
					<path class="st5" d="M913.47,3067.75c-25.34-29.33-35.96-64.88-37.72-103.27c1.54-4.49,1.81-9.27,2.72-13.82
						c5.77-29.02,12.91-57.52,44.1-70.81c105.39-2.71,172.06,54.33,218.98,141.84c2.49,4.67,4.73,9.46,7.07,14.18
						c4.37,37.28-15.2,63.35-40.49,86.76C1031.07,3147.55,966.03,3128.51,913.47,3067.75z"/>
				</g>
			</g>
		</g>
	</g>
	<g class="st3">
		<g>
			<g>
				<g>
					<path class="st4" d="M888.99,2913.48c5.07-4.84,11.25-8.97,18.84-12.19c105.39-2.71,172.06,54.33,218.98,141.84
						c2.49,4.67,4.73,9.46,7.07,14.18c2.16,18.29-1.47,33.89-8.72,47.8c16.3-19.12,26.79-40.94,23.47-69.25
						c-2.34-4.72-4.58-9.51-7.07-14.18c-46.92-87.51-113.59-144.55-218.98-141.84C905.27,2887.18,895.36,2899.26,888.99,2913.48z"/>
				</g>
			</g>
		</g>
	</g>
	<g class="st1">
		<g>
			<g>
				<g>
					<path class="st2" d="M878.47,2950.65c-0.91,4.55-1.18,9.32-2.72,13.82c1.76,38.39,12.37,73.94,37.72,103.27
						c52.56,60.76,117.6,79.8,194.66,54.87c21.53-19.92,38.92-41.79,40.91-70.83c-5.32,6.31-11.3,12.36-17.62,18.21
						c-77.06,24.93-142.1,5.89-194.66-54.87c-25.34-29.33-35.96-64.88-37.72-103.27c1.54-4.49,1.81-9.27,2.72-13.82
						c0.33-1.69,0.66-3.38,1.02-5.05C887.77,2907.93,882.75,2929.14,878.47,2950.65z"/>
				</g>
			</g>
		</g>
	</g>
	<g>
		<g>
			<g>
				<g>
					<path class="st2" d="M987.72,3136.47c37.7,13.47,79.27,12.95,124.37-1.64l2.7-0.87l2.08-1.92
						c24.97-23.11,49.79-52.79,44.52-97.67l-0.26-2.21l-3.01-6.12c-1.7-3.48-3.4-6.96-5.22-10.39
						c-55.01-102.6-130.44-151.22-230.65-148.65l-2.45,0.06l-2.25,0.96c-39.05,16.64-46.34,53.33-51.66,80.12
						c-0.34,1.73-0.62,3.5-0.88,5.28c-0.39,2.58-0.75,5.02-1.39,6.89l-0.79,2.31l0.11,2.44c2.08,45.36,15.43,81.69,40.83,111.08l0,0
						C929.08,3105.42,957.13,3125.55,987.72,3136.47z M1101.49,3111.26c-70.73,21.99-129.09,4.99-178.31-51.91
						c-21.08-24.4-32.37-54.94-34.49-93.29c0.85-3.13,1.3-6.11,1.71-8.81c0.2-1.37,0.4-2.73,0.67-4.07
						c5.49-27.59,11.56-49.67,34.4-60.55c89.48-1.47,154.6,41.53,204.79,135.13c1.66,3.12,3.22,6.33,4.78,9.53l1.07,2.18
						C1138.42,3064.84,1128.24,3085.94,1101.49,3111.26z M913.47,3067.75l-0.05-0.02L913.47,3067.75z"/>
				</g>
			</g>
		</g>
	</g>
	<g>
		<g>
			<g>
				<g>
					<path class="st5" d="M872.65,3120.9c-15.48-5.7-38.19-14.03-53.75-19.51c-6.66-2.34-5.79-15.33-5.29-24.08
						c0.41-7.63,9.91-8.39,16.23-10.8c13.63-5.25,28.94-6.8,39.78-18.17c0.92-1.82,1.83-3.61,2.75-5.42
						c8.33-6.43,11.16-2.42,13.46,2.59c0.81,1.82,1.58,3.77,2.5,5.39c0.18,0.27,0.33,0.49,0.48,0.75
						c23.5,40.97,58.59,67.92,102.27,84.45c1.89,0.54,3.78,1.04,5.69,1.52c29.22,7.61,58.64,9.39,88.61,3.05
						c6.44-1.34,12.46-6.73,19.73-3.14c-11.69,8.98-26.1,9.47-39.58,15.41C981.31,3190.03,901.68,3131.6,872.65,3120.9z"/>
				</g>
			</g>
		</g>
	</g>
	<g>
		<g>
			<g>
				<g>
					<path class="st5" d="M960.09,2869.18c25.22,2.87,49.21,9.84,75.49,23.76c-1.77-5.64-3.23-11.1-4.38-16.46
						c-3.32-15.23-4.19-29.48-3.53-43.83c-14.74-1.86-29.35-4.86-44.39-2.8c-9.97,1.38-18.78,5.05-26.71,10.84l-0.01,0.03
						c-1.11,0.83-2.24,1.69-3.31,2.6c-1.19,2.37-2.44,4.72-3.57,7.14C942,2866.67,942.26,2867.1,960.09,2869.18z"/>
				</g>
			</g>
		</g>
	</g>
	<g class="st3">
		<g>
			<g>
				<g>
					<path class="st4" d="M956.57,2840.69c33.7-0.09,58.98,19.02,74.63,35.79c-3.32-15.23-4.19-29.48-3.53-43.83
						c-14.74-1.86-29.35-4.86-44.39-2.8C973.31,2831.23,964.5,2834.9,956.57,2840.69z"/>
				</g>
			</g>
		</g>
	</g>
	<g>
		<g>
			<g>
				<g>
					<path class="st5" d="M1037.87,2845.02c0.18,1.87,0.37,3.74,0.55,5.62c0.27,2.86,0.57,5.76,0.97,8.63
						c3.31,22.41,8.43,42.51,30.24,56.64c28.98,18.77,49.6,46.72,68.93,75.13c6.22,14.66,16.14,27.71,19.19,43.8
						c0.16,0.02,0.32,0.05,0.49,0.07c3.16,0.51,6.13,0.86,4.45-4.34c-4.48-13.97,13.36-28.9,4.37-41.14
						c-8.38-19.08-17.07-42.09-30.33-58.03c-23.98-28.95-64.96-67.37-83.66-100.22C1051.46,2828.33,1042.41,2837.85,1037.87,2845.02
						z"/>
				</g>
			</g>
		</g>
	</g>
	<g class="st3">
		<g>
			<g>
				<g>
					<path class="st4" d="M1037.87,2845.02c0.18,1.87,0.37,3.74,0.55,5.62c12.83,20.94,48.67,41.58,75.23,75.64
						c30.05,38.58,41.14,88.54,44.6,108.63c3.16,0.51,6.13,0.86,4.45-4.34c-4.48-13.97,13.36-28.9,4.37-41.14
						c-8.38-19.08-17.07-42.09-30.33-58.03c-23.98-28.95-64.96-67.37-83.66-100.22C1051.46,2828.33,1042.41,2837.85,1037.87,2845.02
						z"/>
				</g>
			</g>
		</g>
	</g>
	<g>
		<g>
			<g>
				<g>
					<path class="st2" d="M1134.89,3097.11c5.29,1.89,11.23,0.09,14.58-4.4l0.24-0.29c12.19-14.48,49.8-66.69,22.12-130.45
						c-16.04-36.93-43.5-66.09-67.73-91.83c-20.03-21.28-38.96-41.37-46.73-61.22l-5.74-14.64l-13.19,8.55
						c-4.22,2.73-40.22,29.06-7.1,111.89c2.63,6.58,10.09,9.79,16.69,7.15c6.59-2.63,9.79-10.1,7.16-16.69
						c-13.18-32.95-13.36-53.53-10.52-65.67c10.72,16.34,25.43,31.97,40.74,48.23c23.9,25.39,48.62,51.64,62.87,84.45
						c21.21,48.85-5.66,88.79-18.21,103.7c-0.86,1.02-1.54,1.82-2.22,3.11c-3.32,6.26-0.94,14.04,5.33,17.36
						C1133.73,3096.65,1134.31,3096.9,1134.89,3097.11z"/>
				</g>
			</g>
		</g>
	</g>
	<g>
		<g>
			<g>
				<g>
					<path class="st2" d="M941.33,2892.32c3.54,1.26,7.59,0.97,11.03-1.14c6.05-3.7,7.95-11.6,4.25-17.65
						c-2.12-3.59-12.04-22.64,6.27-36.7c15.56-11.94,51.51,4.25,62.88,10.85c6.13,3.55,13.99,1.49,17.55-4.63s1.51-13.97-4.61-17.54
						c-6.01-3.51-59.54-33.55-91.46-9.04c-29.96,23-21.3,56.15-12.53,70.47C936.3,2889.54,938.67,2891.37,941.33,2892.32z"/>
				</g>
			</g>
		</g>
	</g>
	<g>
		<g>
			<g>
				<g>
					<path class="st2" d="M937.26,3162.73c32.13,11.48,70.15,19.37,110.27,10.53c73.33-16.14,90.58-63.76,91.28-65.77
						c2.31-6.66-1.19-13.92-7.81-16.29c-0.04-0.01-0.08-0.03-0.12-0.04c-6.66-2.3-13.93,1.19-16.29,7.82
						c-0.63,1.69-14.27,36.37-72.58,49.21c-53.97,11.88-104.53-11.73-141.45-28.97c-5.67-2.65-10.93-5.1-15.74-7.21
						c-9.83-4.3-20.34-7.7-30.51-10.97c-34.41-11.1-42.13-16.13-39.35-25.67c1.55-5.3,14.55-9.33,26.02-12.88
						c19.55-6.05,43.87-13.58,56.25-36.23c3.4-6.22,1.11-14.02-5.11-17.42c-6.25-3.42-14.02-1.11-17.42,5.11
						c-7.38,13.51-24.63,18.85-41.31,24.02c-18.52,5.73-37.66,11.66-43.08,30.21c-10.47,35.84,26.44,47.74,56.12,57.31
						c9.55,3.08,19.43,6.26,28.08,10.05c4.64,2.03,9.71,4.4,15.18,6.95C903.29,3148.83,919.36,3156.34,937.26,3162.73z"/>
				</g>
			</g>
		</g>
	</g>
	<g>
		<g>
			<g>
				<g>
					<path class="st2" d="M835.7,3059.81c1.01,0.36,2.04,0.7,3.11,1.03c6.78,2.07,13.96-1.74,16.03-8.53
						c2.07-6.78-1.68-13.9-8.52-16.03c-9.02-2.73-15.06-7.77-16.94-14.09c-1.36-4.57-0.18-8.75,1.58-10.85
						c0.54-0.65,1.34-1.56,2.35-2.69c7.19-8.11,22.13-24.99,30.91-43.51c7.14-15.06,24.08-23.09,24.25-23.17
						c6.41-2.98,9.22-10.6,6.27-17.02c-2.96-6.42-10.51-9.25-16.95-6.33c-1.04,0.47-25.55,11.83-36.77,35.52
						c-7.22,15.22-21.03,30.82-26.93,37.48c-1.2,1.36-2.16,2.45-2.81,3.22c-7.65,9.13-10.15,22.4-6.52,34.64
						C807.2,3037.7,814.43,3052.21,835.7,3059.81z"/>
				</g>
			</g>
		</g>
	</g>
	<g class="st1">
		<g>
			<g>
				<g>
					<path class="st2" d="M841.72,2984.76c5.29,14.19,14.12,29.75,26.45,38.82c4.94,27.29,15.65,52.55,34.5,74.38
						c52.56,60.76,117.6,79.8,194.66,54.87c20.1-18.59,36.57-38.84,40.29-65.09c-7.42,12.75-17.84,24.1-29.49,34.86
						c-77.06,24.93-142.1,5.89-194.66-54.87c-25.34-29.33-35.96-64.88-37.72-103.27c1.54-4.49,1.81-9.27,2.72-13.82
						c0.89-4.39,1.76-8.74,2.79-13.05c-7.15,12.85-10.54,28-13.58,43.27c-0.58,2.86-0.9,5.85-1.46,8.75
						c-1.04-6.71-1.01-13.58,0.88-20.51c-2.11-10.88-7.12-8.3-10.09-1.22C853.39,2976.52,851.31,2976.05,841.72,2984.76z"/>
				</g>
			</g>
		</g>
	</g>
</g>
</svg>
