<?xml version="1.0" encoding="utf-8"?>
<!-- Generator: Adobe Illustrator 26.0.3, SVG Export Plug-In . SVG Version: 6.00 Build 0)  -->
<svg version="1.1" id="Layer_1" xmlns="http://www.w3.org/2000/svg" xmlns:xlink="http://www.w3.org/1999/xlink" x="0px" y="0px"
	 viewBox="0 0 3002.55 3733.23" style="enable-background:new 0 0 3002.55 3733.23;" xml:space="preserve">
<style type="text/css">
	.st0{fill:#623D5A;}
	.st1{fill:#FEE8EA;}
	.st2{opacity:0.3;}
	.st3{fill:#3F2039;}
	.st4{fill:#6B184E;}
	.st5{fill:#390075;}
	.st6{fill:none;stroke:#390075;stroke-width:44.3847;stroke-linecap:round;stroke-miterlimit:10;}
	.st7{fill:#FFFFFF;}
	.st8{opacity:0.6;}
	.st9{opacity:0.5;}
	.st10{opacity:0.2;}
	.st11{fill:#FEFEFE;}
	.st12{fill:#15A6F9;}
	.st13{fill:#FFE600;}
	.st14{fill:#60DDFD;}
	.st15{fill:#055875;}
	.st16{fill:#FEFEFD;}
	.st17{opacity:0.3;fill:#3F2039;}
	.st18{fill:#198AD4;}
	.st19{fill:#CCAA17;}
	.st20{fill:#1989D4;}
	.st21{fill:#90DAF4;}
	.st22{fill:#FCFCFC;}
	.st23{fill:#5EDAFA;}
	.st24{fill:#52AFD1;}
	.st25{fill:#D4CFD6;}
	.st26{fill:#D3CED6;}
	.st27{fill:#D3CED5;}
	.st28{fill:#E2D4ED;}
	.st29{fill:#5EB0D1;}
	.st30{fill:#B9EBF7;}
	.st31{fill:#D3CDD4;}
	.st32{fill:#B2A5B7;}
	.st33{fill:#FCFDF9;}
	.st34{fill:#F9FBF4;}
	.st35{fill:#EEF9E1;}
	.st36{fill:#A9F7F3;}
	.st37{fill:#C5F9F8;}
	.st38{fill:#A4F4EE;}
	.st39{fill:#41D7F9;}
</style>
<g>
	<g>
		<g>
			<g>
				<g>
					<path class="st0" d="M2099.65,3356.02c-1,9.71-3.38,19.53-7.21,29.35c-51.15,131.82-474.2,130.66-522.69-49.88
						c-42.55-158.62-21.36-362.4-11.43-436.14v-0.06c-0.67,0.11-1.28,0.22-1.94,0.33c-0.83,0.17-1.61,0.28-2.39,0.39
						c-3.33,0.55-6.6,1.05-9.88,1.55c-0.61,0.11-1.17,0.17-1.72,0.28c-15.37,2.27-30.29,3.94-44.83,5.05
						c-74.4,6.05-137.32-1.22-184.64-11.37c-6.05,73.84-27.8,298.71-78.89,439.96c-63.58,175.76-467.32,179.98-522.69,49.88
						c-14.65-34.4-11.71-63.97,0.72-88.94c35.23-70.9,146.64-104.25,146.64-104.25c13.2-160.78-21.47-316.3-35.73-439.63
						c-0.78-6.71-1.44-13.26-2.11-19.75c-1.83-18.31-3.44-36.4-4.83-54.15c-14.2-178.87-8.71-331.39,8.88-460.82
						c8.99-66.19,21.14-126.27,35.45-180.81c17.42-66.36,38-124.44,59.97-174.93c20.42-46.99,42-87.44,63.25-122l0.06-0.06
						c27.41-44.38,54.26-78.95,77.45-105.08c41.56-46.83,71.35-66.47,71.35-66.47l304.26-51.65l11.21,51.65h411.95
						c34.23,53.15,63.8,107.41,89.16,162.17c84.55,182.25,123.17,370,135.1,541.44c9.27,133.1,2.5,256.38-11.32,359.63
						c-10.71,80.06-25.63,148.08-40.56,199.29c-34.68,119.01-85.66,361.51-85.66,361.51
						C2038.06,3214.65,2107.75,3281.73,2099.65,3356.02z"/>
				</g>
			</g>
		</g>
		<path class="st1" d="M841.95,3211.21c0,0,84.13-24.74,172.69,11.73c88.56,36.47,190.59,112.83,107.67,193.16
			c-82.92,80.33-347.3,51.68-382.47,17.82C704.68,3400.06,634.09,3203.39,841.95,3211.21z"/>
		<g class="st2">
			<g>
				<g>
					<path class="st3" d="M1725.04,2849.97l-227.47,56.92c-74.4,6.05-137.32-1.22-184.64-11.37
						c-6.05,73.84-27.8,298.71-78.89,439.96c-63.58,175.76-467.32,179.98-522.69,49.88c-14.65-34.4-11.71-63.97,0.72-88.94
						c50.04,142.48,406.23,162.84,471.53-8.49c41.56-108.96,46.55-258.1,44.66-352.19c-0.78-41.67-25.79-110.87,76.84-92.43
						c187.65,33.72,339.7-8.09,412.99-14.15C1733.72,2827.88,1723.23,2850.15,1725.04,2849.97z"/>
				</g>
			</g>
		</g>
		<path class="st1" d="M1810.39,3266.35c50.79-32.56,157.08-86.82,238.3-15.63c81.22,71.2,92.52,169.15-10.17,206.62
			c-102.69,37.46-283.45,43.73-321.78,10.59C1678.42,3434.79,1670.48,3356.04,1810.39,3266.35z"/>
		<g class="st2">
			<g>
				<g>
					<path class="st3" d="M2099.65,3356.02c-1,9.71-3.38,19.53-7.21,29.35c-51.15,131.82-474.2,130.66-522.69-49.88
						c-42.55-158.62-21.36-362.4-11.43-436.14v-0.06c40.78-6.77,128.38-23.69,167.05-49.38c0,0-102.86,137.81-100.31,327.34
						c2.55,189.58,121.5,230.41,193.35,242.34C1880.11,3429.86,2048.22,3414.94,2099.65,3356.02z"/>
				</g>
			</g>
		</g>
		<g>
			<g>
				<g>
					<path class="st3" d="M1857.73,3500.49c-9.72,0-19.33-0.26-28.8-0.77c-116.77-6.3-251.8-51.24-280.6-158.47
						c-43.22-161.17-22.79-364.83-11.99-444.91c1.63-12.15,12.73-20.69,24.96-19.03c12.15,1.64,20.66,12.81,19.02,24.96
						c-10.43,77.43-30.26,274.09,10.88,427.48c22.68,84.41,143.52,120.45,240.13,125.66c117.43,6.36,220.71-27.23,240.43-78.06
						c9.96-25.66,8.33-51.45-4.85-76.67c-20.74-39.69-68.85-72.87-125.54-86.59l-20.93-5.06l4.43-21.07
						c0.51-2.43,51.56-244.7,86.08-363.15c73.08-250.82,119.56-795.16-169.73-1244.3c-6.64-10.31-3.67-24.04,6.64-30.68
						c10.3-6.63,24.03-3.67,30.67,6.64c297.95,462.57,250.21,1022.7,175.03,1280.75c-28.23,96.88-67.91,278.87-80.93,339.59
						c60.36,19.41,109.44,57.06,133.61,103.32c19.1,36.54,21.48,75.71,6.89,113.29C2083.98,3468.5,1965.57,3500.49,1857.73,3500.49z
						"/>
				</g>
			</g>
		</g>
		<g>
			<g>
				<g>
					<path class="st3" d="M1886.13,3294.36c12.15,10.44,22.39,23.42,30.59,37.76c8.13,14.37,14.54,30.27,17.71,47.13
						c1.16,4.18,1.33,8.46,1.98,12.74c0.58,4.29,1.15,8.62,1.08,12.94l0.24,13.1l-1.11,13.04l-0.61,6.58
						c-0.3,2.17-0.79,4.28-1.19,6.43l-2.57,12.94c-2.06,8.52-4.95,16.74-7.51,25.25c-3.58,11.86-16.09,18.57-27.95,14.99
						c-11.86-3.58-18.57-16.09-15-27.94c0.48-1.58,1.11-3.07,1.88-4.46l1.18-2.08c3.49-6.17,7.51-12.3,10.79-18.72l4.49-9.82
						c0.73-1.65,1.57-3.29,2.23-4.97l1.69-5.1l3.45-10.34l2.3-10.64c0.95-3.58,1.29-7.19,1.65-10.84c0.28-3.64,1.07-7.36,0.88-11.03
						c0.74-14.85-1.51-29.98-5.79-44.77C1902.18,3321.75,1895.53,3307.28,1886.13,3294.36z"/>
				</g>
			</g>
		</g>
		<g>
			<g>
				<g>
					<path class="st3" d="M1988.12,3287.58c11.06,9.47,20.9,20.53,29.75,32.55c8.78,12.08,16.36,25.38,22.02,39.99
						c5.75,14.6,8.65,30.77,8.8,47.46l-0.53,12.63c-0.6,4.16-1.42,8.32-2.19,12.53c-0.41,2.1-0.76,4.24-1.26,6.32l-1.99,6.06
						l-4.2,12.23c-4.03,11.75-16.82,18-28.56,13.97c-11.75-4.03-18-16.82-13.97-28.56c0.62-1.82,1.46-3.5,2.46-5.04l1.22-1.84
						l4.9-7.38l2.56-3.75c0.7-1.31,1.26-2.67,1.91-4.01l3.89-8.21l2.69-8.75c3.03-11.9,4.36-24.96,2.74-38.29
						c-1.52-13.31-5.04-26.84-10.19-39.98C2002.94,3312.4,1996.4,3299.49,1988.12,3287.58z"/>
				</g>
			</g>
		</g>
		<g class="st2">
			<g>
				<g>
					<path class="st4" d="M1549.62,3059.56c-1.89,30.96-2.83,64.03-2.22,97.76C1546.73,3123.58,1547.73,3090.52,1549.62,3059.56z"/>
				</g>
			</g>
			<g>
				<g>
					<path class="st5" d="M1544.12,3157.38C1544.12,3157.38,1544.12,3157.38,1544.12,3157.38L1544.12,3157.38c0-0.01,0-0.01,0-0.02
						c-0.61-30.82,0.14-63.8,2.22-98.01l6.54,0.4c-2.03,33.36-2.77,66.15-2.21,97.47c-0.01,0.01-0.01,0.01,0,0.03L1544.12,3157.38z"
						/>
				</g>
			</g>
		</g>
		<g class="st2">
			<g>
				<g>
					<path class="st4" d="M1549.84,3056.73c1.5-24.25,3.61-47.21,5.94-68.13C1553.44,3009.52,1551.39,3032.48,1549.84,3056.73z"/>
				</g>
			</g>
			<g>
				<g>
					<path class="st5" d="M1553.11,3056.94l-6.54-0.41c0,0,0-0.01,0-0.01l0,0c0,0,0-0.01,0-0.02c1.37-22.17,3.36-45.09,5.93-68.14
						c0-0.04,0.01-0.09,0.01-0.13l6.52,0.73C1556.58,3010.96,1554.59,3033.83,1553.11,3056.94z"/>
				</g>
			</g>
		</g>
		<g class="st2">
			<g>
				<g>
					<path class="st4" d="M1556.61,2980.72c0.67-5.83,1.39-11.48,2.05-16.92C1557.99,2969.29,1557.33,2974.9,1556.61,2980.72z"/>
				</g>
			</g>
			<g>
				<g>
					<path class="st5" d="M1559.86,2981.12l-6.51-0.77c0.46-4.07,0.96-8.07,1.44-11.96l0.62-4.98l6.51,0.79l-0.01,0.01
						L1559.86,2981.12z"/>
				</g>
			</g>
		</g>
		<g>
			<g>
				<g>
					<path class="st6" d="M1491.19,1870.39"/>
				</g>
			</g>
		</g>
		<g>
			<g>
				<g>
					<path class="st3" d="M939.55,3498.21c-97.38,0-215.74-26.87-248.63-104.16c-15.53-36.49-15.53-71.76-0.03-104.82
						c30.32-64.63,112.83-100.8,146.74-113.32c7.33-114.03-9.02-225.61-23.52-324.52c-6.04-41.23-11.75-80.19-15.34-116.43
						c-46.52-470.53,42.08-766.55,124.61-932.02c90.64-181.75,192.54-250.21,196.83-253.04l3.89-2.56l308.88-52.43
						c12.12-2.07,23.54,6.08,25.59,18.17c2.05,12.08-6.08,23.54-18.17,25.6l-299.26,50.8c-18.08,13.45-103.62,82.56-179.75,236.71
						c-79.01,160-163.7,446.79-118.45,904.42c3.48,35.2,9.11,73.65,15.08,114.36c15.45,105.43,32.96,224.93,22.79,349.01l-1.24,15.1
						l-14.51,4.35c-1.02,0.31-104.8,32.25-134.04,94.74c-10.02,21.41-9.78,43.83,0.73,68.51c20.57,48.35,111.33,79.96,220.95,76.97
						c108.07-2.98,230.52-43.01,260.43-125.71c50.5-139.58,72.2-367.65,77.64-434.23l2.06-25.19l24.72,5.3
						c88.92,19.08,230.37,26.87,399.17-44.35c11.3-4.77,24.31,0.53,29.08,11.82c4.76,11.29-0.53,24.31-11.82,29.07
						c-164.67,69.48-305.47,68.09-401.09,51.62c-8.92,98.57-31.36,292.1-78.01,421.05c-39.56,109.35-186.84,151.83-300.95,154.98
						C949.21,3498.14,944.4,3498.21,939.55,3498.21z"/>
				</g>
			</g>
		</g>
		<ellipse class="st1" cx="1428.75" cy="2243.24" rx="414.44" ry="498.79"/>
		<g>
			<g>
				<g>
					<path class="st3" d="M931.59,3305.33c-10.3,11.3-17.89,24.54-22.95,38.27c-5,13.76-7.64,28.01-7.29,42.02
						c-0.06,3.48,0.53,7,0.74,10.43c0.17,1.72,0.25,3.43,0.49,5.14l1.08,5.11c0.78,3.38,1.25,6.74,2.22,10.04l3.27,9.8
						c0.91,3.25,2.35,6.41,3.87,9.53l4.3,9.31c3.32,6.06,7.08,11.94,10.48,17.8l1.02,1.76c6.22,10.72,2.56,24.45-8.16,30.66
						c-10.72,6.22-24.45,2.56-30.67-8.16c-0.87-1.51-1.58-3.19-2.07-4.78c-2.45-8.15-5.08-16.09-7.17-24.2l-2.4-12.47
						c-0.84-4.11-1.57-8.22-1.76-12.51l-0.95-12.6c-0.17-4.2,0.21-8.48,0.31-12.65l0.27-6.26c0.22-2.09,0.61-4.17,0.91-6.25
						c0.73-4.14,1.11-8.26,2.17-12.29c3.64-16.25,10.61-31.36,19.5-44.56C907.74,3325.28,918.84,3313.85,931.59,3305.33z"/>
				</g>
			</g>
		</g>
		<g>
			<g>
				<g>
					<path class="st3" d="M839.57,3284.55c-9.66,11.74-17.85,24.49-24.74,37.63c-6.82,13.17-12.23,26.88-15.33,40.63
						c-3.1,13.73-3.77,27.45-1.42,39.92c2.27,12.51,7.64,23.55,14.9,33.14c7.47,9.87,5.53,23.92-4.33,31.4
						c-9.87,7.47-23.93,5.53-31.4-4.34c-1.12-1.48-2.03-3.05-2.73-4.68l-0.38-0.91c-7.17-16.94-10.62-35.6-9.32-53.36
						c1.18-17.79,6.52-34.25,13.86-48.84c7.38-14.62,16.74-27.55,27.03-39.26C816.06,3304.23,827.33,3293.65,839.57,3284.55z"/>
				</g>
			</g>
		</g>
	</g>
	<g>
		<g>
			<path class="st0" d="M795.14,1417.73c90.04,131.87,280.11,238.12,658.74,238.12h0.43c373.74-0.05,563.65-103.73,654.98-233.4
				c34.47-48.86,54.87-101.42,65.88-153.5c37.69-178.63-35.6-351.78-35.6-351.78c51.27-349.1-21.8-573.85-66.09-671.35
				c-17.93-39.57-62.34-60.3-103.95-47.89c-157.8,46.82-316.03,262.82-316.03,262.82c-97.61-29.69-199.62-27.76-199.62-27.76
				s-102.01-1.93-199.62,27.76c0,0-158.23-216-316.03-262.82c-41.61-12.4-86.01,8.32-103.95,47.89
				c-44.3,97.5-117.37,322.25-66.09,671.35C768.18,917.17,647.7,1201.84,795.14,1417.73z"/>
		</g>
		<g>
			<path class="st1" d="M763.73,1344.23c8.48,26.04,19.06,50.52,31.41,73.5c90.04,131.87,280.11,238.12,658.74,238.12h0.43
				c373.74-0.05,563.65-103.73,654.98-233.4c14.01-24.43,25.77-50.47,34.74-78.23c0,0,43.81-147.6-35.33-240
				c-79.19-92.4-188.78-53.05-238.5,18.63c-49.77,71.68-164.46,58.25-226.36,9.13c-61.91-49.13-110.98-75.49-189.96-75.49
				s-128.05,26.36-189.96,75.49c-61.91,49.13-176.59,62.55-226.36-9.13c-49.72-71.68-159.3-111.03-238.5-18.63
				C719.92,1196.63,763.73,1344.23,763.73,1344.23z"/>
		</g>
		<g class="st2">
			<path class="st3" d="M1283.33,1209.2c-0.54-9.39,11.27-14.06,17.27-6.81c16.17,19.55,33.41,29.37,69.19,27.45
				c42.83-2.31,36.97-65.71,36.97-65.71h47.12h47.12c0,0-5.86,63.4,36.97,65.71c35.78,1.93,53.02-7.89,69.19-27.45
				c5.99-7.25,17.81-2.57,17.27,6.81c-1.42,24.58-11.92,58.19-56.2,69.61c-68.94,17.77-112.21,5.95-114.35-96.71
				c-2.14,102.65-45.41,114.47-114.35,96.71C1295.24,1267.39,1284.75,1233.78,1283.33,1209.2z"/>
		</g>
		<g>
			<path class="st3" d="M1356.85,1141.46c1.76-24.15,29.48-36.31,54.84-42.39c27.69-6.64,56.68-6.64,84.37,0
				c25.36,6.08,53.08,18.24,54.84,42.39c2.29,31.39-45.63,53.21-74.97,63.56c-14.3,5.05-29.82,5.05-44.12,0
				C1402.48,1194.66,1354.56,1172.84,1356.85,1141.46z"/>
		</g>
		<g>
			<ellipse class="st7" cx="1453.48" cy="1121.73" rx="52.57" ry="9.1"/>
		</g>
		<g>
			<path class="st3" d="M1372.27,1306.56c30.54,0,54.8-9.8,72.13-29.12c32.32-36.04,26.65-91.85,26.39-94.21
				c-1.02-9.34-9.41-16.1-18.76-15.07c-9.33,1.02-16.07,9.4-15.07,18.73c0.09,0.91,4.07,43.47-17.99,67.93
				c-10.74,11.91-26.02,17.7-46.7,17.7c-24.31,0-42.56-6.3-54.23-18.72c-17.19-18.29-15.75-45.06-15.73-45.33
				c0.69-9.37-6.35-17.48-15.72-18.17c-9.36-0.69-17.53,6.4-18.23,15.77c-0.12,1.67-2.71,41.35,24.54,70.69
				C1311.27,1296.53,1337.97,1306.56,1372.27,1306.56z"/>
		</g>
		<g>
			<path class="st3" d="M1535.48,1306.56c34.29,0,61-10.03,79.37-29.8c27.26-29.34,24.67-69.01,24.54-70.69
				c-0.69-9.37-8.86-16.41-18.22-15.72c-9.37,0.69-16.41,8.85-15.72,18.22c0.01,0.17,1.45,26.95-15.74,45.24
				c-11.68,12.42-29.92,18.72-54.23,18.72c-20.74,0-36.05-5.82-46.79-17.81c-21.94-24.46-17.94-67.37-17.9-67.79
				c1.02-9.34-5.73-17.74-15.07-18.76c-9.35-1.02-17.74,5.73-18.76,15.07c-0.26,2.36-5.93,58.17,26.39,94.21
				C1480.67,1296.76,1504.94,1306.56,1535.48,1306.56z"/>
		</g>
		<g>
			<path class="st1" d="M1995.62,680.14c-40.03-34.43-109.04-88.81-194.07-135.66c-10.57-5.82-15.15-18.58-10.81-29.84
				c20.04-51.96,112.99-171.83,163.61-190.25c75.19-27.35,83.68,230.88,81.21,337.97C2035.1,682.79,2011.11,693.46,1995.62,680.14z"
				/>
		</g>
		<g>
			<path class="st1" d="M912.12,680.14c40.03-34.43,109.04-88.81,194.07-135.66c10.57-5.82,15.15-18.58,10.81-29.84
				c-20.04-51.96-112.99-171.83-163.61-190.25c-75.19-27.35-83.68,230.88-81.21,337.97C872.65,682.79,896.63,693.46,912.12,680.14z"
				/>
		</g>
		<g class="st2">
			<path class="st3" d="M736.03,1027.16c-5.84,90.11,6.78,196.94,70.74,290.6c88.45,129.54,275.16,233.91,647.1,233.91h0.42
				c367.14-0.05,553.69-101.9,643.41-229.27c33.86-48,53.9-99.63,64.72-150.79c10.51-49.83,12.22-99.22,9.3-144.41
				c13.48,65.5,22.18,152.94,3.44,241.76c-11.01,52.08-31.41,104.64-65.88,153.5c-91.33,129.66-281.23,233.34-654.98,233.4h-0.43
				c-378.63,0-568.7-106.25-658.74-238.12C705.51,1286.49,714.89,1129.83,736.03,1027.16z"/>
		</g>
		<g class="st8">
			<path class="st1" d="M938.22,197.93c157.8,46.82,316.03,262.82,316.03,262.82c97.61-29.69,199.62-27.76,199.62-27.76
				s102.01-1.93,199.62,27.76c0,0,158.23-216,316.03-262.82c38.53-11.48,79.41,5.47,99.5,39.46c-18.11-6.46-38.25-7.42-57.82-1.58
				c-135.88,40.32-272.06,196.71-321.81,258.62c-11.54,14.37-30.05,20.83-48.02,17.44c-3.61,20.44-43.07,31.68-88.78,25.13
				c-44.14-6.33-77.97-26.93-78.22-46.91c-12.96-0.36-20.49-0.22-20.49-0.22s-89.78-1.7-184.83,21.55
				c-18.79,4.59-38.57-1.91-50.69-16.99c-49.75-61.91-185.93-218.3-321.81-258.62c-19.57-5.83-39.71-4.87-57.82,1.58
				C858.81,203.4,899.69,186.44,938.22,197.93z"/>
		</g>
		<g>
			<path class="st3" d="M1453.87,1671.96c180.53,0,331.05-24.33,447.38-72.32c100.63-41.51,177.3-101.26,227.88-177.6
				c33.83-51.06,56.17-109.84,66.41-174.73c8.13-51.55,8.67-107.02,1.6-164.87c-10.48-85.78-34.3-150.37-40.99-167.3
				c22.05-152.76,22.76-297.57,2.12-430.47c-17.77-114.41-47.94-196.66-70.12-245.52c-21.27-46.86-74.25-71.23-123.22-56.69
				c-68.05,20.2-143.43,71.7-224.03,153.07c-45.83,46.27-79.69,88.61-93.55,106.61c-93.66-26.31-186.32-25.4-193.47-25.28
				c-7.15-0.11-99.81-1.03-193.47,25.28c-13.86-18-47.72-60.34-93.55-106.61c-80.6-81.38-155.98-132.88-224.03-153.07
				c-48.97-14.54-101.95,9.84-123.22,56.69c-22.18,48.85-52.35,131.1-70.12,245.52c-20.64,132.9-19.93,277.71,2.12,430.47
				c-6.69,16.93-30.5,81.52-40.99,167.3c-7.07,57.85-6.53,113.32,1.6,164.87c10.23,64.89,32.58,123.67,66.41,174.73
				c50.58,76.33,127.25,136.09,227.88,177.6C1122.83,1647.62,1273.35,1671.96,1453.87,1671.96z M1993.82,210.47
				c27.23,0,53.18,15.97,64.99,42c45.74,100.74,114.98,320.74,64.83,662.34c-0.43,2.92-0.05,5.9,1.1,8.62
				c0.29,0.68,29.19,69.94,40.53,163.9c10.34,85.67,7.79,210.22-63.12,317.1c-103.59,156.14-321.7,235.32-648.29,235.32
				s-544.7-79.17-648.29-235.32c-70.9-106.88-73.46-231.43-63.12-317.1c11.34-93.96,40.24-163.22,40.53-163.91
				c1.15-2.71,1.53-5.7,1.1-8.61c-50.15-341.59,19.09-561.6,64.83-662.34c14.66-32.29,51.08-49.11,84.72-39.13
				c150.67,44.72,306.06,254.78,307.61,256.9c4.04,5.52,11.13,7.88,17.68,5.89c93.88-28.53,193.64-27.07,194.63-27.06
				c0.2,0,0.4,0,0.6,0c0.99-0.01,100.74-1.48,194.63,27.06c6.55,1.99,13.63-0.37,17.68-5.89c1.55-2.11,156.94-212.18,307.61-256.9
				C1980.62,211.4,1987.26,210.47,1993.82,210.47z"/>
		</g>
		<g>
			<g>
				<g>
					<g>
						<g>
							<path d="M1704.21,891.09c55.11-10.53,110.75,38.28,124.27,109.02c13.52,70.74-20.2,136.63-75.31,147.16
								c-55.11,10.53-110.75-38.28-124.27-109.02C1615.37,967.51,1649.09,901.63,1704.21,891.09z"/>
						</g>
					</g>
				</g>
				<g>
					<g>
						<g>
							<path class="st7" d="M1710.54,920.66c18.22,4.79,27.82,28.38,21.43,52.67c-6.39,24.3-26.34,40.11-44.57,35.32
								c-18.22-4.79-27.82-28.38-21.42-52.67C1672.36,931.68,1692.31,915.87,1710.54,920.66z"/>
						</g>
					</g>
				</g>
				<g class="st9">
					<g>
						<g>
							<path class="st3" d="M1782.56,1068.48c8.82,4.67,10.93,17.98,4.71,29.75c-6.22,11.76-18.42,17.52-27.24,12.85
								c-8.82-4.66-10.93-17.98-4.71-29.74C1761.54,1069.57,1773.73,1063.81,1782.56,1068.48z"/>
						</g>
					</g>
				</g>
			</g>
			<g>
				<g>
					<g>
						<g>
							<path d="M1203.54,891.09c-55.11-10.53-110.75,38.28-124.27,109.02c-13.52,70.74,20.2,136.63,75.31,147.16
								c55.11,10.53,110.75-38.28,124.27-109.02C1292.37,967.51,1258.65,901.63,1203.54,891.09z"/>
						</g>
					</g>
				</g>
				<g>
					<g>
						<g>
							<path class="st7" d="M1197.21,920.66c-18.22,4.79-27.82,28.38-21.43,52.67c6.39,24.3,26.34,40.11,44.57,35.32
								c18.22-4.79,27.82-28.38,21.42-52.67C1235.38,931.68,1215.43,915.87,1197.21,920.66z"/>
						</g>
					</g>
				</g>
				<g class="st9">
					<g>
						<g>
							<path class="st3" d="M1125.19,1068.48c-8.82,4.67-10.93,17.98-4.71,29.75c6.22,11.76,18.42,17.52,27.24,12.85
								c8.82-4.66,10.93-17.98,4.71-29.74C1146.21,1069.57,1134.01,1063.81,1125.19,1068.48z"/>
						</g>
					</g>
				</g>
			</g>
		</g>
		<path class="st3" d="M1040.95,892.52c-5.02-6.49,41.02-76.45,111.74-86.36c85.83-12.02,158.95,71.3,155.01,77.99
			c-3.45,5.85-64.14-49.36-148.13-41.15C1088.18,849.99,1045.44,898.33,1040.95,892.52z"/>
		<g class="st10">
			<path class="st0" d="M946.35,659.25c27.39-23.56,74.62-60.78,132.8-92.83c7.23-3.98,10.37-12.71,7.4-20.42
				c-13.71-35.55-77.32-117.59-111.96-130.19c-51.45-18.72-57.26,157.99-55.57,231.27C919.33,661.06,935.75,668.36,946.35,659.25z"
				/>
		</g>
		<g class="st10">
			<path class="st0" d="M1969.39,659.25c-27.39-23.56-74.62-60.78-132.8-92.83c-7.23-3.98-10.37-12.71-7.4-20.42
				c13.71-35.55,77.32-117.59,111.96-130.19c51.45-18.72,57.26,157.99,55.57,231.27C1996.4,661.06,1979.99,668.36,1969.39,659.25z"
				/>
		</g>
		<path class="st3" d="M1573.57,892.52c-5.02-6.49,41.02-76.45,111.74-86.36c85.83-12.02,158.95,71.3,155.01,77.99
			c-3.45,5.85-64.14-49.36-148.13-41.15C1620.81,849.99,1578.06,898.33,1573.57,892.52z"/>
	</g>
	<g>
		<path class="st3" d="M2007.03,2856.28c3.91-1.84,8.74-1.69,13.15-2.45c83.62-14.47,108.36-46.94,102.47-131.73
			c-4.75-68.37-8.08-136.84-12.33-210.23c76.08,50.27,154.43,74.22,241.33,57.69c87.88-16.71,157.14-62.38,206.04-138.3
			c43.49-67.51,56.87-142.18,43.88-220.55c-15.11-91.17-63.89-161.83-140.93-212.63c148.68-121.44,111.93-367.56-31.68-426.28
			c38.13-33.9,50.39-65.18,36.38-98.51c-17.33-41.24-52.47-47.55-91.8-46.15c-32.41,1.15-64.92-0.75-97.32,0.53
			c0,0-134.38-5.61-147.66,12.26c-13.28,17.88-10.26,81.24,11.3,102.45c21.56,21.21,50.02,14.04,49.29,93.61s0.6,187.28-5.29,183.54
			c-5.89-3.74,0.76-2.2-72.99-72.45c-73.75-70.25-159.3-146.68-197.66-141.99c-38.35,4.69-144.55-4.07-163.73,19.68
			c-19.18,23.75-132.75-12.01-157.83,23.75s-282.02,17.96-299.58,11.21c-17.56-6.75-83.94-49.78-125.24-34.96
			c-41.3,14.81-103.25-37.34-120.95-35.85c-17.7,1.49-51.63-162.4-101.78-147.5c-50.15,14.9-146.24,100.78-146.24,100.78
			c-77.93,50.74-152.67,102.04-230.05,148.87c-53.51,32.38-112.73,39.45-172.65,16.66c-51.19-19.47-102.08-39.82-152.52-61.18
			c-25-10.59-47.98-13.03-67.72,8.31c-20.72,22.39-16.19,46.69-3.76,72.02c48.07,97.99,95.37,196.37,143.13,294.52
			c15.23,31.29,26.95,62.05,28.35,98.85c5.46,143.22,173.26,277.97,320.33,223.35c16.93-6.29,31.83-2.01,45.2,2.58
			c31.87,10.94,62.1,17.88,94.53-9.31c-9.03,121.72-17.87,236.31-25.96,350.95c-9.31,132.02,7.93,153.27,136.69,171.83
			c8.08,1.17,274.24,28.45,299.22-16.25s34.67-372.47,61.54-373.96c26.87-1.49,110.94,8.35,190.6,14.6
			c79.65,6.25,161.54-42.48,175.91-22.58c14.37,19.9,13.74,327.94,43.56,369.84S1995.71,2861.6,2007.03,2856.28z"/>
		<path class="st11" d="M1684.48,2457.01c-1.64-13.39,6.44-23.61,12.13-34.4c54.37-103.15,108.06-206.68,163.78-309.09
			c26.85-49.35,28.02-95.18-4.01-142.34c-18.22-26.83-32.53-56.35-50.35-83.48c-8.81-13.42-8.88-23.04,1.25-35.25
			c33.6-40.49,37.25-84.89,14.8-132.04c-1.13-3.23-2.04-7.44,0.63-9.32c33.41-23.55,68.57-43.77,108.03-55.23
			c4.13-1.2,8.75-0.36,12.13,3.24c95.5,51.72,167.34,129.9,232.92,214.58c15.53,20.05,2.16,46.39,7.06,69
			c6.96,32.04-15.24,39.85-36.18,50.87c-32.88,17.31-60.19,42.1-87.57,73.72c-7.71-32.8-13.69-61.82-21.48-90.32
			c-7.51-27.49-14.16-55.55-31.64-79.82c-5.05,49.3,5.09,97.18,12.57,144.85c6.53,41.63,6.39,79.31-9.11,120.71
			c-39.85,106.46-15.68,205.69,47.79,296.88c9.44,13.85,9.42,30.54,9.43,45.65c0.02,55.21,6.12,110.24,3.99,165.47
			c-2.13,54.94-30.66,96.31-83.5,108.89c-69.6,16.57-140.85,22.28-212.45,16.57c-16.57-1.32-33.24-5.28-45.71-18.38"/>
		<path class="st12" d="M640.26,1876.16c-20.27-36.88-38.75-74.6-52.6-114.49c0.63-17.46,14.4-24.48,26.09-32.75
			c96.91-68.58,194.52-136.13,291.65-204.38c34.77-24.43,53.19-18.97,73.65,21.15c35.54,69.7,66.67,141.69,106.43,209.21
			c39.63,85.81,79.25,171.62,118.88,257.43c8.64,23.01-8.5,33.09-22.89,42.27c-100.56,64.18-205.8,68.74-312.3,18.41
			C775.57,2028.76,698.88,1962.76,640.26,1876.16z"/>
		<path class="st12" d="M1264.16,2281.71c9.31-153.35,18.61-306.71,27.92-460.06c7.2-43.42,13.17-50.57,50.56-46.27
			c66.52,7.65,132.71,8.07,199.05-0.87c9.86-1.33,20.03,0.12,29.94-0.9c24.1-2.5,34.81,6.5,33.05,32.31
			c-1.11,16.35-4.14,33.51,2.85,49.68c9.2,146.54,18.41,293.09,27.61,439.63c0.83,2.1,2.12,4.18,2.26,6.34
			c4.18,64.61-2.84,73.54-66.03,82.95c-86.83,12.94-173.66,9.64-260.27-1.67c-46.57-6.08-49.53-10.48-49.16-57.49
			C1262.02,2310.81,1259.39,2296.03,1264.16,2281.71z"/>
		<path class="st11" d="M848.38,2316.09c71.5-38.35,143.25-76.26,214.3-115.46c13.25-7.31,18.84-5.48,25.49,7.27
			c39.41,75.54,79.35,150.8,119.24,226.08c4.37,8.24,5.94,16.44,4.98,25.87c-10.89,106.36-22.22,212.66-43.11,317.64
			c-16.07,17.08-37.7,19.47-58.72,20.16c-60.4,1.97-120.64-2.94-179.78-14.74c-65.64-13.1-94.92-51.69-95.49-118.95
			C834.29,2547.79,835.24,2431.7,848.38,2316.09z"/>
		<path class="st13" d="M2057.4,2208.49c57.46-22.13,113.8-16.21,169.06,7.74c33.76,14.63,66.23,32.71,100.72,45.14
			c79.1,28.5,144.25,17.96,238.96-34.66c28.67,83.24-30.72,215.64-119.45,266.31c-165.3,84.47-379.07-36.25-405.84-243.84
			C2038.7,2232.55,2041.29,2217.66,2057.4,2208.49z"/>
		<path class="st14" d="M2332.51,1583.95c-32.89,17.01-68.97,39.38-64.79,78.28c4.16,38.75-12.01,72.4-11.08,107.28
			c1.1,41.27,10.54,82.23,10.03,124.78c-0.38,31.95,35.91,55.09,80.1,58.31c23.08,1.68,35.74,6.64,32.12,33.09
			c-2.54,18.55,11.73,26.71,26.15,29.72c65.44,13.67,98.04,64.68,133.13,116.1c-66.04-14.4-118.82,13.89-170.24,46.5
			c-42.25,26.8-82.37,34.65-130.46,7.43c-52.14-29.51-111.35-29.74-169.79-16.77c-7.43,1.65-14.72,5.82-24.15,0.18
			c27.96-85.53,90.17-136.29,168.84-170.7c16.35-41.74,12.02-85.45,14.16-128.94c3.98-80.89-2.5-161.54-0.84-242.28
			c1.02-49.56,4.67-53.99,53.5-52.09C2296.84,1575.51,2317.76,1563.93,2332.51,1583.95z"/>
		<path class="st15" d="M640.26,1876.16c47.06,36.18,82.88,84.42,129.77,121.17c82.88,64.96,172.71,107.15,280.14,95.14
			c52.87-5.91,100.47-28.05,143.31-60.04c6.57-4.91,10.26-11.74,10.89-20.1c1.46,1.68,3.39,3.14,4.3,5.08
			c24.75,53.29,24.77,53.37-26.46,80.71c-109.63,58.51-219.67,116.26-328.68,175.93c-23.71,12.98-31.62,8.76-42.38-15.67
			c-52.2-118.53-106.84-235.97-160.44-353.87C646.55,1895.37,643.71,1885.62,640.26,1876.16z"/>
		<path class="st16" d="M1761.86,1855.34c-9.01,12.69-1.28,22.04,5.16,32.77c23.31,38.84,45.73,78.22,68.49,117.39
			c7.93,19.02,4.28,37.05-5.11,54.29c-43.31,79.51-82.4,161.31-127.62,239.77c-6.8,11.81-10.96,28.16-30.22,25.42
			c-6.04-85.97-12.34-171.92-18.04-257.91c-6.47-97.57-13.2-195.14-13.8-293c24.63-28.98,62.41-24.72,93.52-37.35
			c16.81-6.83,34.9-16.07,53.38-2.85c1.65,0.95,2.5,2.38,2.56,4.3c5.84,17.91,5.06,34.84-5.39,51.29
			C1772.05,1809.49,1771.26,1833.99,1761.86,1855.34z"/>
		<path class="st3" d="M1274.2,2534.1"/>
		<path class="st1" d="M552.77,2210.56c22.34-18.54,45.01-36.71,66.89-55.8c10.82-9.44,21.13-17.47,35.66-8.79
			c15.55,9.29,19.66,24.03,16.6,40.83c-3.36,18.46-13.02,34.77-27.33,45.5c-30.86,23.15-25.26,43,1.59,63.67
			c3.33,2.56,5.38,6.83,8.97,11.55c-20.44,14.37-42.45,14.88-64.54,14.51c-112.77-1.86-220.08-113.42-216.65-225.08
			c1.6-52.22,61.43-103.84,112.68-97.47c14.2,1.77,26.24,7.12,32.1,20.8c5.4,12.61-3.22,21.39-10.94,29.65
			c-17.8,19.07-29.92,41.14-40.48,73.32c27.99-14.23,44.53-31.18,61.72-47.16c23.67-22,45.25-22.08,66.78,0.09
			c21.14,21.77,17.68,40.85-4.57,60.18C569.85,2155.01,556.94,2179.75,552.77,2210.56z"/>
		<path class="st0" d="M1787.26,2860.86c39.99,2.14,80.09,2.08,120.11,3.8"/>
		<path class="st1" d="M2359.66,1727.8c15.96-2.84,31.92-5.68,48.57-8.65c-5-14.47-19.68-13.15-28.45-20.32
			c-14.69-4.84-29.42-9.95-43.65-15.72c-18.14-7.35-32.94-19.5-23.05-43.43c6.57-9.88,15.15-17,26.83-19.84
			c36.22-2.71,73.28-13.1,104.73,16.95c38.59,36.87,64.21,79.99,69.56,134.38c1.64,16.7,2.03,33.57,5.36,50.09
			c-0.41,38.92-16.43,71.95-38.04,102.88c-10.28,5.78-20.77,6.16-32.27,3.4c-25.67-6.16-50.65-14.24-78.2-12.33
			c-20.7,1.43-39.16-9.1-48.07-30.32c-7.35-17.49-4.72-30.92,16.57-34.91c24.72-4.43,49.45-8.86,77.13-13.82
			c-12.77-15.96-30.62-14.3-43.61-22.16c-14.44-4.94-29.86-7.67-40.67-20.29c-12.09-14.12-19.81-29.55-14.53-48.67
			C2324.35,1721.45,2346.22,1734.84,2359.66,1727.8z"/>
		<path class="st12" d="M425.54,1779.84c25.67,58.88,51.35,117.75,76.92,176.66c0.83,1.91,0.56,4.3,1.08,8.97
			c-38-3.94-72.34,6.98-104.57,25.8c-18.59,8.88-29.43-3.57-38.89-15.86c-56.81-73.85-98.31-156.97-140.02-239.84
			c-4.37-8.68-9.68-20.77-1.57-31.74c30.56-9.52,56.56,7.7,83.02,16.82c32.43,11.18,64.26,24.72,96.66,36.29
			C410.8,1761.46,418.96,1769.11,425.54,1779.84z"/>
		<path class="st17" d="M866.31,2283.22c7.63,12.16,8,25.76,6.42,39.24c-13.05,111.07-4.15,222.54-5.19,333.8
			c-0.36,38.96,25.44,64.87,61.85,74.59c70.3,18.78,142.32,22.86,214.79,18.64c14.39-0.84,28.69-3.21,43.03-4.88
			c-5.14,31.35-19.02,51.41-48.4,53.85c-84.75,7.06-175.88,2.49-259.64-14.95c-36.46-7.59-54.71-29.81-53.5-66.38
			c4.59-138.55-3.26-282.53,9.32-420.51C835.69,2289.01,857.13,2286.55,866.31,2283.22z"/>
		<path class="st12" d="M552.18,1774.43c65.78,136.71,128.06,275.05,188.91,414.05c4.99,20.76-6.3,15.82-16.63,10.27
			c-12.05-6.48-10.19-21.31-16.88-31.14c-7.57-27.47-20.8-49.88-50.4-57.77c-11.89-3.17-13.11-13.68-16.28-23.36
			c-8.13-24.81-24.28-44.43-47.75-53.79c-19.85-7.92-29.11-21.13-36.87-39.62c-29.62-70.56-60.5-140.58-90.9-210.8
			C492.65,1760.92,521.53,1757.66,552.18,1774.43z"/>
		<path class="st18" d="M1607.51,1855.6c-11.63-14.91-5.74-32.46-6.47-48.77c-0.72-16.16-2.77-22.65-22.81-20.85
			c-53.93,4.85-107.9,11.99-162.36,8.75c-22.05-1.32-43.96-0.15-66.05-5.36c-27.16-6.4-53.12-5.03-57.76,32.28
			c0.6-34.78,1.64-69.55,1.62-104.32c-0.01-17.03,6.35-24.81,23.82-23.38c87.82,7.14,175.63,5.22,263.4-1.17
			c13.48-0.98,20.95,3.13,21.39,18.18C1603.7,1759.18,1605.73,1807.38,1607.51,1855.6z"/>
		<path class="st17" d="M1706.84,2751.11c79.95,12.87,159.43,5.31,238.56-6.93c61.98-9.59,89.74-44.4,89.81-108.83
			c0.07-67.48-0.07-134.96-0.11-202.44c13.93,7.13,31.75,21.08,32.6,35.05c5.14,84.26,12.19,175.81-0.16,251.77
			c2.05,41.3-15.74,62.64-56.02,70.73c-82.68,16.61-166.19,16.84-249.78,9.84C1732.41,2797.85,1711.85,2782.62,1706.84,2751.11z"/>
		<path class="st19" d="M2057.4,2208.49c-14.56,63.17,10.05,118.38,43,166.89c80.32,118.26,193.39,154.18,329.83,120
			c5.35-1.34,10.97-1.6,16.46-2.36c-122.68,96.34-324.73,40.62-394.73-108.95c-19.89-42.5-28.78-87.04-27.66-134.35
			C2024.88,2225.23,2032.68,2211.07,2057.4,2208.49z"/>
		<path class="st20" d="M1264.16,2281.71c0.38,10.13,1.15,20.27,1.09,30.39c-0.32,48.71-0.65,50.55,45.41,56.84
			c88.72,12.11,177.84,15.11,266.73,1.06c54.18-8.56,54.07-9.27,57.74-74.77c10.23,30.42,3.13,62.66,9.64,93.54
			c2.77,13.12-6.78,17.69-17.2,20.38c-119.07,30.78-238.4,31.33-358.07,3.53c-11.59-2.69-18.38-7.65-16.48-20.4
			C1258.46,2355.6,1254.85,2317.99,1264.16,2281.71z"/>
		<path class="st21" d="M1085.49,1754.89c-16.65,1.73-14.86-14.18-19.33-22.43c-34.29-63.36-67.74-127.19-100.91-191.15
			c-11.84-22.83-25.25-28.31-47.8-12.26c-109.59,78.03-219.81,155.15-329.8,232.61c-17.36-19.86-16.04-32.97,8.62-48.51
			c109.77-69.19,218.12-140.68,327.06-211.22c32.5-21.05,36.4-20.05,52.15,14C1012.29,1595.51,1048.84,1675.23,1085.49,1754.89z"/>
		<path class="st22" d="M1252.71,1884.46c0,41.14,0,82.28,0,123.42c-3.98,0.41-7.97,0.81-11.95,1.22
			c-38.76-85.27-77.52-170.55-116.27-255.82c-0.78-7.11,3.69-9.76,9.45-11.14c7.76-1.85,15.36-0.32,23,1.21
			C1260.67,1764.06,1265.21,1770.72,1252.71,1884.46z"/>
		<path class="st23" d="M2434.66,1490.62c7.25,24.91-4.66,38.89-26.43,47.23c-65.38,5.28-130.88,2.42-196.28,1.69
			c-31.46-0.35-39.39-32.35-18.24-65.84c68.66-8.54,137.49-5.07,206.28-1.7C2414.1,1472.69,2424.88,1481.03,2434.66,1490.62z"/>
		<path class="st24" d="M2332.51,1583.95c-25.56-11.62-52.44-4.13-78.68-5.15c-14.78-0.57-13.89,13.84-13.98,22.48
			c-0.51,49.32,0.87,98.65,0.66,147.98c-0.29,69.13-0.87,138.27-2.53,207.37c-0.42,17.57-19.13,26.28-25.6,41.5
			c0.68-128.46,2.57-256.93,1.2-385.36c-0.36-33.4,10.2-43.18,41.46-40.96c31.77,2.25,63.82,0.5,96.78,0.5
			C2348.4,1585.95,2339.45,1582.84,2332.51,1583.95z"/>
		<path class="st25" d="M1252.71,1884.46c-5.26-26.64-0.8-53.4-0.57-80.08c0.17-18.91-5.94-29.55-26-30.45
			c-34.88-1.57-65.9-23.1-101.66-20.65c-24.65-26.67,2.96-43.45,11.52-64.13c8.25-19.92,22.58-12.54,36.44-10.3
			c16.44,2.66,33.23,7.54,49.46,6.26c38.4-3.01,42.55,16.17,38.63,48.44C1254.45,1783.54,1261.15,1834.43,1252.71,1884.46z"/>
		<path class="st22" d="M1137.79,2161.76c33.08-17.81,66.17-35.62,104.71-56.37c-6.63,76.73-12.71,147.22-18.8,217.72
			c-16.94,3.88-24.18-8.51-30.49-20.05c-19.82-36.18-37.8-73.36-56.54-110.13C1131.37,2182.53,1128.92,2171.83,1137.79,2161.76z"/>
		<path class="st26" d="M1672.55,2324.99c47.96-73.38,85.36-152.65,125.25-230.49c14.67-28.62,37.62-53.97,37.7-89
			c18.73,24.62,15.96,50.63,2.75,75.87c-51.41,98.27-103.46,196.19-159.35,301.93C1676.24,2358.76,1674.39,2341.88,1672.55,2324.99z
			"/>
		<path class="st27" d="M1787.6,1733.88c-48.97,13.4-97.93,26.8-146.9,40.2c-12.29-83.48-12.29-83.48,65.52-97.68
			C1752.09,1668.02,1752.09,1668.02,1787.6,1733.88z"/>
		<path class="st15" d="M707.58,2167.61c7.79,8.77,15.1,18.05,23.53,26.13c6.13,5.88,8.96,1.04,9.98-5.26
			c14.26,30.35,28.5,60.71,42.78,91.05c4.74,10.07,5.61,19.59-4.26,27.14c-29.04,22.25-96.61-3.36-104.67-39.15
			c-2.61-11.57,2.66-19.07,8.63-27.5C698.82,2218.45,707.35,2194.38,707.58,2167.61z"/>
		<path class="st15" d="M217.43,1707.63c38.47,96.32,96.87,180.83,154.55,265.74c6.24,9.19,14.54,17.29,27,17.91
			c-43.64,39.27-44.13,39.5-68.87-14.11c-42.92-93-92.43-182.83-131.28-277.79C208.83,1693.38,214.46,1697.43,217.43,1707.63z"/>
		<path class="st13" d="M2355.18,2228.71c46.01-28.43,87.82-65.82,145.54-65.57c15.6,0.07,38.63,0.93,42.28,19.04
			c2.78,13.78-18.19,19.8-30.23,27.13C2463.52,2239.29,2410.59,2240.87,2355.18,2228.71z"/>
		<path class="st27" d="M1942.86,1659.11c-40.26,20.44-80.53,40.87-120.79,61.31c-39.63-56.83-38.39-53.47,24.33-77.13
			C1884.76,1628.82,1913.45,1636.8,1942.86,1659.11z"/>
		<path class="st1" d="M2339.53,1849.97c-24.63,17.88-7.92,32.88,4.61,45.98c9.2,9.62,23.66,14.81,36.36,13.36
			c35.28-4.03,68.55,1.48,101.01,14.83c-7.14,14.43-18.41,25.52-30.79,34.9c-10.34,7.83-20.79,23.2-33.65,18.08
			c-12.31-4.9-4.85-22.05-5.87-33.67c-1.66-18.9-10.87-25.56-28.8-22.99c-17.89,2.57-35.82,1.42-52.64-5.26
			c-19.62-7.78-37-20.06-32.7-44.35C2301.26,1847.2,2321.09,1848.23,2339.53,1849.97z"/>
		<path class="st3" d="M976.53,2939"/>
		<path class="st21" d="M217.43,1707.63c-6.18-2.8-10.53-9.82-18.6-8.25c-8.11-20.26,2.69-30.98,19.65-24.72
			c67.37,24.9,133.67,52.75,200.39,79.45c13.96,5.58,6.65,16.59,6.67,25.74C356.63,1754.39,288.9,1725.51,217.43,1707.63z"/>
		<path class="st27" d="M1137.79,2161.76c22.46,57.14,49.34,111.88,85.91,161.35c0,16.61,0,33.23,0,49.84
			c-2.58,0.91-5.17,1.81-7.75,2.72c-10.67-19.53-21.53-38.97-31.97-58.62c-20.48-38.55-39.15-78.22-61.67-115.51
			C1108.04,2177.88,1114.85,2167.97,1137.79,2161.76z"/>
		<path class="st28" d="M2519.56,1821.26c-13.48-34.26-12.48-72.48-30.82-105.78c-29.53-53.61-62.35-99.96-133.39-90.68
			c-4.85,0.63-10.28-3.2-15.44-4.96c66.4-28.4,106.54-16.77,146.13,43.42C2517.66,1711.33,2528.11,1764.32,2519.56,1821.26z"/>
		<path class="st1" d="M2359.66,1727.8c-43.38,14.94-46.47,31.73-11.62,65.11c7.86,7.53,16.65,14.08,25,21.07
			c-14.46-0.25-29.14-2.21-43.33-0.37c-27.82,3.59-40.39-11.12-41.47-35.68c-1.13-25.66,8.11-46.82,38.09-49.41
			C2337.38,1727.57,2348.54,1728,2359.66,1727.8z"/>
		<path class="st29" d="M2198.11,1477.34c-15.26,46.62-6.93,58.35,40.89,58.68c56.41,0.4,112.81,1.2,169.22,1.83
			c-69.82,7.66-139.81,3.56-209.71,2.34c-23.12-0.4-38.03-16.21-37.85-39.15c0.17-21.81,10.74-39.03,36.9-37.78
			C2202.4,1467.76,2202.44,1472.46,2198.11,1477.34z"/>
		<path class="st30" d="M2198.11,1477.34c-0.18-4.69-0.35-9.38-0.55-14.08c65.97-0.48,131.95-1.04,197.94-1.37
			c19.77-0.1,33.97,8.19,39.15,28.72C2356.98,1464.84,2277.06,1479.89,2198.11,1477.34z"/>
		<path class="st21" d="M552.18,1774.43c-28.94,2.61-57.88,5.22-86.82,7.84c-6.27-8.03-6.65-15.75,0.53-23.67
			C485.27,1737.23,540.94,1747.37,552.18,1774.43z"/>
		<path class="st31" d="M1761.86,1855.34c-5.16-30.04-2.11-58.26,18.8-82.1c9.01-10.28,8.02-22.92,9.5-35.07
			C1819.99,1786.91,1791.02,1821.15,1761.86,1855.34z"/>
		<path class="st1" d="M2313.08,1639.69c6.24,38.11,44.35,39.56,66.69,59.15c-14.22-2.06-28.4-4.45-42.67-6.09
			c-12.68-1.46-28.55,4.72-35.54-11.04C2294.43,1665.64,2300.75,1651.34,2313.08,1639.69z"/>
		<path class="st32" d="M1106.18,1674.07c-2.82,6.2-5.85,14.86-12.78,12.58c-4.58-1.51-8.19-10.34-9.53-16.5
			c-1.58-7.28,3.79-9.86,10.01-6.58C1098.6,1666.05,1108.94,1662.8,1106.18,1674.07z"/>
		<path class="st3" d="M1992.28,2485.77c-74.31,27.88-139.45,5.66-166.67-60.38C1879.38,2462.73,1936.44,2471.6,1992.28,2485.77z"/>
		<path class="st3" d="M903.7,2508.52c61.1-17.44,121.94-20.42,171.24-59.93C1063.23,2509.39,988.31,2536.43,903.7,2508.52z"/>
		<path class="st33" d="M2173.55,2249.34c32.51,0.22,58.74,27.9,58.17,61.39c-0.56,32.99-27.06,57.59-61.61,57.19
			c-30.48-0.35-57.21-27.9-57.09-58.85C2113.14,2277.08,2141.46,2249.13,2173.55,2249.34z"/>
		<path class="st34" d="M2327.72,2414.35c-1.07,25.92-16.38,38.37-38.92,37.34c-20.7-0.95-36.27-14.33-35.57-37.07
			c0.71-22.83,12.75-38.46,37.7-38.11C2315.51,2376.85,2326.89,2391.05,2327.72,2414.35z"/>
		<path class="st35" d="M2431.38,2361.33c-1.42,12.68-8.63,17.99-20.56,17.3c-10.02-0.58-17.47-4.41-17.4-16.07
			c0.07-11.84,5.39-20.02,17.79-19.76C2422.57,2343.03,2429.46,2350.02,2431.38,2361.33z"/>
	</g>
	<g>
		<g>
			<g>
				<g>
					<path class="st36" d="M1806.81,1529.82c-37.8,24.2-91.67,48.99-146.1,71.1c-133.93,54.42-286.32,55.61-421.09,3.29
						c-54.77-21.26-109.01-45.2-147.18-68.8c-26.94-16.68-99.78-136.15-102.48-279.98c-0.05-2.76,1.85-5.18,4.54-5.8
						c27.41-6.32,170.78-42.87,258.99-133.41c94.38-96.88,185.43-93.77,191.77-93.42c0.24,0.01,0.46,0.01,0.7-0.01
						c6.33-0.44,97.35-4.99,193.21,90.41c89.61,89.15,233.54,123.45,261.05,129.34c2.7,0.58,4.64,2.97,4.63,5.73
						C1904.42,1392.12,1833.48,1512.72,1806.81,1529.82z"/>
				</g>
				<g>
					<path class="st37" d="M1450.04,1585.88c-66.28,0.52-130.77-11.21-191.69-34.85c-59.59-23.14-105.4-44.36-136.25-63.11
						c-0.38-0.23-0.72-0.49-1.03-0.8c-16.94-16.58-60.85-92.95-73.59-188.1c-0.38-2.85,1.32-5.56,4.07-6.41
						c61.81-19.19,166.32-60.44,239.79-135.87c71.17-73.06,137.27-77.24,149.8-77.34c0.29,0,0.55,0,0.78,0
						c0.19,0,0.38,0.01,0.58,0.03l4.13,0.45c0.73,0.08,1.47,0.02,2.19-0.18l1.35-0.37c0.24,0,0.52-0.01,0.84-0.01
						c12.53-0.1,78.71,3.06,150.99,74.98c74.64,74.27,179.79,113.88,241.89,132.1c2.76,0.81,4.51,3.49,4.17,6.34
						c-11.25,95.33-53.94,172.39-70.62,189.23c-0.31,0.31-0.65,0.58-1.02,0.81c-30.54,19.22-76.04,41.17-135.27,65.24
						C1580.61,1572.63,1516.32,1585.37,1450.04,1585.88z"/>
				</g>
				<g>
					<path class="st38" d="M1167.49,1305.75c41.45-24.95,84.92-46.25,129.84-64.56c22.37-9.41,45.45-17.19,68.91-24.27
						c23.5-6.93,47.69-12.43,73.51-13.61c26.01-0.83,50.71,4.24,74.49,10.3c23.78,6.41,46.9,14.15,69.43,23.29
						c11.31,4.45,22.47,9.19,33.56,14.07c11,5.09,21.99,10.16,32.84,15.5c21.6,10.92,42.99,22.14,63.52,35.02
						c0.61,0.38,0.79,1.18,0.41,1.79c-0.33,0.53-1,0.73-1.57,0.52c-45.2-16.73-90.14-33.52-135.51-48.04
						c-5.67-1.82-11.34-3.63-17.05-5.23c-5.68-1.71-11.34-3.52-17.03-5.15l-17.11-4.65c-5.7-1.58-11.45-2.71-17.16-4.08
						c-2.87-0.62-5.71-1.42-8.57-1.99l-8.58-1.63c-5.72-1.09-11.44-2.28-17.12-2.84c-11.45-1.73-22.56-2.49-33.73-2.12
						c-22.25,0.87-45.42,5.69-68.19,11.5c-22.87,5.73-45.58,12.78-68.26,20.16c-45.3,14.95-90.28,31.67-135.5,48.34l-0.02,0.01
						c-0.67,0.25-1.42-0.1-1.67-0.77C1166.73,1306.71,1166.97,1306.06,1167.49,1305.75z"/>
				</g>
				<g>
					<path class="st38" d="M1200.05,1437.45l121.73,23.43c20.24,3.61,40.39,7.36,60.57,10.11c20.13,2.86,40.35,5.33,59.89,5.52
						c19.48,0.18,39.47-2.35,59.52-5.35c20.12-2.74,40.12-7.19,60.27-11.05c40.21-8.33,80.4-17.77,121.04-26.44
						c0.7-0.16,1.4,0.27,1.56,0.97c0.14,0.6-0.19,1.21-0.72,1.47c-37.82,17.58-76.97,31.81-117.06,43.44
						c-9.98,3.06-20.11,5.67-30.28,8.15l-15.31,3.6l-15.45,3.23c-20.7,3.86-41.88,6.93-63.8,6.74c-21.84-0.37-42.78-3.25-63.44-7.14
						c-20.63-3.98-41.07-8.37-61.15-14.01c-40.26-10.83-79.77-23.91-118.13-40.22c-0.66-0.28-0.97-1.04-0.69-1.7
						C1198.84,1437.64,1199.46,1437.33,1200.05,1437.45z"/>
				</g>
				<g>
					<path class="st38" d="M1164.18,1367.39c46.24-3.5,92.42-4.99,138.57-5.93c46.13-0.97,92.29-1.2,138.24-1.45
						c45.92-0.46,92.06-0.89,138.2-0.71c46.15,0.17,92.35,0.93,138.65,3.76c0.72,0.04,1.26,0.66,1.22,1.37
						c-0.04,0.63-0.52,1.12-1.11,1.21c-45.94,6.51-92.01,10.62-138.13,13.68c-46.13,3.01-92.28,5.24-138.68,5.45
						c-46.36,0.19-92.52-1.27-138.69-3.58c-46.16-2.35-92.28-5.63-138.33-11.22c-0.71-0.09-1.22-0.73-1.13-1.45
						C1163.06,1367.9,1163.58,1367.43,1164.18,1367.39z"/>
				</g>
				<g class="st10">
					<path class="st39" d="M1900.25,1242.52c2.7,0.59,4.63,2.97,4.62,5.73c-0.44,143.86-71.41,264.49-98.07,281.58
						c-37.82,24.17-91.64,48.98-146.08,71.07c-133.93,54.41-286.34,55.6-421.11,3.3c-54.77-21.23-109.03-45.19-147.17-68.77
						c-26.92-16.67-99.77-136.18-102.46-280.02c-0.05-2.76,1.84-5.17,4.53-5.8c0.05-0.01,0.09-0.02,0.14-0.03
						c3.15-0.74,6.31,1.21,7.05,4.36c22.53,96.91,69.51,168.88,89.97,181.57c38.14,23.63,92.4,47.59,147.17,68.83
						c134.77,52.31,287.18,51.12,421.11-3.3c54.44-22.09,108.26-46.9,146.08-71.12c20.26-13.01,66.1-85.71,87.06-182.96
						c0.68-3.16,3.81-5.16,6.97-4.47C1900.12,1242.5,1900.18,1242.51,1900.25,1242.52z"/>
				</g>
				<g>
					<path class="st3" d="M1445.92,1659.06c-72.35,0-144.71-13.11-212.31-39.35c-64.98-25.22-115.41-48.83-149.91-70.16
						c-32.48-20.12-109.23-146.02-110.42-298.77l-0.07-8.84c-0.02-2.8,1.94-5.23,4.68-5.79l8.67-1.79
						c1.61-0.33,162.01-34.26,255.03-129.75c96.18-98.73,189.61-99.07,203.62-98.47c0.19,0.01,0.37,0.01,0.56,0
						c13.97-0.78,107.43-1.97,205.14,95.27c94.51,94.02,255.42,125.44,257.03,125.74l8.69,1.65c2.75,0.52,4.75,2.91,4.77,5.71
						l0.08,8.84c1.2,152.75-73.55,279.84-105.7,300.45l-0.01,0c-34.18,21.89-84.25,46.28-148.81,72.5
						C1596.88,1644.8,1521.4,1659.06,1445.92,1659.06z M1011.44,1262.62c-2.69,0.69-4.53,3.17-4.39,5.94
						c6.81,136.02,76.51,241.79,94.15,252.7c32.76,20.26,81.36,42.95,144.44,67.45c130.31,50.58,279.32,49.41,408.81-3.2
						c62.68-25.47,110.92-48.92,143.4-69.7c21.92-14.07,85.52-124.29,90.14-254.14c0.1-2.77-1.78-5.23-4.48-5.88
						c-46.92-11.32-172.74-47.95-256.04-130.81c-92.81-92.36-179.45-85.68-180.34-85.61l-0.89,0.08c-0.32,0.03-0.64,0.03-0.95,0.01
						l-0.89-0.07c-3.48-0.24-88.38-4.58-178.98,88.42C1183.41,1211.98,1058.17,1250.57,1011.44,1262.62z"/>
				</g>
			</g>
		</g>
		<polyline class="st3" points="1006.83,1243.01 731.45,981.66 722.69,1046.91 988.68,1288.14 		"/>
		<polyline class="st3" points="1031.6,1443.78 745.09,1350.56 792.66,1426.21 1034.03,1479.6 		"/>
		<polyline class="st3" points="1900.91,1243.01 2176.29,981.66 2185.06,1046.91 1919.06,1288.14 		"/>
		<polyline class="st3" points="1843.87,1443.78 2130.38,1350.56 2082.81,1426.21 1841.44,1479.6 		"/>
	</g>
</g>
</svg>
