<svg id="laki" xmlns="http://www.w3.org/2000/svg" viewBox="0 0 2667 2804.9"><defs><style>.cls-1{fill:#623d5a;}.cls-2{fill:#390075;}.cls-3{opacity:0.3;}.cls-4{fill:#3f2039;}.cls-5{fill:#f2101c;}.cls-6{fill:red;}.cls-7{opacity:0.45;}.cls-8{fill:#fff;}.cls-9{fill:#fee8ea;}.cls-10{fill:#6b184e;}.cls-11{fill:none;stroke:#390075;stroke-linecap:round;stroke-miterlimit:10;stroke-width:36.8px;}.cls-12{opacity:0.6;}.cls-13{opacity:0.5;}.cls-14{opacity:0.2;}.cls-15{fill:#ffce00;}.cls-16{opacity:0.35;}.cls-17{fill:#fca100;}</style></defs><g id="info"><path class="cls-1" d="M385.8,1469.4S49.7,1876.7,101.1,2114.6c53,245.8,296.8,82.3,296.8,82.3L554,1443.8Z" transform="translate(-77.4 -201.1)"/><path class="cls-2" d="M240.8,2253c77.2,0,154.6-51.1,158.6-53.8l.9-.6,157.1-758-173.1,26.3-.6.8c-3.4,4.1-336.3,411-285.3,647.5,14.4,67,44.4,110,89.1,128.1C204.6,2250.2,222.7,2253,240.8,2253Zm154.7-57.7c-11.3,7.2-122.6,76.6-206,42.9-42.9-17.3-71.7-59.1-85.8-124.1-49.4-229,266.9-621.7,283.5-642.2l163.3-24.8Z" transform="translate(-77.4 -201.1)"/><g class="cls-3"><path class="cls-4" d="M101.1,2114.7c52.9,245.7,296.8,82.2,296.8,82.2l-13.3-104s-221.8,148.6-288.3-50.7C94.8,2067.6,96.1,2091.9,101.1,2114.7Z" transform="translate(-77.4 -201.1)"/></g><path class="cls-4" d="M240.4,2268.6c82.5,0,163.5-53.6,167.7-56.4l6.3-4.2,163-786.3L376,1452.3l-4.4,5.4c-14,16.9-341.1,417-288.5,660.8,15.6,72.4,48.7,119.2,98.5,139.3C200.6,2265.5,220.5,2268.6,240.4,2268.6Zm141.1-83.1c-24.6,14.9-117.3,66.1-186.2,38.2-37.7-15.3-63.4-53.3-76.3-112.9-45.7-212.2,237.6-575.6,276.6-624.3l135-20.5Z" transform="translate(-77.4 -201.1)"/><path class="cls-5" d="M934.8,2002.8c253.9-35.2,483.4,315.5,535.4,401.2a45.7,45.7,0,0,0,33.2,21.7c91.8,12,156.7,10.4,205.1.3h.1c113.5-23.6,137-93.5,204.8-142.4,45.9-33.3,100.7-35.7,156.3-34.8h.1c64.1,1.1,129.2,6.7,182.3-25.5a136.8,136.8,0,0,0,20.7-15.2c49.9-44,48.8-107.2,114.3-155.7,33.7-25,77.1-32.5,120.5-30.9,66.1,2.3,132.2,25.7,164.2,40.7a9.2,9.2,0,0,0,12.9-10.1l-32.8-168.3-438.8-203.7-1149.9-97Z" transform="translate(-77.4 -201.1)"/><path class="cls-2" d="M1618.9,2436.7c33.3,0,62.8-2.6,88.8-7.9l.5.4,1.5-.9c77.3-16.3,113.8-54.3,149.1-91.1,16.9-17.6,34.3-35.8,56.1-51.6,45.6-33,100.9-35.1,153.7-34.3l1.1,1,1-.9,19.6.4c56.6,1.4,115.1,2.9,163.2-26.3a155.4,155.4,0,0,0,21-15.4c22.9-20.2,35-43.9,47.8-68.9,15.2-29.7,30.9-60.4,66.4-86.7,29.6-22,69.7-32.2,118.8-30.4,61.2,2.1,126.2,23.1,163.2,40.4a11.8,11.8,0,0,0,16.5-13l-33-169.5-1.2-.5-439.2-204h-.4l-1152-97.2L931.2,2005.9l4-.5c106.9-14.9,221.8,37.1,341.2,154.5,95.4,93.8,165.7,202.9,191.6,245.4a48.1,48.1,0,0,0,35.1,23C1546.1,2433.9,1584.6,2436.7,1618.9,2436.7Zm90.4-13.5-1.3.2c-52.4,11-119.3,10.9-204.3-.2a43.1,43.1,0,0,1-31.3-20.6c-26-42.7-96.6-152.2-192.4-246.4-119.1-117.1-234-169.7-341.6-156.4l126.7-414,1147.4,96.8,437.1,203,32.5,166.9a6.5,6.5,0,0,1-2.4,6.5,6.3,6.3,0,0,1-6.8.8c-37.5-17.5-103.3-38.7-165.2-40.9-50.4-1.9-91.5,8.7-122.1,31.5-36.4,27-52.4,58.2-67.9,88.5-12.6,24.6-24.4,47.8-46.6,67.3a139.7,139.7,0,0,1-20.3,14.9c-46.8,28.4-104.6,27-160.4,25.6l-20.6-.5h-1c-53.7-.8-110,1.3-156.9,35.3-22.2,16-39.8,34.3-56.8,52.1-36.3,37.9-70.6,73.7-145.8,89.6Z" transform="translate(-77.4 -201.1)"/><path class="cls-6" d="M934.8,2002.8c253.9-35.2,483.4,315.5,535.4,401.2a45.7,45.7,0,0,0,33.2,21.7c91.8,12,156.7,10.4,205.1.3h.1c113.5-23.6,137-93.5,204.8-142.4,45.9-33.3,100.7-35.7,156.3-34.8h.1c64.1,1.1,129.2,6.7,182.3-25.5a136.8,136.8,0,0,0,20.7-15.2c49.9-44,48.8-107.2,114.3-155.7,33.7-25,77.1-32.5,120.5-30.9,66.1,2.3,132.2,25.7,164.2,40.7a9.2,9.2,0,0,0,12.9-10.1l-32.8-168.3-438.8-203.7-1149.9-97Z" transform="translate(-77.4 -201.1)"/><g class="cls-3"><path class="cls-4" d="M1775.1,2340.4c-.7,47.5-33.9,72.5-66.5,85.6,113.5-23.6,137-93.5,204.8-142.4,45.9-33.3,100.7-35.7,156.3-34.8-92.1-18.6-214.8-56.3-308-132.1-166.3-135.2-366-135.3-366.8-135.3C1667.2,2050.5,1776.5,2246.9,1775.1,2340.4Z" transform="translate(-77.4 -201.1)"/></g><g class="cls-3"><path class="cls-4" d="M1581.4,1767.6c-5,45.9,318.8-49,686.6,344.2,23.3,24.9,19.3,60.8,4.8,96.3,49.9-44,48.8-107.2,114.3-155.7,33.7-25,77.1-32.5,120.5-30.9-66.3-33.8-138.9-71.4-205.9-107.3C1980,1741.2,1584.5,1738.4,1581.4,1767.6Z" transform="translate(-77.4 -201.1)"/></g><path class="cls-4" d="M1618.6,2452.5c151.6,0,202.3-53,251.7-104.5,17.1-17.8,33.3-34.7,53.8-49.6,46.6-33.7,104.5-32.3,165.8-30.8,58.9,1.5,119.7,3,171.8-28.6,41.1-24.9,58.2-58.3,74.7-90.6,15-29.3,29.2-57.1,61.7-81.2,73.7-54.6,206.2-16.3,265.9,11.6a27.5,27.5,0,0,0,38.7-30.3L2668.2,1871l-450.3-209L1050,1563.5,908.8,2025l28.5-3.9c244.9-34,473.8,320.9,517.1,392.4A64.3,64.3,0,0,0,1501,2444C1546,2449.8,1584.8,2452.5,1618.6,2452.5ZM2053,2230.2c-52.5,0-104.8,5.4-150.4,38.4-23.3,16.8-41.4,35.7-58.9,54-56.5,59-109.9,114.7-337.9,84.9a27.5,27.5,0,0,1-19.9-13.1c-61.6-101.4-276.2-421.8-525.5-412.3l116.1-379.5,1131.8,95.6,427.3,198.3,27.7,142c-48.9-19.7-195.1-69.1-287.1-.9-39.4,29.3-57,63.7-72.6,94.1s-28.8,56.3-61,75.8c-42.8,26-95.8,24.7-151.8,23.4C2078.2,2230.6,2065.6,2230.2,2053,2230.2ZM2684.7,2052h0Z" transform="translate(-77.4 -201.1)"/><path class="cls-6" d="M911.4,1518.9c247,133.9,1081.3-117.1,1699,268.9,57,35.7,113.4,139.5,115.6,264.3.3,19.7-22.7,30.7-37.8,18.1-85.8-72-316.8-248.4-595-320.1-353.5-90.9-1115.1-86.7-1155.2-167.9A555.4,555.4,0,0,1,911.4,1518.9Z" transform="translate(-77.4 -201.1)"/><path class="cls-2" d="M2702.9,2078.1a26,26,0,0,0,11.1-2.5,25.4,25.4,0,0,0,14.6-23.5c-2.3-128.4-60.5-231.2-116.8-266.4-389.1-243.2-871.5-233.9-1223.7-227.1-214.8,4.1-384.4,7.4-475.5-42l-5.7-3.1,2.1,6.2a569.2,569.2,0,0,0,26.6,63.6c22,44.4,246.5,63.4,506.4,85.5,227.2,19.3,484.7,41.2,650.5,83.8,277.4,71.4,507.8,247.3,594.1,319.5A24.9,24.9,0,0,0,2702.9,2078.1ZM1581.7,1561.3c322.3,0,706.8,28.4,1027.3,228.7,55.2,34.5,112.2,135.6,114.4,262.2a20.1,20.1,0,0,1-11.6,18.8,20.4,20.4,0,0,1-21.9-2.8c-86.5-72.5-317.7-248.9-596.1-320.5-166.2-42.8-423.9-64.7-651.4-84-247.6-21-481.5-40.9-502.1-82.7a584.9,584.9,0,0,1-24.3-56.8c93.5,46.9,261.1,43.6,472.2,39.6C1449.2,1562.6,1514.1,1561.3,1581.7,1561.3Z" transform="translate(-77.4 -201.1)"/><g class="cls-7"><path class="cls-8" d="M911.4,1508a565,565,0,0,0,26.5,63.3,23.8,23.8,0,0,0,4.2,5.7c293.4,88.3,1068.7-114.4,1651.4,249.7,52.9,33.1,105.2,124.8,114.2,237.5a22.9,22.9,0,0,0,18.3-22.9c-2.2-124.9-58.5-228.7-115.6-264.3C1992.7,1391,1158.4,1642,911.4,1508Z" transform="translate(-77.4 -201.1)"/></g><path class="cls-4" d="M2702.8,2094a42.6,42.6,0,0,0,18-4.1,41.1,41.1,0,0,0,23.6-38.1c-2.4-134-64.3-242.1-124.3-279.6-393-245.6-878.1-236.2-1232.3-229.4-204,3.9-380.2,7.3-467.6-40.1l-41.1-22.3,14.8,44.3a600.3,600.3,0,0,0,27.6,65.6c24.7,50.1,195,66.8,519.2,94.3,226.6,19.2,483.4,41,647.9,83.4,274.2,70.5,502.4,244.7,587.8,316.3A41.2,41.2,0,0,0,2702.8,2094ZM1581.4,1577.2c320.3,0,702.2,28.1,1019.2,226.2,50.3,31.5,104.9,129.4,107,249.1a4.4,4.4,0,0,1-2.6,4.2,4.7,4.7,0,0,1-5-.6c-87.3-73.2-320.7-251.3-602.2-323.8-167.5-43.1-426-65-654-84.4-128.1-10.9-249-21.1-339.5-33.9-132.6-18.7-148.1-36.6-149.9-40-3.6-7.3-6.9-14.4-9.8-21.1,100.3,33.3,254.9,30.3,443.9,26.7C1449.3,1578.4,1514,1577.2,1581.4,1577.2Z" transform="translate(-77.4 -201.1)"/><path class="cls-1" d="M236.5,2886.2a91,91,0,0,0,6,24.3c42.4,109.3,393.1,108.3,433.3-41.3,35.3-131.6,17.8-300.5,9.5-361.6h0l1.6.3,2,.3,8.2,1.3,1.4.2c12.8,1.9,25.1,3.3,37.2,4.2,61.7,5,113.8-1,153.1-9.4,5,61.2,23,247.6,65.4,364.8,52.7,145.7,387.4,149.2,433.3,41.3,12.2-28.5,9.7-53-.6-73.7-29.2-58.8-121.5-86.5-121.5-86.5-11-133.3,17.8-262.2,29.6-364.4.6-5.6,1.2-11,1.7-16.4,1.5-15.2,2.9-30.2,4-44.9,11.8-148.3,7.2-274.8-7.3-382.1a1280.8,1280.8,0,0,0-29.4-149.9c-14.5-55-31.5-103.1-49.8-145a806.3,806.3,0,0,0-52.4-101.2h0c-22.8-36.8-45-65.5-64.2-87.1-34.5-38.8-59.2-55.1-59.2-55.1l-252.3-42.8-9.2,42.8H435.3a1096.5,1096.5,0,0,0-73.9,134.4c-70.1,151.1-102.1,306.8-112,448.9a1483.9,1483.9,0,0,0,9.4,298.2c8.9,66.4,21.2,122.7,33.6,165.2,28.8,98.7,71,299.7,71,299.7C287.6,2769,229.8,2824.6,236.5,2886.2Z" transform="translate(-77.4 -201.1)"/><path class="cls-9" d="M1279.2,2766.1s-69.7-20.5-143.1,9.7-158,93.6-89.3,160.2,287.9,42.8,317.1,14.8S1451.6,2759.6,1279.2,2766.1Z" transform="translate(-77.4 -201.1)"/><g class="cls-3"><path class="cls-4" d="M547.1,2466.6l188.6,47.2c61.7,5,113.8-1,153.1-9.4,5,61.2,23,247.6,65.4,364.8,52.7,145.7,387.4,149.2,433.3,41.3,12.2-28.5,9.7-53-.6-73.7-41.5,118.1-336.8,135-390.9-7.1-34.5-90.3-38.6-213.9-37-292,.6-34.5,21.3-91.9-63.7-76.6-155.6,28-281.7-6.7-342.4-11.7C539.9,2448.3,548.6,2466.8,547.1,2466.6Z" transform="translate(-77.4 -201.1)"/></g><path class="cls-9" d="M476.3,2811.8c-42.1-27-130.2-71.9-197.5-12.9s-76.7,140.2,8.4,171.3,235,36.2,266.8,8.8S592.3,2886.2,476.3,2811.8Z" transform="translate(-77.4 -201.1)"/><g class="cls-3"><path class="cls-4" d="M236.5,2886.2a91,91,0,0,0,6,24.3c42.4,109.3,393.1,108.3,433.3-41.3,35.3-131.6,17.8-300.5,9.5-361.6h0c-33.8-5.6-106.4-19.6-138.5-40.9,0,0,85.3,114.2,83.2,271.4s-100.8,191-160.3,200.9C418.5,2947.4,279.2,2935,236.5,2886.2Z" transform="translate(-77.4 -201.1)"/></g><path class="cls-4" d="M437.1,3006c8,0,16-.3,23.9-.7,96.8-5.2,208.7-42.5,232.6-131.4,35.8-133.6,18.9-302.4,10-368.8a18.4,18.4,0,0,0-36.5,4.9c8.6,64.2,25.1,227.2-9,354.4-18.8,70-119,99.9-199.1,104.2-97.4,5.2-183-22.6-199.3-64.7-8.3-21.3-7-42.7,4-63.6,17.2-32.9,57.1-60.4,104.1-71.8l17.3-4.2-3.7-17.5c-.4-2-42.7-202.8-71.3-301-60.6-208-99.2-659.3,140.7-1031.7a18.4,18.4,0,1,0-30.9-19.9C172.8,1777.7,212.4,2242.1,274.7,2456c23.4,80.4,56.3,231.3,67.1,281.6-50,16.1-90.7,47.3-110.7,85.6-15.9,30.3-17.8,62.8-5.8,94C249.5,2979.4,347.7,3006,437.1,3006Z" transform="translate(-77.4 -201.1)"/><path class="cls-4" d="M413.5,2835.1a119.2,119.2,0,0,0-25.3,31.3,125.8,125.8,0,0,0-14.7,39c-1,3.5-1.1,7.1-1.6,10.6a65.3,65.3,0,0,0-.9,10.7l-.2,10.9.9,10.8.5,5.5a49.4,49.4,0,0,0,1,5.3l2.1,10.7c1.7,7.1,4.1,13.9,6.2,20.9a18.6,18.6,0,1,0,35.6-10.7,23.9,23.9,0,0,0-1.5-3.7l-1-1.7c-2.9-5.1-6.2-10.2-8.9-15.5l-3.8-8.2c-.6-1.3-1.3-2.7-1.8-4.1l-1.4-4.2-2.9-8.6-1.9-8.8a56.1,56.1,0,0,1-1.4-9c-.2-3-.8-6.1-.7-9.2-.6-12.3,1.3-24.8,4.8-37.1A113.9,113.9,0,0,1,413.5,2835.1Z" transform="translate(-77.4 -201.1)"/><path class="cls-4" d="M329,2829.4a167.2,167.2,0,0,0-24.7,27,145.9,145.9,0,0,0-18.2,33.2,108.9,108.9,0,0,0-7.3,39.3l.4,10.5c.5,3.4,1.2,6.9,1.8,10.4.4,1.7.7,3.5,1.1,5.2l1.6,5,3.5,10.2a18.7,18.7,0,1,0,35.3-12.1,20.6,20.6,0,0,0-2.1-4.2l-1-1.5-4-6.1-2.2-3.1c-.5-1.1-1-2.3-1.6-3.4l-3.2-6.8-2.2-7.2a88.1,88.1,0,0,1-2.3-31.8,133.4,133.4,0,0,1,8.5-33.1A153.3,153.3,0,0,1,329,2829.4Z" transform="translate(-77.4 -201.1)"/><g class="cls-3"><path class="cls-10" d="M692.5,2640.4c1.6,25.7,2.4,53.1,1.9,81C694.9,2693.5,694.1,2666.1,692.5,2640.4Z" transform="translate(-77.4 -201.1)"/><path class="cls-2" d="M697.1,2721.5h0c.5-25.6-.1-52.9-1.8-81.3l-5.5.4c1.7,27.6,2.3,54.8,1.9,80.8h5.4Z" transform="translate(-77.4 -201.1)"/></g><g class="cls-3"><path class="cls-10" d="M692.4,2638c-1.3-20.1-3-39.1-5-56.4C689.4,2598.9,691.1,2617.9,692.4,2638Z" transform="translate(-77.4 -201.1)"/><path class="cls-2" d="M689.6,2638.2l5.5-.3h0c-1.2-18.4-2.8-37.4-5-56.5h0l-5.4.6C686.8,2600.1,688.4,2619.1,689.6,2638.2Z" transform="translate(-77.4 -201.1)"/></g><g class="cls-3"><path class="cls-10" d="M686.7,2575c-.5-4.8-1.1-9.5-1.7-14C685.6,2565.6,686.1,2570.2,686.7,2575Z" transform="translate(-77.4 -201.1)"/><path class="cls-2" d="M684,2575.4l5.4-.7c-.3-3.4-.8-6.7-1.2-9.9l-.5-4.1-5.4.6h0Z" transform="translate(-77.4 -201.1)"/></g><path class="cls-11" d="M741,1654.5" transform="translate(-77.4 -201.1)"/><g class="cls-3"><path class="cls-4" d="M258.8,2285.7c8.8-69.7,42.5,2.9,91.2-45.6,43.3-43.2,43.2-177.7-8.6-227.1-36.8-35.1-68.6-36.7-92-25.5A1483.9,1483.9,0,0,0,258.8,2285.7Z" transform="translate(-77.4 -201.1)"/></g><path class="cls-9" d="M202.8,1971c14.9-32.4,64.4-75.3,129.4-13.2,51.8,49.4,51.9,183.9,8.6,227.2-49.8,49.5-83.9-27.5-91.8,50.3,0,0-40.5-55.7-52.5-107.6C181.9,2064.9,188.2,2002.6,202.8,1971Z" transform="translate(-77.4 -201.1)"/><path class="cls-2" d="M251,2242.7l.7-7.1c1.9-18.4,5.3-28.7,10.6-32.6s11.3-1.9,19.6-.1c15.4,3.4,36.6,8.1,60.8-16,20.4-20.4,32.8-62.5,32.2-109.9-.5-52-15.8-97.3-40.8-121.2-26.8-25.6-53.4-36.1-79-31.3-27.4,5.3-46.7,27.7-54.8,45.4h0c-13.9,30-21.8,92.4-6.5,158.4,12,51.9,52.6,108.1,53,108.6Zm18.4-47.2a16.9,16.9,0,0,0-10.3,3.1c-5.9,4.3-9.7,13.5-11.9,29.3-10.5-15.6-38.6-59.7-48.1-100.8-15-64.8-7.4-125.7,6.1-155h0c7.6-16.4,25.5-37.4,51-42.2,23.7-4.5,48.6,5.5,74.1,29.9,24,22.8,38.7,66.7,39.2,117.3.5,46-11.2,86.6-30.7,105.9-22.1,22.1-40.7,17.9-55.7,14.6C278.2,2196.5,273.6,2195.5,269.4,2195.5Z" transform="translate(-77.4 -201.1)"/><g class="cls-3"><path class="cls-4" d="M219.3,2186.2a423.4,423.4,0,0,0,29.7,49.2c7.9-77.9,42-.9,91.8-50.5,43.3-43.2,43.2-177.6-8.6-227.1l-.4-.4c21.2,60.9,13.4,147.1-19.7,180.1-49.7,49.6-83.8-27.4-91.7,50.4Z" transform="translate(-77.4 -201.1)"/></g><path class="cls-4" d="M262.5,2285.1l4.8-47.9c1.3-12.1,3-17.9,4-20.4,2.1.3,4.9.9,7.2,1.4,16.8,3.8,44.9,10,75.2-20.2,23.7-23.6,37.5-68.9,36.9-121.1-.6-56.2-17.7-105.7-45.7-132.4-38.2-36.5-71.5-39.4-92.7-35.4-33.3,6.4-56,32.2-66.1,54.2-15.5,33.5-23.8,98.6-7.6,168.6,12.8,54.9,53.9,111.9,55.7,114.3Zm6.8-105.2a31.6,31.6,0,0,0-19.3,6,32.2,32.2,0,0,0-6.6,6.2c-11-19.3-23.5-44.6-29-68.6-13.6-58.4-7.7-117.1,5.1-144.8h0c6.5-14.1,21.3-29.9,39.6-33.4s38.8,5.2,60.4,25.8,33.8,60.4,34.3,106.2c.5,41.2-9.8,78.4-26,94.6s-27.2,13.5-41.3,10.4C281.2,2181.2,275.4,2179.9,269.3,2179.9Z" transform="translate(-77.4 -201.1)"/><path class="cls-4" d="M1198.3,3004.1c80.8,0,178.9-22.3,206.2-86.4,12.8-30.2,12.8-59.5,0-86.9-25.2-53.6-93.6-83.6-121.7-93.9-6.1-94.6,7.5-187.1,19.5-269.1,5-34.2,9.8-66.5,12.7-96.5,38.6-390.1-34.9-635.5-103.3-772.7-75.1-150.7-159.6-207.5-163.2-209.8l-3.2-2.1-256.1-43.5a18.4,18.4,0,0,0-6.1,36.3l248.1,42.1c15,11.1,85.9,68.4,149,196.2,65.5,132.7,135.7,370.5,98.2,749.9-2.9,29.1-7.6,61-12.5,94.8-12.8,87.4-27.3,186.5-18.9,289.3l1,12.5,12.1,3.7c.8.2,86.8,26.7,111.1,78.5,8.3,17.8,8.1,36.3-.6,56.8-17.1,40.1-92.3,66.3-183.2,63.8s-191.1-35.6-215.9-104.2c-41.9-115.7-59.9-304.8-64.4-360l-1.7-20.9-20.5,4.4c-73.7,15.8-191,22.3-330.9-36.8a18.4,18.4,0,1,0-14.3,33.9c136.5,57.6,253.2,56.5,332.5,42.8,7.4,81.8,26,242.2,64.7,349.1,32.8,90.7,154.9,125.9,249.5,128.5Z" transform="translate(-77.4 -201.1)"/><g class="cls-3"><path class="cls-4" d="M1038.2,2346.3c35.7,17.9,60.4,9.6,117.4,25.5,29.2,8.2,42.9,16.7,90.3,19.4,13.9.8,30.7-.9,49.1-5.3.6-5.6,1.2-11,1.7-16.4,1.5-15.2,2.9-30.2,4-44.9,11.8-148.3,7.2-274.8-7.3-382.1-48.1,14.9-87.3,31.5-84.9,45.6,12.9,76.7-30.5,120.7-58,118.6-16.8-1.2-46.6-27.4-112.3-1.7C960.7,2135.4,979.2,2316.8,1038.2,2346.3Z" transform="translate(-77.4 -201.1)"/></g><ellipse class="cls-9" cx="715.4" cy="1762.5" rx="343.6" ry="413.5"/><path class="cls-1" d="M1038.2,2286.5c35.7,17.9,60.4,9.6,117.4,25.5,29.2,8.2,42.9,16.7,90.3,19.4,15.4.9,34.2-1.3,54.8-6.8,91.1-24.3,216.7-112.4,222.7-279.4,5.8-160.6-108.3-317.4-220.6-431.9-106.1-108.2-210.6-178.6-210.6-178.6l-32.8,22.8,83,207.3,45.3,208.1s14.8,20,20.8,55.4c12.9,76.7-30.5,120.7-58,118.6-16.8-1.1-46.6-27.4-112.3-1.7C960.7,2075.6,979.2,2257,1038.2,2286.5Z" transform="translate(-77.4 -201.1)"/><path class="cls-9" d="M1187.9,2088s26.4,48.4,0,107.9-77.4,92.8-140.7,81.1-83.2-136.2-62-177.7S1122,1984.4,1187.9,2088Z" transform="translate(-77.4 -201.1)"/><g class="cls-3"><path class="cls-4" d="M992.5,2208.2c8,36.5,24.1,67.5,45.7,78.3,35.7,17.9,60.4,9.6,117.4,25.5,29.2,8.2,42.9,16.7,90.3,19.4,15.4.9,34.2-1.3,54.8-6.8,91.1-24.3,216.7-112.4,222.7-279.4,2.9-77.4-22.3-154-61.6-225.4,20,50.9,31.2,103.8,29.3,157-6,167-131.6,255.1-222.7,279.3-20.6,5.6-39.5,7.8-54.8,6.9-47.5-2.7-61.1-11.2-90.4-19.4-57-16-81.7-7.6-117.4-25.5A50.6,50.6,0,0,1,992.5,2208.2Z" transform="translate(-77.4 -201.1)"/></g><path class="cls-4" d="M1182.8,1876.5a202.9,202.9,0,0,1,10.5,57.7c0,4.9.5,9.6.1,14.3l-.2,7.1c-.3,2.3-.5,4.6-.7,6.9-.2,4.6-1.5,9-2.1,13.4s-2,8.8-3.7,12.8a123.4,123.4,0,0,1-5.1,11.8l-3.1,5.4c-1.1,1.8-2.4,3.4-3.6,5.1-4.8,6.4-10.7,11.7-16.2,14.4-2.6,1-5.2,2.1-6.3,1.8s-.6,0-.8,0-.4,0-.8-.1l-1.1-.3c-1.7-.4-3.9-1.2-6.4-2-9.8-3.5-22.2-7.3-34.5-8.7-24.8-3.1-49.3,1.7-70.7,9.6l-4.1,1.5a34.6,34.6,0,0,0-4.3,1.7,81,81,0,0,0-9.3,4.7,78.9,78.9,0,0,0-16.1,12.5c-9.4,9.4-16.2,20.5-21.2,31.6-10.1,22.5-13.4,45.7-14.6,68.4a264.3,264.3,0,0,0,6.4,67.5c5.1,22.2,12.6,44.3,27.3,64.8,1.8,2.6,4.1,5.1,6.1,7.6s4.7,4.7,7.1,7.1a89.9,89.9,0,0,0,8.5,6.4,69.9,69.9,0,0,0,9.1,4.9,140.2,140.2,0,0,0,34.5,11.1c11.5,2.1,22.3,3.1,32.5,4.4s19.9,2.7,29.7,4.8,19.4,4.5,28.9,7.4,19.8,6.6,30.9,9.6a246.5,246.5,0,0,0,33.7,6.3c11.2,1.1,21.7,2.2,34.2,1.9a193.7,193.7,0,0,0,34.5-4.3,272,272,0,0,0,32.7-9.1,325.3,325.3,0,0,0,60.7-28.2,329.3,329.3,0,0,0,53.8-39.5c33.2-29.9,60.3-67,77.8-108.4a321.7,321.7,0,0,0,23.8-97.4l1.1-16.6v-16.7c-.4-44.6-9.4-88.4-23.7-129.7s-34-80.5-56.5-117.3c-45.3-73.7-101.7-139.1-162.4-199.1-15.2-14.9-30.7-29.7-46.5-43.9s-31.4-29-47.5-43a481.5,481.5,0,0,0-51-38.7,273.4,273.4,0,0,0-27.9-16.1,190.6,190.6,0,0,0-30.5-12.3,6.6,6.6,0,0,0-8,4.5,6.4,6.4,0,0,0,1.1,5.7h0c26.7,34.5,58.9,60.5,91.1,87,16.2,13.1,32.6,26.1,47.9,40.2s30.6,28.3,45.5,42.8c59.1,58.5,113.7,121.9,156.8,192.1,21.4,35.1,39.8,71.9,53.1,110.2s21.3,78.1,21.7,117.9v15l-.9,14.9a290.6,290.6,0,0,1-4.1,29.5,271.2,271.2,0,0,1-16.9,56.6c-15.4,36.3-39.2,68.9-68.6,95.5a301,301,0,0,1-101.8,60.2c-18.6,6.3-38,10.8-56.4,11.4-8.6.3-19.1-.6-28.8-1.7a188.8,188.8,0,0,1-28.5-5.3c-9.3-2.5-18.9-5.9-29.5-9.1s-21.4-6-32.3-8.4c-21.7-4.8-44.5-6.1-62.9-9.3a102.1,102.1,0,0,1-25.6-8.1c-2.3-1-3.4-1.9-4.8-2.6s-2.7-2.1-4.1-3.1-2.8-2.6-4.1-4.1-2.6-3-3.8-4.8c-10-13.8-16.9-32.3-21.1-51.1a226.5,226.5,0,0,1-5.5-58c.9-19.3,4-38.6,11.3-54.7a66.8,66.8,0,0,1,13.7-20.6,43.8,43.8,0,0,1,8.8-6.9c1.5-1.1,3.3-1.6,4.8-2.5a20.2,20.2,0,0,1,3.1-1.2l3.4-1.1c18-6.3,36.3-9.3,53.4-6.7,8.7,1.4,16.5,3.9,26.4,7.7,2.5,1,5.3,2,8.6,3l2.8.8,3.1.7a34.3,34.3,0,0,0,7,.6c2.3,0,4.6-.1,6.8-.3a61.8,61.8,0,0,0,6.2-1.2,31.7,31.7,0,0,0,5.7-1.8l5.5-2.1c13.4-6.7,23.2-16.3,30.8-26.8a108.3,108.3,0,0,0,16.4-34.1c7.2-23.7,6.6-48.3,1.4-70.6a132.1,132.1,0,0,0-11.7-32.4c-5.2-10.3-11.3-19.6-20.1-28a6.2,6.2,0,0,0-10.2,6.4Z" transform="translate(-77.4 -201.1)"/><path class="cls-4" d="M1231.5,2157c-.9-12.9-3.8-25.2-7.6-37.5a198.5,198.5,0,0,0-15.4-35.6c-6.6-11.3-14.4-22.4-24.4-32s-22.2-17.4-35.9-21.7a16.4,16.4,0,0,0-14.2,29.1l1.4,1c8.5,5.8,16.9,11.2,25.1,18a281.7,281.7,0,0,1,24,22.7c15.3,17,29.2,36.5,42.5,57.3h.1a2.3,2.3,0,0,0,3.3.7A2.5,2.5,0,0,0,1231.5,2157Z" transform="translate(-77.4 -201.1)"/><path class="cls-4" d="M1204.9,2844.2a97.9,97.9,0,0,1,25.1,66.5,84.8,84.8,0,0,1-.6,8.7c-.2,1.4-.2,2.8-.4,4.2l-.9,4.3c-.7,2.8-1,5.5-1.8,8.3l-2.8,8.1a40.9,40.9,0,0,1-3.2,7.9l-3.5,7.7c-2.8,5.1-5.9,9.9-8.7,14.8l-.9,1.5a18.6,18.6,0,1,0,32.2,18.6,17.8,17.8,0,0,0,1.7-4c2.1-6.7,4.3-13.3,6-20l2-10.4a59.4,59.4,0,0,0,1.4-10.3l.8-10.5c.2-3.5-.2-7-.2-10.5l-.3-5.2c-.2-1.7-.5-3.4-.7-5.1-.6-3.5-.9-6.9-1.8-10.2a109,109,0,0,0-16.2-37A99.9,99.9,0,0,0,1204.9,2844.2Z" transform="translate(-77.4 -201.1)"/><path class="cls-4" d="M1281.2,2826.9a184.4,184.4,0,0,1,20.5,31.2,138.4,138.4,0,0,1,12.7,33.7c2.6,11.4,3.2,22.8,1.2,33.1a64.9,64.9,0,0,1-12.3,27.5,18.6,18.6,0,1,0,29.6,22.4,19,19,0,0,0,2.3-3.9l.3-.7c5.9-14.1,8.8-29.5,7.7-44.3a105.2,105.2,0,0,0-11.5-40.4,154.3,154.3,0,0,0-22.4-32.6A186.4,186.4,0,0,0,1281.2,2826.9Z" transform="translate(-77.4 -201.1)"/><path class="cls-5" d="M1298.6,1599.2c-205.3,137.7-694.7,50.2-682.9-8.9,4.4-22.2,420.4,33,635-39.9a56.3,56.3,0,0,1,38.8,18.5C1292.9,1572.7,1305.7,1594.4,1298.6,1599.2Z" transform="translate(-77.4 -201.1)"/><path class="cls-5" d="M325.2,1520.5c127.6,103.7,289.2,92.3,290.5,69.8s-101.3-25-268.1-142.1c0,0-18.6,1.3-31.9,23.5C306.8,1486.6,319,1515.4,325.2,1520.5Z" transform="translate(-77.4 -201.1)"/><path class="cls-4" d="M972.3,1691c98.8,0,241.5-12.8,336.6-76.5a23.4,23.4,0,0,0,10-16.6c2.2-16.7-12.8-38-15.6-41.2a74.1,74.1,0,0,0-52.6-24.7h-3l-2.9.9c-137.1,46.6-365.1,39.5-501.3,35.3-37.1-1.2-69.2-2.2-91.9-1.9-25.7.3-50,.6-54,20.4-2,10.1.3,25.2,22.6,40.1,47.3,31.5,176.1,58.1,306.4,63.3C940.3,1690.6,955.7,1691,972.3,1691Zm308-101.9c-138.1,85.3-406,73.8-555.5,37.6-35.3-8.5-58-16.9-72-23.7,23.1-.1,56.7.9,89.6,1.9,137.5,4.3,366.9,11.5,510.6-35.9a37.3,37.3,0,0,1,22.7,12A57.9,57.9,0,0,1,1280.3,1589.1Z" transform="translate(-77.4 -201.1)"/><path class="cls-4" d="M558.1,1624c24.4,0,44.1-3.3,56.5-8.8,16.1-7,19.1-17.9,19.5-23.8,1.3-22.4-20.3-30.4-56.1-43.7-45-16.8-120.4-44.8-219.8-114.6l-5.4-3.7-6.5.4c-2.9.2-28.7,2.9-46.4,32.4-14,23.4.9,62.1,13.7,72.5h0C394.8,1600.8,493,1624,558.1,1624Zm18.3-37.7c-47.2,3.9-149.5-7.3-238.8-79.5-4.1-5.5-8.4-21.6-6.1-25.7,4.3-7.2,9.3-10.9,12.9-12.8,99.6,68.8,175.2,96.9,220.8,113.9Zm-251.2-65.8Zm12.7-13.3Zm-1.1-1Z" transform="translate(-77.4 -201.1)"/><path class="cls-5" d="M630.9,1706c20.7,38.6,59.7,60.5,79.5,69.7a10.4,10.4,0,0,0,14.6-7.9c3.3-21.5,6.6-66.1-14.1-104.7s-59.6-60.5-79.4-69.6a10.3,10.3,0,0,0-14.6,7.9C613.5,1622.8,610.3,1667.4,630.9,1706Z" transform="translate(-77.4 -201.1)"/><path class="cls-4" d="M714.7,1795a28.8,28.8,0,0,0,28.5-24.4c3.9-25,6.9-73.3-16.1-116.2s-64.9-67-87.9-77.6a28.8,28.8,0,0,0-40.5,21.7c-3.9,25-7,73.4,16,116.2h0c23,42.9,65,67.1,87.9,77.7A28.7,28.7,0,0,0,714.7,1795Zm-81-179.9c19.2,10.2,45.9,28.5,61,56.7s15.6,60.6,13.5,82.3c-19.3-10.3-45.9-28.6-61-56.8h0C632,1669.1,631.6,1636.8,633.7,1615.1Z" transform="translate(-77.4 -201.1)"/><path class="cls-5" d="M575.2,1699.2c-29.4,32.4-72.6,44.2-93.9,48.3a10.4,10.4,0,0,1-12.3-11.2c1.9-21.7,9.6-65.7,39-98.1s72.5-44.3,93.9-48.3a10.3,10.3,0,0,1,12.3,11.1C612.3,1622.7,604.6,1666.8,575.2,1699.2Z" transform="translate(-77.4 -201.1)"/><path class="cls-4" d="M479.2,1766.1a25.7,25.7,0,0,0,5.5-.6c24.8-4.7,71.4-17.9,104.1-54h0c32.7-36,41.5-83.6,43.7-108.8a28.7,28.7,0,0,0-34-30.9c-24.9,4.7-71.4,18-104.1,54s-41.5,83.6-43.8,108.8a28.8,28.8,0,0,0,9.4,24A28.3,28.3,0,0,0,479.2,1766.1Zm82.4-79.3c-21.5,23.7-51.8,35-73,40.2,3.2-21.5,11.5-52.8,33-76.5s51.8-34.9,73-40.2c-3.2,21.6-11.5,52.8-33,76.5Z" transform="translate(-77.4 -201.1)"/><path class="cls-4" d="M485.1,2752.3c-9.2-5.8-19-10-29.1-13.7a192.9,192.9,0,0,0-31.2-8,143,143,0,0,0-32.7-2.5,100.4,100.4,0,0,0-32.7,6.7,16.5,16.5,0,0,0,6.7,31.7h1.3c9.4-.3,18.3-2,27.6-3s18.8-2.6,28.5-3.5c19.3-1.9,39.4-2.5,60.3-3.2h.1a2.3,2.3,0,0,0,2.3-2.5A2.4,2.4,0,0,0,485.1,2752.3Z" transform="translate(-77.4 -201.1)"/><path class="cls-4" d="M1269.4,2734.5c-8.9-3.9-17.2-5.3-26.1-6.2s-17.7-.3-26.5.6a154.2,154.2,0,0,0-26.2,5.4,96.5,96.5,0,0,0-24.3,11.4,2.5,2.5,0,0,0-.7,3.5,2.1,2.1,0,0,0,1.7,1h.1c8.7,1,16.7,2,24.7,3.4s15.8,2.9,23.5,4.6,15.3,3.7,22.9,5.1,15.5,2.8,22.8,2.7h1.5a16.5,16.5,0,0,0,6.6-31.6Z" transform="translate(-77.4 -201.1)"/><path class="cls-4" d="M1119.8,2105.5a78.5,78.5,0,0,0-27.5-22.4,85.6,85.6,0,0,0-36.1-8.3,133.4,133.4,0,0,0-37.2,4.9,200.7,200.7,0,0,0-35.1,13.2h-.1a16.2,16.2,0,0,0,14.1,29.2,12.7,12.7,0,0,0,3.1-2c16.7-13.4,35.7-24.8,56.6-29.4a73.5,73.5,0,0,1,32-.1C1100.4,2093,1110.7,2098.3,1119.8,2105.5Z" transform="translate(-77.4 -201.1)"/><path class="cls-4" d="M1104.2,2173.5c-8.9-5-18.2-10-28.3-13.2a102.2,102.2,0,0,0-32-6.2,97.5,97.5,0,0,0-33.7,5c-10.8,3.4-21.3,8.9-29.2,11.8a16.3,16.3,0,0,0,11,30.6,17.9,17.9,0,0,0,3.9-2l.2-.2c9.9-7.1,16.3-13.2,24.2-18.2a76.5,76.5,0,0,1,25.1-11c9.1-2.3,18.9-2.6,28.9-2S1094.2,2171,1104.2,2173.5Z" transform="translate(-77.4 -201.1)"/><path class="cls-4" d="M251.6,1989.1c9.4-3.3,19.2-4,28.8-3.6a106.9,106.9,0,0,1,27.7,5.2c17.7,5.9,32.7,16.4,42.3,29.6a16.3,16.3,0,1,0,26.3-19.3,15.7,15.7,0,0,0-3.1-3.2l-.5-.4a109.7,109.7,0,0,0-62.2-22.5,116.6,116.6,0,0,0-31.3,2.6C269.6,1979.8,259.8,1983.4,251.6,1989.1Z" transform="translate(-77.4 -201.1)"/><path class="cls-4" d="M251.6,2080.7c9.7-5,20.3-6.8,30.7-6.7a102.9,102.9,0,0,1,30.3,5.1,121.1,121.1,0,0,1,27.2,12.8c8.1,5.3,15.4,11.7,20.1,18.4a16.3,16.3,0,1,0,26.7-18.7,17,17,0,0,0-2.9-3.1l-.6-.5c-10.5-8.7-21.8-14.1-33.1-17.9a130.3,130.3,0,0,0-34.5-6.8,115.3,115.3,0,0,0-34.2,2.7C270.3,2068.7,259.7,2073.4,251.6,2080.7Z" transform="translate(-77.4 -201.1)"/><path class="cls-1" d="M1335.1,1275.3c-78.1,114.3-242.8,206.4-571,206.4h-.3c-324,0-488.5-89.9-567.7-202.3-29.9-42.3-47.6-87.9-57.1-133-32.7-154.8,30.9-304.9,30.9-304.9-44.5-302.6,18.8-497.4,57.2-581.9,15.6-34.3,54.1-52.2,90.1-41.5C454,258.7,591.1,445.9,591.1,445.9c84.6-25.7,173-24.1,173-24.1s88.5-1.6,173.1,24.1c0,0,137.1-187.2,273.9-227.8,36-10.7,74.5,7.2,90.1,41.5,38.3,84.5,101.7,279.3,57.2,581.9C1358.4,841.5,1462.9,1088.2,1335.1,1275.3Z" transform="translate(-77.4 -201.1)"/><path class="cls-9" d="M1362.3,1211.6a391.2,391.2,0,0,1-27.2,63.7c-78.1,114.3-242.8,206.4-571,206.4h-.3c-324,0-488.5-89.9-567.7-202.3a360.1,360.1,0,0,1-30.1-67.8s-38-127.9,30.6-208,150.2-34,206.7,16.2c40.2,35.6-2.5,22.5,52.9-4.3,61.6-29.8,136.6-132.2,205-132.2s213.9,101.8,267.6,144.4,153,54.2,196.2-7.9,138-96.3,206.7-16.2S1362.3,1211.6,1362.3,1211.6Z" transform="translate(-77.4 -201.1)"/><g class="cls-3"><path class="cls-4" d="M806.3,1094.7c2.3-7.8-6.8-14-13.3-9-17.3,13.5-33.8,18.5-63.7,10.2-35.8-10.1-18.9-62.6-18.9-62.6l-39.8-8.9-39.9-8.9s-7,54.7-43.6,48.6c-30.7-5.1-43.4-16.7-53.4-36.3-3.7-7.2-14.6-5.5-15.9,2.5-3.4,21.1-.9,51.5,34.4,69.5,55,28.1,93.8,26.2,115-60.2C649.6,1126.8,684,1145,745.7,1143,785.3,1141.7,800.5,1115.2,806.3,1094.7Z" transform="translate(-77.4 -201.1)"/></g><path class="cls-4" d="M756.9,1023.5c3.1-20.7-18-36.2-38.3-46.2a157.6,157.6,0,0,0-71.4-15.9c-22.6.4-48.4,5.4-54.4,25.5-7.9,26.1,28.5,53.6,51.4,67.9a57.6,57.6,0,0,0,37.3,8.4C708.3,1059.9,753,1050.5,756.9,1023.5Z" transform="translate(-77.4 -201.1)"/><ellipse class="cls-8" cx="678.9" cy="988.6" rx="7.9" ry="45.6" transform="translate(-511.2 1234.9) rotate(-77.4)"/><path class="cls-4" d="M712.7,1160.3c-25.8-5.8-44.5-18.6-55.5-38.2-20.5-36.6-5.2-82.8-4.5-84.7a14.7,14.7,0,1,1,27.9,9.5c-.2.7-11.6,36,2.4,60.8,6.8,12.1,18.7,19.9,36.2,23.8,20.5,4.6,37.1,2.7,49.4-5.6,18-12.2,21.8-35.1,21.8-35.4a14.8,14.8,0,0,1,29.2,4.4c-.2,1.4-5.5,35.5-34.1,55.2C766.2,1163.3,741.7,1166.8,712.7,1160.3Z" transform="translate(-77.4 -201.1)"/><path class="cls-4" d="M574.7,1129.5c-29-6.5-49.7-20-61.5-40.2-17.6-30-7.9-63-7.5-64.4a14.8,14.8,0,0,1,28.3,8.5c-.1.1-6.3,22.5,4.8,41.2,7.5,12.7,21.7,21.5,42.3,26.1,17.5,3.9,31.6,1.9,42.9-6.2,23.2-16.6,27.9-53.6,28-54a14.7,14.7,0,1,1,29.3,3.3c-.2,2-6,50.3-40.1,74.7C622.9,1131.5,600.5,1135.3,574.7,1129.5Z" transform="translate(-77.4 -201.1)"/><path class="cls-9" d="M294.6,636c34.7-29.8,94.5-76.9,168.2-117.5a21,21,0,0,0,9.4-25.9c-17.4-45-98-148.9-141.8-164.9C265.2,304,257.9,527.8,260,620.6,260.4,638.3,281.2,647.6,294.6,636Z" transform="translate(-77.4 -201.1)"/><path class="cls-9" d="M1233.7,636c-34.7-29.8-94.5-76.9-168.2-117.5a21,21,0,0,1-9.4-25.9c17.4-45,97.9-148.9,141.8-164.9,65.2-23.7,72.5,200.1,70.4,292.9C1267.9,638.3,1247.1,647.6,1233.7,636Z" transform="translate(-77.4 -201.1)"/><g class="cls-3"><path class="cls-4" d="M1386.3,936.8c5.1,78.1-5.9,170.7-61.3,251.9-76.7,112.2-238.5,202.7-560.9,202.7h-.3c-318.2,0-479.9-88.3-557.7-198.7-29.3-41.6-46.7-86.4-56.1-130.7s-10.5-86-8-125.2c-11.7,56.8-19.2,132.6-3,209.6,9.5,45.1,27.2,90.7,57.1,133,79.2,112.4,243.7,202.3,567.7,202.3h.3c328.2,0,492.9-92.1,571-206.4S1404.6,1025.8,1386.3,936.8Z" transform="translate(-77.4 -201.1)"/></g><g class="cls-12"><path class="cls-9" d="M1211.1,218.1c-136.8,40.6-273.9,227.8-273.9,227.8-84.6-25.7-173.1-24.1-173.1-24.1s-88.4-1.6-173,24.1c0,0-137.1-187.2-273.9-227.8A75.4,75.4,0,0,0,231,252.3a80.7,80.7,0,0,1,50.1-1.4c117.8,35,235.8,170.5,278.9,224.2a43.2,43.2,0,0,0,41.6,15.1c3.2,17.7,37.4,27.5,77,21.8s67.6-23.4,67.8-40.7c11.2-.3,17.7-.2,17.7-.2s77.9-1.5,160.2,18.7a43.3,43.3,0,0,0,44-14.7c43.1-53.7,161.1-189.2,278.9-224.2a80.8,80.8,0,0,1,50.1,1.4A75.4,75.4,0,0,0,1211.1,218.1Z" transform="translate(-77.4 -201.1)"/></g><path class="cls-4" d="M764.1,1495.7c-156.4,0-286.9-21.1-387.7-62.7-87.2-36-153.7-87.8-197.5-153.9-29.3-44.3-48.7-95.2-57.6-151.5-7-44.7-7.5-92.7-1.3-142.9,9-74.3,29.7-130.3,35.5-145-19.1-132.4-19.7-257.9-1.9-373.1,15.4-99.1,41.6-170.4,60.8-212.8,18.5-40.6,64.4-61.7,106.8-49.1,59,17.5,124.3,62.1,194.2,132.7a1028.7,1028.7,0,0,1,81.1,92.4c81.1-22.8,161.5-22,167.6-21.9s86.6-.9,167.7,21.9a1028.7,1028.7,0,0,1,81.1-92.4c69.9-70.6,135.2-115.2,194.2-132.7,42.4-12.6,88.3,8.5,106.8,49.1,19.2,42.4,45.4,113.7,60.8,212.8,17.8,115.2,17.2,240.7-1.9,373.1,5.8,14.7,26.5,70.7,35.5,145,6.2,50.2,5.7,98.2-1.3,142.9-8.9,56.3-28.3,107.2-57.6,151.5-43.8,66.1-110.3,117.9-197.5,153.9C1051.1,1474.6,920.6,1495.7,764.1,1495.7ZM296.2,229a62.2,62.2,0,0,0-56.4,36.4c-39.6,87.3-99.6,278-56.1,574a14.8,14.8,0,0,1-1,7.5c-.3.6-25.3,60.6-35.1,142.1-9,74.2-6.8,182.2,54.7,274.8,89.8,135.3,278.8,203.9,561.8,203.9s472.1-68.6,561.9-203.9c61.5-92.6,63.7-200.6,54.7-274.8-9.8-81.5-34.9-141.5-35.1-142.1a14.8,14.8,0,0,1-1-7.5c43.5-296-16.5-486.7-56.1-574-12.8-28-44.3-42.6-73.5-33.9-130.6,38.7-265.2,220.8-266.6,222.6a13.9,13.9,0,0,1-15.3,5.1c-81.4-24.7-167.8-23.4-168.7-23.4h-.5c-.9,0-87.3-1.3-168.7,23.4a13.8,13.8,0,0,1-15.3-5.1c-1.4-1.8-136-183.9-266.6-222.6A59.5,59.5,0,0,0,296.2,229Z" transform="translate(-77.4 -201.1)"/><path class="cls-8" d="M541.7,844.5c-15.8,4.2-24.1,24.6-18.6,45.7s22.9,34.7,38.7,30.6,24.1-24.6,18.5-45.7S557.5,840.3,541.7,844.5Z" transform="translate(-77.4 -201.1)"/><path d="M981.1,818.9c47.8-9.2,96,33.2,107.7,94.5s-17.5,118.4-65.3,127.5-95.9-33.2-107.7-94.5S933.3,828,981.1,818.9Z" transform="translate(-77.4 -201.1)"/><path class="cls-8" d="M986.6,844.5c15.8,4.2,24.1,24.6,18.6,45.7s-22.9,34.7-38.7,30.6-24.1-24.6-18.5-45.7S970.8,840.3,986.6,844.5Z" transform="translate(-77.4 -201.1)"/><g class="cls-13"><path class="cls-4" d="M1049,972.6c7.7,4.1,9.5,15.6,4.1,25.8s-16,15.2-23.6,11.1-9.5-15.5-4.1-25.7S1041.4,968.6,1049,972.6Z" transform="translate(-77.4 -201.1)"/></g><path class="cls-4" d="M419.6,798.9c-5.4-4.7,22.4-71.8,80.9-91.8,71.1-24.3,147,34.7,144.7,41s-62.6-31.5-132.8-10.8C452.8,755,424.3,803.1,419.6,798.9Z" transform="translate(-77.4 -201.1)"/><path class="cls-4" d="M1114.9,798.9c5.3-4.7-22.4-71.8-81-91.8-71.1-24.3-147,34.7-144.7,41s62.7-31.5,132.8-10.8C1081.6,755,1110.1,803.1,1114.9,798.9Z" transform="translate(-77.4 -201.1)"/><g class="cls-14"><path class="cls-1" d="M1204,617.9c-23.7-20.4-64.6-52.6-115.1-80.4a14.4,14.4,0,0,1-6.4-17.7c11.9-30.8,67-101.9,97-112.9,44.6-16.2,49.7,137,48.2,200.5A14.3,14.3,0,0,1,1204,617.9Z" transform="translate(-77.4 -201.1)"/></g><g class="cls-14"><path class="cls-1" d="M317.3,617.9c23.8-20.4,64.7-52.6,115.1-80.4a14.4,14.4,0,0,0,6.5-17.7C427,489,371.8,417.9,341.8,406.9c-44.6-16.2-49.6,137-48.1,200.5A14.3,14.3,0,0,0,317.3,617.9Z" transform="translate(-77.4 -201.1)"/></g><path class="cls-2" d="M414.7,1354.4Zm9.7-12Zm-1-.7Z" transform="translate(-77.4 -201.1)"/><path class="cls-2" d="M176.2,693.9c-1,2.2-1.9,4.4-2.8,6.6l2.1-4.1h0l-2.4,7.6h0a7.7,7.7,0,0,1,.1-2.6,10.6,10.6,0,0,1,2.2-4.8l-2.4,7.6a10.8,10.8,0,0,1,.2-3.1l-.3,3.4h0v-.3a10.3,10.3,0,0,1,2.4-7.2l-2.1,4.1c-4.3,11.6-7,23.5-10,35.3l-8.8,35.6q-8.6,35.5-16.7,71.3c-2.7,11.9-5.3,23.8-7.9,35.7s-4.9,24.1-7.8,34.9c-6,22.5-15.1,44.2-24.1,67.4a171.8,171.8,0,0,0-6.2,19.1,44.1,44.1,0,0,0-1.5,14c.2,1.4.4,2.8.7,4.2a26.9,26.9,0,0,0,1.4,4.6,24.4,24.4,0,0,0,5.7,8.8,30.4,30.4,0,0,0,16.1,8.4,50.5,50.5,0,0,0,13.1.8,102.3,102.3,0,0,0,21.2-4A158.1,158.1,0,0,0,167,1031l9-3.7,4.4-2,2.3-1.1h.1l-.5.3a16.1,16.1,0,0,1-3.5,1,14.2,14.2,0,0,1-7.7-1,14,14,0,0,1-8-8.3,16.1,16.1,0,0,1-.8-4.8,17.9,17.9,0,0,1,.2-2.3l.2-1c.1-.1,0,.1,0,.1l-.2,1-.5,1.8-1.2,3.8c-.9,2.6-1.8,5.2-2.9,7.8-2,5.3-4.3,10.6-6.8,15.9l-7.8,17c-2.5,6-5.2,12.2-7.1,20a47.2,47.2,0,0,0-1.3,13.6,35.7,35.7,0,0,0,1.6,8.3,29.6,29.6,0,0,0,4.6,8.8,34.2,34.2,0,0,0,13,10.2,49.6,49.6,0,0,0,12.2,4,86.8,86.8,0,0,0,21.8,1.4c3.4-.2,6.8-.4,10.1-.9l4.2-.6a15.3,15.3,0,0,1,3-.3,79.7,79.7,0,0,1,13.4.7c4.9.5,10.3,1.6,16.8,2.5h.5a6.4,6.4,0,0,0,7.2-5.5,7.6,7.6,0,0,0-.5-3.4c-5.9-13.3-19.9-22.8-36.2-24a41.5,41.5,0,0,0-6.1-.2h-4.9c-2.8,0-5.5.1-8.1,0a79.5,79.5,0,0,1-14.6-1.4,25.4,25.4,0,0,1-6.5-2.2c.8,2-.6-.2.4-4.4a72.2,72.2,0,0,1,4.9-14.4c2.2-5.3,4.8-10.7,7.4-16.2s5.3-11.6,7.7-17.6c1.2-3.1,2.3-6.2,3.4-9.3l1.6-4.9.7-2.6.3-1.2v-.3l.3-1.3a23,23,0,0,0,.2-2.8,17,17,0,0,0-1-5.9,16.5,16.5,0,0,0-9.4-9.9,17.1,17.1,0,0,0-12.9,0l-.9.4-1.9.9-3.9,1.7c-2.6,1.2-5.2,2.2-7.9,3.3-5.2,2-10.5,3.9-15.7,5.4a74.6,74.6,0,0,1-14.7,2.9,19.3,19.3,0,0,1-5-.1c-1.1-.2-.8-.4,0,.4s.9,1.9.8,1.2a24.7,24.7,0,0,1,.7-4.1,160.3,160.3,0,0,1,4.9-15.7c8.1-22.3,17.5-45.8,23.6-70.6,3.1-12.8,5-24.6,7.4-36.5l7-35.7q6.9-35.9,14.3-71.5l7.5-35.6c2.6-11.9,5.5-23.6,7.2-35.6l-2.1,4.1a11,11,0,0,0,2.4-7.4v-.3h0l-.2,3.3a14.5,14.5,0,0,0,.2-3.6l-2.3,7.6a11,11,0,0,0,2.2-4.9,13.2,13.2,0,0,0,.2-2.7h0l-2.4,7.6h0l2-2.9v-1.2c.2-2.3.6-4.5.7-6.9v-.2a9.5,9.5,0,0,0-9-10.1A9.4,9.4,0,0,0,176.2,693.9Z" transform="translate(-77.4 -201.1)"/><path class="cls-2" d="M1392.3,800.6c-.1,12.5,1.8,24.6,3.6,36.8l5.4,36.4,5.4,36.5c1.9,12.2,3.4,24,5.8,37.1,4.7,25.4,13.3,49.5,20.4,72.4a146.3,146.3,0,0,1,4.3,16.2l.3,1.8.2,1.3c.2,1.2-.1,1.1,0,1.4s-.1.2.6-.7.9-.5-.3-.3a25.6,25.6,0,0,1-5.3-.2,80.7,80.7,0,0,1-14.8-3.8c-5.1-1.8-10.4-4-15.6-6.4l-7.9-3.7-3.8-2-.9-.4-.8-.4a15.7,15.7,0,0,0-8.1-1.8,16.5,16.5,0,0,0-13.2,7.3,17.2,17.2,0,0,0-2.8,11.5,5.9,5.9,0,0,0,.2,1.4v.6l.2.8.3,1.3.6,2.6,1.4,4.9c.9,3.3,1.9,6.4,3,9.5,2.1,6.2,4.5,12.4,6.9,18.2s4.7,11.2,6.7,16.6,3.7,10.4,4.2,14.3a12.3,12.3,0,0,1,.1,3.8c-.3.8.2-.2,0,.2a14.1,14.1,0,0,1-3,1.8,54.5,54.5,0,0,1-6.4,2,107.3,107.3,0,0,1-16.2,2.7l-8.9.8-2.8.3-3.1.5a35.2,35.2,0,0,0-6,1.4c-4,.9-7.3,2.4-10.9,3.7s-6.6,3-9.6,4.8a135.1,135.1,0,0,0-17.1,11,217.5,217.5,0,0,0-28.8,25.9c-8.8,9.2-16.4,19.4-20.2,33a6.5,6.5,0,0,0,4.5,7.9,5.8,5.8,0,0,0,3.7,0h0c13.4-4.2,23.2-11.4,32.3-19.1s18.4-15.1,27.6-21.7c4.6-3.3,9.2-6.6,13.7-9.2,2.3-1.5,4.6-2.5,6.8-3.8s4.5-2,6.5-2.5a22.6,22.6,0,0,1,3-.8l1.4-.2,1.8-.3,9.5-1a177.5,177.5,0,0,0,20.2-3.4,72.2,72.2,0,0,0,11.2-3.6,41.5,41.5,0,0,0,12.5-8,31.8,31.8,0,0,0,8.7-15.8,45.6,45.6,0,0,0,.4-14.6c-1.2-8.3-3.5-14.8-5.8-21.1s-4.8-12-7.2-17.6-4.4-10.9-6.4-16.4c-.9-2.7-1.8-5.4-2.6-8l-1.1-4-.5-1.9-.2-.9v-.4h0a5.2,5.2,0,0,0,.2,1.1,13.8,13.8,0,0,1-2.4,9.3,14.2,14.2,0,0,1-11.2,6.2,16.2,16.2,0,0,1-7.1-1.5c-.6-.4,0-.1-.1-.1h.1l.3.2,1.2.6,4.4,2.2,8.8,4.1a190.3,190.3,0,0,0,18.7,7.2,105.5,105.5,0,0,0,21.1,4.8,48.4,48.4,0,0,0,13.1-.2,29.7,29.7,0,0,0,16.3-7.6,34.4,34.4,0,0,0,3.5-4.1,31.8,31.8,0,0,0,2.4-4.4,40.4,40.4,0,0,0,1.6-4.5c.3-1.3.6-2.7.8-4.1a50.3,50.3,0,0,0-.1-7.9l-.4-3.2-.5-2.8c-1.6-7.2-3.6-13.4-5.5-19.4-8.1-23.8-16.2-46.2-21.4-69.1-2.4-11.1-4.5-23.7-6.7-35.8l-6.7-36.4-6.6-36.4c-2.1-12.1-4.3-24.3-8.4-36.1a9.5,9.5,0,0,0-18.5,3.1Z" transform="translate(-77.4 -201.1)"/><path class="cls-2" d="M176.2,693.9c-1.8-.3-2.2-.3-2.4-.2l-.6.3-1.3.6a15.6,15.6,0,0,0-1.9,1.3c-.5.5-1.1,1-1.2,1.6s.4,1.3-.8,1.6l3.2-6.3h-.1l-3.7,11.8v-.2a13.8,13.8,0,0,1,.2-4A14.9,14.9,0,0,1,171,693l-3.7,11.7a11.2,11.2,0,0,1,.7-4.8l-.4,5h.8v-.4a14.5,14.5,0,0,1,3.7-10.1l-2.9,5.9a2.3,2.3,0,0,0,.9.6l1.7.7,2.2.8,3.6.8a5.7,5.7,0,0,0,11.2,1.8l3.6.7,2.4.5,1.7.5a2.6,2.6,0,0,1,.9.4l-2.9,5.9a15.8,15.8,0,0,0,3.8-10.3c-.1-.6,0-.4,0-.4h.3l.6-.2-.4,5a11.8,11.8,0,0,0,.7-5.3l-3.7,11.8a16.3,16.3,0,0,0,3.6-7.6,19.7,19.7,0,0,0,.2-4.1c-.1-.4-.1-.1-.1-.2l-3.7,11.7h0l3.2-6.3c-.9-.8,0-1.2.1-1.7s-.2-1.2-.4-1.9a7.5,7.5,0,0,0-1-2l-.8-1.1-.4-.5c-.1-.2-.5-.5-2.2-1.1H194A130.5,130.5,0,0,0,176.2,693.9Z" transform="translate(-77.4 -201.1)"/><path class="cls-15" d="M105.5,1013.2c2.5,27.6,58.4,2.7,70.7-3.1.9-.5,1.9.6,1.6,1.7-1.2,4.8-4.4,15.4-12.3,32.4-9.8,21-17.8,37.2-13.8,48.4s24.4,15,47.9,12.6c14-1.4,26.2,3.8,35.8,10.6a11.1,11.1,0,0,0,8.7,1.6c231.8-58.7,302-237.2,411.9-230,56.3,3.7,90.5,50,115.7,79.7,52.7,62.2,213.9,260.2,483.9,238.9a11.4,11.4,0,0,0,6.8-3.2c27.6-28.4,64.6-63.7,92.1-66.2,23.5-2,43.5-5,48.3-16.7s-2.8-27.6-11.7-49c-7.2-17.3-9.9-28-10.9-32.9-.2-1.1.8-2.2,1.8-1.6,11.9,6.3,66.7,33.6,70.4,6.1,2.1-15.3-21.3-62.1-28.8-109.7-9.8-62.7-16.5-102.5-20.9-127.3a10.6,10.6,0,0,0-7.6-8.4C1011.1,694,406,662.9,192.2,695.3a10.5,10.5,0,0,0-8.7,7.8h-.1v.3h-.1c-1.9,7.6-18.4,72.5-44.3,200.9C129.5,952,104.1,997.8,105.5,1013.2Z" transform="translate(-77.4 -201.1)"/><g class="cls-16"><path class="cls-8" d="M288.9,726.9c120.5-6.4,426.8-2.6,1116.9,96.5-1.1-6.7-2.1-12.6-3.1-17.9a10.4,10.4,0,0,0-7.6-8.4C1011.1,694,406,662.9,192.2,695.3a10.5,10.5,0,0,0-8.7,7.7h-.1v.3h-.1c-1.9,7.6-18.4,72.5-44.3,200.9-9.5,47.2-34.9,93-33.5,108.4,1.1,11.7,36.9-42.9,50.4-82.2,19.7-57.4,35.1-103.9,45.9-137.3A96.7,96.7,0,0,1,288.9,726.9Z" transform="translate(-77.4 -201.1)"/></g><g class="cls-3"><path class="cls-10" d="M238.8,1117.4c-13.5-11.8-25.2-13.4-38.5-12.3,13.7-1.1,25.7,4,35.1,10.7A15,15,0,0,0,238.8,1117.4Z" transform="translate(-77.4 -201.1)"/><path class="cls-2" d="M247.6,1122l-7.3-6.4c-14.1-12.2-26.2-13.9-40.2-12.7h0l.4,4.5h0c11.3-1,22.7,2.5,33.6,10.2a13.5,13.5,0,0,0,4.2,2Z" transform="translate(-77.4 -201.1)"/></g><g class="cls-3"><path class="cls-10" d="M198.7,1105.3c-17.4,1.5-32.8.2-41.1-5.5C165.9,1105.6,181.4,1107,198.7,1105.3Z" transform="translate(-77.4 -201.1)"/><path class="cls-2" d="M197.1,1107.7l1.8-.2-.4-4.5c-18.7,1.6-32.4-.1-39.7-5l-2.5,3.7C166.3,1108.6,183.7,1108.9,197.1,1107.7Z" transform="translate(-77.4 -201.1)"/></g><g class="cls-3"><path class="cls-10" d="M150.8,1087.8c-.5-9.9,6.8-22.5,15.4-38.5l-2.6-1.2C156,1064.4,150,1077.7,150.8,1087.8Z" transform="translate(-77.4 -201.1)"/><path class="cls-2" d="M153.1,1087.7c-.4-8.5,5.5-19.6,13.1-33.6l3.2-6-2.4-1-2.3-1-2.1-1.1-1,2.1c-8.4,18-13.9,30.6-13.1,40.9Z" transform="translate(-77.4 -201.1)"/></g><g class="cls-3"><path class="cls-10" d="M151.1,1090.6a26.6,26.6,0,0,1-.3-2.8A12.7,12.7,0,0,0,151.1,1090.6Z" transform="translate(-77.4 -201.1)"/><path class="cls-2" d="M148.9,1091.1l4.4-1a1.3,1.3,0,0,0-.1-.6,8.6,8.6,0,0,1-.1-1.6h0v-.2l-4.6.2a11.5,11.5,0,0,0,.3,2.6A1.3,1.3,0,0,0,148.9,1091.1Z" transform="translate(-77.4 -201.1)"/></g><g class="cls-3"><path class="cls-10" d="M155.3,1039.4c1.3,3.7,4.3,6.6,8.3,8.7l1.9-3.9c7.9-17,11.1-27.6,12.3-32.4.3-1.1-.7-2.2-1.6-1.7-3.5,1.6-10.6,4.8-18.9,7.9C154.4,1026.5,153.3,1033.6,155.3,1039.4Z" transform="translate(-77.4 -201.1)"/><path class="cls-2" d="M164.6,1051.2l1.1-2.1,1.8-4c8.5-18,11.6-28.9,12.5-32.7a3.8,3.8,0,0,0-1.2-3.9,3.2,3.2,0,0,0-3.6-.5c-3.4,1.6-10.4,4.8-18.7,7.9l-1,.4-.3,1c-3.5,9.9-4.1,17-2,22.9h0c1.4,4.1,4.6,7.4,9.4,9.9Zm10.5-38.2c-1.3,4.8-4.5,14.8-11.7,30.2a13,13,0,0,1-.8,1.7,13,13,0,0,1-5.1-6.2c-1.7-4.6-1.1-10.6,1.6-18.9C165.8,1017.3,171.5,1014.7,175.1,1013Zm2-.9Zm-1.5-.8Z" transform="translate(-77.4 -201.1)"/></g><path class="cls-17" d="M1257,1221.3a25.4,25.4,0,0,0,16.4-7.8c14.3-14.7,57.8-59.3,82.4-61.5,22.2-2,52.5-4.7,61.3-26.3,6.7-16.4-1-34.9-10.8-58.3l-1-2.4-.6-1.6c17.8,6.4,35.6,9.3,48.1,2.9,8.3-4.3,13.5-12,14.9-21.7s-3.4-25.4-10.7-47.4c-6.5-19.3-14.5-43.3-18.1-66.8-8.5-53.6-15.5-96.6-21-127.6a26,26,0,0,0-18.8-20.5C1005.1,676.4,403.3,647.7,189.9,680a25.8,25.8,0,0,0-19.8,15.1l-2.6,2.9.3,4.5c-5.2,20.5-21,85.6-43.9,199.2-4.7,23.4-13.7,47-21,66.1-8.3,21.5-13.7,35.8-12.8,46.7h0c.9,9.8,5.9,17.7,14,22.3,12.2,7,30.2,4.8,48.1-.7a10.1,10.1,0,0,1-.7,1.5l-1.1,2.5c-10.7,22.8-19.2,40.9-13.2,57.6,4.6,12.9,19.4,27.4,64,22.7,8.2-.8,16.8,1.8,25.3,7.8a26,26,0,0,0,21.4,4c128.7-32.5,208.2-100.4,272.1-155,50.6-43.3,90.7-77.4,135-74.6s75,38.5,98.8,67.1l6.1,7.3,3.4,4c54.7,64.7,221.2,261.7,493.5,240.2Zm123.1-200.4a16.6,16.6,0,0,0-8.4,3.1,17.2,17.2,0,0,0-6.7,16.9c1.2,5.7,4.2,17.5,11.9,35.9l1,2.5c5.3,12.7,12.6,30.1,10.6,34.7-1.6,1.9-9.1,5-35.4,7.3-31.4,2.8-68.3,36.4-100.5,69.4C997.1,1210,844.4,1029.3,786.8,961.2l-3.4-4-6-7.2c-26.1-31.3-61.9-74.2-120.4-78-56.8-3.7-101,34.1-157,81.9-61.1,52.2-137,117-257.5,148-14.1-9.4-29.4-13.5-44.5-12-21.1,2.2-30.2-1.5-31.9-2.9-1.2-5.2,6.5-21.7,12.2-33.8l1.1-2.5c8.6-18.3,12.1-29.9,13.4-35.1a17.1,17.1,0,0,0-5.7-17.3,16.5,16.5,0,0,0-17.7-2.1c-24.2,11.5-42,15.2-48.5,14.3.8-5.8,6.3-20.1,10.8-31.7,7.6-20.1,17.2-45.1,22.4-71,22.6-111.8,38.1-176.1,43.3-197l.8-.8c208.8-30.3,808-.7,1189.9,101.2,5.4,30.6,12.2,72.3,20.3,124,4.1,26,12.6,51.3,19.3,71.7,4,11.9,8.8,26.5,9.4,32.3-6.5.6-24.2-3.8-47.9-16.4A15.4,15.4,0,0,0,1380.1,1020.9Zm-5.5,29,.4.2ZM182.8,1024h0Zm-62-12.2c0,.1.1.2.1.3l-15.4,1.1Zm42.1-4a.9.9,0,0,1-.1.5A.9.9,0,0,0,162.9,1007.8Z" transform="translate(-77.4 -201.1)"/><path class="cls-4" d="M1052.1,986a136,136,0,0,0,2.7-42.7c-1.3-14.3-4.4-29-11-42.8s-16.3-26.9-29.4-36.4S986,848.7,971,846.3s-31.2-2.4-46.6,2.1c-3.8,1.4-7.6,2.7-11.2,4.2s-7.2,3.6-10.6,5.6-6.5,4.6-9.5,7-5.8,5.2-8.5,8-5.1,5.8-7.4,8.8-4.3,6.2-6.2,9.5-3.6,6.5-5.2,9.9-2.9,6.8-4.1,10.2A119.1,119.1,0,0,0,855,954a5.2,5.2,0,0,0,5.4,5,5.3,5.3,0,0,0,4.8-3.8h0c6.8-25.2,19.1-48.5,37-63.6a69,69,0,0,1,29.8-15c10.7-2.5,22.2-2.2,33.6,0,23.3,3.9,41.8,16.4,54,36.8s18.7,46,22.2,71.8v.4a5.2,5.2,0,0,0,5.8,4.4A5.3,5.3,0,0,0,1052.1,986Z" transform="translate(-77.4 -201.1)"/><path class="cls-4" d="M493.8,917.9c3.3-13.4,3.8-26.8,2.9-40.6s-4.2-27.6-10.4-40.8-15.5-25.7-28-34.8-27.2-14.7-41.4-16.9-29.8-2.4-44.5,2c-3.7,1.3-7.3,2.5-10.8,4s-6.8,3.5-10,5.4-6.2,4.4-9.1,6.7-5.6,5-8.1,7.6-4.9,5.5-7.1,8.4-4,6-5.8,9.1-3.5,6.2-4.9,9.4-2.8,6.5-3.9,9.8a112.3,112.3,0,0,0-6.1,40.3,5.2,5.2,0,0,0,5.4,5,5.3,5.3,0,0,0,4.8-3.8h0c6.6-23.9,18.3-45.8,35.2-59.9a65,65,0,0,1,27.9-13.9c10.1-2.3,20.8-2,31.6,0,21.8,3.7,39,15.4,50.6,34.5S480,892.6,483.5,917v.4a5.2,5.2,0,0,0,10.2.5Z" transform="translate(-77.4 -201.1)"/></g></svg>