<svg id="Layer_1" data-name="Layer 1" xmlns="http://www.w3.org/2000/svg" viewBox="0 0 567.5 512.6"><defs><style>.cls-1{fill:#623d5a;}</style></defs><path class="cls-1" d="M2120.9,2594.8c20.7,1.8,40.9,6.2,60.9,11.1,27.8,6.9,54.9,3.9,82-3.9s52.5-22.9,76-39.7c20.7-14.8,41.2-29.8,64.4-40.5,7.9-3.7,16-6.7,25-6.2s13.9,3.3,18.7,9.2,5,11.4,1.8,17.7c-5.4,10.9-13.6,19.5-22.5,27.2-28,24.3-56.3,48.2-87.1,68.7-23.4,15.6-48.8,28.1-73.3,41.8-7.7,4.4-15.3,9-23.2,13.2-22.6,12.2-45.6,13.3-69.4,2.7-43.2-19.2-88.2-33.3-134-44.8-18.4-4.7-37.2-5.6-56-5.8-27.1-.3-54.2-.6-81.3-.5-6.2,0-9-2.6-11.3-7.9-6.7-15.6-7.3-32-7.3-48.5,0-19.6,1.6-38.9,7.3-57.7,2.4-8,7-12.3,15.7-13,13.9-1.2,27.9-1,41.9-1.3,26.3-.5,51.1-8.9,76.3-15.1,27.6-6.8,55-6.8,81.6,4.4,22.2,9.3,45,11.5,68.9,10.5,30.2-1.4,60.5-2.2,90.7.6a48.8,48.8,0,0,1,20.2,7c14.5,8.5,17.3,26.4,5.4,38.3s-27.9,18-44.2,22.2c-23.5,6.1-47.4,5.7-71.3,4.5C2157.9,2588.1,2139.2,2589.2,2120.9,2594.8Z" transform="translate(-1884.3 -2190.7)"/><path class="cls-1" d="M2287.6,2420.6c-.3,21.9-21.7,40.4-49.9,37.3a78,78,0,0,1-23.1-6c-20.5-9.2-42.1-10.4-64-6.3-16.3,3.1-32.8,4.6-49.2,2.6-20.4-2.5-33.2-15-37.8-34.9-3-12.9,2.1-23,10.4-32.3s19.1-14.6,29-21.5a106.9,106.9,0,0,0,27.7-29.2c14-21.1,34.9-25.3,57.4-22.4,14.1,1.8,23.7,13.3,32.9,23.5,5,5.4,9.1,11.6,13.8,17.3,8.1,9.8,16.7,18.6,28.5,24.6C2279.4,2381.6,2288.5,2395.4,2287.6,2420.6Z" transform="translate(-1884.3 -2190.7)"/><path class="cls-1" d="M2164.1,2252.2c-.9,14-3.1,27.3-10.6,39.5-9.7,15.9-29.2,12-37.2,2.5-17.9-20.9-20.1-62-4.3-84.5,6.5-9.3,15.2-14.2,26.5-12.7s15.7,9.4,19.5,18.1C2163.2,2226.9,2163,2239.8,2164.1,2252.2Z" transform="translate(-1884.3 -2190.7)"/><path class="cls-1" d="M2242.5,2240.2c-.7,16.1-2.5,32.1-12.2,45.8s-31.6,13.8-39.5-1.6c-13.8-27-14.7-54.9.9-81.8,11.2-19.3,35.1-12.5,43,2.1C2239.9,2214.6,2242.7,2226,2242.5,2240.2Z" transform="translate(-1884.3 -2190.7)"/><path class="cls-1" d="M2101.9,2314.7c-.9,8,.3,19.4-7.9,28.8-12.3,14-30.5,13-40.2-3-11.8-19.5-13.4-40.7-7.8-62.4,2.6-10.1,11.1-15.7,20.9-17.2s18,4,23.6,12C2098.5,2284.5,2102.6,2297.4,2101.9,2314.7Z" transform="translate(-1884.3 -2190.7)"/><path class="cls-1" d="M2304,2286a115.2,115.2,0,0,1-4.9,33,37.5,37.5,0,0,1-14,19.1c-8.4,6-18.5,5.8-27.1-.8s-15.4-16.7-15-29.2c.7-16,3.9-31.1,13.7-44.1s30.9-15.6,41.4-3.4C2302.7,2265.9,2304.1,2272.1,2304,2286Z" transform="translate(-1884.3 -2190.7)"/><path class="cls-1" d="M2406.8,2504.1c-32,10.7-58.2,30.6-87,48.3-.4-8.3-.1-16.2-1.6-23.9-.3-1.5,1.6-2.4,2.9-3.1,18.2-9.8,35.6-21.1,54.9-28.7C2387.8,2492.1,2398.2,2494.7,2406.8,2504.1Z" transform="translate(-1884.3 -2190.7)"/><path class="cls-1" d="M2290.8,2503.1c17.4-8.4,33.3-17.6,50.9-23,7.2-2.2,14,.4,22,3.9-10.3,5.5-19.4,10.5-28.7,15.2-6.7,3.5-13.9,6.2-20.4,9.9s-10.7,2.9-15.8-.9C2296.7,2506.5,2294.2,2505.3,2290.8,2503.1Z" transform="translate(-1884.3 -2190.7)"/><path class="cls-1" d="M2223.2,2566.9l-27.5-27.6-.9.8,27.7,27.6Z" transform="translate(-1884.3 -2190.7)"/></svg>