<?xml version="1.0" encoding="utf-8"?>
<!-- Generator: Adobe Illustrator 25.3.1, SVG Export Plug-In . SVG Version: 6.00 Build 0)  -->
<svg version="1.1" id="Layer_1" xmlns="http://www.w3.org/2000/svg" xmlns:xlink="http://www.w3.org/1999/xlink" x="0px" y="0px"
	 viewBox="0 0 595.28 595.28" style="enable-background:new 0 0 595.28 595.28;" xml:space="preserve">
<style type="text/css">
	.st0{display:none;fill:#623D5A;}
	.st1{display:none;}
	.st2{display:inline;fill:#623D5A;}
	.st3{fill:#623D5A;}
	.st4{display:inline;fill:#FDE7E9;}
	.st5{display:inline;fill:#41233B;}
	.st6{display:inline;fill:#C3ABB4;}
	.st7{display:inline;fill:#6C4867;}
	.st8{display:inline;fill:#FAB0B9;}
	.st9{display:inline;fill:#FCE5E8;}
	.st10{display:inline;fill:#502E49;}
	.st11{display:inline;fill:#BDA1AD;}
	.st12{display:inline;fill:#010101;}
	.st13{display:inline;fill:#DEC5CC;}
	.st14{display:inline;fill:#674361;}
	.st15{display:inline;fill:#AD90A2;}
	.st16{display:inline;fill:#9D8390;}
	.st17{display:inline;fill:#FEFEFE;}
</style>
<path class="st0" d="M-1282.94,586.42c-39.03,0-78.07-0.02-117.1,0c-32.32,0.02-57.58-13.07-73.16-41.63
	c-15.77-28.91-14.03-58.33,3.7-85.66c31.98-49.28,64.83-98,97.76-146.65c5.84-8.63,8.3-17.14,8.25-27.5
	c-0.34-68.7-0.46-137.4,0.12-206.1c0.1-11.66-2.81-15.17-14.61-14.61c-15.86,0.74-25.76-8.59-25.17-21.01
	c0.57-11.93,9.96-19.26,25.38-19.27c62.98-0.07,125.95-0.06,188.93-0.01c16.52,0.01,26.31,7.37,26.6,19.68
	c0.29,12.33-9.65,21.49-25.64,20.58c-12.52-0.71-14.23,4.1-14.16,15.04c0.46,69.74,0.35,139.48,0.09,209.22
	c-0.03,8.25,2.21,14.93,6.75,21.68c33.35,49.62,67.15,98.96,99.37,149.31c32.42,50.66,6.67,112.88-51.45,125.36
	c-12.99,2.79-26.92,1.43-40.42,1.5C-1219.44,586.54-1251.19,586.42-1282.94,586.42z M-1211,358.87
	c-6.06-9.19-9.94-16.58-15.22-22.78c-13.24-15.56-16.58-33.09-16.28-53.3c1.01-68.09,0.17-136.21,0.61-204.31
	c0.07-10.37-1.83-14.79-13.37-14.15c-18.14,1.01-36.41,0.95-54.56,0.02c-11.03-0.57-13.87,2.84-13.77,13.77
	c0.55,58.74-1,117.53,0.72,176.23c1.06,36.26-0.6,70.36-27.59,98.12c-5.8,5.97-3.09,9.08,3.5,12.38
	c19.44,9.75,38.98,9.95,58.39,1.08C-1264.63,354.99-1240.08,351.94-1211,358.87z M-1322.93,445.42
	c-1.03-12.11-7.34-18.92-19.74-19.17c-11.84-0.24-21.55,9.32-20.07,20.62c1.51,11.58,8.14,19.06,20.76,18.43
	C-1329.74,464.69-1323.47,457.74-1322.93,445.42z M-1379.67,486.44c-14.11-0.18-22.61,7.94-22.82,19.07
	c-0.23,11.91,8.8,21.91,20.1,20.87c11.66-1.08,19.27-7.44,19.08-20.13C-1363.49,493.85-1370.44,487.55-1379.67,486.44z"/>
<g class="st1">
	<path class="st2" d="M-1318.21,1139.84c20.72,1.79,40.91,6.16,60.95,11.12c27.76,6.87,54.89,3.85,81.95-3.88
		c28.13-8.04,52.52-22.97,76.05-39.77c20.64-14.74,41.16-29.75,64.34-40.49c7.9-3.66,16.04-6.68,25-6.16
		c7.55,0.44,13.9,3.32,18.78,9.22c4.56,5.51,4.97,11.36,1.79,17.7c-5.43,10.82-13.64,19.41-22.58,27.19
		c-27.93,24.3-56.27,48.18-87.1,68.71c-23.39,15.59-48.72,28.05-73.25,41.81c-7.74,4.34-15.35,8.93-23.17,13.14
		c-22.68,12.2-45.66,13.33-69.46,2.74c-43.2-19.21-88.15-33.36-133.95-44.88c-18.41-4.63-37.21-5.54-56.05-5.77
		c-27.09-0.33-54.19-0.6-81.29-0.47c-6.21,0.03-8.99-2.62-11.26-7.89c-6.72-15.59-7.34-31.98-7.35-48.56
		c-0.01-19.56,1.57-38.85,7.28-57.69c2.42-8.01,7.01-12.28,15.72-13.01c13.96-1.17,27.92-0.96,41.88-1.25
		c26.39-0.56,51.14-8.9,76.36-15.13c27.59-6.81,55.02-6.8,81.55,4.38c22.19,9.35,45.01,11.56,68.9,10.49
		c30.2-1.36,60.51-2.13,90.72,0.68c7.23,0.67,13.98,3.28,20.26,6.95c14.49,8.47,17.21,26.41,5.36,38.28
		c-12.2,12.22-27.91,18.06-44.22,22.28c-23.45,6.05-47.39,5.66-71.3,4.47C-1281.22,1133.12-1299.85,1134.27-1318.21,1139.84z"/>
	<path class="st2" d="M-1151.46,965.7c-0.31,21.82-21.72,40.34-49.91,37.21c-8.03-0.89-15.63-2.63-23.11-5.97
		c-20.54-9.17-42.07-10.35-63.99-6.25c-16.3,3.04-32.8,4.53-49.21,2.56c-20.43-2.45-33.2-15.01-37.81-34.89
		c-2.99-12.9,2.13-23.05,10.41-32.33c8.18-9.16,19.15-14.56,28.96-21.46c11.29-7.94,20.32-17.94,27.77-29.19
		c14.02-21.16,34.83-25.32,57.35-22.42c14.15,1.82,23.69,13.26,32.96,23.46c4.96,5.46,9.06,11.68,13.77,17.38
		c8.08,9.79,16.66,18.58,28.46,24.6C-1159.66,926.65-1150.56,940.45-1151.46,965.7z"/>
	<path class="st2" d="M-1274.98,797.23c-0.86,14.06-3.15,27.34-10.61,39.53c-9.72,15.88-29.17,11.95-37.24,2.5
		c-17.83-20.87-20.03-62.04-4.24-84.52c6.53-9.29,15.2-14.2,26.48-12.68c10.37,1.39,15.71,9.35,19.52,18.06
		C-1275.88,771.98-1276.07,784.84-1274.98,797.23z"/>
	<path class="st2" d="M-1196.62,785.26c-0.68,16.13-2.45,32.05-12.14,45.74c-10,14.14-31.59,13.89-39.53-1.59
		c-13.84-26.98-14.69-54.84,0.87-81.72c11.18-19.32,35.15-12.54,42.98,2.1C-1199.18,759.61-1196.43,771.07-1196.62,785.26z"/>
	<path class="st2" d="M-1337.15,859.73c-0.89,7.99,0.25,19.45-7.92,28.78c-12.31,14.04-30.53,12.99-40.22-2.99
		c-11.84-19.51-13.43-40.7-7.79-62.34c2.64-10.13,11.11-15.77,20.87-17.19c9.9-1.43,18.06,3.91,23.63,11.96
		C-1340.6,829.52-1336.45,842.47-1337.15,859.73z"/>
	<path class="st2" d="M-1135.09,831.01c-0.14,11.25-1.57,22.3-4.95,33.09c-2.5,8-7.33,14.22-14,19.04c-8.32,6-18.41,5.85-27.07-0.81
		c-9.49-7.3-15.43-16.65-14.94-29.21c0.61-15.92,3.86-31.04,13.71-44.01c10.68-14.06,30.84-15.63,41.38-3.42
		C-1136.39,810.96-1134.97,817.13-1135.09,831.01z"/>
	<path class="st2" d="M-1032.33,1049.18c-31.98,10.71-58.2,30.57-86.93,48.23c-0.45-8.27-0.08-16.17-1.59-23.88
		c-0.29-1.47,1.56-2.41,2.84-3.11c18.19-9.8,35.62-21.12,54.96-28.66C-1051.31,1037.2-1040.9,1039.78-1032.33,1049.18z"/>
	<path class="st2" d="M-1148.32,1048.17c17.44-8.41,33.34-17.59,50.92-22.99c7.23-2.22,14,0.33,22.02,3.86
		c-10.3,5.5-19.41,10.5-28.65,15.24c-6.76,3.46-13.93,6.14-20.49,9.92c-5.79,3.34-10.64,2.81-15.72-0.99
		C-1142.42,1051.57-1144.86,1050.3-1148.32,1048.17z"/>
	<path class="st2" d="M-1215.85,1111.93c-9.18-9.2-18.36-18.4-27.54-27.59c-0.28,0.28-0.57,0.55-0.85,0.83
		c9.21,9.2,18.42,18.39,27.62,27.59C-1216.37,1112.48-1216.11,1112.2-1215.85,1111.93z"/>
</g>
<g class="st1">
	<path class="st2" d="M-371.43,115.43c13.83-13.94,27.51-28.02,41.56-41.73c4.15-4.05,4.25-6.78-0.06-10.53
		c-4.39-3.82-8.36-8.13-12.42-12.32c-5.01-5.17-5.39-11.55-1.09-16.17c4.22-4.54,11.65-4.64,16.67,0.32
		c19.21,19.01,38.32,38.12,57.36,57.3c4.66,4.69,4.7,12.02,0.51,16.3c-4.38,4.47-11.08,4.36-16.2-0.52
		c-4.78-4.56-9.56-9.16-13.96-14.08c-2.87-3.2-4.61-3.3-7.75-0.09c-13.05,13.32-26.43,26.32-39.69,39.44
		c-3.56,0.55-4.94-2.52-7.01-4.33c-5.11-4.48-8.78-11-16.71-11.42C-371.15,117.55-371.83,116.61-371.43,115.43z"/>
	<path class="st2" d="M-708.88,455.62c-5.79-6.27-5.8-10.45,0-16.52c4.15-4.34,8.34-8.64,12.51-12.96
		c8.47,0.39,16.84,1.9,25.31,2.14c8.73,7.45,17.36,15.09,23.42,24.94c2.93,4.76-1.25,10.24-7,9.97c-1.31-0.06-2.74,0.38-3.93-0.61
		c-3.03-1.17-4.69,1.15-6.45,2.75c-3.59,3.24-6.9,6.78-10.46,10.06c-2.82,2.6-5.98,4.39-9.97,2.38c-3.41-3.12,0.3-4.26,1.76-5.76
		c7.08-7.31,6.52-16.62-1.48-22.48c-5.97-4.37-13.55-3.01-19,3.31C-705.38,454.25-705.86,457.15-708.88,455.62z"/>
	<path class="st2" d="M-719.39,494c-22.82,20.71-45.65,41.42-68.46,62.15c-3.73,3.39-7.4,6.86-11.1,10.29
		c-0.82,0.74-1.64,0.71-2.31-0.15c-0.52-0.66-0.27-1.34,0.27-1.92c24.15-26.51,48.29-53.02,72.44-79.53
		C-723.29,484.74-719.29,488.74-719.39,494z"/>
	<path class="st2" d="M-391.03,121.46c0.32,0.19,0.69,0.33,0.95,0.58c5.71,5.55,5.7,5.56,11.6,0.49
		c11.57-4.81,12.16-4.83,20.97,4.32c2.79,2.9,7.18,4.8,7.26,9.78c-2.28,2.56-4.48,5.2-6.87,7.65c-5.34,5.48-5.38,5.44,0.02,10.92
		c0.58,5.18-3.71,4.73-6.69,5.81c-3.66-0.75-5.74-3.27-7.26-6.44c-0.69-9.72-7.23-13.57-15.64-15.54
		c-4.59-3.12-8.91-6.48-11.14-11.83C-397.09,123.48-394.8,121.59-391.03,121.46z"/>
	<path class="st2" d="M-708.88,455.62c2.04-0.02,2.08-1.88,2.96-3.06c3.85-5.17,9.3-8.09,15.49-7.07
		c6.11,1.01,10.86,5.04,12.62,11.43c1.82,6.59-0.14,12.18-5.32,16.59c-1.36,1.16-3.85,1.57-2.31,4.25
		c-0.71-0.24-1.74-0.25-2.07-0.74c-4.26-6.26-8.58-5.26-13-0.23c-4.76-2.82-6.48-8.1-9.8-12.09
		C-708.94,461.82-703.84,459.52-708.88,455.62z"/>
	<path class="st2" d="M-658.56,462.58c2.99-0.18,6.14,0.76,8.6-2.18c2.36-2.81,2.74-5.32,0.35-8.25
		c-6.25-7.68-13.63-14.27-20.41-21.44c-1.83-1.94-4.09-2.59-6.33-1.95c-5.71,1.64-10.97,1.36-16.03-2.04
		c-1-0.67-2.64-0.41-3.98-0.58c-0.55-2.29-2.59-4.12-2.05-6.74c6.41,2.68,12.25,7.8,20.01,4.67l-0.03,0.01
		c5.06-0.79,8.95,1.05,12.44,4.76c5.32,5.67,10.98,11.02,16.5,16.51c8.35,8.3,8.51,10.54,1.43,19.59
		C-651.72,464.81-655.37,464.7-658.56,462.58z"/>
	<path class="st2" d="M-710.32,464.7c0.56-0.06,1.56-0.29,1.61-0.17c1.73,4.77,6.57,7.44,8.2,12.26c-4.64,4.27-9.28,8.54-13.92,12.8
		c-5.61-0.04-9.67-4.1-9.71-9.71C-719.53,474.83-714.93,469.77-710.32,464.7z"/>
	<path class="st2" d="M-350.25,136.64c-4.39-4.55-8.72-9.15-13.18-13.63c-2.17-2.18-4.63-3.07-7.8-1.66
		c-2.22,0.99-4.66,1.87-7.25,1.19c2.23-2.49,4.07-5.37,7.05-7.11c11.76,1.17,16.59,11.98,24.92,17.93
		C-347.45,134.8-348.27,136.38-350.25,136.64z"/>
	<path class="st2" d="M-364.16,160.02c2.71-1.08,5.87-1.51,7.06-4.81c3.14,3.09,6.67,5.82,9.02,9.64c-2.34,1.69-4.92,3.23-4.41,6.78
		C-358.52,169.91-362.33,165.96-364.16,160.02z"/>
	<path class="st2" d="M-724.14,479.89c1.88,4.59,5.11,7.83,9.71,9.71c-1.65,1.47-3.31,2.93-4.96,4.4c-1.6-4.51-4.7-7.51-9.16-9.16
		C-727.09,483.19-725.61,481.54-724.14,479.89z"/>
	<path class="st2" d="M-801,564.37c0,1.36,0.65,2.08,2.04,2.06c-4.25,4.99-9.37,9-14.71,12.85
		C-810.25,573.61-805.86,568.8-801,564.37z"/>
	<path class="st2" d="M-391.03,121.46c-2.27,1.63-4.92,2.89-5.88,5.84c-3.26,0.14-4.91-1.3-4.59-4.68c4.01,0.06,5.79-2.08,5.82-5.93
		C-394.12,118.28-392.58,119.87-391.03,121.46z"/>
	<path class="st2" d="M-678.4,424.07c-4.45-1.83-8.85-3.8-13.37-5.43c-2.36-0.85-3.24-1.4-1.5-3.94c2.04-2.98,4.14-5.7,7.67-6.79
		c3-0.92,5.39-2.48,5.75-5.74c0.18-1.64-1.33-2.82-2.8-3.41c-3.24-1.28-5.61,0.23-7.6,2.69c-0.57,0.71-1.18,1.38-2.35,2.75
		c-0.84-3.28-1.77-5.8-2.1-8.39c-0.77-5.99,0.6-6.95,6.41-4.88c5.57,1.99,8.24,0.01,8.52-5.75c0.25-5.1,4.6-7.21,8.28-9.42
		c2.08-1.26,3.78-1.52,3.02-4.94c-0.63-2.83,2.3-4.71,5.21-5.1c4.9-0.67,7.65-3.29,8.22-8.2c0.34-2.96,2.19-4.06,4.95-4.84
		c4.25-1.2,7.54-3.73,7.9-8.7c0.05-0.76,0.12-1.6,0.46-2.25c1.44-2.78,12.54-6.24,15.33-4.85c5.2,2.59,5.7,4.94,1.9,9.52
		c-0.79,0.95-1.46,1.9-1.31,3.1c0.51,4.33-2.13,6.31-5.55,7.86c-1.53,0.7-3.46,1.14-3.74,3.27c-0.34,2.61-0.36,5.47,2.43,6.58
		c2.8,1.11,5.25-0.75,5.78-3.32c1.23-5.9,5.83-7.76,10.4-9.94c4.94-2.35,9.59-1.4,12.48,3.06c2.77,4.27,0.84,7.93-2.45,10.78
		c-8.09,7-14.25,15.9-22.74,22.54c-2.83,2.21-5.82,5.07-4.92,10.51c3.53-4.01,6.12-3.18,9.24-0.06c2.59,2.58,6.26,0.86,5.84-2.8
		c-1.09-9.42,3.18-15.49,10.64-20.29c2.44-1.57,3.25-4.57,5.93-6.58c5.3-3.97,9.91-2.96,15.12-1.36c5.78,1.77,8.78-2.28,11.35-6.07
		c2.47-3.63,2.68-7.79-1.2-10.98c-2.2-1.81-2.52-4-1.46-6.23c1.43-3.01,3.85-0.94,5.58-0.37c7.91,2.63,8.03,2.7,7.9-5.75
		c-0.07-4.55,0.85-8.03,4.99-10.94c3.2-2.26,5.51-5.94,7.82-9.27c2.9-4.18,5.74-5.5,9.84-1.47c2.9,2.85,6.4,3.53,10.15,1.43
		c4.82-2.7,7.54-0.11,8.81,4.11c1.33,4.41,1.96,8.97,8.05,8.86c0.44,5.68,7.91,2.75,9.27,7.67c-4.3,2.25-8.56,4.41-7.66,10.67
		c0.43,2.99-2.63,3.16-4.89,3.84c-4.87,1.45-11,1.8-8.34,9.99c0.82,2.53-2.11,2.63-4.05,2.8c-2.82,0.25-5.09,1.87-7.46,3.17
		c-3.38,1.86-1.65,4.63-1.07,7.2c0.42,1.85-0.95,2.28-2.33,2.67c-2.23,0.63-4.43,1.43-6.69,1.92c-3.33,0.72-5.19,2.34-4.75,6.03
		c0.44,3.65-0.73,5.5-4.96,6.06c-6.74,0.89-8.38,3.38-8.12,10c0.12,3.09-2.16,3.47-4.21,3.71c-5.86,0.69-10.8,1.92-9.71,9.7
		c0.33,2.34-1.81,2.88-3.94,3.3c-7.82,1.55-8.87,2.81-8.96,10.42c-0.03,2.42-1.77,2.83-3.37,3.33c-1.65,0.51-3.39,0.72-5.11,1.01
		c-4.2,0.69-6.26,2.95-5.17,7.29c0.83,3.33-0.41,4.49-3.72,4.84c-4.94,0.53-8.48,3.09-12.05,6.95c-3.6,3.88-9.41,5.74-14.29,8.41
		c-1.39,0.76-2.36-0.19-2.6-1.4c-0.62-3.13-2.82-5.85-1.62-9.5c1.01-3.08-0.3-6.21-2.43-8.58c-1.09-1.22-1.93-2.21-2.04-3.92
		c-0.21-3.26-2.2-5.06-5.38-4.8c-3.6,0.29-5.45-1.44-7.57-4.11c-6.89-8.65-12.12-10.45-19.69-7.62
		C-678.44,424.07-678.4,424.07-678.4,424.07z"/>
	<path class="st2" d="M-401.49,122.62c1.53,1.56,3.06,3.12,4.59,4.68c3.51,3.51,7.02,7.03,10.52,10.54
		c6.32,4.53,11.8,9.92,16.43,16.17c1.93,2,3.86,4.01,5.79,6.01c3.89,3.87,7.78,7.74,11.67,11.61c5.84,5.9,11.68,11.82,17.54,17.7
		c2.17,2.17,4.32,4.76,1.8,7.5c-2.89,3.14-5.52,0.74-7.83-1.57c-5.88-5.87-11.79-11.71-17.69-17.56
		c-5.45-2.18-8.86-6.63-12.31-11.05c-9.05-7.5-16.85-16.29-25.29-24.42c-1.27-1.34-2.6-2.63-3.71-4.11
		c-1.53-3.64-6.61-4.34-7.24-8.72c-7.49-7.62-14.97-15.25-22.48-22.85c-2.29-2.31-4.83-4.86-1.65-7.86
		c2.83-2.68,5.31-0.38,7.48,1.77C-416.42,107.86-408.95,115.23-401.49,122.62z"/>
	<path class="st2" d="M-599.35,305.26c4.96-0.17,9.18,4.98,9.73,11.3c0.27,3.08-1.85,7.4,3.79,8.19c9.95,1.4,12.67,0.36,14.78-6.26
		c1.05-3.3,2.17-6.53,2.56-10.08c0.67-6.06,8.2-8.72,12.93-4.92c6.1,4.91,6.77,7.35,3.54,12.54c-0.61,0.98-1.07,2.52-2.38,2.13
		c-5.29-1.59-6.35,2.5-8.66,5.62c-2.86,3.86-6.47,7.21-9.98,10.55c-3.38,3.23-8.31,5.07-8.41,11.01c-0.02,1.01-2.29,2.75-4.2,2.49
		c-2.23-0.31-1.68-2.33-1.64-3.75c0.12-4.01-1.53-6.3-5.44-7.8c-6.05-2.33-7.69-6.35-6.39-13.01c0.76-3.93-0.35-7.12-3.43-9.87
		c-1.49-1.33-2.92-3.39-1.73-5.7C-603.28,305.72-600.93,306.05-599.35,305.26z"/>
	<path class="st2" d="M-586.19,291.8c0.49-6.5,11.45-14.72,17.44-13.54c0.54,0.11,1.05,0.45,1.54,0.75
		c3.69,2.3,6.79,16.02,4.58,19.72c-1.15,1.92-1.98,2.88-4.49,1.39c-4.13-2.46-7.75-6.5-13.78-4.05
		C-582.66,296.79-587.19,295.96-586.19,291.8z"/>
	<path class="st2" d="M-519.66,257.13c-0.22,4.06-4.47,6.39-7.32,3.9c-5.98-5.24-11.43-11.07-17.09-16.67
		c-1.77-1.75-0.23-2.96,0.96-3.74c1.75-1.15,2.9-5.25,5.31-3.08c6.2,5.57,11.78,11.82,17.55,17.85
		C-519.77,255.88-519.76,256.82-519.66,257.13z"/>
	<path class="st2" d="M-325.74,186.87c-7.03-7.74-14.21-15.37-22.34-22.02c-4.25,0.21-5.5,2.91-5.51,6.65
		c3.42,6.78,9.74,10.9,14.78,16.19c2.09,2.19,6.7,4.57,3.77,7.72c-2.69,2.9-5.25-1.43-7.43-3.33c-5.69-4.93-10.05-11.31-16.55-15.36
		c-4.38-0.15-6.58,2.23-7.31,6.32c0.2,2.1,1.51,3.61,2.95,4.9c2.79,2.5,2.7,4.64,0.02,7.29c-13.28,13.14-26.44,26.39-39.65,39.59
		c-1.72,1.72-3.53,2.94-6.18,2.48c-11.12-1.93-20.64,2.07-29.58,8.13c-7.25,4.91-14.05,10.44-21.48,15.1
		c-15.18,9.52-27.03,8.6-40.24-3.49c-8.6-7.87-15.71-17.24-24.73-24.69c-1.31-1.09-3.03-2.53-2.34-4.38
		c1.4-3.78,4.45-6.43,7.84-8.28c2.79-1.52,4.61,1.19,6.36,2.91c9.7,9.54,19.03,19.45,28.88,28.85c1.27,1.21,2.44,2.51,3.79,3.63
		c2.77,2.3,5.67,2.71,8.33,0c2.67-2.73,2.06-5.63-0.19-8.36c-1.11-1.35-2.39-2.56-3.62-3.8c-9.9-9.91-19.74-19.88-29.76-29.68
		c-3.05-2.98-3.25-5.29-0.04-8.21c3.59-3.27,7.03-6.73,10.32-10.31c2.85-3.12,5.21-3.3,8.19-0.09c3.97,4.27,8.02,8.5,12.43,12.32
		c3.85,3.34,8.41,2.33,9.94-1.97c1.11-3.11-0.01-5.71-2.17-7.98c-4.03-4.22-8.2-8.31-12.35-12.41c-2.11-2.08-2.16-3.83,0.01-5.91
		c3.51-3.36,6.88-6.88,10.34-10.29c4.47-4.4,4.75-4.41,9.31,0.13c10.49,10.43,20.9,20.92,31.39,31.35c2.81,2.79,5.82,4.93,9.64,1.76
		c3.13-2.59,2.77-6.8-0.76-10.78c-1.03-1.17-2.17-2.23-3.27-3.33c-9.77-9.77-19.49-19.58-29.34-29.27
		c-2.38-2.34-2.98-4.07-0.26-6.69c7.71-7.42,15.27-14.99,22.7-22.69c2.94-3.05,4.99-2.51,7.7,0.24c2.67,2.7,4.76,6.29,8.96,7.09
		c3.35-0.91,5.48-3.06,6.42-6.39c-0.24-2.81-2.42-4.34-4.15-6.11c-5.58-5.67-11.29-11.21-16.82-16.93c-1.68-1.73-4.6-3.92-2.4-6.3
		c2.56-2.77,4.39,0.72,6.01,2.28c5.73,5.52,11.27,11.23,16.93,16.82c1.91,1.89,3.69,4.07,6.71,4.22c3.97-0.77,6.61-2.44,4.83-7.12
		c-7.95-7.99-15.81-16.07-23.88-23.93c-5.79-5.63-13.31-5.36-18.54,0.32c-5.39,5.85-4.65,12.63,2.66,19.79
		c2.84,2.78,3.7,4.32,0.3,7.69c-51.23,50.96-102.29,102.09-153.39,153.19c-32.58,32.58-65.29,65.04-97.67,97.83
		c-13.19,13.35-17.01,29.61-12.22,47.82c2.61,4.07,12.85,8.11,17.83,7.02c0.97-0.21,1.81-0.67,2.33-1.58
		c-1.72-4.14-5.72-4.95-9.3-6.36c-4.71-1.85-5.01-3.36-1.3-6.71c0.87-0.79,1.87-1.38,2.89-1.95c6.82-3.86,8.5-6.39,6.52-9.75
		c-2.14-3.62-5.94-3.66-12.2-0.12c-2.87-7.34-2.35-8.02,5.27-7.32c3.71,0.34,7.6-0.02,7.84-4.74c0.29-5.5,3.58-8.33,7.71-10.79
		c1.49-0.89,3.55-1.49,3.62-3.47c0.17-4.68,4.21-5.08,6.82-7.39c6.71-5.94,13.57-12.3,18.5-19.51c3.1-4.53,6.36-6.8,10.68-8.51
		c3.36-1.33,8.44,2.2,7.02,4.43c-2.91,4.58-2.38,11.29-8.63,13.85c-3.37,1.38-4.28,4.33-3.49,7.77c0.52,2.25,1.87,4.06,4.22,4.29
		c3.37,0.34,5.68-1.77,6.67-4.66c1.74-5.06,5.97-6.87,10.19-8.91c3.9-1.88,6.85-0.25,9.26,2.6c2.31,2.73,1.4,5.77-0.74,7.95
		c-6.49,6.63-12.69,13.54-19.36,19.98c-3.21,3.1-7.03,5.64-8.88,9.89c-1.66,3.81-0.43,5.56,3.52,5.02c1.64-0.22,2.95-0.08,4.44,0.63
		c6.83,3.28,9.59,1.84,9.44-5.59c-0.12-6.08,2.24-10.46,6.76-14.08c1.51-1.21,3.06-2.4,4.27-3.96c4.67-6,10.2-9.19,18.16-6.5
		c5.72,1.94,9.77-1.35,12.91-5.66c3.05-4.19,3.29-8.62,0.02-12.95c-0.91-1.21-2.39-2.45-1.36-4.1c1.09-1.75,2.77-0.67,4.21-0.29
		c7.08,1.86,8.59,0.75,8.88-6.69c0.12-3.11-0.29-6.44,2.38-8.71c3.9-3.32,6.9-7.39,10.02-11.35c2.33-2.96,4.71-3.83,7.89-1.33
		c3.28,2.58,6.92,3.46,10.94,1.8c4.39-1.81,6.6,0.33,7.79,4.3c0.79,2.64,1.53,5.57,4.09,6.84c4.11,2.03,6.81,6.19,12.34,6.92
		c-3.08,2.7-6.77,3.94-6.79,7.8c-0.02,4.43-2.62,5.98-6.39,6.96c-3.61,0.95-7.54,2.28-7.49,6.91c0.04,3.78-1.87,4.9-4.94,5.98
		c-3.38,1.19-7.93,2.22-7.78,6.75c0.18,5.1-2.58,6.22-6.49,7.16c-3.05,0.74-6.42,1.86-6.53,5.68c-0.13,4.6-2.66,6.23-6.58,7.49
		c-3.4,1.09-7.67,2.37-7.36,7.08c0.3,4.45-1.82,5.69-5.57,6.43c-3.21,0.63-7.06,1.53-7.27,5.6c-0.25,4.82-2.78,6.58-6.94,7.87
		c-3.42,1.06-7.56,2.51-7.11,7.26c0.4,4.24-1.69,5.34-5.19,6.06c-3.19,0.65-7.48,1.4-7.44,5.34c0.06,5.67-2.97,7.24-7.49,8.31
		c-2.05,0.49-4.24,1.47-5.49,3.17c-2.78,3.78-6.67,5.88-10.72,7.78c-1.97,0.93-3.78,3.73-6.17,1.86c-2.06-1.61-2.16-4.44-2-7.03
		c0.05-0.78,0.19-1.55,0.17-2.33c-0.07-5.46-5.72-16.49-9.48-16.95c-5.02-0.61-7.93-3.64-10.97-6.95c-1.98-2.16-4.17-4.29-6.93-5.24
		c-3.85-1.32-8.02-3.25-11.36,1.22c7.95,1.43,12.87,7.19,18.09,12.55c3.24,3.32,6.56,6.57,9.84,9.85c7.05,7.06,7.09,7.35,2.66,16.43
		c-0.35,0.72-0.52,1.44-0.13,2.2c16.84,2.93,31.07-2.31,42.95-14.18c81.86-81.79,163.68-163.62,245.51-245.44
		c2.47-2.47,4.63-6.16,7.59-7.01c3.56-1.03,4.98,4.05,7.84,5.81c0.83,0.51,1.6,1.11,2.46,1.54c5.47,2.77,11.57,1.31,15.69-3.7
		C-322.55,197.72-322.01,190.98-325.74,186.87z M-581.48,362.81c-2.82,2.69-5.25,1.2-7.54-1.11
		c-11.67-11.72-23.39-23.39-35.06-35.11c-0.96-0.96-3.06-1.89-1.27-3.68c1.74-1.74,3.02-4.05,5.65-5.1
		c0.74,0.65,1.48,1.24,2.15,1.91c11.82,11.84,23.61,23.71,35.44,35.54C-579.7,357.67-578.75,360.2-581.48,362.81z M-576.4,315.64
		c-1.73,0.91-3.53,0.81-4.87-0.49c-5.69-5.51-11.27-11.14-16.88-16.73c-1.77-1.76-0.24-3.03,0.96-3.69
		c1.85-1.02,2.74-5.37,5.17-3.23c6.2,5.48,11.77,11.68,17.53,17.65c0.47,0.48,0.42,1.45,0.55,1.96
		C-573.95,313.27-574.68,314.74-576.4,315.64z M-528.48,309.71c-2.24,1.27-4.12,0.34-5.75-1.29c-4.81-4.79-9.61-9.6-14.41-14.41
		c-7.15-7.15-14.15-14.45-21.51-21.36c-2.94-2.76-1.43-4.09,0.65-5.9c1.91-1.65,3.04-4.67,6.37-1.22
		c11.36,11.74,23.01,23.19,34.54,34.77c1.36,1.36,2.97,2.59,3.11,4.77C-525.45,307.28-526.73,308.71-528.48,309.71z"/>
	<path class="st2" d="M-370.14,165.97c3.82,3.91,7.64,7.82,11.46,11.73c-4.11-0.13-5.89,2.44-6.87,5.93
		c-3.51-3.53-7.02-7.07-10.54-10.6c0.89-2.9,3.45-4.5,5.25-6.7C-370.61,166.21-370.37,166.09-370.14,165.97z"/>
	<path class="st2" d="M-407.22,129.39c2.94,2.58,6.31,4.74,8.33,8.25c-3.55-0.03-7.36-0.98-9.85,2.77c-1.57-1.59-3.13-3.18-4.7-4.77
		C-410.71,134.2-408.82,131.94-407.22,129.39z"/>
	<path class="st2" d="M-608.6,316.75c-0.89,1.71-1.06,4.32-3.52,3.97c-2.1-0.29-2.92-2.55-2.82-4.46c0.1-1.73,1.24-3.52,3.2-3.56
		C-609.18,312.65-609.31,315.13-608.6,316.75z"/>
	<path class="st2" d="M-369.96,154.01c-5.48-5.39-10.95-10.78-16.43-16.17C-374.17,141.08-370.6,144.59-369.96,154.01z"/>
	<path class="st2" d="M-395.52,141.07c8.46,8.3,16.92,16.6,25.39,24.9l-0.39,0.37c-3.28,0.3-6.33,1.27-9,3.26
		c-7.41-7.43-14.83-14.86-22.24-22.29C-399.94,144.99-398.61,142.15-395.52,141.07z"/>
	<path class="st2" d="M-395.52,141.07c-1.96,2.21-2.39,5.94-6.25,6.24c-2.32-2.3-4.64-4.61-6.96-6.91c2.57-6.56,3.37-6.78,9.85-2.77
		C-397.77,138.78-396.64,139.93-395.52,141.07z"/>
	<path class="st2" d="M-379.53,169.6c2.01-3.83,4.62-5.98,9-3.26c-0.23,3.58-3.19,4.88-5.55,6.69
		C-377.23,171.89-378.38,170.74-379.53,169.6z"/>
</g>
<g class="st1">
	<path class="st2" d="M-461.23,795.07c-1.21,11.5-0.26,23.04-0.52,34.56c-0.13,6.04,0.11,12.09-0.11,18.13
		c-0.34,9.21-7.73,16.38-16.54,16.32c-8.78-0.06-16.47-7.86-16.54-17.07c-0.14-17.03-0.12-34.06-0.17-51.09c0-0.38,0-0.75,0-1.12
		c-2.21-4.01-1.59-8.56-2.3-12.83c-4.69-28.09-27.72-51.75-55.63-56.82c-3.08-0.56-6.19-0.32-9.29-0.48
		c-2.32-0.12-4.88,0.22-6.19-2.51c-1.35-9.26-0.54-18.55-0.52-27.83c0-1.48,0.49-2.87,1.62-3.95c10.72-0.79,20.92,1.91,31.29,4.1
		c22.66,4.79,38.07,19.56,52.35,36.34c14.89,17.49,21.2,37.96,21.93,60.54C-461.82,792.59-461.45,793.83-461.23,795.07z"/>
	<path class="st2" d="M-567.42,690.37c0,10.9,0,21.8,0,32.71c-3.04,2.59-6.92,2.01-10.42,2.59c-29.73,4.91-53.48,28.71-58.19,58.35
		c-0.65,4.09,1,8.53-1.8,12.29c-0.06,15.22-0.07,30.45-0.21,45.67c-0.03,3.1-0.26,6.25-0.9,9.27c-1.73,8.21-9,12.88-18.3,12.01
		c-7.33-0.68-13.51-7.1-13.62-14.79c-0.2-15.22-0.08-30.45-0.11-45.68c-0.01-2.18,0.36-4.42-0.74-6.48
		c1.33-9.75,1.58-19.59,4.17-29.22c10.77-39.98,46.58-71.13,87.59-75.94C-575.78,690.66-571.65,689.93-567.42,690.37z"/>
	<path class="st2" d="M-495.35,794.34c-2.3-1.49-4.91-1.27-7.45-1.27c-40.41-0.03-80.81-0.04-121.22,0c-4.57,0-9.14,0.27-13.43,2.17
		c-2.36,2.15-1.92,5.03-1.94,7.72c-0.08,12.28-0.05,24.56-0.03,36.84c0.01,4.25-0.37,8.45-1.77,12.46
		c-1.93,5.57-5.9,8.66-11.82,9.12c-9.64,0.74-15.89-4.69-16.03-14.39c-0.21-14.3,0.01-28.59-0.11-42.89
		c-0.02-2.79,0.74-6.02-2.57-7.79c-22.88-0.02-45.77-0.1-68.65-0.04c-12.19,0.04-17.96,5.7-19.42,17.75
		c-3.37,28.02-7.01,56.01-10.52,84.01c-3.81,30.36-7.81,60.7-11.34,91.09c-3.24,27.94-7.64,55.72-9.72,83.83
		c-1.63,22.09-5.19,44.03-7.93,66.04c-3.8,30.55-7.46,61.12-11.5,91.65c-1.93,14.55,4.49,22.35,19.3,22.35
		c73.22,0,146.45,0,219.67-0.01c1.83,0,3.65-0.11,5.48-0.16c1.98-2.09,1.71-4.74,1.72-7.27c0.05-36.22,0.04-72.45,0.01-108.67
		c0-2.37,0.11-4.78-1.13-6.96c-0.9-1.06-1.97-1.47-3.11-1.64c-0.84,0.28-1.9,0.38-3.29,0.28c-4.73-0.33-9.51,0.05-14.26,0.12
		c-23.75,0.06-45.19-19.04-49-43.64c-5.41-34.95,22.75-72.25,57.81-76.55c1.08-0.13,2.19-0.1,3.28-0.14
		c2.23,0.11,3.81,0.2,4.96,0.44c1.52-0.16,2.95-0.56,3.92-2.25c1.18-3.19,0.8-6.52,0.8-9.8c0.02-63.4,0.01-126.8,0.02-190.2
		c0-8.73,0.12-8.83,8.9-8.84c17.36-0.02,34.72,0.02,52.09-0.03c2.88-0.01,5.89,0.43,8.48-1.45
		C-494.65,795.54-494.72,794.91-495.35,794.34z M-655.01,1031.67c-9.13-0.09-16.15-7.36-16.07-16.65c0.08-9,7.64-16.45,16.54-16.3
		c8.98,0.15,16.19,7.68,16.07,16.78C-638.58,1024.71-645.81,1031.77-655.01,1031.67z M-601.87,987.56
		c-8.94-0.03-16.25-7.41-16.28-16.45c-0.03-9.09,7.14-16.47,16.13-16.58c9.02-0.11,16.87,7.72,16.73,16.7
		C-585.43,980.05-593.09,987.59-601.87,987.56z"/>
	<path class="st2" d="M-320.64,1231.85c-0.7-4.7-1.3-9.42-1.89-14.14c-2.78-22.15-5.52-44.31-8.31-66.46
		c-2.7-21.43-5.45-42.84-8.15-64.27c-2.81-22.33-5.59-44.67-8.37-67.01c-2.71-21.79-5.42-43.59-8.12-65.38
		c-2.72-21.98-5.32-43.97-8.2-65.93c-2.22-16.99-3.88-34.05-7.22-50.9c-1.71-8.59-2.29-17.41-3.38-26.13
		c-1.31-10.49-7.84-16.57-18.32-16.6c-22.88-0.08-45.76,0.02-68.64,0.04c-3.06,1.98-2.34,5.17-2.37,7.99
		c-0.12,14.86,0.12,29.73-0.13,44.59c-0.13,7.65-5.68,13.53-13.18,14.56c-6.53,0.89-13.61-4.2-15.65-11.24
		c-0.77-2.68-0.78-5.44-0.79-8.19c-0.01-13.21,0.04-26.43-0.04-39.64c-0.01-2.5,0.48-5.21-1.73-7.22
		c-22.14-0.02-44.29,0.05-66.43-0.13c-3.91-0.03-4.92,1.27-4.91,5.04c0.12,68.81,0.11,137.61,0.13,206.42
		c36.15,1.78,62.44,23.89,68.57,59.7c5.88,34.29-18.42,61.52-51.05,62.53c-5.84,0.18-11.7,0.14-17.54,0.2
		c0,41.05,0.01,82.1,0.01,123.15c10.43,0.06,20.86,0.07,31.29,0.18c65.82,0.71,131.62-1.84,197.44-1.14
		C-326.45,1251.99-318.98,1242.95-320.64,1231.85z M-531.15,987.56c-9.08,0.04-16.73-7.75-16.55-16.85
		c0.17-8.91,7.77-16.28,16.67-16.17c8.91,0.1,16.31,7.64,16.28,16.56C-514.79,980.01-522.27,987.52-531.15,987.56z M-477.9,1031.69
		c-9.21,0.15-16.9-7.33-16.9-16.44c0-8.81,7.57-16.45,16.39-16.52c8.92-0.07,16.37,7.29,16.49,16.28
		C-461.82,1024.16-468.88,1031.54-477.9,1031.69z"/>
</g>
<g class="st1">
	<path class="st2" d="M577.89,1167.17c-2.69,4.27-3.52,9.42-6.64,13.51c-7.75,10.16-17.98,15.09-30.74,15.08
		c-40.99-0.04-81.97,0.08-122.96-0.04c-28.01-0.08-44.65-24.53-34.5-50.7c6.12-15.77,12.68-31.37,19.43-47.97
		c-14.24,4.1-27.62,8.04-41.06,11.75c-3.28,0.9-2.04,3.02-1.74,4.72c3.62,20.32,7.35,40.61,11.05,60.92
		c1.47,8.09,3.02,16.16,4.39,24.26c3.52,20.82-8.82,38.73-29.18,42.44c-19.36,3.53-37.53-9.69-41.3-30.23
		c-7.33-39.87-14.62-79.76-21.78-119.66c-3.48-19.41,7.02-36.09,26.63-41.96c21.14-6.32,42.37-12.37,63.67-18.12
		c4.79-1.29,5.27-3.1,4.24-7.49c-3.36-14.4-6.23-28.9-9.28-43.37c-0.26-1.22-0.29-2.53-1.71-3.6c-8.13,8.9-17.13,16.83-27.5,23.16
		c-18.56,11.33-38.85,17.3-60.24,20.19c-8.37,1.13-16.78,1.13-25.16,1.72c-6.19,0.44-12.07-0.74-17.21-4.32
		c-1.88-1.31-3.48-1.7-5.46-0.66c-0.32,0.17-0.68,0.3-1.03,0.36c-15.8,2.92-24.53,12.7-31.52,27.1
		c-17.5,36.08-36.78,71.31-55.45,106.82c-1.51,2.88-2.17,5.64-2.03,8.85c0.9,21.02,1.7,42.04,2.49,63.07
		c0.12,3.09,0.29,6.18-0.99,9.17c-2.77,6.5-9.46,10.49-16.27,9.54c-7.4-1.03-12.99-7.01-13.48-15.09
		c-0.63-10.41-0.87-20.84-1.3-31.26c-0.07-1.68-0.26-3.35-1.69-5.04c-1.25,7.95-2.45,15.9-3.77,23.84
		c-1.02,6.11-1.3,12.37-3.24,18.3c-2.56,7.86-9.51,12.02-17.43,10.59c-7.53-1.36-13.11-7.73-12.24-15.69
		c1.48-13.61,3.77-27.13,5.8-40.68c1.84-12.29,3.7-24.57,5.78-36.82c0.42-2.5-0.19-3.8-2.37-4.64c-0.17-0.07-0.34-0.15-0.5-0.23
		c-5.72-3.22-11.26-8.57-17.2-9.06c-5.91-0.48-12.23,3.89-18.34,6.21c-4.09,1.56-8.1,3.31-12.18,4.9
		c-8.1,3.15-14.56,1.12-17.12-5.32c-2.64-6.65,0.42-12.47,8.45-15.76c7.59-3.11,15.16-6.29,22.88-9.04
		c3.69-1.31,6.07-3.36,7.98-6.77c14.92-26.57,30.05-53.02,45.02-79.55c1.48-2.62,3.27-4.7,5.7-6.47
		c19.04-13.9,38.07-27.83,56.96-41.92c2.73-2.03,4.65-2.36,7.61-0.49c6.94,4.38,14.23,8.2,21.2,12.53c2.8,1.74,5.18,1.94,8.15,0.61
		c3.65-1.64,7.47-2.91,11.27-4.19c7.33-2.48,14.32-4.67,19.07-12.09c4.29-6.69,11.94-9.05,20.12-9.21
		c29.17-0.57,54.87-9.67,75.03-31.6c13.12-14.27,20.98-31.13,23.14-50.41c3.21-28.58,26.88-52.12,55.8-55.24
		c22.31-2.41,41.54,3.67,56.84,20.5c6.89,7.58,9.34,17.14,11.4,26.87c9.65,45.53,19.33,91.06,29.15,136.55
		c2.23,10.34,1.55,20.21-2.44,30.02c-9.82,24.14-19.46,48.36-29.16,72.55c-0.66,1.66-1.24,3.35-2.08,5.64c9.07,0,17.59,0,26.11,0
		c14.46,0,28.91-0.01,43.37,0c21.13,0.02,32.8,8.8,38.76,29.1c0.08,0.26,0.52,0.42,0.79,0.62
		C577.89,1158.39,577.89,1162.78,577.89,1167.17z"/>
	<path class="st2" d="M302.89,767.06c0.64-37.7,31.25-67.79,68.18-67.02c37.5,0.78,67.34,30.99,66.92,67.78
		c-0.42,37.52-31.08,67.91-67.96,67.37C332.46,834.64,302.26,804,302.89,767.06z"/>
	<path class="st2" d="M176.92,913.97c-0.81,13.92-6.95,25.27-17.31,34.19c-4.15,3.58-4.91,6.76-2.92,11.74
		c1.78,4.45,5.99,9.39,4.18,13.52c-1.65,3.76-7.18,5.82-11.01,8.61c-15.37,11.14-30.86,22.14-46.06,33.51
		c-3.68,2.75-4.97,1.86-7.18-1.57c-11.44-17.8-22.17-36.06-34.85-53.05C56.9,954.4,51.02,949,45.03,943.64
		c-2.75-2.46-5.19-5.2-6.2-8.85c-2.47-8.97,6.5-16.77,17.28-15.26c6.72,0.94,12.33,4.38,17.95,7.71c3.3,1.96,5.81,2.03,8.9-0.34
		c7-5.38,15.43-7.27,23.85-8.93c8.03-1.59,15.17-4.55,21.25-10.36c5.78-5.54,12.06-10.56,18.98-14.77
		c14.42-8.77,24.17,0.46,28.27,11.47C176.46,907.43,176.77,910.69,176.92,913.97z"/>
</g>
<g>
	<path class="st3" d="M588.82,287.87c-3.02-67.78-27.01-127.3-71.67-178.14c-43.27-49.26-97.38-80.46-161.9-92.86
		c-13.82-2.66-28.02-3.39-42.04-5.05c-1.89-0.22-3.74-0.75-5.6-1.13c-5.16,0-10.31,0-15.47,0c-1.87,0.38-3.72,1.04-5.6,1.12
		c-56.32,2.38-107.65,19.81-153.4,52.52C70.42,109.15,31.04,169.56,16.03,245.35c-2.73,13.8-3.39,28.02-5.06,42.03
		c-0.22,1.89-0.75,3.74-1.13,5.61c0,5.16,0,10.31,0,15.47c0.38,1.71,1.02,3.4,1.1,5.12c3.02,67.78,27.01,127.3,71.67,178.14
		c43.27,49.26,97.38,80.46,161.9,92.86c13.82,2.66,28.02,3.39,42.04,5.05c1.89,0.22,3.74,0.75,5.6,1.13c5.16,0,10.31,0,15.47,0
		c1.87-0.38,3.72-1.04,5.6-1.12c56.15-2.37,107.36-19.68,153-52.25c64.55-46.06,104.32-108.32,118.51-186.5
		c2.2-12.12,2.71-24.55,4.07-36.83c0.21-1.89,0.75-3.74,1.13-5.61c0-5.16,0-10.31,0-15.47C589.54,291.28,588.9,289.59,588.82,287.87
		z M85.7,315.37c-3.97,8.86-11.84,13.85-21.52,12.3c-6.25-1-12.53-2.86-18.33-5.39c-7.2-3.14-13.89-7.42-20.86-11.12
		c-5.72-3.03-8.85-7.39-7.61-14.23c-0.39-0.05-0.78-0.11-1.18-0.16c1.79-6.12,2.97-12.51,5.47-18.32
		c19.07-44.31,38.39-88.52,57.69-132.74c0.96-2.19,2.27-4.27,3.68-6.22c6.42-8.92,11.92-10.4,22-5.94
		c10.44,4.62,20.88,9.27,31.26,14.02c13.47,6.17,17.3,15.73,11.33,29.52c-8.38,19.33-17.13,38.5-25.75,57.73
		C109.83,261.67,97.73,288.51,85.7,315.37z M117.81,375.45c-10.41-2.26-16.56-10.12-17.57-21.46c1.71-2.86,2.87-6.33,5.23-8.49
		c14.12-12.93,28.46-25.63,42.91-38.19c1.89-1.65,4.79-2.82,7.29-2.97c8.44-0.49,20.54,8.28,23,16.39
		c1.82,6.01,0.71,11.52-4.02,15.87c-13.28,12.19-26.61,24.32-39.97,36.41C129.66,377.55,123.69,376.73,117.81,375.45z M165.1,406.76
		c-13.82-0.41-23.08-9.66-21.99-22.45c0.23-2.73,1.73-6,3.73-7.83c13.97-12.84,28.32-25.27,42.33-38.06
		c4.13-3.77,8.88-4.7,13.31-2.58c5.38,2.58,10.74,5.96,14.87,10.21c6.02,6.2,4.93,15.7-1.44,21.53
		c-12.57,11.52-25.31,22.85-37.7,34.56C174.34,405.8,170.15,407.1,165.1,406.76z M205.93,434.41
		c-10.32-2.14-16.67-10.18-17.65-21.34c1.69-2.89,2.8-6.42,5.15-8.58c14.12-12.94,28.42-25.67,42.93-38.16
		c2.18-1.88,5.77-3.03,8.68-2.98c11.21,0.19,23.1,11.84,22.15,21.86c-0.33,3.53-2.06,7.72-4.57,10.12
		c-13.03,12.45-26.5,24.43-39.84,36.54C217.76,436.43,211.81,435.63,205.93,434.41z M245.68,463.06
		c-7.82-2.74-12.06-8.76-12.84-17.08c-0.08-0.8-0.01-1.61-0.01-2.79c-0.55-3.69,1.17-6.6,4.2-9.27
		c14.14-12.42,28.02-25.14,42.3-37.39c2.39-2.05,6.47-3.54,9.5-3.15c9.24,1.18,16.57,6.13,20.76,14.63
		c3.02,6.11,1.32,12.81-3.83,17.55c-12.67,11.65-25.54,23.09-38.08,34.87C260.81,466.87,253.23,465.7,245.68,463.06z M464.49,368.89
		c-7.06,14.73-22.19,20.92-37.64,15.34c-1.33-0.48-2.66-0.93-4.79-1.68c1.03,13.21-5.04,22.11-14.72,28.76
		c-10.13,6.97-20.99,5.47-32.08,0.93c-0.87,11.74-7.39,19.6-15.64,26.04c-9.12,7.13-19.51,4.2-29.96,2.23
		c-1.07,14.38-6.49,25.77-21.38,29.3c-9.19,2.18-17.79-0.33-25.45-7.29c2.69-2.52,5.1-4.84,7.57-7.07
		c7.77-7.02,15.63-13.94,23.34-21.03c8.83-8.13,11.59-18.29,7.72-29.45c-3.85-11.07-10.05-20.84-22.54-23.81
		c-4.42-1.05-9.37-1.17-13.84-0.38c-3.94,0.7-4.64-0.66-5.37-3.79c-2.87-12.38-9.69-21.61-22.54-24.42
		c-5.99-1.31-12.44-0.96-18.65-0.67c-2.94,0.14-4.04-0.1-5.11-3.12c-1.85-5.24-3.9-10.71-7.19-15.1
		c-7.9-10.56-19.44-11.43-31.44-10.07c-0.62,0.07-1.24,0.18-2.46,0.35c0.94-11.86-5.48-19.79-13.84-26.64
		c-10.13-8.3-27.22-7.99-36.93,0.79c-10.75,9.73-21.37,19.61-32.05,29.41c-1.77,1.62-3.63,3.9-6.01,1.1
		c-2.36-2.79-8.22-3.29-5.5-9.49c20.37-46.4,40.54-92.88,60.91-139.28c0.64-1.45,2.89-3.29,4.24-3.18
		c19.85,1.67,38.51-3.44,57.31-8.83c11.81-3.39,24.05-5.72,36.26-7.16c8.51-1,17.29,0.35,25.25,6.18c-1.5,1.73-2.62,3.24-3.95,4.53
		c-14.48,13.98-29.07,27.86-43.48,41.92c-5.53,5.39-10.4,11.47-16.05,16.73c-8.47,7.89-8.35,17.82-6.82,27.78
		c1.75,11.4,7.65,20.9,16.87,27.84c5.75,4.33,11.99,8.2,18.47,11.32c9.23,4.43,18.85,2.91,28.22-0.2
		c17.12-5.69,31.5-15.96,45.2-27.32c2.11-1.75,4.06-3.69,6.2-5.39c6.25-4.98,13.28-5.1,19.31,0.11
		c25.97,22.43,51.85,44.95,77.74,67.47c10.21,8.88,20.29,17.92,30.57,26.71c2.28,1.95,4.99,3.81,7.81,4.59
		C466.07,364.05,465.93,365.88,464.49,368.89z M496.88,330.29c-9.5,5.43-18.8,11.21-28.03,17.09c-2.84,1.81-4.66,1.49-7.12-0.7
		c-34.52-30.74-69.14-61.37-103.72-92.03c-9-7.98-24.35-9.31-34.96-2.76c-14.38,8.88-28.67,17.91-42.97,26.92
		c-9.04,5.69-18.73,9.29-29.26,5.68c-10.25-3.51-18.62-10.21-24.55-19.35c-2.08-3.22-2.69-7.39-3.98-11.12
		c0.87-6.86,3.49-12.44,7.42-17.52c21.78-28.14,49.24-49.89,78.82-69.06c5.63-3.65,12.64-5.64,19.3-7.13
		c18.03-4.05,35.77-1.35,52.26,6.13c15.4,6.99,31.24,9.84,47.78,9.18c6.77-0.27,10.39,2.29,12.93,8.09
		c10.13,23.12,20.7,46.06,30.54,69.3c9.71,22.94,18.66,46.21,28.15,69.25C501.08,326.11,500.64,328.14,496.88,330.29z
		 M579.93,307.74c-4.28,4.8-9.48,9.45-15.23,12.11c-9.26,4.29-19.31,6.87-29.01,10.24c-5.05,1.75-9.6,0.36-12.64-3.45
		c-4.47-5.61-8.97-11.47-11.94-17.93c-12.15-26.43-23.77-53.11-35.49-79.74c-7.06-16.03-14.05-32.1-20.84-48.25
		c-2.09-4.98-3.41-10.29-4.48-13.58c0.24-8.6,2.76-13.41,9.16-16.03c10.85-4.45,21.59-9.18,32.36-13.82
		c14.92-6.42,25.08-2.48,31.46,12.41c12.27,28.66,24.46,57.36,36.69,86.04c7.44,17.45,14.61,35.01,22.43,52.28
		C585.78,295.49,584.88,302.17,579.93,307.74z"/>
</g>
<g class="st1">
	<path class="st2" d="M2878.54-229.39c0,37.79,0,75.59,0,113.38c-15.62-3.32-31.1-2.41-46.48,1.59
		c-47.61,12.39-86.77,58.32-93.18,110.32c-3.59,29.11-16.79,52.32-39.62,70.32c-14.67,11.56-31.17,19.49-48.87,25.32
		c-34.81,11.46-69.52,7.61-104.6,1.11c-67.1-12.44-128.07,2.38-183.04,42.91c-36.84,27.16-59.5,64.61-77.51,105.42
		c-10.92,24.75-26.31,46.15-47.25,62.97c-42.15,33.87-86.96,47.56-139.07,20.3c-28.4-14.86-60.03-17.4-91.56-9.81
		c-51.01,12.29-87.07,58.15-90.77,113.17c-1.59,23.6,2.41,46.33,7.38,69.09c-5.03-0.01-7.04-3.89-9.93-7.11
		c-6.06-6.74-10.11-15.56-19.12-19.39c-0.58-0.54-1.39-0.98-1.71-1.64c-24.75-51.47-42.47-105.12-51.69-161.64
		c-2.45-15.05-1.73-30.9-11.73-44.54c-43.4-59.19-80.55-122.16-112.8-188.12c-29.44-60.22-52.96-122.57-70.35-187.28
		c-10.48-39-17.13-78.77-21.28-118.84c-1.64-15.83-4.86-32.32,1.6-48.14c8.41-2.52,16.68-5.67,25.24-7.45
		c43.1-8.96,86.25-5.64,129.1,1.4c72.76,11.94,142.27,35.08,209.52,64.85c21.87,9.68,39.81,6.83,57.47-8.73
		c37.82-33.33,80.2-60.07,124.34-84.15c8.94-4.88,17.28-10.15,26.59-0.32c2.15,2.27,6.65,2.56,10.16,3.23
		c26.94,5.16,51.93-2.33,75.41-14.06c18.91-9.45,38.12-20.08,41.68-44.63c0.37-2.57,3.07-3.48,5.26-4.54
		c13.37-6.48,20.49-17.79,23.29-31.83c7.13-35.8,16.06-71.15,27.06-105.92c20.28-64.14,44.79-126.42,85.48-180.84
		c14.09-18.85,28.15-38.3,51.1-47.95c8.88-0.5,15.06,5.19,21.21,10.07c35.28,27.93,66.55,60.01,96.38,93.61
		c54.82,61.75,98.41,131.07,136.52,203.93c28.41,54.33,51.86,110.91,71.9,168.86C2850.6-247.35,2864.18-238.13,2878.54-229.39z
		 M2641.93-388c3.82,1.13,7.58,2.49,11.46,3.36c9.79,2.2,19.44,2.63,26.51-6.2c7.42-9.26,4.51-18.27-0.41-27.95
		c-17.09-33.65-34.81-66.94-54.68-99.02c-24.54-39.62-49.08-79.4-84.6-110.54c-30.19-26.47-50.11-21.93-66.71,14.54
		c-14.74,32.38-22.74,66.76-28.6,101.61c-4.39,26.12-8.48,52.39-6.49,79.05c1.21,16.29,8.36,22.71,24.67,23.11
		c6.82,0.17,13.63,0.43,20.45,0.66c19.42,1.74,38.85,3.27,58.24,5.27C2575.45-400.64,2608.61-393.8,2641.93-388z M1846.83,21.52
		c23.08-49.63,47.51-98.55,76.76-144.91c18.53-26.18,17.37-33.51-8.82-51.22c-29.72-20.1-61.82-35.65-95.17-48.61
		c-26.56-10.33-53.37-20.2-82.38-20.63c-16.77-0.25-24.9,6.61-28.82,23.02c-3.76,15.73-0.96,31.24,2.3,46.54
		c11.04,51.79,32.5,99.81,54.71,147.45c10.84,23.25,23.14,45.82,34.82,68.69c4.34,8.5,10.68,14.07,20.87,13.41
		c10.08-0.66,15.94-6.7,19.27-15.7C1842.58,33.55,1844.68,27.53,1846.83,21.52z M2687.71,3.02c0.16-41.15-27.75-88.5-64.93-110.82
		c-19.41-11.65-40.25-19.28-62.8-16.74c-45.91,5.17-70.91,41.47-66.4,84.87c5.74,55.26,35.73,94.77,88.08,114.84
		C2636.46,96.18,2687.48,60.88,2687.71,3.02z M2263.54,217.26c0.43-46.97-16.82-85.37-47.22-111.77
		c-39.8-34.56-94.52-25.39-118.69,19.9c-28.94,54.21-5.78,135.3,47.47,166.26c34.5,20.06,69.11,15.47,94.62-13.15
		C2256.81,259.31,2262.53,235.78,2263.54,217.26z M2189.89-15.58c-1.31-3.32-3.34-3.5-5.29-3.95c-20.03-4.63-39.93-4.85-60.59-2.87
		c-83.67,8.03-120.03,80.3-110.9,145.82c0.29,2.06,0.7,4.37,2.83,4.89c3.08,0.74,3.93-2.07,4.79-4.21c0.88-2.21,1.29-4.6,2.08-6.85
		c7.32-20.78,14.62-41.65,27.78-59.63c29.06-39.72,68.84-60.92,117.1-67.94C2174.86-11.37,2183.03-10.42,2189.89-15.58z
		 M2528.21-229.51c-11.02-0.62-21.62,1.62-31.88,5.01c-39.93,13.2-66.8,41.12-85.64,77.62c-2.77,5.37-10.06,13.15-5.26,16.65
		c4.85,3.54,9.76-5.9,13.88-10.19c23.77-24.66,50.83-44.03,84.33-52.81c36.8-9.65,72.91-5.83,108.37,7.12
		c3.06,1.12,7.26,4.68,9.83,0.74c2.89-4.42-1.8-7.4-4.7-9.76C2591.25-216.27,2561.74-228.17,2528.21-229.51z"/>
	<path class="st4" d="M1923.97,496.7c-4.96-22.76-8.97-45.49-7.38-69.09c3.71-55.02,39.76-100.88,90.77-113.17
		c31.52-7.59,63.16-5.05,91.56,9.81c52.11,27.26,96.92,13.57,139.07-20.3c20.93-16.82,36.32-38.22,47.25-62.97
		c18.01-40.81,40.67-78.26,77.51-105.42c54.97-40.53,115.94-55.34,183.04-42.91c35.08,6.5,69.79,10.36,104.6-1.11
		c17.7-5.83,34.2-13.76,48.87-25.32c22.83-18,36.04-41.21,39.62-70.32c6.41-52,45.57-97.93,93.18-110.32
		c15.38-4,30.85-4.91,46.48-1.59c0,11.26,0,22.52,0,33.77c-17.02-1.06-33.72,0.81-49.29,7.89c-39.53,17.97-58.97,52.83-54.47,97.21
		c2.51,24.68,13.88,44.26,33.07,60.3c20.89,17.45,44.71,21.99,70.68,20.36c0,60.31,0,120.62,0,180.93c-2.65-0.1-4.49,1.28-6.14,3.19
		c-28.24,32.61-61.37,59.96-95.44,85.95c-77.85,59.4-162.7,107.09-251.55,147.9c-84.44,38.79-171.2,69.85-263.93,82.08
		c-48.27,6.37-96.42,7.13-144.49-0.79c-53.45-8.81-102.22-29.11-146.29-60.82c-13.57-9.77-24.49-22.87-39.42-30.85
		C1928.84,506.31,1926.4,501.51,1923.97,496.7z M2569.94,168.66c-6.64,21.24-21.05,35.11-41.19,43.59
		c-15.63,6.58-32.18,0.21-38.62-14.95c4.63-8.4,10.11-16.44,13.72-25.25c10.72-26.19-2.83-47.32-31.09-45.81
		c-44.58,2.38-82.19,20.83-109.33,56.98c-17.89,23.83-8.13,47.03,21.09,52.47c10.18,1.9,20.67,2.16,31.01,3.17
		c0.03,2.81-0.12,5.64,0.12,8.43c1.45,16.35-5.47,26.71-20.17,34.64c-17.48,9.43-34.92,9.39-53.26,5.87
		c-6.21-7.02-13.29-10.69-22.07-4.67c-6.64,4.55-7.24,11.01-4.55,18.15c11.29,29.95,48.92,52.67,80.4,46.9
		c42.67-7.82,75.38-27.91,83.54-75.21c24.33,13.04,48.24,12.19,72.32,1.54c49.42-21.85,69.03-68.01,47.92-112.93
		c-3.74-7.97-8.12-15.49-18.65-13.36C2569.86,150.53,2568.47,158.98,2569.94,168.66z M1952.6,437.16
		c-2.44,54.03,44.2,94.37,91.69,93.47c52.59-1,93.9-38.43,93.42-95.1c-0.42-50-40.36-90.75-94.21-90.75
		C1989.93,344.79,1949.7,393.01,1952.6,437.16z"/>
	<path class="st2" d="M2878.54,1111.92c0,19.3,0,38.6,0,57.9c-3.17-1.29-3.03-7.02-7.82-5.92c-0.68,0.16-1.68,2.16-1.4,2.77
		c2.83,5.99,1.37,14.28,9.21,17.63c0,65.94,0,131.88,0,197.82c-22.26,10.41-38.39,28.08-53.23,46.73
		c-21.6,27.15-29.42,58.71-26.31,93.11c-8.09,6.47-17.17,11.11-26.95,14.44c-5.71,0.11-6.9-4.99-9.22-8.43
		c-15.43-22.89-30.96-45.72-45.89-68.93c-31.83-49.51-61.89-100.11-90.15-151.72c-21.33-38.96-42.07-78.3-61.4-118.29
		c-17.77-36.76-34.48-74.05-50.34-111.72c-21.9-52.01-42.34-104.51-58.49-158.63c0.01-6.69,1.05-13.28,1.71-19.88
		c0.6-6.03,5.08-14.27-4.1-18.62c0-2.01,0.13-4.02-0.01-6.02c-0.46-6.37-2.67-12.94-8.87-14.38c-5.7-1.32-9.86,3.82-13.06,8.83
		c-3.43,5.38-7.77,10.18-11.2,15.56c-28.05,44-59.11,85.27-99.84,118.79c-23.76,19.56-49.44,32.41-80.55,31.64
		c-32.7-0.81-63.82-9.54-94.12-21.24c-57.65-22.27-111.82-51.61-165.05-82.68c-25.15-14.68-51.11-28.1-74.56-45.58
		c35.91-29.13,62.86-64.72,78.81-108.43c9.7-26.57,13.95-54.23,17.54-82.06c10.32,4.31,20.72,8.45,30.96,12.95
		c47.66,20.94,95.32,41.87,142.85,63.08c10.57,4.72,17.52,2.76,24.22-7.14c9.82-14.5,19.05-29.53,31.06-42.47
		c23.66,1.28,47.4,0.33,70.72-2.82c53.1-7.17,105.2-19.16,155.94-36.75c10.13-3.51,19.92-8.64,31.07-8.64
		c-2.9,27.11-6.07,54.26-3.97,81.57c7.3,94.8,41.97,178.6,106.21,248.44C2669.1,1086.29,2761.46,1132.52,2878.54,1111.92z"/>
	<path class="st5" d="M2454.18,880.17c9.18,4.36,4.7,12.59,4.1,18.62c-0.66,6.6-1.7,13.19-1.71,19.88
		c-8.72,17.99-11.21,35.14-4.31,55.68c40.08,119.38,90.46,234.11,149.95,345c47.82,89.14,100.45,175.32,158.43,258.16
		c17.51,25.02,42.37,38.32,73.7,38.74c15.67,0.21,29.43-6.7,44.18-9.78c0,9.65,0,19.3,0,28.95c-20.39,6.49-40.9,10.8-62.6,7.3
		c-15.27-2.47-28.93-8.95-42.99-14.6c-36.42-25.44-55.45-64.83-79.37-100.12c-30.82-45.48-58.63-92.9-86.14-140.89
		c-41.34,26.5-83.07,26.68-123.42-0.02c-42.27-27.96-62.65-68.65-58.2-119.27c3.7-42.13,25.83-72.72,66.16-88.28
		c6.37-2.46,8.82-4.03,5.5-11.4c-25.21-55.96-47.35-113.14-66.74-171.38c-0.99-2.96-1.19-6.29-4.77-8.89
		c-15.96,24.69-33.98,47.7-56.18,67.06c-35.52,30.99-74.22,53.65-124.11,47.12c-15.92-2.08-31.73-4.51-47.26-8.57
		c-76.56-20.02-147.15-54.41-216.83-90.82c-107.45-56.16-209.82-120.95-312.58-185.06c-39.86-24.87-68.99-59.17-82.14-104.69
		c-17.94-62.09,6.12-128.31,59.42-168.9c60.91-46.38,127.56-45.38,190.34,2.86c2.85,2.19,5.64,4.47,9.07,7.19
		c6-12.93,11.43-25.59,21.98-35.41c4.63-4.31,15.11-2.74,14.17-11.26c-0.65-5.89-5.81-11.25-8.77-16.94
		c-32.38-62.17-52.31-128.31-62.13-197.55c-1.08-7.62-4.01-13.64-8.2-19.55c-58.91-83.13-108.59-171.37-145.95-266.29
		c-31.31-79.55-52.84-161.61-60.45-247.02c-5.85-65.66,28.55-105.41,94.51-110.43c61.84-4.71,121.41,6.78,180.31,23.7
		c44.35,12.74,87.51,28.82,129.49,47.94c6.53,2.98,10.28,2,15.46-2.56c80.41-70.77,172.66-118.97,276.93-143.6
		c10.46-2.47,10.18-9.64,11.59-16.62c13.86-69.01,33.43-136.24,63.24-200.16c17.91-38.4,39.69-74.33,69.91-104.57
		c32.24-32.27,81.31-36.29,117.26-8.27c64.88,50.57,118.1,112.06,164.95,179.3c64.18,92.11,112.29,192.36,150.09,297.8
		c1.65,4.6,1.75,10.69,8.45,11.85c0,12.06,0,24.12,0,36.19c-14.35-8.74-27.94-17.96-33.87-35.1
		c-20.05-57.95-43.49-114.53-71.9-168.86c-38.11-72.86-81.69-142.17-136.52-203.93c-29.83-33.6-61.1-65.68-96.38-93.61
		c-6.15-4.87-12.33-10.57-21.21-10.07c-17.52-8.96-42.49-3.79-59.32,12.47c-19.82,19.14-35.55,41.41-48.89,65.36
		c-42.48,76.26-65.67,159.05-81.62,244.19c-1.84,9.83-5.72,15.96-16.03,18.15c-108.47,22.98-203.56,72.3-285.36,146.97
		c-10.1,9.22-18.07,9.89-29.81,4.42c-63.08-29.37-128.39-52.43-196.82-65.73c-42.71-8.3-85.74-12.8-129.04-4.1
		c-22.3,4.48-37.09,17.9-44.81,39.22c-6.46,15.82-3.23,32.31-1.6,48.14c4.15,40.07,10.79,79.84,21.28,118.84
		c17.39,64.7,40.91,127.06,70.35,187.28c32.24,65.96,69.4,128.93,112.8,188.12c10.01,13.65,9.28,29.49,11.73,44.54
		c9.21,56.52,26.93,110.17,51.69,161.64c0.32,0.67,1.13,1.1,1.71,1.64c4.08,12.63,12.16,23.13,18.55,34.52
		c4.62,8.24,8.72,17.43,20.07,18.55c7.44,10.4,15.02,20.7,22.26,31.23c5.63,8.19,8.72,17.79,16.31,25.02
		c25.19,23.98,52.75,44.41,83.98,59.86c81.11,40.14,166.65,43.07,253.91,29.78c62.12-9.46,121.88-27.71,180.13-51.07
		c117.88-47.28,229.06-106.64,330-184.25c19.98-15.36,38.97-32.01,58.42-48.06c0,12.06,0,24.12,0,36.19
		c-13.73,11.29-27.59,22.42-41.13,33.93c-8.25,7.02-19.07,11.27-24.01,21.92c-5.59-1.55-9.03,2.53-12.82,5.2
		c-84.9,59.74-175.78,108.54-271.18,149.21c-11.61,4.95-24.34,7.84-34.22,16.5c-13.35-0.19-24.56,6.94-36.46,11.24
		c-64.95,23.45-131.56,39.32-200.51,43.74c-13.52,0.87-22.17,4.1-25.84,17.32c-12.01,12.94-21.24,27.97-31.06,42.47
		c-6.7,9.9-13.65,11.86-24.22,7.14c-47.54-21.21-95.2-42.14-142.85-63.08c-10.24-4.5-20.63-8.64-30.96-12.95
		c-6.2-5.28-13.94-7.72-21.28-10.44c-9.77-3.62-14.4-9.79-16.09-19.98c-2.87-17.32-7.8-34.23-13.66-50.78
		c-7.45-21.03-15.13-42.03-30.88-58.73c-2.11-4.52-5.88-7.54-9.73-10.37c-15.86-11.67-27.12-8.91-35.41,8.74
		c-3.93,8.38-6.41,17.3-7.49,26.45c-0.83,7.03-3.47,12.3-10.33,14.69c-6.7,2.33-11.35-1.58-16.03-5.56
		c-7.31-6.22-14.4-12.78-22.22-18.29c-19.69-13.89-40.17-26.24-65.27-27.33c-1.55-0.16-3.09-0.32-4.64-0.48
		c-1.56-2.02-3.35-1.95-5.28-0.58c-41.57-1.39-72.95,17.79-98.44,48.85c-28.59,30.89-35.02,67.95-26.75,107.42
		c8.94,42.64,38.77,70.15,74.08,92.13c46.65,29.04,93.54,57.72,140.72,85.88c15.69,9.37,30.17,21.21,48.24,26.26
		c2,3.72,5.44,5.67,8.96,7.7c65.62,37.76,131.57,74.87,200.53,106.31c44.48,20.28,89.86,38.08,137.83,48.35
		c29.37,6.29,57.76,5.59,84.55-10.86c36.59-22.48,65.18-52.55,87.53-88.9C2419.6,936.82,2436.87,908.48,2454.18,880.17z
		 M2586.4,1350.57c-25.03-49.49-51.33-98.34-74.24-148.89c-1.41-3.1-2.6-5.58-6.92-4.74c-21.7,4.22-51.42,25.16-56.47,52.42
		c-11.63,28.39-5.4,55.07,8.54,80.58c23.93,43.81,77.29,66.5,119.72,49.99C2600.7,1370.72,2600.1,1371.56,2586.4,1350.57z
		 M2208.79,703.8c-82.18-3.12-156.09-25.29-222.57-75.14c2.16,9.17,4.09,15.71,5.15,22.39c0.93,5.84,3.89,8.8,9.27,11.16
		c58.01,25.35,115.92,50.92,173.77,76.64c5.25,2.33,8.72,2.44,12.13-2.74C2193.34,725.77,2200.55,715.71,2208.79,703.8z"/>
	<path class="st4" d="M2878.54,1111.92c-117.07,20.61-209.44-25.63-286.2-109.09c-64.24-69.84-98.9-153.64-106.21-248.44
		c-2.1-27.31,1.07-54.45,3.97-81.57c1.05-1.45,2.1-2.91,3.15-4.36c24.17-6.23,46.61-17.01,69.2-27.17
		c92.77-41.76,181.91-89.97,263.82-150.78c2.65-1.97,5.44-3.37,8.82-3.34c11.39,5.59,22.78,11.18,34.17,16.77
		c1.71,4.14-1.35,6.79-3.13,9.77c-40.24,67.36-35.02,161.96,12.41,224.28C2878.54,862.63,2878.54,987.27,2878.54,1111.92z"/>
	<path class="st6" d="M2878.54,385.78c-19.45,16.05-38.44,32.7-58.42,48.06c-100.94,77.61-212.12,136.97-330,184.25
		c-58.24,23.36-118,41.61-180.13,51.07c-87.27,13.29-172.8,10.36-253.91-29.78c-31.22-15.45-58.79-35.88-83.98-59.86
		c-7.6-7.23-10.69-16.83-16.31-25.02c-7.24-10.54-14.82-20.83-22.26-31.23c-0.75-4.05-1.5-8.1-2.25-12.15
		c14.93,7.98,25.85,21.08,39.42,30.85c44.06,31.72,92.84,52.01,146.29,60.82c48.07,7.92,96.21,7.16,144.49,0.79
		c92.73-12.23,179.48-43.29,263.93-82.08c88.85-40.81,173.7-88.51,251.55-147.9c34.07-26,67.2-53.34,95.44-85.95
		c1.65-1.91,3.49-3.29,6.14-3.19C2878.54,318.23,2878.54,352,2878.54,385.78z"/>
	<path class="st7" d="M2878.54,1606.46c-14.75,3.09-28.51,9.99-44.18,9.78c-31.34-0.42-56.19-13.71-73.7-38.74
		c-57.98-82.84-110.61-169.02-158.43-258.16c-59.49-110.89-109.87-225.62-149.95-345c-6.9-20.54-4.41-37.69,4.31-55.68
		c16.15,54.11,36.59,106.61,58.49,158.62c15.86,37.67,32.57,74.97,50.34,111.72c19.33,39.98,40.07,79.32,61.4,118.29
		c28.26,51.61,58.32,102.21,90.15,151.72c14.93,23.22,30.46,46.04,45.89,68.93c2.32,3.44,3.5,8.54,9.22,8.43
		c3.3,16.4,36.17,40.82,56.99,41.48c17.22,0.54,33.14-4.19,49.49-7.58C2878.54,1582.34,2878.54,1594.4,2878.54,1606.46z"/>
	<path class="st8" d="M2878.54,103.52c-25.98,1.62-49.8-2.91-70.68-20.36c-19.19-16.03-30.57-35.62-33.07-60.3
		c-4.51-44.38,14.93-79.24,54.47-97.21c15.57-7.08,32.27-8.95,49.29-7.89C2878.54-20.31,2878.54,41.6,2878.54,103.52z"/>
	<path class="st9" d="M2878.54,1570.28c-16.35,3.39-32.27,8.12-49.49,7.58c-20.82-0.65-53.69-25.07-56.99-41.48
		c9.78-3.32,18.85-7.96,26.95-14.44c4.98-0.83,4.06-5.09,4.96-8.38c12.12-44.03,36.1-79.64,74.57-104.92
		C2878.54,1462.52,2878.54,1516.4,2878.54,1570.28z"/>
	<path class="st5" d="M2878.54,737.99c-47.43-62.32-52.65-156.92-12.41-224.28c1.78-2.98,4.84-5.64,3.13-9.77
		c3.09-0.79,6.19-1.57,9.28-2.36c0,16.89,0,33.77,0,50.66c-17.13,41.82-15.46,83.63,0,125.45
		C2878.54,697.78,2878.54,717.89,2878.54,737.99z"/>
	<path class="st5" d="M2878.54,1408.64c-38.47,25.29-62.46,60.89-74.57,104.92c-0.91,3.29,0.02,7.55-4.96,8.38
		c-3.11-34.4,4.71-65.97,26.31-93.11c14.83-18.64,30.97-36.31,53.23-46.73C2878.54,1390.95,2878.54,1399.8,2878.54,1408.64z"/>
	<path class="st10" d="M2813.4,477.82c4.94-10.65,15.76-14.91,24.01-21.92c13.54-11.51,27.4-22.64,41.13-33.93
		c0,9.65,0,19.3,0,28.95c-15.97,9.74-29.85,22.12-43.64,34.6C2827.1,484.7,2820.14,481.57,2813.4,477.82z"/>
	<path class="st2" d="M2834.9,485.52c13.79-12.49,27.67-24.87,43.64-34.61c0,16.89,0,33.77,0,50.66c-3.09,0.79-6.19,1.57-9.28,2.36
		c-11.39-5.59-22.78-11.18-34.17-16.77C2835.07,486.61,2835,486.06,2834.9,485.52z"/>
	<path class="st11" d="M2878.54,677.68c-15.46-41.82-17.13-83.63,0-125.45C2878.54,594.05,2878.54,635.86,2878.54,677.68z"/>
	<path class="st5" d="M2878.54,1184.29c-7.85-3.34-6.38-11.63-9.21-17.63c-0.29-0.61,0.72-2.61,1.4-2.77
		c4.79-1.1,4.65,4.63,7.82,5.92C2878.54,1174.64,2878.54,1179.46,2878.54,1184.29z"/>
	<path class="st11" d="M1626.95-280.01c7.72-21.33,22.51-34.74,44.81-39.22c43.3-8.7,86.33-4.2,129.04,4.1
		c68.43,13.3,133.74,36.37,196.82,65.73c11.74,5.46,19.7,4.8,29.81-4.42c81.79-74.67,176.89-123.99,285.36-146.97
		c10.31-2.18,14.18-8.32,16.03-18.15c15.95-85.14,39.14-167.93,81.62-244.19c13.34-23.95,29.07-46.23,48.89-65.36
		c16.83-16.25,41.8-21.43,59.32-12.47c-22.95,9.65-37.01,29.1-51.1,47.95c-40.69,54.42-65.2,116.71-85.48,180.84
		c-10.99,34.78-19.93,70.12-27.06,105.92c-2.8,14.04-9.91,25.34-23.29,31.83c-2.19,1.06-4.88,1.97-5.26,4.54
		c-3.56,24.55-22.76,35.18-41.68,44.63c-23.48,11.73-48.47,19.22-75.41,14.06c-3.52-0.67-8.02-0.97-10.16-3.23
		c-9.31-9.83-17.65-4.56-26.59,0.32c-44.14,24.08-86.52,50.82-124.34,84.15c-17.66,15.56-35.6,18.41-57.47,8.73
		c-67.26-29.77-136.76-52.91-209.52-64.85c-42.85-7.03-86.01-10.35-129.1-1.4C1643.63-285.68,1635.36-282.52,1626.95-280.01z"/>
	<path class="st12" d="M2687.71,3.02c-0.23,57.86-51.25,93.15-106.04,72.15c-52.35-20.07-82.34-59.58-88.08-114.84
		c-4.51-43.4,20.49-79.7,66.4-84.87c22.55-2.54,43.39,5.09,62.8,16.74C2659.96-85.47,2687.87-38.13,2687.71,3.02z M2516.84-56.2
		c-0.69,13.01,4.18,24.25,12.94,33.67c14.45,15.53,35.55,11.32,43.4-8.37c6.78-17,1.29-39.74-12.5-51.76
		c-14.12-12.31-31.51-8.98-39.98,7.68C2517.74-69.14,2516.51-62.91,2516.84-56.2z"/>
	<path class="st12" d="M2263.54,217.26c-1.01,18.51-6.73,42.05-23.83,61.24c-25.51,28.62-60.11,33.21-94.62,13.15
		c-53.25-30.96-76.4-112.04-47.47-166.26c24.17-45.29,78.89-54.46,118.69-19.9C2246.72,131.89,2263.97,170.29,2263.54,217.26z
		 M2184.05,176.07c15.24,0.24,25.26-10.09,25.1-25.9c-0.19-19.48-16.85-38.77-37.24-43.1c-16.53-3.51-29.8,6.6-30.55,23.28
		C2140.39,152.06,2162.48,175.72,2184.05,176.07z"/>
	<path class="st9" d="M1846.83,21.52c-2.15,6.01-4.25,12.03-6.46,18.02c-3.33,9.01-9.18,15.04-19.27,15.7
		c-10.19,0.67-16.53-4.91-20.87-13.41c-11.68-22.86-23.98-45.43-34.82-68.69c-22.21-47.64-43.67-95.66-54.71-147.45
		c-3.26-15.29-6.05-30.8-2.3-46.54c3.92-16.4,12.04-23.27,28.82-23.02c29.02,0.44,55.82,10.31,82.38,20.63
		c33.35,12.96,65.46,28.51,95.17,48.61c26.19,17.71,27.35,25.05,8.82,51.22c-38.52-30.94-82.36-50.12-130.74-59.25
		c-14.66-2.76-25.23,5.83-25.8,20.48c-0.55,14.13,1.19,27.98,5.29,41.43c13.97,45.77,34.43,88.76,56.63,130.99
		C1832.8,17.54,1837.76,22.71,1846.83,21.52z"/>
	<path class="st9" d="M2483.52-409.37c-6.82-0.22-13.63-0.49-20.45-0.66c-16.3-0.4-23.46-6.83-24.67-23.11
		c-1.98-26.66,2.1-52.93,6.49-79.05c5.86-34.86,13.86-69.23,28.6-101.61c16.6-36.47,36.52-41.01,66.71-14.54
		c35.52,31.14,60.05,70.92,84.6,110.54c19.87,32.08,37.59,65.37,54.68,99.02c4.92,9.68,7.83,18.68,0.41,27.95
		c-7.07,8.82-16.72,8.4-26.51,6.2c-3.88-0.87-7.64-2.23-11.46-3.36c8.14-11.54,4.49-22.03-1.34-33.52
		c-11.64-22.93-23.9-45.52-37.82-67.04c-16.48-25.45-31.87-52.07-57.08-70.59c-18-13.23-29.4-11.07-39.38,8.54
		c-11.55,22.7-17,47.24-21.34,72.24C2480.98-455.31,2478.01-432.51,2483.52-409.37z"/>
	<path class="st13" d="M2483.52-409.37c-5.51-23.13-2.54-45.93,1.46-68.99c4.34-25,9.79-49.54,21.34-72.24
		c9.98-19.62,21.37-21.78,39.38-8.54c25.2,18.53,40.6,45.14,57.08,70.59c13.93,21.51,26.19,44.11,37.82,67.04
		c5.83,11.49,9.48,21.98,1.34,33.52c-33.32-5.8-66.48-12.64-100.17-16.11C2522.37-406.1,2502.94-407.63,2483.52-409.37z"/>
	<path class="st13" d="M1846.83,21.52c-9.07,1.19-14.03-3.97-17.86-11.26c-22.2-42.23-42.66-85.22-56.63-130.99
		c-4.1-13.45-5.84-27.3-5.29-41.43c0.57-14.65,11.15-23.24,25.8-20.48c48.38,9.13,92.23,28.31,130.74,59.25
		C1894.34-77.03,1869.91-28.11,1846.83,21.52z"/>
	<path class="st5" d="M2189.89-15.58c-6.87,5.16-15.04,4.22-22.21,5.26c-48.26,7.03-88.03,28.23-117.1,67.94
		c-13.16,17.98-20.46,38.84-27.78,59.63c-0.79,2.25-1.2,4.64-2.08,6.85c-0.86,2.14-1.72,4.96-4.79,4.21
		c-2.13-0.51-2.54-2.83-2.83-4.89c-9.12-65.52,27.24-137.79,110.9-145.82c20.66-1.98,40.56-1.76,60.59,2.87
		C2186.56-19.08,2188.58-18.9,2189.89-15.58z"/>
	<path class="st5" d="M2528.21-229.51c33.53,1.34,63.05,13.24,88.94,34.37c2.9,2.36,7.59,5.34,4.7,9.76
		c-2.57,3.94-6.78,0.38-9.83-0.74c-35.46-12.95-71.57-16.77-108.37-7.12c-33.5,8.78-60.56,28.16-84.33,52.81
		c-4.13,4.28-9.03,13.73-13.88,10.19c-4.8-3.5,2.48-11.27,5.26-16.65c18.84-36.5,45.7-64.42,85.64-77.62
		C2506.58-227.88,2517.19-230.13,2528.21-229.51z"/>
	<path class="st10" d="M1931.28,511.11c0.75,4.05,1.5,8.1,2.25,12.15c-11.35-1.12-15.45-10.31-20.07-18.55
		c-6.39-11.39-14.47-21.88-18.55-34.52c9.02,3.83,13.06,12.65,19.12,19.39c2.9,3.22,4.9,7.1,9.93,7.11
		C1926.4,501.51,1928.84,506.31,1931.28,511.11z"/>
	<path class="st8" d="M1952.6,437.16c-2.9-44.16,37.33-92.38,90.9-92.38c53.85,0,93.78,40.75,94.21,90.75
		c0.48,56.67-40.83,94.1-93.42,95.1C1996.79,531.53,1950.15,491.19,1952.6,437.16z"/>
	<path class="st5" d="M2415.54,238.85c-10.35-1.01-20.83-1.27-31.01-3.17c-29.22-5.44-38.98-28.64-21.09-52.47
		c27.14-36.15,64.74-54.6,109.33-56.98c28.27-1.51,41.82,19.62,31.09,45.81c-3.61,8.81-9.09,16.86-13.72,25.25
		c-5.42,6.38-10.81,12.79-16.28,19.13c-2.43,2.82-4.32,5.19-2.09,9.49c10.78,20.75,36.63,31.7,59.63,24.85
		c42.13-12.54,58.83-48.09,38.54-82.1c-1.47-9.68-0.08-18.13,11.21-20.42c10.53-2.14,14.9,5.39,18.65,13.36
		c21.11,44.92,1.5,91.08-47.92,112.93c-24.08,10.65-47.99,11.5-72.32-1.54c-8.17,47.3-40.87,67.38-83.54,75.21
		c-31.48,5.77-69.12-16.95-80.4-46.9c-2.69-7.15-2.09-13.6,4.55-18.15c8.78-6.02,15.86-2.35,22.07,4.67
		c10.83,24.34,30.91,35.28,55.77,30.36c34.48-6.82,53.75-28.86,51.34-58.71c-1.85-22.9-3.93-24.59-26.76-21.69
		C2420.22,238.06,2417.88,238.49,2415.54,238.85z M2389.81,185.77c24.44-7.8,48.49-19.1,69.21-36.81c1.47-1.26,3.18-2.92,2.21-5.13
		c-1.02-2.34-3.47-1.78-5.2-1.32c-26.29,6.93-49.98,18.97-70.71,36.64c-1.44,1.22-3.29,2.98-2.31,5.12
		C2384,186.43,2386.44,185.44,2389.81,185.77z"/>
	<path class="st6" d="M2569.94,168.66c20.28,34.01,3.59,69.57-38.54,82.1c-23,6.84-48.85-4.1-59.63-24.85
		c-2.23-4.3-0.34-6.67,2.09-9.49c5.47-6.34,10.85-12.75,16.28-19.13c6.43,15.16,22.99,21.54,38.62,14.95
		C2548.89,203.76,2563.3,189.9,2569.94,168.66z"/>
	<path class="st6" d="M2415.54,238.85c2.35-0.37,4.69-0.8,7.04-1.1c22.83-2.9,24.91-1.21,26.76,21.69
		c2.41,29.86-16.86,51.89-51.34,58.71c-24.86,4.92-44.94-6.01-55.77-30.36c18.34,3.52,35.78,3.56,53.26-5.87
		c14.7-7.93,21.62-18.29,20.17-34.64C2415.41,244.5,2415.57,241.67,2415.54,238.85z"/>
	<path class="st4" d="M1750.25,542.53c1.55,0.16,3.09,0.32,4.64,0.48c0.46,2.14,1.64,3.56,3.87,4.02
		c27.48,5.63,48.64,21.58,67.71,41.17c8.37,8.61,16.87,17.24,26.26,24.67c12.83,10.14,19.88,7.19,22.31-9.2
		c1.3-8.78,2.91-17.42,5.85-25.67c8.42-23.6,16.38-27.99,40.47-23.31c15.75,16.7,23.43,37.7,30.88,58.73
		c5.86,16.55,10.8,33.46,13.66,50.78c1.69,10.19,6.32,16.36,16.09,19.98c7.34,2.72,15.08,5.17,21.28,10.44
		c-3.59,27.84-7.84,55.5-17.54,82.06c-15.95,43.71-42.9,79.3-78.81,108.43c-0.8-0.03-1.59,0-2.39,0.09
		c-1.58-1.19-3.08-2.51-4.74-3.56c-62.36-39.3-126.04-76.59-186.48-118.81c-47.16-32.94-71.91-78.66-69.38-137.37
		c0.5-11.57,1.72-23.11,2.6-34.66c25.49-31.06,56.87-50.24,98.44-48.85C1746.47,544.45,1748.11,545.76,1750.25,542.53z"/>
	<path class="st14" d="M1904.54,885.2c0.79-0.1,1.59-0.13,2.39-0.09c23.45,17.48,49.42,30.9,74.56,45.58
		c53.23,31.08,107.4,60.41,165.05,82.68c30.3,11.7,61.42,20.43,94.12,21.24c31.11,0.77,56.79-12.09,80.55-31.64
		c40.73-33.52,71.79-74.79,99.84-118.79c3.43-5.38,7.77-10.18,11.2-15.56c3.2-5.01,7.36-10.15,13.06-8.83
		c6.2,1.44,8.41,8.01,8.87,14.38c0.14,2,0.01,4.01,0.01,6.02c-17.32,28.31-34.58,56.64-51.96,84.91
		c-22.35,36.35-50.94,66.42-87.53,88.9c-26.79,16.46-55.18,17.15-84.55,10.86c-47.97-10.27-93.34-28.07-137.83-48.35
		c-68.96-31.44-134.91-68.55-200.53-106.31c-3.52-2.03-6.97-3.97-8.96-7.7C1889.11,895.53,1898.91,892.99,1904.54,885.2z"/>
	<path class="st10" d="M2493.25,668.45c-1.05,1.45-2.1,2.91-3.15,4.36c-11.15,0-20.94,5.13-31.07,8.64
		c-50.74,17.59-102.85,29.59-155.94,36.75c-23.32,3.15-47.06,4.1-70.72,2.82c3.67-13.22,12.32-16.46,25.84-17.32
		c68.95-4.41,135.56-20.29,200.51-43.74c11.9-4.3,23.12-11.43,36.46-11.24C2495.64,655.41,2491.04,661.6,2493.25,668.45z"/>
	<path class="st15" d="M1904.54,885.2c-5.63,7.79-15.43,10.33-21.72,17.29c-18.08-5.06-32.55-16.9-48.24-26.26
		c-47.18-28.16-94.07-56.84-140.72-85.88c-35.31-21.98-65.14-49.49-74.08-92.13c-8.27-39.47-1.84-76.53,26.75-107.42
		c-0.89,11.55-2.1,23.09-2.6,34.66c-2.53,58.72,22.22,104.43,69.38,137.37c60.44,42.22,124.13,79.51,186.48,118.81
		C1901.46,882.68,1902.96,884,1904.54,885.2z"/>
	<path class="st9" d="M2448.76,1249.36c5.05-27.25,34.78-48.2,56.47-52.42c4.32-0.84,5.52,1.64,6.92,4.74
		c22.91,50.55,49.2,99.4,74.24,148.89c-54.9,13.84-107.97-22.82-126.64-67.64C2455.18,1271.94,2453.62,1260.14,2448.76,1249.36z"/>
	<path class="st16" d="M2493.25,668.45c-2.21-6.86,2.38-13.05,1.93-19.73c9.87-8.65,22.61-11.55,34.22-16.5
		c95.4-40.67,186.27-89.48,271.18-149.21c3.79-2.67,7.23-6.75,12.82-5.2c6.74,3.76,13.71,6.89,21.5,7.7
		c0.1,0.55,0.17,1.09,0.19,1.65c-3.37-0.03-6.16,1.37-8.82,3.34c-81.92,60.81-171.05,109.02-263.82,150.78
		C2539.87,651.45,2517.43,662.23,2493.25,668.45z"/>
	<path class="st11" d="M2448.76,1249.36c4.86,10.79,6.42,22.58,10.99,33.57c18.67,44.82,71.74,81.48,126.64,67.64
		c13.7,21,14.3,20.15-9.38,29.37c-42.43,16.51-95.79-6.19-119.72-49.99C2443.36,1304.43,2437.13,1277.75,2448.76,1249.36z"/>
	<path class="st17" d="M2208.79,703.8c-8.24,11.91-15.45,21.97-22.25,32.31c-3.41,5.19-6.88,5.07-12.13,2.74
		c-57.85-25.72-115.76-51.29-173.77-76.64c-5.38-2.35-8.35-5.31-9.27-11.16c-1.06-6.68-2.99-13.22-5.15-22.39
		C2052.7,678.52,2126.61,700.68,2208.79,703.8z"/>
	<path class="st6" d="M1921.36,554.68c-24.1-4.68-32.06-0.28-40.47,23.31c-2.94,8.26-4.55,16.9-5.85,25.67
		c-2.43,16.39-9.48,19.35-22.31,9.2c-9.39-7.43-17.89-16.06-26.26-24.67c-19.07-19.59-40.22-35.54-67.71-41.17
		c-2.24-0.46-3.41-1.88-3.87-4.02c25.1,1.1,45.58,13.44,65.27,27.33c7.82,5.51,14.92,12.07,22.22,18.29
		c4.67,3.98,9.32,7.89,16.03,5.56c6.87-2.39,9.51-7.66,10.33-14.69c1.08-9.15,3.56-18.07,7.49-26.45
		c8.28-17.65,19.54-20.41,35.41-8.74C1915.49,547.14,1919.25,550.16,1921.36,554.68z"/>
	<path class="st6" d="M1750.25,542.53c-2.14,3.23-3.78,1.92-5.28-0.58C1746.9,540.58,1748.69,540.5,1750.25,542.53z"/>
	<path class="st17" d="M2516.84-56.2c-0.33-6.71,0.9-12.94,3.86-18.78c8.47-16.66,25.86-20,39.98-7.68
		c13.79,12.02,19.28,34.76,12.5,51.76c-7.85,19.68-28.94,23.9-43.4,8.37C2521.03-31.95,2516.16-43.19,2516.84-56.2z"/>
	<path class="st17" d="M2184.05,176.07c-21.57-0.35-43.67-24.01-42.69-45.72c0.75-16.68,14.02-26.79,30.55-23.28
		c20.39,4.33,37.05,23.62,37.24,43.1C2209.31,165.98,2199.29,176.31,2184.05,176.07z"/>
	<path class="st17" d="M2389.81,185.77c-3.37-0.33-5.81,0.66-6.8-1.51c-0.97-2.14,0.88-3.89,2.31-5.12
		c20.73-17.67,44.42-29.71,70.71-36.64c1.73-0.46,4.18-1.01,5.2,1.32c0.97,2.21-0.74,3.88-2.21,5.13
		C2438.31,166.66,2414.25,177.96,2389.81,185.77z"/>
</g>
</svg>
