<svg id="Layer_1" data-name="Layer 1" xmlns="http://www.w3.org/2000/svg" viewBox="0 0 402.3 562.7"><defs><style>.cls-1{fill:#623d5a;}</style></defs><path class="cls-1" d="M297.5,1000.2H180.4c-32.3,0-57.6-13.1-73.1-41.6s-14.1-58.4,3.7-85.7c31.9-49.3,64.8-98,97.7-146.6a46.2,46.2,0,0,0,8.3-27.5c-.4-68.7-.5-137.4.1-206.1.1-11.7-2.8-15.2-14.6-14.7-15.9.8-25.8-8.5-25.2-21s10-19.2,25.4-19.2H391.6c16.6.1,26.3,7.4,26.6,19.7s-9.6,21.5-25.6,20.6c-12.5-.7-14.2,4.1-14.2,15.1.5,69.7.4,139.4.1,209.2a36.8,36.8,0,0,0,6.8,21.7c33.3,49.6,67.1,98.9,99.3,149.3s6.7,112.9-51.4,125.3c-13,2.8-26.9,1.5-40.4,1.5C361,1000.3,329.3,1000.2,297.5,1000.2Zm72-227.6c-6.1-9.2-10-16.5-15.3-22.7-13.2-15.6-16.5-33.1-16.2-53.3,1-68.1.1-136.2.6-204.4,0-10.3-1.9-14.7-13.4-14.1a497.2,497.2,0,0,1-54.6,0c-11-.6-13.8,2.9-13.7,13.8.5,58.7-1,117.5.7,176.2,1,36.3-.6,70.4-27.6,98.1-5.8,6-3.1,9.1,3.5,12.4,19.4,9.8,39,10,58.4,1.1C315.8,768.8,340.4,765.7,369.5,772.6Zm-112,86.6c-1-12.1-7.3-18.9-19.7-19.2s-21.6,9.3-20.1,20.6,8.2,19.1,20.8,18.5S257,871.5,257.5,859.2Zm-56.7,41c-14.1-.2-22.6,7.9-22.8,19.1s8.8,21.9,20.1,20.8,19.2-7.4,19.1-20.1S210,901.3,200.8,900.2Z" transform="translate(-96.5 -437.7)"/></svg>