<svg id="Layer_1" data-name="Layer 1" xmlns="http://www.w3.org/2000/svg" viewBox="0 0 3400.61 5422.98"><defs><style>.cls-1{fill:#623d5a;}.cls-2{opacity:0.5;}.cls-12,.cls-3{fill:#3f2039;}.cls-4{fill:#fee8ea;}.cls-5{opacity:0.35;}.cls-6{fill:#6d4968;}.cls-7{opacity:0.6;}.cls-8{opacity:0.3;}.cls-9{fill:#fff;}.cls-10{opacity:0.55;}.cls-11{opacity:0.2;}.cls-12{opacity:0.25;}</style></defs><path class="cls-1" d="M3401.09,3391.66c-.25.27-.51.51-.74.76a96.51,96.51,0,0,1-23.12,17.69,66.06,66.06,0,0,1-8.48,3.78,58.28,58.28,0,0,1-7.45,2.16c-10.24,2.25-18.55,4.34-25.81,6.25-3.75,1-7.24,2-10.54,2.87-22.21,6.13-37.14,10.56-81,14.37h-.08l-285.15-327.27L2884.35,3027l-22.65-26-22.28-25.54-87-99.85-31.64-36.32-20.31-23.3-20.37-23.39-1.47-1.66-36.86-42.31s42.19-32.74,114.64-59.33l1.51-.56q9.15-3.3,18.91-6.45c1.56-.51,3.14-1,4.73-1.51l5.22-1.59,5-1.48.47-.14c1.54-.45,3.1-.89,4.67-1.33s3-.85,4.57-1.25c2-.54,3.95-1.06,5.94-1.57l5.36-1.36c9.23-2.27,18.77-4.38,28.62-6.25l5.09-.94c3.13-.57,6.3-1.11,9.48-1.64,2.45-.38,4.93-.77,7.43-1.14,1.42-.22,2.85-.42,4.28-.62l4.32-.58c2.66-.34,5.33-.68,8-1l.69-.08q3.53-.42,7.09-.77c2-.19,4-.39,6-.56,2.19-.2,4.39-.38,6.62-.55s4.33-.33,6.51-.47h.23q6.72-.43,13.57-.7h.35q6.59-.25,13.31-.34h.2c2.3-.05,4.61-.06,6.93-.05,1.82,0,3.64,0,5.46,0,2.24,0,4.49.07,6.73.13,1.7,0,3.41.07,5.11.14,1.38,0,2.75.09,4.12.15,1,0,2,.08,3.07.14q3.95.18,7.91.43c.69,0,1.39.08,2.1.14l5,.36c2.37.17,4.75.37,7.14.57,4.42.4,8.88.85,13.35,1.36.85.09,1.72.18,2.57.3,1.74.19,3.48.41,5.23.64.69.07,1.39.17,2.08.27,1.44.19,2.87.37,4.31.59,1.09.14,2.19.31,3.29.48s2.19.31,3.3.49,2.33.36,3.5.54c1.5.24,3,.48,4.51.74,3.1.51,6.22,1.07,9.35,1.66,68.05,12.7,142.14,39.54,220,87.94,4,2.5,78.89,64.41,140.63,164.43v472.53C3400.59,3390.8,3400.84,3391.23,3401.09,3391.66Z"/><g class="cls-2"><path class="cls-3" d="M2757.93,2688.7,2894.78,2782a1629.63,1629.63,0,0,0,145-116.52C2925.17,2644.14,2827.65,2663.47,2757.93,2688.7Z"/></g><path class="cls-3" d="M2897.52,2995.53l-21.72-24.91L2854.4,2946l-75.51-86.65-31.49-36.14-12.27-14.07-8-9.17-20.32-23.32q-12.5,7.54-25.25,15c-.49.29-1,.59-1.46.86l20.37,23.39,20.31,23.3,31.64,36.32,87,99.85L2861.7,3001l22.65,26,74.34,85.31c0-.78.06-1.53.09-2.3,0-1,.09-2.06.15-3.06.08-1.34.14-2.68.23-4s.16-2.67.27-4q0-.86.12-1.68a.06.06,0,0,1,0-.06,5.41,5.41,0,0,1,0-.59c.11-1.44.21-2.87.34-4.29.17-2,.34-3.88.54-5.79.15-1.59.32-3.18.51-4.75.09-.88.18-1.76.29-2.64.17-1.53.35-3,.55-4.56s.39-3,.61-4.5ZM2727.14,2800l-20.32-23.32q-12.5,7.54-25.25,15c1.89.51,3.77,1,5.64,1.59s3.76,1.08,5.65,1.65,4.06,1.22,6.09,1.85l4.34,1.36,4.91,1.58q1.58.51,3.15,1.05c1.68.54,3.36,1.11,5.06,1.69l2,.68.09.05h0c.69.25,1.4.48,2.11.74q7.26,2.52,14.48,5.25Zm0,0-20.32-23.32q-12.5,7.54-25.25,15c1.89.51,3.77,1,5.64,1.59s3.76,1.08,5.65,1.65,4.06,1.22,6.09,1.85l4.34,1.36,4.91,1.58q1.58.51,3.15,1.05c1.68.54,3.36,1.11,5.06,1.69.71.23,1.4.48,2.11.73h0c.69.25,1.4.48,2.11.74q7.26,2.52,14.48,5.25Zm673.21,590.36V3343.6c-.45,1-.85,1.93-1.27,2.84a.41.41,0,0,0,0,.08l-.09.21-16,6.86-3.39,1.45-19.64,8.42-7.68,3.29-36.71,15.73-58.86,25.22-29.24-33.56-265-304.1-64.92-74.51-21.72-24.91L2854.4,2946l-75.51-86.65-31.49-36.14-12.27-14.07-8-9.17-20.32-23.32L2688,2755.05a503.07,503.07,0,0,1,100.14-44.21c.53-.17,1.07-.34,1.59-.49,10.9-3.44,22.38-6.67,34.42-9.54q7.76-1.87,15.82-3.53a508.54,508.54,0,0,1,52.05-8,498.05,498.05,0,0,1,118.38,2.1c88.77,12.16,176.94,48.18,263.61,107.85,21.93,18.79,84.58,75.79,126.38,169.35V2859.66c-46.71-68.73-96.36-111.48-110.67-123.44-39.43-25.61-132.95-80.69-247.08-101.3q-14.7-2.65-29.41-4.52-21.15-2.73-42.28-3.83-23.47-1.25-46.92-.51a561.67,561.67,0,0,0-99.45,12,576.73,576.73,0,0,0-97.3,29.79l-1.45.59c-63.43,25.94-100.54,54.41-102.73,56.12a30.56,30.56,0,0,0-4.27,44.2l9.35,10.73v0l25,28.66,20.44,23.44,20.37,23.37,31.8,36.5,100.82,115.69,23.33,26.79,23.94,27.46,85.42,98,261.61,300.24,25.69,10.37,3.1-1.33,61.83-26.48,27.94-12h0l26.35-11.28,13.27-5.68,21.32-9.14v-11.7c.23-.25.49-.49.74-.76C3400.84,3391.23,3400.59,3390.8,3400.35,3390.37ZM2727.14,2800l-20.32-23.32q-12.5,7.54-25.25,15c1.89.51,3.77,1,5.64,1.59s3.76,1.08,5.65,1.65,4.06,1.22,6.09,1.85l4.34,1.36,4.91,1.58q1.58.51,3.15,1.05c1.68.54,3.36,1.11,5.06,1.69.71.23,1.4.48,2.11.73h0c.69.25,1.4.48,2.11.74q7.26,2.52,14.48,5.25Zm170.38,195.52-21.72-24.91L2854.4,2946l-75.51-86.65-31.49-36.14-12.27-14.07-8-9.17-20.32-23.32q-12.5,7.54-25.25,15c-.49.29-1,.59-1.46.86l20.37,23.39,20.31,23.3,31.64,36.32,87,99.85L2861.7,3001l22.65,26,74.34,85.31c0-.78.06-1.53.09-2.3,0-1,.09-2.06.15-3.06.08-1.34.14-2.68.23-4s.16-2.67.27-4q0-.86.12-1.68a.06.06,0,0,1,0-.06,5.41,5.41,0,0,1,0-.59c.11-1.44.21-2.87.34-4.29.17-2,.34-3.88.54-5.79.15-1.59.32-3.18.51-4.75.09-.88.18-1.76.29-2.64.17-1.53.35-3,.55-4.56s.39-3,.61-4.5Z"/><ellipse class="cls-4" cx="2018.6" cy="4575.68" rx="218.19" ry="244.15" transform="translate(-2126.71 1777.82) rotate(-32.18)"/><g class="cls-5"><path class="cls-3" d="M1913.35,4773.21c-110.37-72.41-152.71-219.54-94.59-328.63a207.94,207.94,0,0,1,20.37-31.1c-19.9,98.21,24.79,208.94,115.93,268.74,99,64.95,219.07,47.66,284.71-35.33a220,220,0,0,1-21.34,59.9C2160.31,4815.88,2023.72,4845.62,1913.35,4773.21Z"/></g><path class="cls-3" d="M2253.25,4519.31c-19.25-66.87-61.29-124.34-118.4-161.8a268,268,0,0,0-43-23,244.07,244.07,0,0,0-68.34-17.95,230.49,230.49,0,0,0-33.1-1.27l-.74,0a224.88,224.88,0,0,0-30.48,3.2q-4.6.81-9.2,1.8c-63.81,13.89-116.3,54.15-147.85,113.34s-38,129.63-18.23,198.35c19.25,66.88,61.3,124.34,118.4,161.8s122.75,50.67,184.85,37.15a217.13,217.13,0,0,0,73-30.42,214.13,214.13,0,0,0,24.2-18.42c.2-.16.38-.34.59-.52a222.26,222.26,0,0,0,22.79-23.41,234.23,234.23,0,0,0,27.29-40.55,248.22,248.22,0,0,0,11.62-25.14q4.47-11.27,7.83-22.92C2268.16,4622.09,2267.91,4570.23,2253.25,4519.31Zm-51.4,176.61a182.6,182.6,0,0,1-13.23,21.19,172.63,172.63,0,0,1-22.13,25.09c-.18.19-.37.36-.55.53a171.29,171.29,0,0,1-24.19,18.69c-61.12,39.07-145.24,38.49-217.4-8.86a248.89,248.89,0,0,1-102.54-139.31c-11.92-41.38-12.26-83.12-1.38-120.9a188.72,188.72,0,0,1,14.06-35.14v-.1c.27-.55.56-1.11.85-1.65,24.7-46.33,66.63-78,118.08-89.23a186.61,186.61,0,0,1,22-3.44,192.92,192.92,0,0,1,31.53-.51l.79.05a203,203,0,0,1,34.81,5.46,227.06,227.06,0,0,1,70.35,31q3.29,2.16,6.49,4.43h0a249.16,249.16,0,0,1,96,134.88c9.8,34.05,11.76,68.33,6.08,100.45a195.52,195.52,0,0,1-10.66,37.94A185.39,185.39,0,0,1,2201.85,4695.92Z"/><path class="cls-1" d="M3400.35,3390.37q-5.4-9.33-10.81-18.51-5-8.47-10-16.82c-3.34-5.57-6.66-11.12-10-16.6-37.35-61.59-74.32-117.5-109.8-167.65-40.75-57.67-79.49-107.79-114.49-150.41l-.36-.44c-44.53-54.16-83-96.13-111.89-125.93-7.91-8.18-15.12-15.44-21.53-21.78q-3.45-3.43-6.59-6.47c-.11-.11-.21-.23-.34-.34-6.42-6.28-11.83-11.42-16.14-15.43-2.61-2.46-4.82-4.48-6.58-6.08-3.41-3.12-5.2-4.68-5.2-4.68l-3.08-2.1-11-7.47-39.43-26.8-10.35-7-18.26-12.44-.86-.59-40.92-27.89-26.93-18.35-27-18.42-10.7-7.3-30.43-20.74-1.25-.85-30.63-20.85-50.3-34.25-19.66-13.41-336.81,196,0,0-80.06,46.57a.47.47,0,0,0-.09.06L1787.23,3126.1l-6.39,3.72-.8.46-19.82,11.37v0l-.25.14v1.79c0,.69,0,1.39,0,2.08,0,9.53.13,19.08.24,28.63,0,.71,0,1.44,0,2.15,0,.45,0,.91,0,1.36.1,2.76,0,5.46.13,8.24.07,6.37.23,12.7.41,19,0,.68,0,1.36.06,2,.17,6.14.38,12.27.56,18.4.26,8.47.57,17,1,25.54,0,.45,0,.91.06,1.36,1.46,33.29,3.62,66.54,6.27,99.82,1.36,18,3.06,35.9,4.83,53.69,9,91.07,22.35,181.67,39.14,271.22v0q7.56,40.31,16.06,80.3,4.6,21.81,9.49,43.51l.17.73c0,.06,0,.11,0,.17h0q5.24,23.32,10.75,46.49c29.68,124.84,65.32,246.68,104.5,363.72q17,50.91,35.07,100.66l.94,2.61q4.21,11.66,8.46,23.23,4.38,11.88,8.75,23.69,28.85,77.45,59.1,151.31,21.88,53.2,44.14,104.44,20.38,47.1,40.91,92.23,7.46,16.36,14.88,32.47,4.57,9.92,9.15,19.71t9.26,19.72c72.22,153.27,143.17,286.35,202.92,391.84,19.54,34.22,37.78,65.69,54.54,94A229.9,229.9,0,0,0,2730,5362L2864,5304.61l50.38-21.58,159.76-68.43,50.36-21.58,14.27-6.11s77.71-36.14,98.73-118.17q.3-1.09.57-2.22c.11-.42.22-.84.31-1.25.16-.64.31-1.27.45-1.92.23-1,.45-2,.65-2.93,5.63-27.86,4.7-60.69-7.49-98.81a199.5,199.5,0,0,0-37.6-68.29c-.37-.46-.77-.92-1.15-1.38-19.11-22.4-42.1-39.86-66-53.45-71.07-40.5-150-46.74-157.29-47.25a3.15,3.15,0,0,1-.71.06l-.42-1.33c-1.53-4.78-3.08-9.55-4.69-14.33-33.18-99.74-80-197.92-104.26-246.19-.8-1.59-1.57-3.13-2.32-4.6l-1.37-2.68c-5.19-10.23-9-17.47-10.88-21-.31-.54-.57-1-.79-1.34-.43-.74-.63-1.1-.63-1.1l1-.35q12-4.47,23.81-9.14c1.61-.63,3.21-1.26,4.82-1.91h0c78.43-31.38,147.48-67.95,183.43-88,0,0,0,0,0,0,2.12-1.17,4.11-2.3,6-3.35,13-7.31,20.24-11.7,20.24-11.7,2.45,7.09,5.06,14.39,7.78,21.86q1.08,3,2.22,6.07h0a4,4,0,0,1,.15.45c36.46,99,93.61,228,148.28,346,28,60.73,55.63,118.44,79.4,167.68a173.81,173.81,0,0,0,79.32,80.35V3392.42c.23-.25.49-.49.74-.76C3400.84,3391.23,3400.59,3390.8,3400.35,3390.37Z"/><path class="cls-4" d="M3386.3,4781.73s-.74.6-2.14,1.61a153.21,153.21,0,0,1-27.38,15.8c-16.12,7.18-37,12.88-57.61,8.34h0c-20.13-4.43-40.07-18.55-55.32-50.49l-1.94.23c28,60.66,55.64,118.35,79.39,167.61a174.06,174.06,0,0,0,79.06,80.26V4722.57A351.23,351.23,0,0,0,3386.3,4781.73Z"/><path class="cls-4" d="M2387.57,5172.55q29.28,51.51,54.59,94a229.66,229.66,0,0,0,288.11,94.07l408.81-175.14s143.84-66.91,93.18-225.3c-49.1-153.64-250.07-169.55-262.11-170.4h-.59s-391.68,93.82-401.48,342.46C2568.08,5132.27,2467.71,5192.83,2387.57,5172.55Z"/><ellipse class="cls-4" cx="2629.81" cy="3505.96" rx="608.13" ry="756.17" transform="translate(-1168.14 1318.91) rotate(-23.19)"/><path class="cls-6" d="M2387.57,5172.55q29.28,51.51,54.59,94a229.66,229.66,0,0,0,288.11,94.07l408.81-175.14s143.84-66.91,93.18-225.3a200.16,200.16,0,0,0-38.74-69.65l-.06.14s60.37,148.21-219.76,268.22-382.59,157.41-477.58,4.19c0,0-559.76-902.09-665.53-1814.46-10.78-92.83-16.4-162-50.33-219.84l-20.06,11.6C1760.62,3949.22,2156.79,4765.57,2387.57,5172.55Z"/><path class="cls-6" d="M3400.35,4856.11v149a174.06,174.06,0,0,1-79.06-80.26c-23.75-49.26-51.37-106.95-79.39-167.61-54.55-117.62-111.43-246.26-147.84-345a1.66,1.66,0,0,0-.12-.31c-.66-1.83-1.33-3.64-2-5.44q-4.44-12.14-8.41-23.59s-7.88,4.75-21.87,12.61c-1.62.91-3.32,1.87-5.11,2.86l-.12.06c-36.32,20.22-105.33,56.64-183.53,87.79l-.05,0-3.58,1.42q-12.4,4.88-25.1,9.58s.22.4.67,1.16c.2.37.46.82.77,1.36l-1.1.09-7.85.62-11.58-27-40.33-94.13a34.48,34.48,0,0,1,1-29.53c6.64-13,21.13-21.67,37.43-18.12,140.46,30.59,351.31-121.47,435.77-188.52,16.7-13.24,41.08-1.82,42.21,19.46,4.78,91.62-19.8,158.27-46,202.35-30.58,51.35-36.17,113.79-12.63,168.72l112.1,261.68c.73,1.28,1.47,2.56,2.2,3.82C3369.49,4821.15,3383,4840.85,3400.35,4856.11Z"/><g class="cls-7"><path class="cls-4" d="M3401.09,3391.66c-.25.27-.51.51-.74.76v167q-19.12-42.35-38.25-82.39-7.42-15.54-14.82-30.7-3.93-8.12-7.87-16.1h0q-2-4-3.91-7.92c-1.17-2.39-2.36-4.77-3.53-7.15q-8.25-16.55-16.43-32.67c-118.07-232.46-228.1-395.71-289-479.58-1.9-2.6-3.73-5.13-5.54-7.57,0,0,0,0,0-.06q-8.12-11.11-14.92-20.11c-7.7-10.25-14-18.43-18.77-24.48-2.1-2.67-3.89-4.94-5.36-6.77-3.22-4-4.9-6.07-4.9-6.07q6,5.91,12,11.85,7.9,7.86,15.65,15.73c.13.11.23.23.34.34,2.16,2.18,4.31,4.35,6.44,6.54q10.79,11,21.38,22.11,59.07,61.86,112.19,125.53l.36.44A2704.86,2704.86,0,0,1,3371,3334.09q6,9.75,11.93,19.5,4.22,6.94,8.38,13.9,4.56,7.58,9,15.17v7.71C3400.59,3390.8,3400.84,3391.23,3401.09,3391.66Z"/></g><path class="cls-3" d="M3393.86,4691.5c2-6.26,4.13-12.5,6.49-18.66v74.78q-2.59,6.68-4.9,13.49c-2.31,6.78-4.49,13.79-6.23,20.67l-.06.2a3,3,0,0,1-2.53,2.22,2.89,2.89,0,0,1-2.47-.86,2.78,2.78,0,0,1-.85-1.73c-1.85-15.27-1.1-30.36.78-45.46A267.62,267.62,0,0,1,3393.86,4691.5Z"/><path class="cls-3" d="M3119.28,4807.46l-1.9-1.11-1.53-.86-2.91-1.57c-1.91-1-3.8-1.93-5.69-2.83q-5.65-2.66-11.3-4.94a235.88,235.88,0,0,0-22.84-7.95,299.41,299.41,0,0,0-46.69-9.89,363.52,363.52,0,0,0-94.31.08,445.69,445.69,0,0,0-90.74,21.61c-14.64,5-28.95,10.87-43,17.17s-27.76,13.18-41.16,20.55c-53.9,29.05-104.38,69.28-140.27,120.46a302.57,302.57,0,0,0-41.14,83.19,266.87,266.87,0,0,0-9.94,45c-1.91,15.22-2.69,30.42-.82,45.81a3,3,0,0,0,5.85.37l.05-.2c1.75-6.94,4-14,6.29-20.83s4.86-13.61,7.56-20.26A399.91,399.91,0,0,1,2650,4983.51a385.59,385.59,0,0,1,59.88-57.23c11-8.36,22.39-16.33,34.25-23.58s24-14,36.67-20.45c50.26-25.67,103.55-44.66,158.1-52.14a357.69,357.69,0,0,1,81.75-2.14,304,304,0,0,1,39.94,6.52c6.51,1.56,13,3.36,19.21,5.37,3.13,1,6.21,2.09,9.19,3.24l4.35,1.74,2,.86.92.41.4.18.15.07s.12.05,0,0a22.43,22.43,0,0,0,22.43-38.86Z"/><path class="cls-3" d="M2872.29,4485.2l-84.13-133.32a5.81,5.81,0,0,0-10.55,4.51l38.48,152.89a31,31,0,0,0,60-15.11A31.7,31.7,0,0,0,2872.29,4485.2Z"/><path class="cls-3" d="M3102.35,4407l3.91-3.18c1.23-1,2.51-2,3.69-3.08l7.19-6.22c4.67-4.24,9.4-8.4,13.91-12.77,9.16-8.6,18-17.5,26.67-26.56,4.34-4.51,8.56-9.17,12.78-13.8s8.38-9.33,12.44-14.13,8.24-9.43,12.12-14.39l11.75-14.73c7.59-10,15.24-20,22.26-30.45,7.32-10.18,13.87-21,20.53-31.66,12.73-21.75,24.12-44.38,32.52-68a6.34,6.34,0,0,0-11.14-5.8l-.11.15a578,578,0,0,1-45.41,55.7c-8.35,8.62-16.44,17.3-25.1,25.57-4.27,4.17-8.45,8.39-12.92,12.38l-13.09,12.19q-26.7,23.9-54.37,46.49c-9.17,7.6-18.46,15-27.73,22.43l-13.91,11-13.57,10.66-.6.47a30.57,30.57,0,1,0,37.76,48.09Z"/><path class="cls-3" d="M3123.81,5198.73l.17-1,.1-.71.16-1.34.23-2.48c.13-1.59.24-3.16.31-4.68.16-3.07.23-6.05.23-9,0-5.93-.18-11.76-.66-17.54a237.93,237.93,0,0,0-14.77-66.52,223.66,223.66,0,0,0-14.35-30.26,202.48,202.48,0,0,0-18.55-27.24,210.65,210.65,0,0,0-22.09-23.6,240.52,240.52,0,0,0-51.62-35.6,233.23,233.23,0,0,1,40,45.56,191,191,0,0,1,14.24,25.8,174.35,174.35,0,0,1,9.88,27.09,189,189,0,0,1,5.45,27.77,191.62,191.62,0,0,1,1.14,27.87,186.39,186.39,0,0,1-2.82,27.27c-.76,4.45-1.76,8.83-2.85,13.07-.55,2.12-1.15,4.21-1.78,6.19-.31,1-.64,2-1,2.89-.16.49-.33.86-.49,1.29a4.13,4.13,0,0,1-.23.53l-.11.24c-.05.1,0-.07,0-.09a30.57,30.57,0,1,0,59.39,14.53Z"/><path class="cls-3" d="M2913.68,5288.75l.18-1,.09-.71.16-1.34.23-2.47c.14-1.6.24-3.17.31-4.69.16-3.06.23-6.05.23-9,0-5.93-.18-11.76-.65-17.53a236.83,236.83,0,0,0-5.05-34,233.32,233.32,0,0,0-9.73-32.51,222.46,222.46,0,0,0-14.35-30.26,201.56,201.56,0,0,0-18.55-27.24,210.65,210.65,0,0,0-22.09-23.6,240.28,240.28,0,0,0-51.62-35.6,232.57,232.57,0,0,1,40,45.56,191.68,191.68,0,0,1,14.25,25.8,175.45,175.45,0,0,1,9.87,27.1,190.07,190.07,0,0,1,5.46,27.77,192.85,192.85,0,0,1,1.14,27.86,187.78,187.78,0,0,1-2.83,27.27c-.76,4.46-1.76,8.83-2.85,13.07-.55,2.12-1.14,4.21-1.78,6.2-.31,1-.63,2-1,2.88-.16.49-.33.86-.49,1.29a5.14,5.14,0,0,1-.23.54l-.11.23c0,.1,0-.07,0-.09a30.57,30.57,0,1,0,59.39,14.53Z"/><g class="cls-2"><path class="cls-3" d="M1854.57,3234.47c155.29-31.75,330.21-87.16,527.34-171.62l.72-.31c141.25-60.51,263.83-123,369.81-187q76.82-46.28,142.34-93.57l-136.85-93.29-82.18-55.95-19.66-13.42L1780.3,3128.89l-20.08,11.53c0,12,.15,24,.29,36,40.06-7,82.51-16.19,126.68-28.16C1887.19,3148.25,1866.78,3174.08,1854.57,3234.47Z"/></g><path class="cls-3" d="M3400.35,4969.9v68.71a204.73,204.73,0,0,1-93.68-77.65l-3-4.74-2.84-4.88c-1.93-3.22-3.65-6.54-5.34-9.89-1.85-3.55-3-6.17-4.49-9.12l-4.18-8.66L3270.14,4889l-33-69.58q-32.73-69.69-64.45-140T3111,4537.82c-15.2-36.43-30-73.07-43.86-110.39q-13.62,7.5-27.34,14.76-29.83,15.81-60.33,30.39c-10.13,4.94-20.41,9.61-30.63,14.37-10.32,4.57-20.55,9.31-31,13.66-10.22,4.46-20.56,8.72-30.94,12.84l2.8,5.56c6,12.05,11.9,24.15,17.72,36.28q17.37,36.45,33.45,73.52c10.79,24.68,20.93,49.7,30.67,74.93,7.36,19,14.23,38.29,20.79,57.74,3.41.48,6.81,1,10.17,1.53,10,1.59,19.94,3.52,29.8,5.79a445.25,445.25,0,0,1,58.35,17.47,357.63,357.63,0,0,1,55.9,26.59,287.73,287.73,0,0,1,50.89,37.79,239.25,239.25,0,0,1,41,50.18,229.66,229.66,0,0,1,15,29c2.37,4.93,4,10.13,5.88,15.21.86,2.56,2,5.12,2.62,7.67l2.21,7.65a241,241,0,0,1,9.44,64.13,195.59,195.59,0,0,1-10.85,65.91,192.57,192.57,0,0,1-13.75,30.61,199.88,199.88,0,0,1-18.38,27.62,237.3,237.3,0,0,1-46.8,45c-4.38,3.15-8.8,6.24-13.41,9.14s-9.25,5.68-14.5,8.41c-1.34.68-2.51,1.34-4.84,2.38l-3.26,1.39-6.53,2.81-13.06,5.58L3076,5245.77l-208.89,89.49L2762.62,5380l-13,5.6-6.53,2.79-7.35,3c-4.92,2.09-10,3.72-15.08,5.5-2.54.86-5.12,1.57-7.68,2.34s-5.13,1.56-7.75,2.16a270.2,270.2,0,0,1-31.55,6.21,264.8,264.8,0,0,1-32.07,2.16,260.32,260.32,0,0,1-218.15-115.59c-1.56-2.18-2.89-4.49-4.34-6.74L2417,5284l-1.06-1.7-.91-1.55-7.24-12.3-14.46-24.6c-9.48-16.5-19.13-32.91-28.43-49.48l-14.08-24.82-13.89-24.93-13.83-24.94-13.63-25.07q-54.48-100.26-105-202.56-22.5-45.57-44.25-91.48-4.68-9.8-9.28-19.63t-9.12-19.53q-10-21.6-19.9-43.29-7.38-16.26-14.64-32.55-46.42-104.28-88.78-210.32-22.15-56-43-112.47-4.12-11.11-8.18-22.24t-8-22q-10.32-28.65-20.36-57.39c-12-36.13-24.6-72.09-35.84-108.5l-13-40.84-4.08-13.71-16.31-54.78c-2.8-9.1-5.22-18.33-7.8-27.5l-7.62-27.55-7.64-27.55c-2.52-9.19-4.77-18.46-7.16-27.69l-13-51-1.13-4.41-9.5-40.64s0,0,0,0l-.14-.63v0l-3.38-14.41c-2.12-9.29-4.42-18.54-6.41-27.88l-.66-3.11L1800,3766l-5.9-28c-1.9-9.35-4.06-18.64-5.71-28-.06-.31-.11-.61-.17-.91-6.87-37.23-14.22-74.38-19.85-111.86a2918.26,2918.26,0,0,1-35.82-341.88q-1-21.69-1.65-43.41l0-2.09q-.43-14.24-.7-28.46c0-.74,0-1.48,0-2.22q-.3-14.22-.4-28.42c0-.72,0-1.45,0-2.17,0-2.72-.06-5.43-.08-8.15a30.57,30.57,0,0,1,57.14-15.27,7.25,7.25,0,0,1,.51.95,29.78,29.78,0,0,1,3.4,11.93c.06.61.08,1.2.09,1.82v.54c0,2.88,0,5.74.06,8.63h0c.06,6.59.14,13.2.23,19.79,0,.63,0,1.26,0,1.9q.23,14.46.63,28.92c0,.62,0,1.24,0,1.85q.6,22.28,1.56,44.53a2854.09,2854.09,0,0,0,35.41,341.45c2.87,19.15,6.2,38.23,9.69,57.29,3.27,17.81,6.67,35.64,9.95,53.46,1.44,8.19,3.28,16.27,5,24.41h0c.22,1.05.44,2.1.65,3.15l5.8,27.54,1.5,7.1.26,1.23s0,0,0,0l4,19.18c1.92,8.95,4.11,17.86,6.16,26.8.06.21.11.41.16.63l12.79,54.82,13.95,54.56c2.37,9.08,4.57,18.2,7.06,27.26l7.51,27.15,7.54,27.13c2.53,9.05,4.9,18.14,7.67,27.11l16.08,54,4,13.5,4.26,13.43,8.54,26.87c11.08,35.9,23.46,71.4,35.36,107.06q13.2,37.79,26.89,75.4,4.61,12.57,9.24,25.14,4.85,13,9.73,26.05,16,42.59,32.73,84.89,41.88,104.79,87.79,208,8.25,18.49,16.64,36.92,4.45,9.77,8.95,19.54,4.76,10.37,9.57,20.7c3.17,6.82,6.36,13.61,9.54,20.42q25.21,53.61,51.48,106.73,50.05,101.22,103.93,200.49l13.49,24.8,13.71,24.68,13.74,24.65,13.92,24.56q3.54,6.3,7.11,12.55c7,12.16,14,24.25,21,36.39l14.29,24.33,7.16,12.16.88,1.5.84,1.31,1.63,2.61c1.11,1.73,2.1,3.53,3.32,5.18A199.63,199.63,0,0,0,2665.68,5347a209.87,209.87,0,0,0,24.1-4.74c2-.44,4-1.08,5.92-1.65s4-1.12,5.88-1.79c3.87-1.39,7.79-2.61,11.57-4.23l5.82-2.34,6.52-2.8,13-5.58,104.23-44.66,11.55-4.94.11,0,59.54-25.51,137.26-58.81,13.21-5.65v0l.1,0,38.81-16.62,13-5.59,6.51-2.79,1.21-.51,2-.86s.83-.42,1.52-.79c3.15-1.64,6.67-3.71,10-5.85s6.74-4.46,10-6.84c26.41-19.26,47.25-45.07,57.3-74a134.8,134.8,0,0,0,7.44-45.56,179.7,179.7,0,0,0-7.17-47.76l-1.71-6c-.51-2.05-1.34-3.83-2-5.76-1.43-3.75-2.55-7.65-4.34-11.23-.24-.59-.51-1.16-.77-1.75h0a168.78,168.78,0,0,0-10.22-19.6,178.69,178.69,0,0,0-30.62-37.4c-23.94-22.43-54.07-39.51-86.57-51.77a383.57,383.57,0,0,0-50.32-15.05c-1.45-.34-2.91-.66-4.38-1h0c-7.12-1.57-14.31-2.92-21.47-4.07-4.34-.7-8.66-1.3-13-1.86l-6.36-.71-3.1-.29-2.64-.22-.49,0a30.93,30.93,0,0,1-26.92-21.22c-.11-.34-.21-.66-.34-1v0q-3.21-9.93-6.59-19.82c-6-17.61-12.22-35.16-19-52.6-9.39-24.31-19.19-48.51-29.67-72.49s-21.25-47.85-32.54-71.5c-5.66-11.8-11.39-23.6-17.24-35.28l-8.84-17.49-3.58-7a0,0,0,0,1,0,0c-1.79-3.45-3.58-6.86-5.32-10.12-.4-.79-.83-1.7-1.2-2.58,0,0,0,0,0,0-.14-.29-.25-.62-.37-.91a31,31,0,0,1-1.87-8v-.05a30.75,30.75,0,0,1,11.3-26.78,30,30,0,0,1,8.38-4.8l.11,0q11.34-4.31,22.69-8.73c12.56-4.91,25.06-10,37.47-15.4,10-4.17,19.85-8.74,29.76-13.12,9.85-4.59,19.73-9.08,29.5-13.85q29.37-14.07,58.25-29.32,14.4-7.65,28.66-15.52l14.14-7.95c4.07-2.31,8.25-4.73,12.11-7,0,0,0,0,0,0s0,0,0,0l1.58-.92.21-.14a30.73,30.73,0,0,1,44.43,16.33q3.42,9.78,7,19.57c14.78,40.76,31.13,81.37,48,121.79,19.62,46.89,40.1,93.57,61,140.07s42.32,92.84,64,139.05l6.69,14.11h0l26.13,55.11,16.57,34.55,4.16,8.63c1.36,2.8,2.84,6,4,8.1,1.21,2.36,2.4,4.72,3.79,7l2,3.43,2.16,3.33A142.74,142.74,0,0,0,3400.35,4969.9Z"/><path class="cls-3" d="M3401.09,3391.66c-.25.27-.51.51-.74.76v60l-7.8-14.32-1.25-2.3-12.16-22.32-.11-.18-1.8-3.15-3.23-5.61-8.83-15.37c-3.13-5.46-6.26-10.91-9.44-16.36-1.15-2-2.32-4-3.49-6-33.29-57.15-68.3-113.35-105.44-168.11q-62.88-92.94-130.63-182.61c-22.63-29.86-45.6-59.56-69.21-88.79q-10-12.47-20.16-24.79c-1.93-2.38-3.89-4.74-5.85-7.12,0,0,0,0,0-.06-3.21-3.92-6.45-7.82-9.67-11.73l-6.5-7.68c-6.67-7.91-13.37-15.83-20.14-23.65-3.37-3.89-6.73-7.75-10.13-11.59l-.09-.11a3.69,3.69,0,0,1-.8-3.38,3.31,3.31,0,0,1,.57-1.24,3.72,3.72,0,0,1,5.18-.88q7.84,5.61,15.51,11.44h0q13.47,10.26,26.42,21.09,9.89,8.21,19.54,16.73,13.44,11.8,26.54,24c28,25.91,54.65,53.22,80.56,81.21A1879.37,1879.37,0,0,1,3292.18,3167q46.14,64.29,88.66,131.13,9.84,15.54,19.51,31.19v61.08C3400.59,3390.8,3400.84,3391.23,3401.09,3391.66Z"/><path class="cls-1" d="M1023.8,3067.65c255.63,162.75,666.63,206.06,1327.17-76.92l.75-.32c652-279.43,905.79-602.24,968.21-896.7,23.61-111,19.92-218,.2-317-67.75-339.81-325-587.11-325-587.11C2823.64,542.22,2528.18,204.75,2378,67.75c-60.86-55.63-153.82-58.59-217.14-5.86C1920.61,261.51,1806,756.59,1806,756.59c-192.47,21.16-369,100.77-369,100.77S1257.59,930.23,1109.49,1055c0,0-437.47-258.57-747.75-222.31-81.86,9.46-143.84,78.8-145.55,161.24-4.4,203.21,36.1,649.91,386.47,1220.61C602.66,2214.53,605.23,2801.21,1023.8,3067.65Z"/><path class="cls-4" d="M914.06,2962.89a851.64,851.64,0,0,0,109.74,104.76c255.63,162.75,666.63,206.06,1327.17-76.92l.75-.32c652-279.43,905.79-602.24,968.21-896.7a778.8,778.8,0,0,0,2.13-162.44s-33.88-290.24-241-392.29-369,48.55-402.15,210.76-243.36,224.54-388.08,185.1-250-48.75-387.81,10.28-203.7,141.7-275,273.67-261.32,241.11-401.72,153.26-360.9-74.64-430,145.75S914.06,2962.89,914.06,2962.89Z"/><g class="cls-8"><path class="cls-3" d="M1719.61,2339c-8-16,9.16-33,25-24.79,42.82,22,80.25,26.27,141.22-3.83,73-36,15.39-142.27,15.39-142.27l82.2-35.22,82.21-35.22s37.16,115,113.6,87c63.86-23.38,86.61-53.4,100.2-99.6,5-17.12,29.14-17.8,35.21-1,15.88,43.94,22.71,110.42-46,163.43-107,82.52-191.31,94.24-271.76-83.24,73,180.68,6.34,233.64-127.21,254.17C1783.89,2431.59,1740.47,2380.79,1719.61,2339Z"/></g><path class="cls-3" d="M1797.24,2165.85c-15-43.45,24.3-85.38,64-114.95a343.79,343.79,0,0,1,147.19-63.06c48.79-8.34,106.23-7.84,127.36,33,27.46,53-39.85,126.92-83.27,166.92a125.57,125.57,0,0,1-77,33C1916.62,2224.56,1816.71,2222.32,1797.24,2165.85Z"/><ellipse class="cls-9" cx="1951.08" cy="2059.21" rx="99.77" ry="17.27" transform="translate(-653.26 934.72) rotate(-23.19)"/><path class="cls-3" d="M1947.55,2442.36c53.27-22.83,88.28-58.05,104.07-104.71,29.45-87-22.16-180.16-24.37-184.08a32.3,32.3,0,0,0-56.3,31.67c.84,1.53,39.6,72.79,19.4,132-9.84,28.81-32.16,50.32-68.24,65.78-42.41,18.17-78.95,20.82-108.6,7.88-43.66-19.06-61.15-66.85-61.33-67.33a32.3,32.3,0,0,0-61,21.18c1,3,26.17,74.16,95.65,105C1833.64,2470.45,1887.72,2468,1947.55,2442.36Z"/><path class="cls-3" d="M2232.27,2320.37c59.83-25.63,98.92-63.08,116.19-111.31,25.62-71.55-8.55-138.83-10-141.66a32.3,32.3,0,0,0-57.35,29.74c.15.29,22.68,45.92,6.36,90.67-11.09,30.4-38.21,55-80.62,73.19-36.19,15.5-67.24,16.78-94.94,3.91-56.56-26.28-81.65-104.12-81.89-104.9a32.3,32.3,0,0,0-61.79,18.85c1.32,4.31,33.13,105.91,116.46,144.63C2129.34,2344.24,2179,2343.2,2232.27,2320.37Z"/><path class="cls-4" d="M2566.84,883.63c-95.56-30.14-256.61-73.44-440-91.62a45.78,45.78,0,0,1-41.15-44c-3.88-105.62,68.68-384.22,143.23-454.18,110.73-103.91,318.54,340.25,394.28,528.91C2637.69,858.75,2603.82,895.3,2566.84,883.63Z"/><path class="cls-4" d="M676.61,1693.43c44.1-90,123.85-236.44,237.17-381.7a45.8,45.8,0,0,0-3.44-60.14c-73.8-75.67-325.55-215.33-427.62-209.62-151.61,8.48,26.58,465.33,110.91,650.31C609.72,1727.56,659.54,1728.26,676.61,1693.43Z"/><g class="cls-8"><path class="cls-3" d="M628.77,2430.44c57.16,161.57,159,338.5,340.61,454.09C1220.49,3044.41,1624.23,3087,2273.1,2809l.74-.32c640.46-274.49,889.79-591.59,951.1-880.85,23.2-109,19.57-214.1.2-311.43-18.9-94.8-52.83-182.24-91.71-258.89,72.47,104.19,153,250.24,186.7,419.2,19.72,99.08,23.41,206-.2,317-62.42,294.46-316.23,617.27-968.21,896.7l-.75.32c-660.54,283-1071.54,239.67-1327.17,76.92C769.34,2905.67,668.63,2625.36,628.77,2430.44Z"/></g><g class="cls-7"><path class="cls-4" d="M361.74,832.68C672,796.42,1109.49,1055,1109.49,1055,1257.59,930.23,1437,857.36,1437,857.36s176.53-79.61,369-100.77c0,0,114.61-495.08,354.9-694.7,58.64-48.83,142.63-49.81,203.07-5.53a176.07,176.07,0,0,0-102.06,40.46C2055,268.71,1934.3,643.32,1893.79,788.51c-9.4,33.69-36.86,58.8-70.75,66.32,9,38.35-51.45,87.46-136.1,110.2-81.73,22-156.16,11.29-171.52-23.38-22.87,9.05-35.91,14.93-35.91,14.93s-157.9,64.13-306.34,175.72a94.43,94.43,0,0,1-101.12,8.26C939,1069.73,584.53,898.68,317.34,929.9a176.06,176.06,0,0,0-99.69,46C227.29,901.58,285.94,841.44,361.74,832.68Z"/></g><path class="cls-3" d="M2680.11,2792.55q-13.37,7.83-27,15.58-141.87,80.65-314.18,154.5-139.89,59.91-269.26,102.22-146.37,47.88-279,73.18c-1.61.31-3.2.6-4.79.89q-12.87,2.43-25.6,4.63s0,0,0,0a.85.85,0,0,1-.25,0q-15.26,2.64-30.3,5-145.87,22.59-274,16.48h-.16c-2.22-.09-4.44-.21-6.65-.34,0,0,0,0,0,0a0,0,0,0,0,0,0q-240.69-12.93-416.67-128.09c-64.07-42-117.63-92.11-162.37-146l.46,1.2c.77,2,1.53,4,2.27,6,.9,2.39,1.78,4.8,2.64,7.21q1,2.79,2,5.62h0l0,0,0,0c1.55,2.47,3.1,4.84,4.63,7.16.49.77,1,1.53,1.49,2.28q1.32,2,2.64,4c5,7.51,9.63,14.06,13.57,19.5.82,1.13,1.6,2.21,2.38,3.25.4.54.78,1.06,1.15,1.59s.76,1,1.12,1.49c.72,1,1.43,1.9,2.08,2.77l1.5,2c.47.63.94,1.22,1.37,1.78.63.83,1.23,1.59,1.76,2.27l.51.64c1.79,2.27,2.78,3.46,2.78,3.46a850,850,0,0,0,109.72,104.75q6,3.81,12,7.49c1.82,1.13,3.65,2.24,5.51,3.33,1.54.93,3.1,1.86,4.66,2.78,1,.62,2.11,1.24,3.18,1.85,1.35.81,2.73,1.59,4.1,2.38,2,1.16,4,2.3,6.07,3.44s4.06,2.27,6.11,3.4c1.88,1,3.78,2.07,5.69,3.1.36.19.71.39,1.07.57,1.76.94,3.53,1.89,5.31,2.81,2.22,1.19,4.46,2.35,6.71,3.51,2.06,1.06,4.12,2.11,6.21,3.14s4.24,2.12,6.37,3.17c2,1,3.94,1.91,5.91,2.87q4.89,2.34,9.82,4.61l.57.27c1.07.51,2.13,1,3.2,1.48l1.52.69c.61.28,1.21.56,1.83.82,1.71.79,3.45,1.56,5.18,2.32l3,1.34c1.92.83,3.83,1.67,5.76,2.48l.86.37c1.41.61,2.8,1.19,4.22,1.78l5.66,2.35q4.5,1.85,9.06,3.65l1,.4q4,1.61,8.11,3.15l1.29.5c2.28.86,4.58,1.73,6.9,2.57s4.7,1.73,7.06,2.58c1.76.64,3.52,1.27,5.3,1.87.28.11.55.2.83.29,1,.36,2,.73,3.09,1.08,1.68.59,3.38,1.18,5.09,1.75q3.61,1.23,7.24,2.41c2.42.8,4.86,1.59,7.3,2.36s4.91,1.54,7.36,2.3c5,1.56,10.1,3,15.22,4.53l6.56,1.86c.63.18,1.28.35,1.93.52l.71.2q2.8.79,5.63,1.53l7.4,2,.41.09,2,.51c1.86.48,3.73,1,5.61,1.42q3.87,1,7.78,1.9,3.43.84,6.89,1.62c1.17.28,2.34.54,3.52.8l.58.14,1.5.34c2.84.63,5.69,1.27,8.55,1.87,1.34.29,2.7.59,4.06.86l.51.11c1.16.25,2.31.48,3.47.71a.06.06,0,0,0,.05,0l4,.82,1,.21,5.16,1,1.91.37,6.71,1.25,4.88.88c2.16.4,4.34.77,6.53,1.14,1.7.3,3.41.59,5.12.87,2.75.46,5.53.91,8.31,1.34s5.29.82,8,1.2l.78.13h.1c2.45.37,4.9.73,7.39,1.07l.46.06c2,.28,3.91.54,5.87.8l.77.11,3.81.49.13,0q2.27.3,4.53.57c3.78.48,7.6.93,11.41,1.36,2.73.31,5.46.62,8.21.89l6.41.65c1.85.19,3.72.36,5.58.54.2,0,.4,0,.61.06l.5.05c.41,0,.81.06,1.21.11l6.88.6c2.7.23,5.4.45,8.12.65q3.66.3,7.35.55l5.8.41,5.25.32q1.29.09,2.61.15l.34,0,6.09.34,1.59.09h.14a.72.72,0,0,1,.19,0l.28,0h.17l1.25.11.5.05,3.75.29,1.21.09h.06c.28,0,.56.05.85.07l1.53.1c.15,0,.29,0,.45,0l1.06.07c4.35.29,9.89.6,16.56.88.48,0,1,0,1.47.06,2,.07,4,.17,6.17.23l4.31.14c2.75.08,5.62.15,8.63.21l5.44.11c.34,0,.68,0,1,0h1.79c.32,0,.66,0,1,0l2.65,0c1.24,0,2.47,0,3.74,0s2.54,0,3.84,0c11.67,0,24.65-.08,38.85-.48l5.54-.17q6.65-.21,13.63-.51c3.07-.13,6.17-.28,9.34-.43q11.55-.55,23.89-1.39l4.47-.31c2.91-.2,5.82-.42,8.79-.65l3.08-.23,4.16-.34,6.43-.54q6.95-.59,14.08-1.28l7.18-.71,3.78-.39,5.4-.57c1.82-.18,3.64-.39,5.48-.6l3.55-.4,3.9-.45c1.25-.15,2.52-.29,3.77-.45q9.88-1.17,20.08-2.54l6.84-.93.6-.08,7.11-1,4.22-.61,6.42-1,1.6-.25,7.43-1.14c1.87-.29,3.73-.6,5.62-.91,1.15-.19,2.33-.37,3.49-.57l5-.83,8.58-1.47.24-.05c0-.71,0-1.43,0-2.14,0,0,0,0,0,0l7.6-1.3c.2,0,.38-.06.58-.11,1.63-.28,3.25-.55,4.87-.85l.54-.09,1-.18,8.23-1.5,5.43-1,.93-.17,1.32-.25q3.69-.68,7.4-1.39l3-.6c1.56-.3,3.11-.59,4.66-.9l2.86-.55c3.07-.61,6.16-1.22,9.25-1.86,1.83-.35,3.67-.74,5.51-1.12l1.11-.23c2.56-.51,5.14-1.05,7.73-1.59q5.07-1.07,10.19-2.18,3.2-.68,6.43-1.39l10.2-2.25.16-.05q3.54-.78,7.08-1.6l9-2.07c3-.7,6-1.41,9.07-2.13.82-.2,1.64-.43,2.46-.65l-.08.09q14.66-3.49,29.53-7.25l8.47-2.16c4.44-1.14,8.91-2.3,13.38-3.49l2.92-.77c2.44-.64,4.88-1.28,7.31-1.95s4.9-1.31,7.35-2q5.57-1.5,11.16-3l1.81-.51,5.88-1.64,4.27-1.2,6.87-2,6.88-2c4.6-1.33,9.22-2.69,13.85-4.05,3.46-1,6.91-2,10.39-3.1l1.45-.43q4.53-1.35,9.09-2.75l2.82-.86q5.14-1.56,10.31-3.18c2.67-.82,5.33-1.66,8-2.49l3.49-1.09,3.61-1.15c2.36-.75,4.74-1.49,7.11-2.27.91-.27,1.81-.57,2.72-.86l1.61-.52,2.9-.93,7.07-2.3c1.86-.6,3.72-1.2,5.58-1.82l4.7-1.55,3.67-1.21c1.23-.42,2.47-.82,3.69-1.24q5.6-1.85,11.23-3.77c2.43-.81,4.85-1.63,7.29-2.47s4.86-1.65,7.3-2.5c1-.34,2-.67,3-1q4.13-1.41,8.29-2.87l4-1.4c2.24-.78,4.49-1.56,6.73-2.37l3-1.06c.42-.16.85-.29,1.27-.45l.52-.18.45-.16,9.54-3.41c2.48-.89,5-1.77,7.45-2.69s5-1.79,7.46-2.7q15-5.43,30.11-11.14c2.52-.94,5.05-1.9,7.58-2.86q15.21-5.73,30.59-11.76c2.15-.83,4.31-1.68,6.47-2.53s4.18-1.63,6.28-2.47l6.3-2.48q17.57-7,35.4-14.28,4.38-1.78,8.79-3.61,7.42-3.06,14.91-6.19l5.81-2.42q13-5.47,26.13-11.09l.76-.32c3.77-1.6,7.52-3.23,11.25-4.85l4.19-1.8q7.46-3.24,14.83-6.48l9.26-4.08q6.55-2.89,13.06-5.8,18.46-8.27,36.48-16.56c3.12-1.44,6.24-2.87,9.34-4.33q12.35-5.73,24.48-11.48t24.06-11.51q9.7-4.71,19.28-9.42,15.21-7.47,30.07-15c3.3-1.66,6.59-3.35,9.86-5l7-3.57q8.26-4.26,16.4-8.5,4.8-2.51,9.56-5l.08,0,9.33-4.94,3.49-1.87q9.33-4.95,18.51-9.95,3.06-1.65,6.09-3.32,4.84-2.64,9.65-5.31t9.56-5.29l8.14-4.56,4.5-2.53,4.47-2.53,8.91-5.08c3.42-2,6.84-3.92,10.23-5.88,2-1.14,3.95-2.28,5.93-3.44,3.61-2.1,7.19-4.2,10.77-6.31Zm-919.63,381.72q-.13-10.74-.21-21.49c0-2.37,0-4.77,0-7.14,0-.47,0-.93,0-1.39v-.7s0,0,0,0a.85.85,0,0,1-.25,0q-15.26,2.64-30.3,5-145.87,22.59-274,16.48h-.16c-2.22-.09-4.44-.21-6.65-.34,0,0,0,0,0,0a0,0,0,0,0,0,0q-240.69-12.93-416.67-128.09c-64.07-42-117.63-92.11-162.37-146l.46,1.2c.77,2,1.53,4,2.27,6,.9,2.39,1.78,4.8,2.64,7.21q1,2.79,2,5.62h0l0,0,0,0c1.55,2.47,3.1,4.84,4.63,7.16.49.77,1,1.53,1.49,2.28q1.32,2,2.64,4c5,7.51,9.63,14.06,13.57,19.5.82,1.13,1.6,2.21,2.38,3.25.4.54.78,1.06,1.15,1.59s.76,1,1.12,1.49c.72,1,1.43,1.9,2.08,2.77l1.5,2c.47.63.94,1.22,1.37,1.78.63.83,1.23,1.59,1.76,2.27l.51.64c1.79,2.27,2.78,3.46,2.78,3.46a850,850,0,0,0,109.72,104.75q6,3.81,12,7.49c1.82,1.13,3.65,2.24,5.51,3.33,1.54.93,3.1,1.86,4.66,2.78,1,.62,2.11,1.24,3.18,1.85,1.35.81,2.73,1.59,4.1,2.38,2,1.16,4,2.3,6.07,3.44s4.06,2.27,6.11,3.4c1.88,1,3.78,2.07,5.69,3.1.36.19.71.39,1.07.57,1.76.94,3.53,1.89,5.31,2.81,2.22,1.19,4.46,2.35,6.71,3.51,2.06,1.06,4.12,2.11,6.21,3.14s4.24,2.12,6.37,3.17c2,1,3.94,1.91,5.91,2.87q4.89,2.34,9.82,4.61l.57.27c1.07.51,2.13,1,3.2,1.48l1.52.69c.61.28,1.21.56,1.83.82,1.71.79,3.45,1.56,5.18,2.32l3,1.34c1.92.83,3.83,1.67,5.76,2.48l.86.37c1.41.61,2.8,1.19,4.22,1.78l5.66,2.35q4.5,1.85,9.06,3.65l1,.4q4,1.61,8.11,3.15l1.29.5c2.28.86,4.58,1.73,6.9,2.57s4.7,1.73,7.06,2.58c1.76.64,3.52,1.27,5.3,1.87.28.11.55.2.83.29,1,.36,2,.73,3.09,1.08,1.68.59,3.38,1.18,5.09,1.75q3.61,1.23,7.24,2.41c2.42.8,4.86,1.59,7.3,2.36s4.91,1.54,7.36,2.3c5,1.56,10.1,3,15.22,4.53l6.56,1.86c.63.18,1.28.35,1.93.52l.71.2q2.8.79,5.63,1.53l7.4,2,.41.09,2,.51c1.86.48,3.73,1,5.61,1.42q3.87,1,7.78,1.9,3.43.84,6.89,1.62c1.17.28,2.34.54,3.52.8l.58.14,1.5.34c2.84.63,5.69,1.27,8.55,1.87,1.34.29,2.7.59,4.06.86l.51.11c1.16.25,2.31.48,3.47.71a.06.06,0,0,0,.05,0l4,.82,1,.21,5.16,1,1.91.37,6.71,1.25,4.88.88c2.16.4,4.34.77,6.53,1.14,1.7.3,3.41.59,5.12.87,2.75.46,5.53.91,8.31,1.34s5.29.82,8,1.2l.78.13h.1c2.45.37,4.9.73,7.39,1.07l.46.06c2,.28,3.91.54,5.87.8l.77.11,3.81.49.13,0q2.27.3,4.53.57c3.78.48,7.6.93,11.41,1.36,2.73.31,5.46.62,8.21.89l6.41.65c1.85.19,3.72.36,5.58.54.2,0,.4,0,.61.06l.5.05c.41,0,.81.06,1.21.11l6.88.6c2.7.23,5.4.45,8.12.65q3.66.3,7.35.55l5.8.41,5.25.32q1.29.09,2.61.15l.34,0,6.09.34,1.59.09h.14a.72.72,0,0,1,.19,0l.28,0h.17l1.25.11.5.05,3.75.29,1.21.09h.06c.28,0,.56.05.85.07l1.53.1c.15,0,.29,0,.45,0l1.06.07c4.35.29,9.89.6,16.56.88.48,0,1,0,1.47.06,2,.07,4,.17,6.17.23l4.31.14c2.75.08,5.62.15,8.63.21l5.44.11c.34,0,.68,0,1,0h1.79c.32,0,.66,0,1,0l2.65,0c1.24,0,2.47,0,3.74,0s2.54,0,3.84,0c11.67,0,24.65-.08,38.85-.48l5.54-.17q6.65-.21,13.63-.51c3.07-.13,6.17-.28,9.34-.43q11.55-.55,23.89-1.39l4.47-.31c2.91-.2,5.82-.42,8.79-.65l3.08-.23,4.16-.34,6.43-.54q6.95-.59,14.08-1.28l7.18-.71,3.78-.39,5.4-.57c1.82-.18,3.64-.39,5.48-.6l3.55-.4,3.9-.45c1.25-.15,2.52-.29,3.77-.45q9.88-1.17,20.08-2.54l6.84-.93.6-.08,7.11-1,4.22-.61,6.42-1,1.6-.25,7.43-1.14c1.87-.29,3.73-.6,5.62-.91,1.15-.19,2.33-.37,3.49-.57l5-.83,8.58-1.47c0-.71,0-1.44,0-2.15a.67.67,0,0,0,.24,0S1760.47,3174.28,1760.48,3174.27Zm0,0q-.13-10.74-.21-21.49c0-2.37,0-4.77,0-7.14,0-.47,0-.93,0-1.39v-.7s0,0,0,0a.85.85,0,0,1-.25,0q-15.26,2.64-30.3,5-145.87,22.59-274,16.48h-.16c-2.22-.09-4.44-.21-6.65-.34,0,0,0,0,0,0a0,0,0,0,0,0,0q-240.69-12.93-416.67-128.09c-64.07-42-117.63-92.11-162.37-146l.46,1.2c.77,2,1.53,4,2.27,6,.9,2.39,1.78,4.8,2.64,7.21q1,2.79,2,5.62h0l0,0,0,0c1.55,2.47,3.1,4.84,4.63,7.16.49.77,1,1.53,1.49,2.28q1.32,2,2.64,4c5,7.51,9.63,14.06,13.57,19.5.82,1.13,1.6,2.21,2.38,3.25.4.54.78,1.06,1.15,1.59s.76,1,1.12,1.49c.72,1,1.43,1.9,2.08,2.77l1.5,2c.47.63.94,1.22,1.37,1.78.63.83,1.23,1.59,1.76,2.27l.51.64c1.79,2.27,2.78,3.46,2.78,3.46a850,850,0,0,0,109.72,104.75q6,3.81,12,7.49c1.82,1.13,3.65,2.24,5.51,3.33,1.54.93,3.1,1.86,4.66,2.78,1,.62,2.11,1.24,3.18,1.85,1.35.81,2.73,1.59,4.1,2.38,2,1.16,4,2.3,6.07,3.44s4.06,2.27,6.11,3.4c1.88,1,3.78,2.07,5.69,3.1.36.19.71.39,1.07.57,1.76.94,3.53,1.89,5.31,2.81,2.22,1.19,4.46,2.35,6.71,3.51,2.06,1.06,4.12,2.11,6.21,3.14s4.24,2.12,6.37,3.17c2,1,3.94,1.91,5.91,2.87q4.89,2.34,9.82,4.61l.57.27c1.07.51,2.13,1,3.2,1.48l1.52.69c.61.28,1.21.56,1.83.82,1.71.79,3.45,1.56,5.18,2.32l3,1.34c1.92.83,3.83,1.67,5.76,2.48l.86.37c1.41.61,2.8,1.19,4.22,1.78l5.66,2.35q4.5,1.85,9.06,3.65l1,.4q4,1.61,8.11,3.15l1.29.5c2.28.86,4.58,1.73,6.9,2.57s4.7,1.73,7.06,2.58c1.76.64,3.52,1.27,5.3,1.87.28.11.55.2.83.29,1,.36,2,.73,3.09,1.08,1.68.59,3.38,1.18,5.09,1.75q3.61,1.23,7.24,2.41c2.42.8,4.86,1.59,7.3,2.36s4.91,1.54,7.36,2.3c5,1.56,10.1,3,15.22,4.53l6.56,1.86c.63.18,1.28.35,1.93.52l.71.2q2.8.79,5.63,1.53l7.4,2,.41.09,2,.51c1.86.48,3.73,1,5.61,1.42q3.87,1,7.78,1.9,3.43.84,6.89,1.62c1.17.28,2.34.54,3.52.8l.58.14,1.5.34c2.84.63,5.69,1.27,8.55,1.87,1.34.29,2.7.59,4.06.86l.51.11c1.16.25,2.31.48,3.47.71a.06.06,0,0,0,.05,0l4,.82,1,.21,5.16,1,1.91.37,6.71,1.25,4.88.88c2.16.4,4.34.77,6.53,1.14,1.7.3,3.41.59,5.12.87,2.75.46,5.53.91,8.31,1.34s5.29.82,8,1.2l.78.13h.1c2.45.37,4.9.73,7.39,1.07l.46.06c2,.28,3.91.54,5.87.8l.77.11,3.81.49.13,0q2.27.3,4.53.57c3.78.48,7.6.93,11.41,1.36,2.73.31,5.46.62,8.21.89l6.41.65c1.85.19,3.72.36,5.58.54.2,0,.4,0,.61.06l.5.05c.41,0,.81.06,1.21.11l6.88.6c2.7.23,5.4.45,8.12.65q3.66.3,7.35.55l5.8.41,5.25.32q1.29.09,2.61.15l.34,0,6.09.34,1.59.09h.14a.72.72,0,0,1,.19,0l.28,0h.17l1.25.11.5.05,3.75.29,1.21.09h.06c.28,0,.56.05.85.07l1.53.1c.15,0,.29,0,.45,0l1.06.07c4.35.29,9.89.6,16.56.88.48,0,1,0,1.47.06,2,.07,4,.17,6.17.23l4.31.14c2.75.08,5.62.15,8.63.21l5.44.11c.34,0,.68,0,1,0h1.79c.32,0,.66,0,1,0l2.65,0c1.24,0,2.47,0,3.74,0s2.54,0,3.84,0c11.67,0,24.65-.08,38.85-.48l5.54-.17q6.65-.21,13.63-.51c3.07-.13,6.17-.28,9.34-.43q11.55-.55,23.89-1.39l4.47-.31c2.91-.2,5.82-.42,8.79-.65l3.08-.23,4.16-.34,6.43-.54q6.95-.59,14.08-1.28l7.18-.71,3.78-.39,5.4-.57c1.82-.18,3.64-.39,5.48-.6l3.55-.4,3.9-.45c1.25-.15,2.52-.29,3.77-.45q9.88-1.17,20.08-2.54l6.84-.93.6-.08,7.11-1,4.22-.61,6.42-1,1.6-.25,7.43-1.14c1.87-.29,3.73-.6,5.62-.91,1.15-.19,2.33-.37,3.49-.57l5-.83,8.58-1.47c0-.71,0-1.44,0-2.15a.67.67,0,0,0,.24,0S1760.47,3174.28,1760.48,3174.27Zm0,0q-.13-10.74-.21-21.49c0-2.37,0-4.77,0-7.14,0-.47,0-.93,0-1.39v-.7s0,0,0,0a.85.85,0,0,1-.25,0q-15.26,2.64-30.3,5-145.87,22.59-274,16.48h-.16c-2.22-.09-4.44-.21-6.65-.34,0,0,0,0,0,0a0,0,0,0,0,0,0q-240.69-12.93-416.67-128.09c-64.07-42-117.63-92.11-162.37-146l.46,1.2c.77,2,1.53,4,2.27,6,.9,2.39,1.78,4.8,2.64,7.21q1,2.79,2,5.62a0,0,0,0,1,0,0l0,0c1.55,2.47,3.1,4.84,4.63,7.16.49.77,1,1.53,1.49,2.28q1.32,2,2.64,4c5,7.51,9.63,14.06,13.57,19.5.82,1.13,1.6,2.21,2.38,3.25.4.54.78,1.06,1.15,1.59l1.12,1.49c.72,1,1.43,1.9,2.08,2.77l1.5,2c.47.63.94,1.22,1.37,1.78.63.83,1.23,1.59,1.76,2.27l.51.64c1.79,2.27,2.78,3.46,2.78,3.46a850,850,0,0,0,109.72,104.75q6,3.81,12,7.49c1.82,1.13,3.65,2.24,5.51,3.33,1.54.93,3.1,1.86,4.66,2.78,1,.62,2.11,1.24,3.18,1.85,1.35.81,2.73,1.59,4.1,2.38,2,1.16,4,2.3,6.07,3.44s4.06,2.27,6.11,3.4c1.88,1,3.78,2.07,5.69,3.1.36.19.71.39,1.07.57,1.76.94,3.53,1.89,5.31,2.81,2.22,1.19,4.46,2.35,6.71,3.51,2.06,1.06,4.12,2.11,6.21,3.14s4.24,2.12,6.37,3.17c2,1,3.94,1.91,5.91,2.87q4.89,2.34,9.82,4.61l.57.27c1.07.51,2.13,1,3.2,1.48l1.52.69c.61.28,1.21.56,1.83.82,1.71.79,3.45,1.56,5.18,2.32l3,1.34c1.92.83,3.83,1.67,5.76,2.48l.86.37c1.41.61,2.8,1.19,4.22,1.78l5.66,2.35q4.5,1.85,9.06,3.65l1,.4q4,1.61,8.11,3.15l1.29.5c2.28.86,4.58,1.73,6.9,2.57s4.7,1.73,7.06,2.58c1.76.64,3.52,1.27,5.3,1.87.28.11.55.2.83.29,1,.36,2,.73,3.09,1.08,1.68.59,3.38,1.18,5.09,1.75q3.61,1.23,7.24,2.41c2.42.8,4.86,1.59,7.3,2.36s4.91,1.54,7.36,2.3c5,1.56,10.1,3,15.22,4.53l6.56,1.86c.63.18,1.28.35,1.93.52l.71.2q2.8.79,5.63,1.53l7.4,2,.41.09,2,.51c1.86.48,3.73,1,5.61,1.42q3.87,1,7.78,1.9,3.43.84,6.89,1.62c1.17.28,2.34.54,3.52.8l.58.14,1.5.34c2.84.63,5.69,1.27,8.55,1.87,1.34.29,2.7.59,4.06.86l.51.11c1.16.25,2.31.48,3.47.71a.06.06,0,0,0,.05,0l4,.82,1,.21,5.16,1,1.91.37,6.71,1.25,4.88.88c2.16.4,4.34.77,6.53,1.14,1.7.3,3.41.59,5.12.87,2.75.46,5.53.91,8.31,1.34s5.29.82,8,1.2l.78.13h.1c2.45.37,4.9.73,7.39,1.07l.46.06c2,.28,3.91.54,5.87.8l.77.11,3.81.49.13,0q2.27.3,4.53.57c3.78.48,7.6.93,11.41,1.36,2.73.31,5.46.62,8.21.89l6.41.65c1.85.19,3.72.36,5.58.54.2,0,.4,0,.61.06l.5.05c.41,0,.81.06,1.21.11l6.88.6c2.7.23,5.4.45,8.12.65q3.66.3,7.35.55l5.8.41,5.25.32q1.29.09,2.61.15l.34,0,6.09.34,1.59.09h.14a.72.72,0,0,1,.19,0l.28,0h.17l1.25.11.5.05,3.75.29,1.21.09h.06l.85.07,1.53.1c.15,0,.29,0,.45,0l1.06.07c4.35.29,9.89.6,16.56.88.48,0,1,0,1.47.06,2,.07,4,.17,6.17.23l4.31.14c2.75.08,5.62.15,8.63.21l5.44.11c.34,0,.68,0,1,0h1.79c.32,0,.66,0,1,0l2.65,0c1.24,0,2.47,0,3.74,0s2.54,0,3.84,0c11.67,0,24.65-.08,38.85-.48l5.54-.17q6.65-.21,13.63-.51c3.07-.13,6.17-.28,9.34-.43q11.55-.55,23.89-1.39l4.47-.31c2.91-.2,5.82-.42,8.79-.65l3.08-.23,4.16-.34,6.43-.54q6.95-.59,14.08-1.28l7.18-.71,3.78-.39,5.4-.57c1.82-.18,3.64-.39,5.48-.6l3.55-.4,3.9-.45c1.25-.15,2.52-.29,3.77-.45q9.88-1.17,20.08-2.54l6.84-.93.6-.08,7.11-1,4.22-.61,6.42-1,1.6-.25,7.43-1.14c1.87-.29,3.73-.6,5.62-.91,1.15-.19,2.33-.37,3.49-.57l5-.83,8.58-1.47c0-.71,0-1.44,0-2.15a.67.67,0,0,0,.24,0S1760.47,3174.28,1760.48,3174.27Zm1579-1450.58c-24.34-96-64.85-193.18-120.43-288.82-82.41-141.82-172.22-236.69-196.55-261.23-75.7-283-182.7-536.15-318-752.58C2588,234.75,2473.87,113.81,2398.66,45.15c-72.13-65.84-182.76-68.76-257.34-6.8-103.63,86.09-196.64,232.27-276.44,434.48-45.36,115-72.79,214.15-83.51,255.9-183.06,24.11-344,95-356.42,100.5-12.55,5.15-174.89,72.8-318.61,188.7-37.63-21-128.36-69.61-242.9-116.07C662,820.14,492,786.63,358.21,802.26c-96.32,11.24-170.51,93.35-172.61,191-2.18,101.79,6.67,267.83,61.17,480.72,63.33,247.28,172.8,499.37,325.44,749.4,1,34.54,7.71,165,53.54,322.5,20.09,69.07,45,134,74.56,194q7.31,14.84,15,29.28s0,0,0,0q5.06,9.54,10.26,18.86,4.89,8.8,10,17.43v0q7.93,13.61,16.24,26.79,1.5,2.4,3,4.78a897.7,897.7,0,0,0,62.5,86.56s0,0,0,0q23.11,28.26,48.13,54s0,0,0,0q19.31,19.88,39.74,38.19a777,777,0,0,0,93,71.64c111.62,73.26,242.77,117.94,391.24,133.44h0q18.1,1.92,36.58,3.22h0q15.12,1.07,30.48,1.76h.06c2.32.11,4.6.2,6.92.28q32,1.25,65,.8,96.66-1.29,202.33-17.18c9.92-1.48,19.93-3.07,30-4.75l.28-.05q15.21-2.53,30.62-5.4c5.27-1,10.54-2,15.85-3h0q30.42-5.85,61.49-12.89,11-2.44,22-5.09h.09q71.83-17,147.09-39.95,155.44-47.37,324.74-119.86,181.24-77.64,330.92-163.89,13.57-7.8,26.87-15.7,13.46-7.93,26.61-16c3.06-1.85,6.1-3.72,9.12-5.58q50.16-30.89,96.22-62.76c.39-.25.76-.51,1.15-.79q47.93-33.15,91.43-67.37,18.29-14.37,35.78-28.92,16.4-13.65,32.09-27.43,40.47-35.57,76.24-72.11c144.53-147.62,233.64-309.17,264.81-480.14C3375.11,1963.79,3370.14,1844.55,3339.5,1723.69ZM3294,2067.58c-37.18,203.12-161.1,389.83-370,558.48q-21,17-43.22,33.71-27.45,20.71-56.66,41-11.93,8.31-24.14,16.55l-1.17.78q-44.09,29.68-92,58.55-12.5,7.54-25.25,15c-.49.29-1,.59-1.46.86q-13.37,7.83-27,15.58-141.87,80.65-314.18,154.5-139.89,59.91-269.26,102.22-146.37,47.88-279,73.18c-1.61.31-3.2.6-4.79.89q-12.87,2.43-25.6,4.63s0,0,0,0a.85.85,0,0,1-.25,0q-15.26,2.64-30.3,5-145.87,22.59-274,16.48h-.16c-2.22-.09-4.44-.21-6.65-.34,0,0,0,0,0,0a0,0,0,0,0,0,0q-240.69-12.93-416.67-128.09c-64.07-42-117.63-92.11-162.37-146l0,0q-8.82-10.57-17.13-21.31a885.58,885.58,0,0,1-70.77-106.69A1048.33,1048.33,0,0,1,711.64,2611s0,0,0,0l0,0s0,0,0,0C701.21,2583,692.41,2556,685,2530.6c-50.44-172.41-51.78-314.84-51.8-316.26a30.55,30.55,0,0,0-4.5-15.83c-342.81-558.44-386.44-994-381.93-1204a135,135,0,0,1,8.95-45.6c17.55-45.78,59.16-80.08,109.6-86,296.28-34.6,724.36,215.75,728.65,218.28a30.58,30.58,0,0,0,35.24-3c142.46-119.94,317.58-191.94,319.32-192.65l1-.47c1.72-.75,174.65-77.86,359.77-98.25a30.58,30.58,0,0,0,26.44-23.49C1836.87,758.6,1951,276,2180.4,85.37a131.44,131.44,0,0,1,32.27-19.75,136.16,136.16,0,0,1,144.78,24.69c155.08,141.57,440.3,473.63,608.12,1107a30.4,30.4,0,0,0,8.37,14.22c1,1,103.18,100.2,193.19,255.64,13.27,22.92,26.72,47.85,39.74,74.58,38.85,79.69,74,175.25,89.83,280.25v0C3308.43,1899.6,3309.64,1982.3,3294,2067.58ZM1760.48,3174.27q-.13-10.74-.21-21.49c0-2.37,0-4.77,0-7.14,0-.47,0-.93,0-1.39v-.7s0,0,0,0a.85.85,0,0,1-.25,0q-15.26,2.64-30.3,5-145.87,22.59-274,16.48h-.16c-2.22-.09-4.44-.21-6.65-.34,0,0,0,0,0,0a0,0,0,0,0,0,0q-240.69-12.93-416.67-128.09c-64.07-42-117.63-92.11-162.37-146l.46,1.2c.77,2,1.53,4,2.27,6,.9,2.39,1.78,4.8,2.64,7.21q1,2.79,2,5.62h0l0,0,0,0c1.55,2.47,3.1,4.84,4.63,7.16.49.77,1,1.53,1.49,2.28q1.32,2,2.64,4c5,7.51,9.63,14.06,13.57,19.5.82,1.13,1.6,2.21,2.38,3.25.4.54.78,1.06,1.15,1.59s.76,1,1.12,1.49c.72,1,1.43,1.9,2.08,2.77l1.5,2c.47.63.94,1.22,1.37,1.78.63.83,1.23,1.59,1.76,2.27l.51.64c1.79,2.27,2.78,3.46,2.78,3.46a850,850,0,0,0,109.72,104.75q6,3.81,12,7.49c1.82,1.13,3.65,2.24,5.51,3.33,1.54.93,3.1,1.86,4.66,2.78,1,.62,2.11,1.24,3.18,1.85,1.35.81,2.73,1.59,4.1,2.38,2,1.16,4,2.3,6.07,3.44s4.06,2.27,6.11,3.4c1.88,1,3.78,2.07,5.69,3.1.36.19.71.39,1.07.57,1.76.94,3.53,1.89,5.31,2.81,2.22,1.19,4.46,2.35,6.71,3.51,2.06,1.06,4.12,2.11,6.21,3.14s4.24,2.12,6.37,3.17c2,1,3.94,1.91,5.91,2.87q4.89,2.34,9.82,4.61l.57.27c1.07.51,2.13,1,3.2,1.48l1.52.69c.61.28,1.21.56,1.83.82,1.71.79,3.45,1.56,5.18,2.32l3,1.34c1.92.83,3.83,1.67,5.76,2.48l.86.37c1.41.61,2.8,1.19,4.22,1.78l5.66,2.35q4.5,1.85,9.06,3.65l1,.4q4,1.61,8.11,3.15l1.29.5c2.28.86,4.58,1.73,6.9,2.57s4.7,1.73,7.06,2.58c1.76.64,3.52,1.27,5.3,1.87.28.11.55.2.83.29,1,.36,2,.73,3.09,1.08,1.68.59,3.38,1.18,5.09,1.75q3.61,1.23,7.24,2.41c2.42.8,4.86,1.59,7.3,2.36s4.91,1.54,7.36,2.3c5,1.56,10.1,3,15.22,4.53l6.56,1.86c.63.18,1.28.35,1.93.52l.71.2q2.8.79,5.63,1.53l7.4,2,.41.09,2,.51c1.86.48,3.73,1,5.61,1.42q3.87,1,7.78,1.9,3.43.84,6.89,1.62c1.17.28,2.34.54,3.52.8l.58.14,1.5.34c2.84.63,5.69,1.27,8.55,1.87,1.34.29,2.7.59,4.06.86l.51.11c1.16.25,2.31.48,3.47.71a.06.06,0,0,0,.05,0l4,.82,1,.21,5.16,1,1.91.37,6.71,1.25,4.88.88c2.16.4,4.34.77,6.53,1.14,1.7.3,3.41.59,5.12.87,2.75.46,5.53.91,8.31,1.34s5.29.82,8,1.2l.78.13h.1c2.45.37,4.9.73,7.39,1.07l.46.06c2,.28,3.91.54,5.87.8l.77.11,3.81.49.13,0q2.27.3,4.53.57c3.78.48,7.6.93,11.41,1.36,2.73.31,5.46.62,8.21.89l6.41.65c1.85.19,3.72.36,5.58.54.2,0,.4,0,.61.06l.5.05c.41,0,.81.06,1.21.11l6.88.6c2.7.23,5.4.45,8.12.65q3.66.3,7.35.55l5.8.41,5.25.32q1.29.09,2.61.15l.34,0,6.09.34,1.59.09h.14a.72.72,0,0,1,.19,0l.28,0h.17l1.25.11.5.05,3.75.29,1.21.09h.06c.28,0,.56.05.85.07l1.53.1c.15,0,.29,0,.45,0l1.06.07c4.35.29,9.89.6,16.56.88.48,0,1,0,1.47.06,2,.07,4,.17,6.17.23l4.31.14c2.75.08,5.62.15,8.63.21l5.44.11c.34,0,.68,0,1,0h1.79c.32,0,.66,0,1,0l2.65,0c1.24,0,2.47,0,3.74,0s2.54,0,3.84,0c11.67,0,24.65-.08,38.85-.48l5.54-.17q6.65-.21,13.63-.51c3.07-.13,6.17-.28,9.34-.43q11.55-.55,23.89-1.39l4.47-.31c2.91-.2,5.82-.42,8.79-.65l3.08-.23,4.16-.34,6.43-.54q6.95-.59,14.08-1.28l7.18-.71,3.78-.39,5.4-.57c1.82-.18,3.64-.39,5.48-.6l3.55-.4,3.9-.45c1.25-.15,2.52-.29,3.77-.45q9.88-1.17,20.08-2.54l6.84-.93.6-.08,7.11-1,4.22-.61,6.42-1,1.6-.25,7.43-1.14c1.87-.29,3.73-.6,5.62-.91,1.15-.19,2.33-.37,3.49-.57l5-.83,8.58-1.47c0-.71,0-1.44,0-2.15a.67.67,0,0,0,.24,0S1760.47,3174.28,1760.48,3174.27Zm0,0q-.13-10.74-.21-21.49c0-2.37,0-4.77,0-7.14,0-.47,0-.93,0-1.39v-.7s0,0,0,0a.85.85,0,0,1-.25,0q-15.26,2.64-30.3,5-145.87,22.59-274,16.48h-.16c-2.22-.09-4.44-.21-6.65-.34,0,0,0,0,0,0a0,0,0,0,0,0,0q-240.69-12.93-416.67-128.09c-64.07-42-117.63-92.11-162.37-146l.46,1.2c.77,2,1.53,4,2.27,6,.9,2.39,1.78,4.8,2.64,7.21q1,2.79,2,5.62h0l0,0,0,0c1.55,2.47,3.1,4.84,4.63,7.16.49.77,1,1.53,1.49,2.28q1.32,2,2.64,4c5,7.51,9.63,14.06,13.57,19.5.82,1.13,1.6,2.21,2.38,3.25.4.54.78,1.06,1.15,1.59s.76,1,1.12,1.49c.72,1,1.43,1.9,2.08,2.77l1.5,2c.47.63.94,1.22,1.37,1.78.63.83,1.23,1.59,1.76,2.27l.51.64c1.79,2.27,2.78,3.46,2.78,3.46a850,850,0,0,0,109.72,104.75q6,3.81,12,7.49c1.82,1.13,3.65,2.24,5.51,3.33,1.54.93,3.1,1.86,4.66,2.78,1,.62,2.11,1.24,3.18,1.85,1.35.81,2.73,1.59,4.1,2.38,2,1.16,4,2.3,6.07,3.44s4.06,2.27,6.11,3.4c1.88,1,3.78,2.07,5.69,3.1.36.19.71.39,1.07.57,1.76.94,3.53,1.89,5.31,2.81,2.22,1.19,4.46,2.35,6.71,3.51,2.06,1.06,4.12,2.11,6.21,3.14s4.24,2.12,6.37,3.17c2,1,3.94,1.91,5.91,2.87q4.89,2.34,9.82,4.61l.57.27c1.07.51,2.13,1,3.2,1.48l1.52.69c.61.28,1.21.56,1.83.82,1.71.79,3.45,1.56,5.18,2.32l3,1.34c1.92.83,3.83,1.67,5.76,2.48l.86.37c1.41.61,2.8,1.19,4.22,1.78l5.66,2.35q4.5,1.85,9.06,3.65l1,.4q4,1.61,8.11,3.15l1.29.5c2.28.86,4.58,1.73,6.9,2.57s4.7,1.73,7.06,2.58c1.76.64,3.52,1.27,5.3,1.87.28.11.55.2.83.29,1,.36,2,.73,3.09,1.08,1.68.59,3.38,1.18,5.09,1.75q3.61,1.23,7.24,2.41c2.42.8,4.86,1.59,7.3,2.36s4.91,1.54,7.36,2.3c5,1.56,10.1,3,15.22,4.53l6.56,1.86c.63.18,1.28.35,1.93.52l.71.2q2.8.79,5.63,1.53l7.4,2,.41.09,2,.51c1.86.48,3.73,1,5.61,1.42q3.87,1,7.78,1.9,3.43.84,6.89,1.62c1.17.28,2.34.54,3.52.8l.58.14,1.5.34c2.84.63,5.69,1.27,8.55,1.87,1.34.29,2.7.59,4.06.86l.51.11c1.16.25,2.31.48,3.47.71a.06.06,0,0,0,.05,0l4,.82,1,.21,5.16,1,1.91.37,6.71,1.25,4.88.88c2.16.4,4.34.77,6.53,1.14,1.7.3,3.41.59,5.12.87,2.75.46,5.53.91,8.31,1.34s5.29.82,8,1.2l.78.13h.1c2.45.37,4.9.73,7.39,1.07l.46.06c2,.28,3.91.54,5.87.8l.77.11,3.81.49.13,0q2.27.3,4.53.57c3.78.48,7.6.93,11.41,1.36,2.73.31,5.46.62,8.21.89l6.41.65c1.85.19,3.72.36,5.58.54.2,0,.4,0,.61.06l.5.05c.41,0,.81.06,1.21.11l6.88.6c2.7.23,5.4.45,8.12.65q3.66.3,7.35.55l5.8.41,5.25.32q1.29.09,2.61.15l.34,0,6.09.34,1.59.09h.14a.72.72,0,0,1,.19,0l.28,0h.17l1.25.11.5.05,3.75.29,1.21.09h.06c.28,0,.56.05.85.07l1.53.1c.15,0,.29,0,.45,0l1.06.07c4.35.29,9.89.6,16.56.88.48,0,1,0,1.47.06,2,.07,4,.17,6.17.23l4.31.14c2.75.08,5.62.15,8.63.21l5.44.11c.34,0,.68,0,1,0h1.79c.32,0,.66,0,1,0l2.65,0c1.24,0,2.47,0,3.74,0s2.54,0,3.84,0c11.67,0,24.65-.08,38.85-.48l5.54-.17q6.65-.21,13.63-.51c3.07-.13,6.17-.28,9.34-.43q11.55-.55,23.89-1.39l4.47-.31c2.91-.2,5.82-.42,8.79-.65l3.08-.23,4.16-.34,6.43-.54q6.95-.59,14.08-1.28l7.18-.71,3.78-.39,5.4-.57c1.82-.18,3.64-.39,5.48-.6l3.55-.4,3.9-.45c1.25-.15,2.52-.29,3.77-.45q9.88-1.17,20.08-2.54l6.84-.93.6-.08,7.11-1,4.22-.61,6.42-1,1.6-.25,7.43-1.14c1.87-.29,3.73-.6,5.62-.91,1.15-.19,2.33-.37,3.49-.57l5-.83,8.58-1.47c0-.71,0-1.44,0-2.15a.67.67,0,0,0,.24,0S1760.47,3174.28,1760.48,3174.27Zm919.63-381.72q-13.37,7.83-27,15.58-141.87,80.65-314.18,154.5-139.89,59.91-269.26,102.22-146.37,47.88-279,73.18c-1.61.31-3.2.6-4.79.89q-12.87,2.43-25.6,4.63s0,0,0,0a.85.85,0,0,1-.25,0q-15.26,2.64-30.3,5-145.87,22.59-274,16.48h-.16c-2.22-.09-4.44-.21-6.65-.34,0,0,0,0,0,0a0,0,0,0,0,0,0q-240.69-12.93-416.67-128.09c-64.07-42-117.63-92.11-162.37-146l.46,1.2c.77,2,1.53,4,2.27,6,.9,2.39,1.78,4.8,2.64,7.21q1,2.79,2,5.62h0l0,0,0,0c1.55,2.47,3.1,4.84,4.63,7.16.49.77,1,1.53,1.49,2.28q1.32,2,2.64,4c5,7.51,9.63,14.06,13.57,19.5.82,1.13,1.6,2.21,2.38,3.25.4.54.78,1.06,1.15,1.59s.76,1,1.12,1.49c.72,1,1.43,1.9,2.08,2.77l1.5,2c.47.63.94,1.22,1.37,1.78.63.83,1.23,1.59,1.76,2.27l.51.64c1.79,2.27,2.78,3.46,2.78,3.46a850,850,0,0,0,109.72,104.75q6,3.81,12,7.49c1.82,1.13,3.65,2.24,5.51,3.33,1.54.93,3.1,1.86,4.66,2.78,1,.62,2.11,1.24,3.18,1.85,1.35.81,2.73,1.59,4.1,2.38,2,1.16,4,2.3,6.07,3.44s4.06,2.27,6.11,3.4c1.88,1,3.78,2.07,5.69,3.1.36.19.71.39,1.07.57,1.76.94,3.53,1.89,5.31,2.81,2.22,1.19,4.46,2.35,6.71,3.51,2.06,1.06,4.12,2.11,6.21,3.14s4.24,2.12,6.37,3.17c2,1,3.94,1.91,5.91,2.87q4.89,2.34,9.82,4.61l.57.27c1.07.51,2.13,1,3.2,1.48l1.52.69c.61.28,1.21.56,1.83.82,1.71.79,3.45,1.56,5.18,2.32l3,1.34c1.92.83,3.83,1.67,5.76,2.48l.86.37c1.41.61,2.8,1.19,4.22,1.78l5.66,2.35q4.5,1.85,9.06,3.65l1,.4q4,1.61,8.11,3.15l1.29.5c2.28.86,4.58,1.73,6.9,2.57s4.7,1.73,7.06,2.58c1.76.64,3.52,1.27,5.3,1.87.28.11.55.2.83.29,1,.36,2,.73,3.09,1.08,1.68.59,3.38,1.18,5.09,1.75q3.61,1.23,7.24,2.41c2.42.8,4.86,1.59,7.3,2.36s4.91,1.54,7.36,2.3c5,1.56,10.1,3,15.22,4.53l6.56,1.86c.63.18,1.28.35,1.93.52l.71.2q2.8.79,5.63,1.53l7.4,2,.41.09,2,.51c1.86.48,3.73,1,5.61,1.42q3.87,1,7.78,1.9,3.43.84,6.89,1.62c1.17.28,2.34.54,3.52.8l.58.14,1.5.34c2.84.63,5.69,1.27,8.55,1.87,1.34.29,2.7.59,4.06.86l.51.11c1.16.25,2.31.48,3.47.71a.06.06,0,0,0,.05,0l4,.82,1,.21,5.16,1,1.91.37,6.71,1.25,4.88.88c2.16.4,4.34.77,6.53,1.14,1.7.3,3.41.59,5.12.87,2.75.46,5.53.91,8.31,1.34s5.29.82,8,1.2l.78.13h.1c2.45.37,4.9.73,7.39,1.07l.46.06c2,.28,3.91.54,5.87.8l.77.11,3.81.49.13,0q2.27.3,4.53.57c3.78.48,7.6.93,11.41,1.36,2.73.31,5.46.62,8.21.89l6.41.65c1.85.19,3.72.36,5.58.54.2,0,.4,0,.61.06l.5.05c.41,0,.81.06,1.21.11l6.88.6c2.7.23,5.4.45,8.12.65q3.66.3,7.35.55l5.8.41,5.25.32q1.29.09,2.61.15l.34,0,6.09.34,1.59.09h.14a.72.72,0,0,1,.19,0l.28,0h.17l1.25.11.5.05,3.75.29,1.21.09h.06c.28,0,.56.05.85.07l1.53.1c.15,0,.29,0,.45,0l1.06.07c4.35.29,9.89.6,16.56.88.48,0,1,0,1.47.06,2,.07,4,.17,6.17.23l4.31.14c2.75.08,5.62.15,8.63.21l5.44.11c.34,0,.68,0,1,0h1.79c.32,0,.66,0,1,0l2.65,0c1.24,0,2.47,0,3.74,0s2.54,0,3.84,0c11.67,0,24.65-.08,38.85-.48l5.54-.17q6.65-.21,13.63-.51c3.07-.13,6.17-.28,9.34-.43q11.55-.55,23.89-1.39l4.47-.31c2.91-.2,5.82-.42,8.79-.65l3.08-.23,4.16-.34,6.43-.54q6.95-.59,14.08-1.28l7.18-.71,3.78-.39,5.4-.57c1.82-.18,3.64-.39,5.48-.6l3.55-.4,3.9-.45c1.25-.15,2.52-.29,3.77-.45q9.88-1.17,20.08-2.54l6.84-.93.6-.08,7.11-1,4.22-.61,6.42-1,1.6-.25,7.43-1.14c1.87-.29,3.73-.6,5.62-.91,1.15-.19,2.33-.37,3.49-.57l5-.83,8.58-1.47.24-.05c0-.71,0-1.43,0-2.14,0,0,0,0,0,0l7.6-1.3c.2,0,.38-.06.58-.11,1.63-.28,3.25-.55,4.87-.85l.54-.09,1-.18,8.23-1.5,5.43-1,.93-.17,1.32-.25q3.69-.68,7.4-1.39l3-.6c1.56-.3,3.11-.59,4.66-.9l2.86-.55c3.07-.61,6.16-1.22,9.25-1.86,1.83-.35,3.67-.74,5.51-1.12l1.11-.23c2.56-.51,5.14-1.05,7.73-1.59q5.07-1.07,10.19-2.18,3.2-.68,6.43-1.39l10.2-2.25.16-.05q3.54-.78,7.08-1.6l9-2.07c3-.7,6-1.41,9.07-2.13.82-.2,1.64-.43,2.46-.65l-.08.09q14.66-3.49,29.53-7.25l8.47-2.16c4.44-1.14,8.91-2.3,13.38-3.49l2.92-.77c2.44-.64,4.88-1.28,7.31-1.95s4.9-1.31,7.35-2q5.57-1.5,11.16-3l1.81-.51,5.88-1.64,4.27-1.2,6.87-2,6.88-2c4.6-1.33,9.22-2.69,13.85-4.05,3.46-1,6.91-2,10.39-3.1l1.45-.43q4.53-1.35,9.09-2.75l2.82-.86q5.14-1.56,10.31-3.18c2.67-.82,5.33-1.66,8-2.49l3.49-1.09,3.61-1.15c2.36-.75,4.74-1.49,7.11-2.27.91-.27,1.81-.57,2.72-.86l1.61-.52,2.9-.93,7.07-2.3c1.86-.6,3.72-1.2,5.58-1.82l4.7-1.55,3.67-1.21c1.23-.42,2.47-.82,3.69-1.24q5.6-1.85,11.23-3.77c2.43-.81,4.85-1.63,7.29-2.47s4.86-1.65,7.3-2.5c1-.34,2-.67,3-1q4.13-1.41,8.29-2.87l4-1.4c2.24-.78,4.49-1.56,6.73-2.37l3-1.06c.42-.16.85-.29,1.27-.45l.52-.18.45-.16,9.54-3.41c2.48-.89,5-1.77,7.45-2.69s5-1.79,7.46-2.7q15-5.43,30.11-11.14c2.52-.94,5.05-1.9,7.58-2.86q15.21-5.73,30.59-11.76c2.15-.83,4.31-1.68,6.47-2.53s4.18-1.63,6.28-2.47l6.3-2.48q17.57-7,35.4-14.28,4.38-1.78,8.79-3.61,7.42-3.06,14.91-6.19l5.81-2.42q13-5.47,26.13-11.09l.76-.32c3.77-1.6,7.52-3.23,11.25-4.85l4.19-1.8q7.46-3.24,14.83-6.48l9.26-4.08q6.55-2.89,13.06-5.8,18.46-8.27,36.48-16.56c3.12-1.44,6.24-2.87,9.34-4.33q12.35-5.73,24.48-11.48t24.06-11.51q9.7-4.71,19.28-9.42,15.21-7.47,30.07-15c3.3-1.66,6.59-3.35,9.86-5l7-3.57q8.26-4.26,16.4-8.5,4.8-2.51,9.56-5l.08,0,9.33-4.94,3.49-1.87q9.33-4.95,18.51-9.95,3.06-1.65,6.09-3.32,4.84-2.64,9.65-5.31t9.56-5.29l8.14-4.56,4.5-2.53,4.47-2.53,8.91-5.08c3.42-2,6.84-3.92,10.23-5.88,2-1.14,3.95-2.28,5.93-3.44,3.61-2.1,7.19-4.2,10.77-6.31Z"/><path class="cls-1" d="M215,3367.25c79.6,56.2,212.3,155.17,365.46,261.74,337.54,235,774.26,507,958.24,438.54,145.86-54.31,242.43-171.83,299.91-267.23,47.95-79.49,68.87-143.73,68.87-143.73-12.83-37.94-23.26-73.38-31.6-106.53-38.34-150.15-34.35-251.92-21.35-315.57,12.21-60.39,32.62-86.22,32.62-86.22-44.17,12-86.62,21.13-126.68,28.16-181,31.64-310.63,18.62-310.63,18.62L1397,3259.65,1330.47,3341,936,3130.87l-47.3-25.25S863.78,2847,757.94,2783.35c-105.64-63.72-135.47,108.19-135.47,108.19C454,2699.05,292.93,2734.73,191.14,2801.89a390.06,390.06,0,0,0-80,69.65C34.67,2960.2-39.62,3187.27,215,3367.25Z"/><path class="cls-4" d="M215.08,3367.27c79.54,56.13,212.26,155.09,365.41,261.78,259.24-106.37,338.2-321,355.53-498.17l-47.29-25.23S863.81,2847,758,2783.36s-135.55,108.25-135.55,108.25c-224.15-256.17-434.85-108.64-511.28-20S-39.64,3187.29,215.08,3367.27Z"/><g class="cls-10"><path class="cls-6" d="M215.08,3367.27c79.54,56.13,212.27,155.09,365.4,261.78,337.57,234.95,774.26,507,958.23,438.43,253.63-94.36,359.6-380.32,369.84-409.51a8.81,8.81,0,0,0,0-4.79c-.78-21.24-11.73-43.44-19.94-47.35-22-10.47-81.73,83.46-137.92,150.4,0,0-81.68,97.33-199.48,171.49C1338,4062,946.49,3770.91,322.33,3306.81c-45.77-34-132.79-100.58-165.8-215.5-34.44-119.86,7.29-231.75,34.6-289.46a389.51,389.51,0,0,0-80,69.73C34.73,2960.2-39.64,3187.29,215.08,3367.27Z"/></g><g class="cls-2"><path class="cls-3" d="M1397,3259.65c106.37,13.86,227.55,12.46,365.68-8.64,29.87-4.62,60.49-10.05,91.87-16.54,12.21-60.39,32.62-86.22,32.62-86.22-44.17,12-86.62,21.13-126.68,28.16-181,31.64-310.63,18.62-310.63,18.62Z"/></g><path class="cls-3" d="M1903.44,3655.31c-11.15,13.77-21.34,27.68-31.4,41.39s-19.75,27.4-29.38,41L1786,3818.26c-37.07,53.43-80.5,102.17-130.71,141.41a489.61,489.61,0,0,1-79.81,51.11,446.78,446.78,0,0,1-43,19.11l-5.49,2.09-1.36.51-1.13.37-2.25.76c-3,1-6.11,1.87-9.33,2.61a155.63,155.63,0,0,1-20.09,3.32c-28,2.7-59-.81-89.75-7.29s-61.93-16.13-92.67-27.22-61.24-23.93-91.45-37.66-60.17-28.4-89.86-43.77c-59.39-30.75-117.77-64.15-175.42-99-115.44-69.49-227.88-144.78-339.22-221.87-111.34-77.27-220.86-157-331.5-236.81Q262.12,3351,241,3336.22l-5.07-3.6-4.84-3.48c-3.26-2.29-6.41-4.69-9.57-7.08l-4.75-3.58-4.64-3.68c-3.11-2.45-6.2-4.9-9.2-7.45-24.25-20.09-46.29-42.24-64.89-66.47a317.74,317.74,0,0,1-25.12-37.8c-3.77-6.51-7.09-13.21-10.34-19.93-3.08-6.79-6.1-13.61-8.62-20.58a259.49,259.49,0,0,1-16.54-86.78,280.78,280.78,0,0,1,13-88.28c9-28.62,22.52-56.3,39.76-80,4.36-6,8.66-11.21,13.82-17s10.34-11.23,15.83-16.62a365.66,365.66,0,0,1,35-30.26c24.62-18.62,51.48-34,79.62-44.67s57.67-16.46,87.21-16.28A239.83,239.83,0,0,1,449,2800c28.24,11.07,55.22,26.94,80.32,46.13a463,463,0,0,1,36.38,31c11.73,11,23,22.53,34,34.53a30.64,30.64,0,0,0,52.68-14.68l0-.11.66-3.31.83-3.8c.59-2.55,1.22-5.13,1.9-7.7,1.35-5.15,2.86-10.28,4.5-15.31a212.18,212.18,0,0,1,11.64-28.76A114.87,114.87,0,0,1,687,2814.44a61.44,61.44,0,0,1,8.4-8.11,37.49,37.49,0,0,1,8.2-4.83c5.3-2.06,10.49-2.62,17.37-1.21a57.05,57.05,0,0,1,10.9,3.54,91.65,91.65,0,0,1,11.67,6.21c14.65,9.15,28.11,24.23,39.42,41.75s20.91,37.39,29.12,58a605.84,605.84,0,0,1,21,64.26c6,22,11,44.38,15.22,67q3.2,16.92,5.77,34,1.29,8.51,2.41,17l1.07,8.46.91,8.13.05.47a30.64,30.64,0,0,0,15.88,23.39l441.8,235.2a30.34,30.34,0,0,0,37.72-7.57l119.37-145.91-26.5,11,4,.35,3.69.29,7.25.49q7.2.42,14.34.74c9.52.42,19,.65,28.44.8q28.38.4,56.59-.48,56.46-1.79,112.52-8t111.49-16.62q55.39-10.52,109.93-25.17a30.32,30.32,0,1,0-15.79-58.55l-.07,0q-52.14,14.05-105.3,24.11c-35.41,6.63-71.08,12-106.9,15.93s-71.79,6.52-107.73,7.66q-27,.83-53.82.45c-9-.14-17.88-.36-26.75-.75-4.43-.2-8.85-.42-13.23-.69l-6.52-.44-6.08-.49-.57,0a30.62,30.62,0,0,0-25.93,11L1307,3321.71l37.72-7.56L903,3079l15.94,23.85-1.06-9.53-1.16-9.16q-1.2-9.14-2.58-18.18-2.76-18.1-6.13-36.09c-4.51-24-9.85-47.86-16.29-71.62a663.27,663.27,0,0,0-23.21-70.75c-9.3-23.34-20.23-46.49-34.64-68.74A236.38,236.38,0,0,0,809,2786.51a164.28,164.28,0,0,0-33.25-27.89A151.41,151.41,0,0,0,756,2748.19a117.28,117.28,0,0,0-22.87-7.32,93.19,93.19,0,0,0-26-1.74,88.78,88.78,0,0,0-26.37,6.21,98.47,98.47,0,0,0-22.4,13,122.28,122.28,0,0,0-17.21,16.45,174.5,174.5,0,0,0-23.45,36,272,272,0,0,0-15,37c-2,6.23-3.87,12.47-5.53,18.78-.82,3.16-1.61,6.33-2.34,9.55l-1.08,4.88-.51,2.52-.55,2.89,52.7-14.79c-23-27.07-48.21-52.81-76.55-75.71s-59.83-43-94.59-57.7a307.82,307.82,0,0,0-111.28-24.45c-38.52-1.11-77,5.66-112.73,18.33s-68.82,31-98.82,52.87a439.65,439.65,0,0,0-42.76,35.67q-10.12,9.6-19.69,20a285.15,285.15,0,0,0-18.65,22.29C47,2894,30,2928.09,18,2964.12A353.32,353.32,0,0,0,0,3076.66a337.64,337.64,0,0,0,20.26,112.93c3.19,9,6.93,17.84,10.81,26.57,4,8.63,8.21,17.21,12.87,25.48A386,386,0,0,0,74.84,3289c22.64,29.9,48.77,56.37,76.71,79.86,3.46,3,7,5.84,10.56,8.69l5.33,4.27,5.4,4.14c3.6,2.77,7.2,5.54,10.88,8.17l5.48,4,5.31,3.82,41.11,29.61,165.11,120q82.9,59.89,167.07,118.38,42.09,29.22,84.55,58t85.51,56.76c57.33,37.41,115.31,74,174.3,109.19s119.05,68.89,180.7,100.27,124.89,60.46,191.51,83.91c33.35,11.63,67.55,21.88,103.3,29.07,8.95,1.77,18,3.41,27.13,4.71s18.42,2.42,27.83,3.14,18.93,1.17,28.61,1.11a275.29,275.29,0,0,0,29.44-1.6,228.34,228.34,0,0,0,30.13-5.35c5-1.23,10.13-2.74,15.17-4.45l3.78-1.33,1.88-.67,1.62-.63,6.39-2.53a520.78,520.78,0,0,0,49.86-23,562.08,562.08,0,0,0,90.93-60,652.23,652.23,0,0,0,77.94-74.53,755.4,755.4,0,0,0,65.13-84.63,458.34,458.34,0,0,0,47.36-94.82,386,386,0,0,0,14.61-51.07c.9-4.36,1.82-8.7,2.51-13.11s1.44-8.8,2-13.25a193.35,193.35,0,0,0,1.7-27.08,4.58,4.58,0,0,0-8.11-2.82Z"/><path class="cls-4" d="M3400.35,3076.61v266c-.42,1.3-.84,2.58-1.27,3.86a.41.41,0,0,0,0,.08c-2.39,7.11-5,14.12-7.72,21-.58,1.47-1.19,2.92-1.79,4.37A358.63,358.63,0,0,1,3374,3404.5c-1.7,3.17-3.46,6.3-5.25,9.39-1,1.7-2,3.38-3,5.05a321.22,321.22,0,0,1-18.48,27.38c-24.74,32.92-55,59.67-89.5,78.07a235.36,235.36,0,0,1-54.9,21.09c-1.69.42-3.37.82-5.07,1.21q-5.67,1.28-11.45,2.27c-1.33.23-2.67.46-4,.66-159.64,24.74-314.31-118.17-345.46-319.2a462.08,462.08,0,0,1-5.34-83.33q.09-3.14.22-6.24c0-.46,0-.91.06-1.37,0-.85.08-1.7.12-2.55s.06-1.42.11-2.11c.08-1.36.16-2.72.25-4.08s.17-2.7.28-4.06c.06-1,.13-2,.23-3s.17-2.17.28-3.25c.12-1.53.26-3,.41-4.56.11-1.12.22-2.25.36-3.38.14-1.46.31-2.91.48-4.38.1-1,.23-2,.35-3,.31-2.41.62-4.8,1-7.2.15-1.08.31-2.14.46-3.21q.89-5.89,1.91-11.73c.24-1.29.47-2.59.71-3.89s.48-2.57.74-3.86c.21-1.05.42-2.09.64-3.13q1.34-6.57,2.88-13c.3-1.22.59-2.44.9-3.66q2.71-10.9,6-21.5c.43-1.4.88-2.81,1.33-4.21s.9-2.81,1.37-4.2c.4-1.21.81-2.42,1.22-3.63q1-2.77,2-5.54,1.26-3.45,2.55-6.85c1.1-2.87,2.22-5.71,3.4-8.54.46-1.14.94-2.28,1.42-3.42q5.85-13.84,12.68-26.91c4.46-8.5,9.23-16.76,14.28-24.71.65-1,1.3-2,2-3,.82-1.27,1.65-2.52,2.48-3.77,1.7-2.53,3.43-5.05,5.19-7.52l2.61-3.59q4.17-5.7,8.55-11.15l2.21-2.7c1-1.23,2-2.45,3.07-3.67.11-.12.21-.25.31-.37q1.62-1.9,3.27-3.75a5.48,5.48,0,0,1,.37-.43c1-1.15,2-2.27,3.06-3.38.3-.36.63-.7,1-1,1.13-1.23,2.29-2.47,3.46-3.69s2.08-2.16,3.12-3.22l1.71-1.72a1.49,1.49,0,0,1,.14-.12c1.05-1.06,2.11-2.11,3.2-3.15s2-1.9,3-2.84c.3-.26.58-.54.87-.8.62-.59,1.25-1.16,1.88-1.73,1.88-1.71,3.78-3.41,5.7-5.06.58-.5,1.17-1,1.76-1.5,1-.88,2-1.73,3.08-2.58,1.19-1,2.4-2,3.6-2.9l1.53-1.2c1.42-1.13,2.87-2.22,4.3-3.31s3-2.22,4.51-3.3,3-2.14,4.57-3.19,3-2.06,4.57-3.06c0,0,.06-.06.09-.06,1.54-1,3.1-2,4.66-3s3.17-1.95,4.76-2.89c.88-.53,1.74-1,2.62-1.53.4-.25.8-.48,1.22-.69l.49-.3c2-1.11,3.94-2.19,5.91-3.24h0c1.64-.86,3.27-1.71,4.91-2.51,1.28-.65,2.56-1.29,3.86-1.89,1.09-.54,2.22-1.06,3.33-1.57l.05,0,2.06-.94,3.48-1.53c.12-.06.26-.1.38-.17,1.38-.57,2.77-1.15,4.16-1.71,2.9-1.17,5.83-2.3,8.79-3.36a7.67,7.67,0,0,1,.76-.27c1.42-.51,2.84-1,4.27-1.48l.27-.09c1.46-.48,2.95-1,4.43-1.42s3.15-1,4.74-1.42a.66.66,0,0,1,.2-.06l4.56-1.27c3.2-.85,6.43-1.62,9.67-2.34s6.51-1.38,9.81-2c1.64-.29,3.31-.57,5-.83s3-.45,4.52-.65l.65-.09c1.25-.17,2.51-.33,3.76-.47h.13c1.39-.16,2.79-.31,4.18-.43.71-.08,1.42-.14,2.13-.19,1.07-.11,2.12-.18,3.18-.26l3.73-.25C3225.83,2811.37,3352.33,2919,3400.35,3076.61Z"/><g class="cls-5"><path class="cls-3" d="M2836.89,3230.41c-31.15-201,73-384.06,232.64-408.8a235.54,235.54,0,0,1,49-2.33c-113.86,62.46-180.45,216.09-154.72,382.1,27.94,180.34,155.3,313.82,296.46,321.55a237.19,237.19,0,0,1-77.92,26.7C3022.71,3574.37,2868,3431.45,2836.89,3230.41Z"/></g><path class="cls-3" d="M3400.35,3390.37V2994.1c-22.94-45.86-53-86.63-89.15-120-72.25-66.75-159.74-96.13-246.35-82.71a269.84,269.84,0,0,0-102.29,38.26,302.24,302.24,0,0,0-71.21,62.66,355.23,355.23,0,0,0-36.26,52.47l-.69,1.25q-8.08,14.3-15,29.37-7.08,15.51-12.88,31.72c-25.07,69.84-32.15,148.63-19.87,228,16.13,104,63.72,197.08,134,262,72.23,66.74,159.72,96.11,246.34,82.7a268.44,268.44,0,0,0,64.65-18.54q4.64-2,9.2-4.15h0c38.13-18,72.38-45.14,101.2-80.13a350.59,350.59,0,0,0,29.2-41.26q2.8-4.59,5.48-9.31c1.21-2.13,2.39-4.26,3.57-6.42v-27.61c.23-.25.49-.49.74-.76C3400.84,3391.23,3400.59,3390.8,3400.35,3390.37ZM3371,3334.09c-.46,1.47-.94,2.92-1.45,4.35q-4.35,12.76-9.65,25-2,4.71-4.19,9.31-5.57,12-12.09,23.45-5.58,9.81-11.68,18.93-3.43,5.13-7,10-6.48,8.89-13.49,17a240,240,0,0,1-58,49.56,210.51,210.51,0,0,1-48.68,21.56,202.73,202.73,0,0,1-27.09,6.1c-142.74,22.11-282.05-109.64-310.57-293.69a434.45,434.45,0,0,1-5.19-66.68,398.36,398.36,0,0,1,11.9-97.67q4.46-17.6,10.54-34.42a339,339,0,0,1,13.17-31.43q5-10.49,10.71-20.51a291.64,291.64,0,0,1,31.87-45.58c19.08-22.3,40.84-40.33,64.63-53.58.41-.25.83-.48,1.25-.7q2.66-1.48,5.37-2.86l.15-.07q4.85-2.51,9.77-4.69c1.1-.51,2.21-1,3.32-1.47a205.43,205.43,0,0,1,47.25-13.86c.78-.14,1.59-.26,2.37-.39,67.81-10.51,137.23,13.35,195.48,67.19,60.21,55.63,101.08,136.06,115.1,226.5,8.12,52.4,6.62,104.32-3.95,152.59A365.26,365.26,0,0,1,3371,3334.09Z"/><path d="M2216.11,1469.46c88.28-59.57,221.82-16,298.28,97.31s66.89,253.45-21.39,313-221.82,16-298.28-97.31S2127.84,1529,2216.11,1469.46Z"/><path class="cls-9" d="M2249.26,1516.31c35.37-5.26,69.73,28.71,76.74,75.88s-16,89.66-51.35,94.92-69.74-28.71-76.75-75.88S2213.88,1521.57,2249.26,1516.31Z"/><g class="cls-2"><path class="cls-3" d="M2485.38,1720.36c18.88,1.55,32.51,23.21,30.44,48.38s-19,44.32-37.91,42.77-32.51-23.2-30.44-48.37S2466.5,1718.82,2485.38,1720.36Z"/></g><path d="M1342.67,1843.66c-104,22.81-164.61,149.55-135.32,283.07S1344.7,2350,1448.72,2327.18s164.61-149.55,135.32-283.07S1446.69,1820.84,1342.67,1843.66Z"/><path class="cls-9" d="M1353.72,1900c-28.21,22-27.32,70.29,2,107.91s75.94,50.28,104.15,28.3,27.32-70.29-2-107.91S1381.93,1878,1353.72,1900Z"/><g class="cls-2"><path class="cls-3" d="M1338.56,2211.68c-11.9,14.73-5.63,39.54,14,55.41s45.21,16.79,57.12,2.06,5.62-39.54-14-55.41S1350.46,2197,1338.56,2211.68Z"/></g><path class="cls-3" d="M2455.77,1319.16c6.67-14.07-107-125.16-242.15-114.9-164,12.45-265.87,196.54-255.85,207.35,8.76,9.45,99-117.49,258-136.26C2351,1259.4,2449.8,1331.75,2455.77,1319.16Z"/><path class="cls-3" d="M1056.2,1918.76c-14.79-4.88-16.79-163.82,83.86-254.57,122.16-110.16,325.7-56.9,326.62-42.18.8,12.85-153.33-9.41-276.64,92.79C1085.24,1801.66,1069.43,1923.12,1056.2,1918.76Z"/><g class="cls-11"><path class="cls-1" d="M720.7,1631.41c30.18-61.57,84.75-161.8,162.3-261.2a31.34,31.34,0,0,0-2.36-41.15c-50.5-51.78-222.77-147.35-292.62-143.45-103.74,5.81,18.19,318.43,75.9,445C674.93,1654.76,709,1655.24,720.7,1631.41Z"/></g><g class="cls-11"><path class="cls-1" d="M2505.45,866.79c-65.39-20.62-175.59-50.26-301-62.69a31.35,31.35,0,0,1-28.17-30.1c-2.65-72.27,47-262.92,98-310.79,75.77-71.11,218,232.83,269.8,361.93C2553.94,849.77,2530.76,874.78,2505.45,866.79Z"/></g><path class="cls-12" d="M803.42,2866.05s-68.09-66.86-108.46-5-24.75,132.36-69,111c-21.17-10.2-91.35-114.41-154.85-149.31-69.36-38.12-145.71-43.9-145.71-43.9s73.38-64.87,141.27-18.5,115,159.48,153.87,91C671.85,2760.92,785,2767.88,803.42,2866.05Z"/></svg>