<?xml version="1.0" encoding="utf-8"?>
<!-- Generator: Adobe Illustrator 25.3.1, SVG Export Plug-In . SVG Version: 6.00 Build 0)  -->
<svg version="1.1" xmlns="http://www.w3.org/2000/svg" xmlns:xlink="http://www.w3.org/1999/xlink" x="0px" y="0px"
	 viewBox="0 0 859.94 766.44" style="enable-background:new 0 0 859.94 766.44;" xml:space="preserve">
<style type="text/css">
	.st0{display:none;}
	.st1{display:inline;}
	.st2{fill:#623D5A;}
	.st3{fill:#FFFFFF;}
</style>
<g id="Layer_1_copy_3" class="st0">
	<g class="st1">
		<path class="st2" d="M-246.58,772.13h-498.11c-99.62,0-181.13-81.51-181.13-181.13V187.57c0-99.62,81.51-181.13,181.13-181.13
			h498.11c99.62,0,181.13,81.51,181.13,181.13V591C-65.45,690.62-146.96,772.13-246.58,772.13z"/>
	</g>
	<g class="st1">
		<g>
			<path class="st3" d="M-583.79,372.36c-2.66-10.11-0.54-19.15,6.79-26.57c17.99-18.21,36.16-36.25,54.27-54.35
				c28.39-28.39,56.76-56.8,85.22-85.11c1.89-1.88,1.41-2.73-0.17-4.27c-4.06-3.98-4.47-7.75-1.48-11c2.91-3.15,7.09-3.31,10.3-0.18
				c4.49,4.37,8.85,8.86,13.27,13.3c0.99,2.6-0.48,3.53-2.68,3.96c-1.68-0.08-2.66-1.29-3.73-2.35c-3.14-3.11-6.22-6.28-9.4-9.35
				c-0.9-0.87-1.92-2.81-3.34-1.27c-1.22,1.33,0.4,2.54,1.33,3.5c3.07,3.18,6.25,6.25,9.35,9.4c0.96,0.98,2.17,1.83,2.31,3.39
				c-0.53,1.85-1.71,3.05-3.57,3.55c-2.33-0.45-3.5-2.44-4.98-3.94c-1.51-1.53-2.65-1.83-4.28-0.14
				c-4.13,4.28-8.33,8.48-12.61,12.61c-1.51,1.46-1.18,2.41,0.14,3.71c5.47,5.38,10.87,10.83,16.3,16.26
				c0.61,0.61,1.24,1.2,1.82,1.85c1.96,2.22,2.16,4.55,0.42,5.99c-2.12,1.76-3.8,0.57-5.36-0.98c-5.82-5.79-11.61-11.62-17.44-17.42
				c-2.54-2.52-2.69-2.51-5.18-0.07c-1.93,1.9-3.79,3.85-5.75,5.72c-1.2,1.15-1.18,2.13-0.01,3.28c2.31,2.28,4.62,4.55,6.86,6.89
				c1.2,1.26,1.82,2.7,1.21,4.43c-0.85,2.39-3.38,2.95-5.52,1.09c-2.45-2.12-4.7-4.47-6.91-6.84c-1.66-1.78-2.97-1.68-4.55,0.05
				c-1.82,1.99-3.74,3.91-5.73,5.73c-1.78,1.62-1.67,2.91,0.02,4.56c5.57,5.44,11.03,10.98,16.53,16.49
				c0.69,0.69,1.39,1.36,2.01,2.11c1.25,1.52,1.59,3.13,0.11,4.65c-1.47,1.51-3.09,1.28-4.63,0c-0.75-0.62-1.4-1.35-2.11-2.02
				c-5.47-5.22-10.65-10.73-16.05-16.03c-0.97-0.96-1.99-2.46-3.53-1.62c-1.88,1.03-3.58,2.5-4.35,4.6
				c-0.38,1.03,0.57,1.83,1.3,2.44c5.01,4.14,8.96,9.35,13.74,13.72c7.34,6.71,13.93,7.22,22.36,1.94
				c4.13-2.59,7.91-5.66,11.93-8.39c4.97-3.37,10.26-5.59,16.44-4.52c1.47,0.26,2.47-0.42,3.43-1.38c7.34-7.34,14.65-14.7,22.03-22
				c1.49-1.48,1.54-2.66-0.01-4.05c-0.8-0.72-1.52-1.55-1.64-2.72c0.4-2.27,1.62-3.59,4.06-3.51c3.62,2.25,6.03,5.8,9.2,8.54
				c1.21,1.05,2.63,3.46,4.13,1.85c1.63-1.75-0.93-3.07-2.1-4.29c-2.8-2.94-6.31-5.23-8.21-9c0.01-2.07,0.7-3.57,3.06-3.69
				c4.52,3.69,8.51,7.93,12.41,12.23c2.07,2.28,1.77,6.03-0.16,8.38c-2.29,2.79-5.68,3.59-8.72,2.06c-0.48-0.24-0.91-0.58-1.37-0.86
				c-1.59-0.98-2.38-3.8-4.36-3.23c-1.64,0.47-2.84,2.52-4.22,3.9c-45.47,45.46-90.92,90.92-136.4,136.36
				c-6.6,6.6-14.51,9.5-23.87,7.88c-0.22-0.42-0.12-0.82,0.07-1.22c2.46-5.04,2.44-5.2-1.48-9.13c-1.82-1.83-3.67-3.63-5.47-5.48
				c-2.9-2.98-5.64-6.18-10.05-6.98c1.85-2.48,4.17-1.41,6.31-0.68c1.53,0.53,2.75,1.71,3.85,2.91c1.69,1.84,3.31,3.52,6.09,3.86
				c2.09,0.26,5.23,6.39,5.27,9.42c0.01,0.43-0.07,0.86-0.1,1.29c-0.09,1.44-0.03,3.01,1.11,3.91c1.33,1.04,2.33-0.51,3.43-1.03
				c2.25-1.06,4.41-2.22,5.95-4.32c0.7-0.95,1.91-1.49,3.05-1.76c2.51-0.6,4.19-1.47,4.16-4.62c-0.02-2.19,2.36-2.6,4.13-2.97
				c1.94-0.4,3.1-1.01,2.88-3.36c-0.25-2.64,2.05-3.44,3.95-4.03c2.31-0.72,3.72-1.69,3.86-4.37c0.12-2.26,2.26-2.76,4.04-3.11
				c2.08-0.41,3.26-1.1,3.09-3.57c-0.17-2.62,2.2-3.33,4.09-3.93c2.18-0.7,3.58-1.61,3.66-4.16c0.06-2.12,1.93-2.74,3.63-3.15
				c2.17-0.52,3.7-1.14,3.6-3.98c-0.09-2.52,2.44-3.09,4.32-3.75c1.71-0.6,2.77-1.22,2.75-3.32c-0.03-2.57,2.16-3.32,4.16-3.84
				c2.09-0.55,3.54-1.41,3.55-3.87c0.01-2.14,2.06-2.84,3.77-4.33c-3.08-0.41-4.57-2.72-6.86-3.85c-1.42-0.7-1.83-2.33-2.27-3.8
				c-0.66-2.21-1.89-3.39-4.33-2.39c-2.23,0.92-4.25,0.43-6.08-1c-1.77-1.39-3.09-0.91-4.39,0.74c-1.73,2.2-3.4,4.46-5.57,6.31
				c-1.48,1.26-1.26,3.11-1.32,4.84c-0.16,4.13-1,4.75-4.93,3.72c-0.8-0.21-1.73-0.81-2.34,0.16c-0.57,0.92,0.25,1.61,0.76,2.28
				c1.81,2.4,1.69,4.86-0.01,7.19c-1.74,2.39-3.99,4.22-7.17,3.14c-4.42-1.5-7.49,0.27-10.09,3.61c-0.67,0.86-1.53,1.52-2.37,2.2
				c-2.51,2.01-3.82,4.44-3.75,7.82c0.08,4.13-1.45,4.93-5.24,3.11c-0.83-0.4-1.56-0.48-2.47-0.35c-2.2,0.3-2.88-0.67-1.96-2.79
				c1.03-2.36,3.15-3.77,4.94-5.49c3.71-3.58,7.15-7.42,10.76-11.1c1.19-1.21,1.69-2.9,0.41-4.42c-1.34-1.58-2.98-2.49-5.15-1.45
				c-2.35,1.13-4.7,2.14-5.66,4.95c-0.55,1.6-1.83,2.77-3.71,2.59c-1.31-0.13-2.06-1.13-2.35-2.39c-0.44-1.91,0.07-3.55,1.94-4.31
				c3.47-1.42,3.18-5.15,4.79-7.7c0.79-1.24-2.03-3.2-3.9-2.46c-2.4,0.95-4.22,2.21-5.93,4.73c-2.74,4.01-6.55,7.54-10.28,10.84
				c-1.45,1.28-3.7,1.51-3.79,4.11c-0.04,1.1-1.18,1.44-2.01,1.93c-2.3,1.37-4.13,2.94-4.29,6c-0.14,2.62-2.29,2.82-4.36,2.64
				c-4.23-0.39-4.52-0.01-2.93,4.07c3.48-1.97,5.59-1.94,6.78,0.07c1.1,1.86,0.16,3.27-3.62,5.42c-0.57,0.32-1.12,0.65-1.61,1.09
				c-2.06,1.86-1.9,2.7,0.72,3.73c1.99,0.78,4.21,1.23,5.17,3.53c-0.29,0.51-0.76,0.76-1.3,0.88
				C-576.66,376.87-582.34,374.62-583.79,372.36z"/>
			<path class="st3" d="M-402.12,203.48c7.68-7.74,15.29-15.57,23.09-23.18c2.31-2.25,2.36-3.77-0.04-5.85
				c-2.44-2.12-4.64-4.52-6.9-6.85c-2.78-2.87-2.99-6.42-0.61-8.98c2.34-2.52,6.47-2.58,9.26,0.18
				c10.68,10.56,21.29,21.18,31.87,31.83c2.59,2.61,2.61,6.68,0.28,9.06c-2.43,2.49-6.16,2.42-9-0.29
				c-2.66-2.53-5.31-5.09-7.76-7.82c-1.59-1.78-2.56-1.83-4.31-0.05c-7.25,7.4-14.69,14.62-22.05,21.91
				c-1.98,0.31-2.74-1.4-3.89-2.41c-2.84-2.49-4.88-6.11-9.28-6.34C-401.97,204.66-402.34,204.13-402.12,203.48z"/>
			<path class="st3" d="M-589.6,392.49c-3.22-3.48-3.22-5.8,0-9.18c2.3-2.41,4.63-4.8,6.95-7.2c4.7,0.21,9.35,1.05,14.06,1.19
				c4.85,4.14,9.65,8.39,13.01,13.86c1.63,2.65-0.7,5.69-3.89,5.54c-0.73-0.03-1.52,0.21-2.18-0.34c-1.68-0.65-2.6,0.64-3.58,1.53
				c-1.99,1.8-3.84,3.77-5.81,5.59c-1.57,1.44-3.32,2.44-5.54,1.33c-1.89-1.73,0.17-2.37,0.98-3.2c3.93-4.06,3.62-9.23-0.82-12.49
				c-3.31-2.43-7.53-1.67-10.55,1.84C-587.66,391.73-587.93,393.34-589.6,392.49z"/>
			<path class="st3" d="M-595.45,413.81c-12.68,11.51-25.36,23.01-38.04,34.53c-2.07,1.88-4.11,3.81-6.17,5.72
				c-0.46,0.41-0.91,0.39-1.28-0.08c-0.29-0.37-0.15-0.74,0.15-1.06c13.42-14.73,26.83-29.46,40.25-44.19
				C-597.61,408.67-595.39,410.89-595.45,413.81z"/>
			<path class="st3" d="M-413.01,206.83c0.18,0.11,0.38,0.18,0.53,0.32c3.17,3.09,3.17,3.09,6.44,0.27
				c6.43-2.68,6.76-2.68,11.65,2.4c1.55,1.61,3.99,2.67,4.03,5.43c-1.27,1.42-2.49,2.89-3.82,4.25c-2.97,3.05-2.99,3.02,0.01,6.07
				c0.32,2.88-2.06,2.63-3.72,3.23c-2.03-0.42-3.19-1.82-4.03-3.58c-0.38-5.4-4.02-7.54-8.69-8.63c-2.55-1.73-4.95-3.6-6.19-6.57
				C-416.38,207.96-415.1,206.91-413.01,206.83z"/>
			<path class="st3" d="M-589.6,392.49c1.13-0.01,1.16-1.05,1.64-1.7c2.14-2.87,5.17-4.5,8.6-3.93c3.4,0.56,6.03,2.8,7.01,6.35
				c1.01,3.66-0.08,6.77-2.96,9.22c-0.76,0.64-2.14,0.87-1.29,2.36c-0.39-0.13-0.97-0.14-1.15-0.41c-2.37-3.48-4.76-2.92-7.22-0.13
				c-2.65-1.57-3.6-4.5-5.45-6.72C-589.64,395.93-586.81,394.66-589.6,392.49z"/>
			<path class="st3" d="M-561.65,396.35c1.66-0.1,3.41,0.42,4.78-1.21c1.31-1.56,1.52-2.95,0.2-4.58
				c-3.47-4.27-7.57-7.93-11.34-11.91c-1.02-1.08-2.27-1.44-3.52-1.08c-3.18,0.91-6.1,0.75-8.91-1.13
				c-0.56-0.37-1.47-0.23-2.21-0.32c-0.31-1.27-1.44-2.29-1.14-3.75c3.56,1.49,6.81,4.34,11.12,2.59l-0.02,0.01
				c2.81-0.44,4.97,0.58,6.91,2.65c2.95,3.15,6.1,6.12,9.16,9.17c4.64,4.61,4.73,5.85,0.79,10.88
				C-557.85,397.6-559.88,397.53-561.65,396.35z"/>
			<path class="st3" d="M-590.41,397.54c0.31-0.04,0.87-0.16,0.89-0.09c0.96,2.65,3.65,4.14,4.55,6.81
				c-2.58,2.37-5.16,4.74-7.73,7.11c-3.12-0.02-5.37-2.28-5.39-5.39C-595.53,403.16-592.97,400.35-590.41,397.54z"/>
			<path class="st3" d="M-390.35,215.26c-2.44-2.53-4.85-5.08-7.32-7.57c-1.2-1.21-2.57-1.71-4.34-0.92
				c-1.23,0.55-2.59,1.04-4.03,0.66c1.24-1.38,2.26-2.98,3.92-3.95c6.54,0.65,9.22,6.66,13.85,9.96
				C-388.79,214.24-389.25,215.12-390.35,215.26z"/>
			<path class="st3" d="M-398.08,228.26c1.51-0.6,3.26-0.84,3.92-2.67c1.74,1.72,3.7,3.23,5.01,5.36c-1.3,0.94-2.73,1.8-2.45,3.77
				C-394.95,233.75-397.07,231.56-398.08,228.26z"/>
			<path class="st3" d="M-598.09,405.98c1.05,2.55,2.84,4.35,5.39,5.39c-0.92,0.81-1.84,1.63-2.75,2.44
				c-0.89-2.5-2.61-4.17-5.09-5.09C-599.72,407.81-598.9,406.89-598.09,405.98z"/>
			<path class="st3" d="M-640.79,452.91c0,0.76,0.36,1.16,1.13,1.15c-2.36,2.77-5.21,5-8.17,7.14
				C-645.92,458.05-643.49,455.37-640.79,452.91z"/>
			<path class="st3" d="M-413.01,206.83c-1.26,0.9-2.73,1.61-3.27,3.24c-1.81,0.08-2.73-0.72-2.55-2.6c2.23,0.03,3.21-1.16,3.23-3.3
				C-414.73,205.06-413.87,205.95-413.01,206.83z"/>
			<path class="st3" d="M-572.67,374.96c-2.47-1.02-4.92-2.11-7.43-3.02c-1.31-0.47-1.8-0.78-0.83-2.19
				c1.13-1.65,2.3-3.17,4.26-3.77c1.67-0.51,2.99-1.38,3.19-3.19c0.1-0.91-0.74-1.57-1.56-1.89c-1.8-0.71-3.12,0.13-4.22,1.5
				c-0.32,0.39-0.66,0.77-1.31,1.53c-0.47-1.82-0.98-3.22-1.17-4.66c-0.43-3.33,0.33-3.86,3.56-2.71c3.1,1.11,4.58,0.01,4.73-3.2
				c0.14-2.83,2.56-4,4.6-5.24c1.16-0.7,2.1-0.85,1.68-2.75c-0.35-1.57,1.28-2.62,2.9-2.84c2.72-0.37,4.25-1.83,4.57-4.56
				c0.19-1.64,1.21-2.25,2.75-2.69c2.36-0.67,4.19-2.07,4.39-4.83c0.03-0.42,0.07-0.89,0.26-1.25c0.8-1.54,6.97-3.47,8.52-2.69
				c2.89,1.44,3.17,2.75,1.05,5.29c-0.44,0.53-0.81,1.06-0.73,1.73c0.28,2.41-1.18,3.5-3.08,4.37c-0.85,0.39-1.92,0.63-2.08,1.82
				c-0.19,1.45-0.2,3.04,1.35,3.65c1.56,0.62,2.92-0.42,3.21-1.85c0.68-3.28,3.24-4.31,5.78-5.52c2.74-1.31,5.33-0.78,6.94,1.7
				c1.54,2.37,0.47,4.41-1.36,5.99c-4.49,3.89-7.92,8.84-12.63,12.52c-1.57,1.23-3.24,2.82-2.73,5.84c1.96-2.23,3.4-1.77,5.14-0.03
				c1.44,1.43,3.48,0.48,3.24-1.56c-0.61-5.24,1.77-8.61,5.91-11.27c1.35-0.87,1.81-2.54,3.3-3.66c2.94-2.21,5.5-1.64,8.4-0.75
				c3.21,0.98,4.88-1.27,6.31-3.37c1.37-2.02,1.49-4.33-0.67-6.1c-1.22-1-1.4-2.22-0.81-3.46c0.79-1.67,2.14-0.52,3.1-0.2
				c4.39,1.46,4.46,1.5,4.39-3.2c-0.04-2.53,0.47-4.46,2.77-6.08c1.78-1.25,3.06-3.3,4.35-5.15c1.61-2.32,3.19-3.06,5.47-0.82
				c1.61,1.58,3.56,1.96,5.64,0.79c2.68-1.5,4.19-0.06,4.9,2.28c0.74,2.45,1.09,4.99,4.47,4.92c0.25,3.15,4.4,1.53,5.15,4.26
				c-2.39,1.25-4.76,2.45-4.26,5.93c0.24,1.66-1.46,1.76-2.72,2.13c-2.71,0.81-6.11,1-4.64,5.55c0.46,1.4-1.17,1.46-2.25,1.55
				c-1.57,0.14-2.83,1.04-4.14,1.76c-1.88,1.03-0.91,2.57-0.59,4c0.23,1.03-0.53,1.27-1.29,1.49c-1.24,0.35-2.46,0.8-3.72,1.07
				c-1.85,0.4-2.88,1.3-2.64,3.35c0.24,2.03-0.41,3.06-2.76,3.37c-3.75,0.49-4.66,1.88-4.51,5.56c0.07,1.72-1.2,1.93-2.34,2.06
				c-3.25,0.39-6,1.06-5.39,5.39c0.18,1.3-1.01,1.6-2.19,1.83c-4.34,0.86-4.93,1.56-4.98,5.79c-0.02,1.34-0.98,1.57-1.87,1.85
				c-0.92,0.28-1.89,0.4-2.84,0.56c-2.33,0.38-3.48,1.64-2.87,4.05c0.46,1.85-0.23,2.49-2.07,2.69c-2.74,0.29-4.71,1.72-6.7,3.86
				c-2,2.16-5.23,3.19-7.94,4.67c-0.77,0.42-1.31-0.1-1.45-0.78c-0.34-1.74-1.57-3.25-0.9-5.28c0.56-1.71-0.17-3.45-1.35-4.77
				c-0.61-0.68-1.07-1.23-1.13-2.18c-0.11-1.81-1.22-2.81-2.99-2.67c-2,0.16-3.03-0.8-4.21-2.28c-3.83-4.81-6.73-5.81-10.94-4.23
				C-572.69,374.96-572.67,374.96-572.67,374.96z"/>
			<path class="st3" d="M-418.82,207.48c0.85,0.87,1.7,1.73,2.55,2.6c1.95,1.95,3.9,3.9,5.85,5.85c3.51,2.52,6.55,5.51,9.13,8.99
				c1.07,1.11,2.15,2.23,3.22,3.34c2.16,2.15,4.32,4.3,6.48,6.45c3.25,3.28,6.49,6.57,9.74,9.83c1.2,1.21,2.4,2.64,1,4.16
				c-1.6,1.75-3.07,0.41-4.35-0.87c-3.27-3.26-6.55-6.51-9.83-9.76c-3.03-1.21-4.92-3.68-6.84-6.14
				c-5.03-4.16-9.36-9.05-14.05-13.57c-0.71-0.74-1.44-1.46-2.06-2.29c-0.85-2.02-3.67-2.41-4.02-4.85
				c-4.16-4.23-8.32-8.48-12.49-12.7c-1.27-1.29-2.68-2.7-0.92-4.37c1.57-1.49,2.95-0.21,4.16,0.99
				C-427.12,199.27-422.97,203.37-418.82,207.48z"/>
			<path class="st3" d="M-528.75,308.95c2.75-0.09,5.1,2.77,5.41,6.28c0.15,1.71-1.03,4.11,2.11,4.55c5.53,0.78,7.04,0.2,8.21-3.48
				c0.58-1.83,1.2-3.63,1.42-5.6c0.37-3.37,4.56-4.85,7.18-2.73c3.39,2.73,3.76,4.08,1.97,6.97c-0.34,0.54-0.6,1.4-1.32,1.18
				c-2.94-0.88-3.53,1.39-4.81,3.12c-1.59,2.15-3.6,4.01-5.54,5.86c-1.88,1.79-4.62,2.82-4.67,6.12c-0.01,0.56-1.27,1.53-2.34,1.38
				c-1.24-0.17-0.93-1.29-0.91-2.09c0.06-2.23-0.85-3.5-3.03-4.34c-3.36-1.29-4.27-3.53-3.55-7.23c0.42-2.18-0.19-3.95-1.91-5.48
				c-0.83-0.74-1.62-1.88-0.96-3.17C-530.93,309.2-529.63,309.39-528.75,308.95z"/>
			<g>
				<path class="st2" d="M-487.72,308.84c0.03,1.23-0.68,2.03-1.66,2.58c-1.24,0.7-2.29,0.19-3.19-0.71c-2.67-2.66-5.34-5.34-8.01-8
					c-3.97-3.97-7.86-8.03-11.95-11.87c-1.63-1.53-0.79-2.28,0.36-3.28c1.06-0.92,1.69-2.59,3.54-0.68
					c6.31,6.52,12.79,12.88,19.19,19.32C-488.69,306.95-487.8,307.63-487.72,308.84z"/>
			</g>
			<g>
				<path class="st2" d="M-540.06,315.92c0.41,0.36,0.82,0.69,1.2,1.06c6.57,6.58,13.12,13.17,19.69,19.75
					c1.34,1.34,1.86,2.74,0.35,4.19c-1.56,1.49-2.92,0.66-4.19-0.62c-6.49-6.51-13-12.99-19.48-19.51c-0.53-0.54-1.7-1.05-0.71-2.05
					C-542.23,317.79-541.52,316.51-540.06,315.92z"/>
			</g>
			<path class="st3" d="M-521.44,301.47c0.27-3.61,6.36-8.18,9.69-7.52c0.3,0.06,0.59,0.25,0.85,0.42c2.05,1.28,3.77,8.9,2.54,10.96
				c-0.64,1.07-1.1,1.6-2.49,0.77c-2.29-1.37-4.31-3.61-7.66-2.25C-519.48,304.24-521.99,303.78-521.44,301.47z"/>
			<path class="st3" d="M-484.48,282.21c-0.12,2.25-2.48,3.55-4.06,2.16c-3.32-2.91-6.35-6.15-9.5-9.26
				c-0.98-0.97-0.13-1.64,0.53-2.08c0.97-0.64,1.61-2.92,2.95-1.71c3.44,3.09,6.55,6.57,9.75,9.92
				C-484.54,281.52-484.53,282.03-484.48,282.21z"/>
			<g>
				<path class="st2" d="M-514.64,312.2c0,1.2-0.41,2.02-1.36,2.52c-0.96,0.5-1.96,0.45-2.7-0.27c-3.16-3.06-6.26-6.19-9.38-9.3
					c-0.98-0.98-0.13-1.68,0.53-2.05c1.03-0.57,1.52-2.98,2.87-1.79c3.45,3.04,6.54,6.49,9.74,9.81
					C-514.69,311.38-514.71,311.92-514.64,312.2z"/>
			</g>
			<path class="st3" d="M-401.4,231.56c2.12,2.17,4.25,4.34,6.37,6.52c-2.28-0.07-3.27,1.36-3.82,3.3c-1.95-1.96-3.9-3.93-5.85-5.89
				c0.5-1.61,1.91-2.5,2.91-3.72C-401.66,231.69-401.53,231.63-401.4,231.56z"/>
			<path class="st3" d="M-422,211.24c1.63,1.43,3.5,2.63,4.63,4.58c-1.97-0.02-4.09-0.54-5.47,1.54c-0.87-0.88-1.74-1.77-2.61-2.65
				C-423.95,213.91-422.89,212.65-422,211.24z"/>
			<path class="st3" d="M-533.89,315.34c-0.5,0.95-0.59,2.4-1.96,2.21c-1.17-0.16-1.62-1.42-1.56-2.48
				c0.05-0.96,0.69-1.95,1.78-1.98C-534.21,313.05-534.29,314.43-533.89,315.34z"/>
			<path class="st3" d="M-401.3,224.92c-3.04-3-6.08-5.99-9.13-8.99C-403.64,217.73-401.66,219.68-401.3,224.92z"/>
			<path class="st3" d="M-415.51,217.73c4.7,4.61,9.4,9.22,14.1,13.83l-0.22,0.21c-1.82,0.17-3.51,0.71-5,1.81
				c-4.12-4.13-8.24-8.25-12.36-12.38C-417.96,219.9-417.22,218.33-415.51,217.73z"/>
			<path class="st3" d="M-415.51,217.73c-1.09,1.23-1.33,3.3-3.47,3.47c-1.29-1.28-2.58-2.56-3.87-3.84
				c1.43-3.64,1.87-3.77,5.47-1.54C-416.75,216.46-416.13,217.09-415.51,217.73z"/>
			<path class="st3" d="M-406.62,233.58c1.12-2.13,2.57-3.32,5-1.81c-0.13,1.99-1.77,2.71-3.08,3.72
				C-405.34,234.85-405.98,234.21-406.62,233.58z"/>
		</g>
		<g>
			<path class="st3" d="M-647.88,503.74v43.45h-8.71V528.7h-18.61v18.49h-8.71v-43.45h8.71v17.86h18.61v-17.86H-647.88z"/>
			<path class="st3" d="M-607.49,532.56h-25.21c0.21,2.49,1.08,4.44,2.61,5.85c1.53,1.41,3.42,2.12,5.66,2.12
				c3.24,0,5.54-1.39,6.91-4.17h9.4c-1,3.32-2.91,6.05-5.73,8.18c-2.82,2.14-6.29,3.21-10.39,3.21c-3.32,0-6.3-0.74-8.93-2.21
				c-2.64-1.47-4.69-3.56-6.16-6.26c-1.47-2.7-2.21-5.81-2.21-9.34c0-3.57,0.73-6.7,2.18-9.4c1.45-2.7,3.49-4.77,6.1-6.22
				c2.61-1.45,5.62-2.18,9.02-2.18c3.28,0,6.21,0.71,8.81,2.12c2.59,1.41,4.61,3.41,6.04,6.01c1.43,2.59,2.15,5.57,2.15,8.93
				C-607.24,530.44-607.32,531.56-607.49,532.56z M-616.26,526.71c-0.04-2.24-0.85-4.03-2.43-5.38c-1.58-1.35-3.51-2.02-5.79-2.02
				c-2.16,0-3.97,0.65-5.45,1.96c-1.47,1.31-2.38,3.12-2.71,5.45H-616.26z"/>
			<path class="st3" d="M-567.9,512.7l-21.35,50.79h-9.27l7.47-17.18l-13.82-33.61h9.77l8.9,24.09l9.03-24.09H-567.9z"/>
			<path class="st3" d="M-548.85,539.16l8.71-26.45h9.27l-12.76,34.48h-10.58l-12.7-34.48h9.34L-548.85,539.16z"/>
			<path class="st3" d="M-526.1,520.55c1.39-2.7,3.28-4.77,5.66-6.22c2.39-1.45,5.05-2.18,8-2.18c2.57,0,4.82,0.52,6.75,1.56
				c1.93,1.04,3.48,2.35,4.64,3.92v-4.92h8.78v34.48h-8.78v-5.04c-1.12,1.62-2.67,2.96-4.64,4.01c-1.97,1.06-4.24,1.59-6.82,1.59
				c-2.91,0-5.55-0.75-7.94-2.24c-2.39-1.49-4.27-3.6-5.66-6.32c-1.39-2.72-2.08-5.84-2.08-9.37
				C-528.19,526.34-527.49,523.24-526.1,520.55z M-502.3,524.5c-0.83-1.51-1.95-2.68-3.36-3.49c-1.41-0.81-2.93-1.21-4.54-1.21
				c-1.62,0-3.11,0.39-4.48,1.18c-1.37,0.79-2.48,1.94-3.33,3.45c-0.85,1.52-1.28,3.31-1.28,5.38c0,2.08,0.43,3.89,1.28,5.45
				c0.85,1.56,1.97,2.75,3.36,3.58c1.39,0.83,2.87,1.24,4.45,1.24c1.62,0,3.13-0.4,4.54-1.21c1.41-0.81,2.53-1.97,3.36-3.49
				c0.83-1.51,1.25-3.33,1.25-5.45S-501.47,526.01-502.3,524.5z"/>
			<path class="st3" d="M-454.68,516.1c2.53,2.59,3.8,6.21,3.8,10.86v20.23h-8.71v-19.05c0-2.74-0.68-4.84-2.05-6.32
				c-1.37-1.47-3.24-2.21-5.6-2.21c-2.41,0-4.31,0.74-5.7,2.21c-1.39,1.47-2.08,3.58-2.08,6.32v19.05h-8.71V512.7h8.71V517
				c1.16-1.49,2.65-2.67,4.45-3.52c1.81-0.85,3.79-1.28,5.94-1.28C-460.53,512.21-457.21,513.5-454.68,516.1z"/>
			<path class="st3" d="M-433.89,501.13v46.06h-8.71v-46.06H-433.89z"/>
			<path class="st3" d="M-425.46,520.55c1.39-2.7,3.28-4.77,5.66-6.22c2.39-1.45,5.05-2.18,8-2.18c2.57,0,4.82,0.52,6.75,1.56
				c1.93,1.04,3.48,2.35,4.64,3.92v-4.92h8.78v34.48h-8.78v-5.04c-1.12,1.62-2.67,2.96-4.64,4.01c-1.97,1.06-4.24,1.59-6.82,1.59
				c-2.91,0-5.55-0.75-7.94-2.24c-2.39-1.49-4.27-3.6-5.66-6.32c-1.39-2.72-2.08-5.84-2.08-9.37
				C-427.54,526.34-426.85,523.24-425.46,520.55z M-401.65,524.5c-0.83-1.51-1.95-2.68-3.36-3.49c-1.41-0.81-2.93-1.21-4.54-1.21
				c-1.62,0-3.11,0.39-4.48,1.18c-1.37,0.79-2.48,1.94-3.33,3.45c-0.85,1.52-1.28,3.31-1.28,5.38c0,2.08,0.43,3.89,1.28,5.45
				c0.85,1.56,1.97,2.75,3.36,3.58c1.39,0.83,2.87,1.24,4.45,1.24c1.62,0,3.13-0.4,4.54-1.21c1.41-0.81,2.53-1.97,3.36-3.49
				c0.83-1.51,1.25-3.33,1.25-5.45S-400.82,526.01-401.65,524.5z"/>
			<path class="st3" d="M-370,513.76c1.8-1.04,3.87-1.56,6.19-1.56v9.15h-2.3c-2.74,0-4.8,0.64-6.19,1.93
				c-1.39,1.29-2.08,3.53-2.08,6.72v17.18h-8.71V512.7h8.71v5.35C-373.27,516.23-371.81,514.8-370,513.76z"/>
			<path class="st3" d="M-348.87,512.7v34.48h-8.71V512.7H-348.87z"/>
			<path class="st3" d="M-310.84,516.1c2.53,2.59,3.8,6.21,3.8,10.86v20.23h-8.71v-19.05c0-2.74-0.68-4.84-2.05-6.32
				c-1.37-1.47-3.24-2.21-5.6-2.21c-2.41,0-4.31,0.74-5.7,2.21c-1.39,1.47-2.08,3.58-2.08,6.32v19.05h-8.71V512.7h8.71V517
				c1.16-1.49,2.65-2.67,4.45-3.52c1.81-0.85,3.79-1.28,5.94-1.28C-316.69,512.21-313.37,513.5-310.84,516.1z"/>
			<path class="st3" d="M-606.49,578.43v43.45h-8.71v-28.26l-11.64,28.26h-6.6l-11.7-28.26v28.26h-8.71v-43.45h9.9l13.82,32.3
				l13.82-32.3H-606.49z"/>
			<path class="st3" d="M-565.35,587.4v34.48h-8.78v-4.36c-1.12,1.49-2.58,2.67-4.39,3.52c-1.81,0.85-3.77,1.28-5.88,1.28
				c-2.7,0-5.08-0.57-7.16-1.71c-2.08-1.14-3.7-2.82-4.89-5.04c-1.18-2.22-1.77-4.86-1.77-7.94V587.4h8.71v18.98
				c0,2.74,0.68,4.85,2.05,6.32c1.37,1.47,3.24,2.21,5.6,2.21c2.41,0,4.29-0.74,5.66-2.21c1.37-1.47,2.05-3.58,2.05-6.32V587.4
				H-565.35z M-590.31,582.1c-0.79-0.79-1.18-1.76-1.18-2.93c0-1.16,0.39-2.15,1.18-2.96c0.79-0.81,1.76-1.21,2.93-1.21
				c1.16,0,2.15,0.4,2.96,1.21c0.81,0.81,1.21,1.8,1.21,2.96c0,1.16-0.4,2.14-1.21,2.93c-0.81,0.79-1.8,1.18-2.96,1.18
				C-588.54,583.29-589.52,582.89-590.31,582.1z M-578.79,582.1c-0.79-0.79-1.18-1.76-1.18-2.93c0-1.16,0.39-2.15,1.18-2.96
				c0.79-0.81,1.76-1.21,2.93-1.21c1.16,0,2.15,0.4,2.96,1.21c0.81,0.81,1.21,1.8,1.21,2.96c0,1.16-0.4,2.14-1.21,2.93
				c-0.81,0.79-1.8,1.18-2.96,1.18C-577.03,583.29-578,582.89-578.79,582.1z"/>
			<path class="st3" d="M-556.91,595.24c1.39-2.7,3.28-4.77,5.66-6.22c2.39-1.45,5.05-2.18,8-2.18c2.57,0,4.82,0.52,6.75,1.56
				c1.93,1.04,3.48,2.35,4.64,3.92v-4.92h8.78v34.48h-8.78v-5.04c-1.12,1.62-2.67,2.96-4.64,4.01c-1.97,1.06-4.24,1.59-6.82,1.59
				c-2.91,0-5.55-0.75-7.94-2.24c-2.39-1.49-4.27-3.6-5.66-6.32c-1.39-2.72-2.08-5.84-2.08-9.37
				C-559,601.03-558.3,597.94-556.91,595.24z M-533.11,599.19c-0.83-1.51-1.95-2.68-3.36-3.49c-1.41-0.81-2.93-1.21-4.54-1.21
				c-1.62,0-3.11,0.39-4.48,1.18c-1.37,0.79-2.48,1.94-3.33,3.45c-0.85,1.52-1.28,3.31-1.28,5.38c0,2.08,0.43,3.89,1.28,5.45
				c0.85,1.56,1.97,2.75,3.36,3.58c1.39,0.83,2.87,1.24,4.45,1.24c1.62,0,3.13-0.4,4.54-1.21c1.41-0.81,2.53-1.97,3.36-3.49
				c0.83-1.51,1.25-3.33,1.25-5.45S-532.28,600.71-533.11,599.19z"/>
			<path class="st3" d="M-481.57,587.4l-21.35,50.79h-9.27l7.47-17.18l-13.82-33.61h9.77l8.9,24.09l9.03-24.09H-481.57z"/>
			<path class="st3" d="M-476.31,581.82c-1.02-0.97-1.52-2.19-1.52-3.64c0-1.45,0.51-2.67,1.52-3.64c1.02-0.97,2.29-1.46,3.83-1.46
				c1.53,0,2.81,0.49,3.83,1.46c1.02,0.98,1.52,2.19,1.52,3.64c0,1.45-0.51,2.67-1.52,3.64c-1.02,0.98-2.29,1.46-3.83,1.46
				C-474.02,583.29-475.29,582.8-476.31,581.82z M-468.19,587.4v34.48h-8.71V587.4H-468.19z"/>
			<path class="st3" d="M-430.53,590.79c2.53,2.59,3.8,6.21,3.8,10.86v20.23h-8.71v-19.05c0-2.74-0.68-4.84-2.05-6.32
				c-1.37-1.47-3.24-2.21-5.6-2.21c-2.41,0-4.31,0.74-5.7,2.21c-1.39,1.47-2.08,3.58-2.08,6.32v19.05h-8.71V587.4h8.71v4.29
				c1.16-1.49,2.65-2.67,4.45-3.52c1.81-0.85,3.79-1.28,5.94-1.28C-436.38,586.9-433.06,588.19-430.53,590.79z"/>
			<path class="st3" d="M-394.77,589.04c2.63,1.47,4.69,3.56,6.16,6.26c1.47,2.7,2.21,5.81,2.21,9.34c0,3.57-0.73,6.7-2.18,9.4
				c-1.45,2.7-3.49,4.77-6.1,6.22c-2.61,1.45-5.62,2.18-9.02,2.18c-3.28,0-6.21-0.71-8.81-2.12c-2.59-1.41-4.61-3.41-6.04-6.01
				c-1.43-2.59-2.15-5.57-2.15-8.93c0-1.25,0.08-2.37,0.25-3.36h25.21c-0.21-2.49-1.08-4.44-2.61-5.85
				c-1.54-1.41-3.42-2.12-5.66-2.12c-3.24,0-5.54,1.39-6.91,4.17h-9.4c1-3.32,2.9-6.05,5.73-8.18c2.82-2.14,6.29-3.21,10.39-3.21
				C-400.39,586.84-397.41,587.57-394.77,589.04z M-398.01,613.32c1.47-1.31,2.37-3.12,2.71-5.45h-16.37
				c0.04,2.24,0.85,4.04,2.43,5.38c1.58,1.35,3.51,2.02,5.79,2.02C-401.3,615.28-399.48,614.63-398.01,613.32z"/>
			<path class="st3" d="M-374.45,620.91c-2.24-1.02-4.01-2.4-5.32-4.14s-2.02-3.67-2.15-5.79h8.78c0.17,1.33,0.82,2.43,1.96,3.3
				c1.14,0.87,2.56,1.31,4.26,1.31c1.66,0,2.96-0.33,3.89-1c0.93-0.66,1.4-1.51,1.4-2.55c0-1.12-0.57-1.96-1.71-2.52
				c-1.14-0.56-2.96-1.17-5.45-1.84c-2.57-0.62-4.68-1.27-6.32-1.93c-1.64-0.66-3.05-1.68-4.23-3.05c-1.18-1.37-1.77-3.21-1.77-5.54
				c0-1.91,0.55-3.65,1.65-5.23c1.1-1.58,2.68-2.82,4.73-3.73c2.05-0.91,4.47-1.37,7.25-1.37c4.11,0,7.39,1.03,9.83,3.08
				c2.45,2.05,3.8,4.82,4.05,8.31h-8.34c-0.12-1.37-0.7-2.46-1.71-3.27c-1.02-0.81-2.38-1.21-4.08-1.21c-1.58,0-2.79,0.29-3.64,0.87
				c-0.85,0.58-1.28,1.39-1.28,2.43c0,1.16,0.58,2.04,1.74,2.65c1.16,0.6,2.97,1.21,5.42,1.84c2.49,0.62,4.54,1.27,6.16,1.93
				c1.62,0.66,3.02,1.69,4.2,3.08c1.18,1.39,1.79,3.23,1.84,5.51c0,1.99-0.55,3.78-1.65,5.35c-1.1,1.58-2.68,2.81-4.73,3.7
				c-2.05,0.89-4.45,1.34-7.19,1.34C-369.68,622.44-372.21,621.93-374.45,620.91z"/>
			<path class="st3" d="M-345.54,581.82c-1.02-0.97-1.52-2.19-1.52-3.64c0-1.45,0.51-2.67,1.52-3.64c1.02-0.97,2.29-1.46,3.83-1.46
				c1.53,0,2.81,0.49,3.83,1.46c1.02,0.98,1.52,2.19,1.52,3.64c0,1.45-0.51,2.67-1.52,3.64c-1.02,0.98-2.29,1.46-3.83,1.46
				C-343.25,583.29-344.52,582.8-345.54,581.82z M-337.42,587.4v34.48h-8.71V587.4H-337.42z"/>
		</g>
	</g>
</g>
<g id="Layer_1_copy_2">
	<g>
		<path class="st2" d="M678.7,765.8H180.6c-99.62,0-181.13-81.51-181.13-181.13V181.25C-0.53,81.63,80.97,0.12,180.6,0.12H678.7
			c99.62,0,181.13,81.51,181.13,181.13v403.43C859.83,684.29,778.32,765.8,678.7,765.8z"/>
	</g>
	<g>
		<g>
			<path class="st3" d="M277.4,467.28v43.45h-8.71v-18.49h-18.61v18.49h-8.71v-43.45h8.71v17.86h18.61v-17.86H277.4z"/>
			<path class="st3" d="M317.8,496.1h-25.21c0.21,2.49,1.08,4.44,2.61,5.85c1.53,1.41,3.42,2.12,5.66,2.12
				c3.24,0,5.54-1.39,6.91-4.17h9.4c-1,3.32-2.91,6.05-5.73,8.18c-2.82,2.14-6.29,3.21-10.39,3.21c-3.32,0-6.3-0.74-8.93-2.21
				c-2.64-1.47-4.69-3.56-6.16-6.26c-1.47-2.7-2.21-5.81-2.21-9.34c0-3.57,0.73-6.7,2.18-9.4c1.45-2.7,3.49-4.77,6.1-6.22
				c2.61-1.45,5.62-2.18,9.02-2.18c3.28,0,6.21,0.71,8.81,2.12c2.59,1.41,4.61,3.41,6.04,6.01c1.43,2.59,2.15,5.57,2.15,8.93
				C318.05,493.98,317.97,495.1,317.8,496.1z M309.02,490.25c-0.04-2.24-0.85-4.03-2.43-5.38c-1.58-1.35-3.51-2.02-5.79-2.02
				c-2.16,0-3.97,0.65-5.45,1.96c-1.47,1.31-2.38,3.12-2.71,5.45H309.02z"/>
			<path class="st3" d="M357.39,476.24l-21.35,50.79h-9.27l7.47-17.18l-13.82-33.61h9.77l8.9,24.09l9.03-24.09H357.39z"/>
			<path class="st3" d="M376.43,502.7l8.71-26.45h9.27l-12.76,34.48h-10.58l-12.7-34.48h9.34L376.43,502.7z"/>
			<path class="st3" d="M399.18,484.09c1.39-2.7,3.28-4.77,5.66-6.22c2.39-1.45,5.05-2.18,8-2.18c2.57,0,4.82,0.52,6.75,1.56
				c1.93,1.04,3.48,2.35,4.64,3.92v-4.92h8.78v34.48h-8.78v-5.04c-1.12,1.62-2.67,2.96-4.64,4.01c-1.97,1.06-4.24,1.59-6.82,1.59
				c-2.91,0-5.55-0.75-7.94-2.24c-2.39-1.49-4.27-3.6-5.66-6.32c-1.39-2.72-2.08-5.84-2.08-9.37
				C397.1,489.88,397.79,486.78,399.18,484.09z M422.99,488.04c-0.83-1.51-1.95-2.68-3.36-3.49c-1.41-0.81-2.93-1.21-4.54-1.21
				c-1.62,0-3.11,0.39-4.48,1.18c-1.37,0.79-2.48,1.94-3.33,3.45c-0.85,1.52-1.28,3.31-1.28,5.38c0,2.08,0.43,3.89,1.28,5.45
				c0.85,1.56,1.97,2.75,3.36,3.58c1.39,0.83,2.87,1.24,4.45,1.24c1.62,0,3.13-0.4,4.54-1.21c1.41-0.81,2.53-1.97,3.36-3.49
				c0.83-1.51,1.25-3.33,1.25-5.45S423.82,489.55,422.99,488.04z"/>
			<path class="st3" d="M470.6,479.64c2.53,2.59,3.8,6.21,3.8,10.86v20.23h-8.71v-19.05c0-2.74-0.68-4.84-2.05-6.32
				c-1.37-1.47-3.24-2.21-5.6-2.21c-2.41,0-4.31,0.74-5.7,2.21c-1.39,1.47-2.08,3.58-2.08,6.32v19.05h-8.71v-34.48h8.71v4.29
				c1.16-1.49,2.65-2.67,4.45-3.52c1.81-0.85,3.79-1.28,5.94-1.28C464.75,475.75,468.07,477.04,470.6,479.64z"/>
			<path class="st3" d="M491.39,464.67v46.06h-8.71v-46.06H491.39z"/>
			<path class="st3" d="M499.83,484.09c1.39-2.7,3.28-4.77,5.66-6.22c2.39-1.45,5.05-2.18,8-2.18c2.57,0,4.82,0.52,6.75,1.56
				c1.93,1.04,3.48,2.35,4.64,3.92v-4.92h8.78v34.48h-8.78v-5.04c-1.12,1.62-2.67,2.96-4.64,4.01c-1.97,1.06-4.24,1.59-6.82,1.59
				c-2.91,0-5.55-0.75-7.94-2.24c-2.39-1.49-4.27-3.6-5.66-6.32c-1.39-2.72-2.08-5.84-2.08-9.37
				C497.74,489.88,498.44,486.78,499.83,484.09z M523.63,488.04c-0.83-1.51-1.95-2.68-3.36-3.49c-1.41-0.81-2.93-1.21-4.54-1.21
				c-1.62,0-3.11,0.39-4.48,1.18c-1.37,0.79-2.48,1.94-3.33,3.45c-0.85,1.52-1.28,3.31-1.28,5.38c0,2.08,0.43,3.89,1.28,5.45
				c0.85,1.56,1.97,2.75,3.36,3.58c1.39,0.83,2.87,1.24,4.45,1.24c1.62,0,3.13-0.4,4.54-1.21c1.41-0.81,2.53-1.97,3.36-3.49
				c0.83-1.51,1.25-3.33,1.25-5.45S524.46,489.55,523.63,488.04z"/>
			<path class="st3" d="M555.28,477.3c1.8-1.04,3.87-1.56,6.19-1.56v9.15h-2.3c-2.74,0-4.8,0.64-6.19,1.93
				c-1.39,1.29-2.08,3.53-2.08,6.72v17.18h-8.71v-34.48h8.71v5.35C552.02,479.77,553.48,478.34,555.28,477.3z"/>
			<path class="st3" d="M576.42,476.24v34.48h-8.71v-34.48H576.42z"/>
			<path class="st3" d="M614.45,479.64c2.53,2.59,3.8,6.21,3.8,10.86v20.23h-8.71v-19.05c0-2.74-0.68-4.84-2.05-6.32
				c-1.37-1.47-3.24-2.21-5.6-2.21c-2.41,0-4.31,0.74-5.7,2.21c-1.39,1.47-2.08,3.58-2.08,6.32v19.05h-8.71v-34.48h8.71v4.29
				c1.16-1.49,2.65-2.67,4.45-3.52c1.81-0.85,3.79-1.28,5.94-1.28C608.59,475.75,611.91,477.04,614.45,479.64z"/>
			<path class="st3" d="M356.05,566.81c1.58,1.99,2.37,4.27,2.37,6.85c0,2.32-0.57,4.37-1.71,6.13c-1.14,1.76-2.79,3.14-4.95,4.14
				c-2.16,1-4.71,1.49-7.66,1.49h-18.73v-43.45h17.93c2.95,0,5.49,0.48,7.62,1.43c2.14,0.96,3.76,2.28,4.85,3.98
				c1.1,1.7,1.65,3.63,1.65,5.79c0,2.53-0.67,4.65-2.02,6.35c-1.35,1.7-3.14,2.91-5.38,3.61
				C352.46,563.59,354.47,564.82,356.05,566.81z M334.08,559.9h7.97c2.07,0,3.67-0.47,4.79-1.4c1.12-0.93,1.68-2.27,1.68-4.01
				s-0.56-3.09-1.68-4.05c-1.12-0.95-2.72-1.43-4.79-1.43h-7.97V559.9z M347.8,576.83c1.18-1,1.77-2.41,1.77-4.23
				c0-1.87-0.62-3.33-1.87-4.39c-1.24-1.06-2.93-1.59-5.04-1.59h-8.59v11.7h8.78C344.97,578.32,346.62,577.82,347.8,576.83z"/>
			<path class="st3" d="M365.23,558.78c1.39-2.7,3.28-4.77,5.66-6.22c2.39-1.45,5.05-2.18,8-2.18c2.57,0,4.82,0.52,6.75,1.56
				c1.93,1.04,3.48,2.35,4.64,3.92v-4.92h8.78v34.48h-8.78v-5.04c-1.12,1.62-2.67,2.96-4.64,4.01c-1.97,1.06-4.24,1.59-6.82,1.59
				c-2.91,0-5.55-0.75-7.94-2.24c-2.39-1.49-4.27-3.6-5.66-6.32c-1.39-2.72-2.08-5.84-2.08-9.37
				C363.14,564.57,363.84,561.48,365.23,558.78z M389.04,562.73c-0.83-1.51-1.95-2.68-3.36-3.49c-1.41-0.81-2.93-1.21-4.54-1.21
				c-1.62,0-3.11,0.39-4.48,1.18c-1.37,0.79-2.48,1.94-3.33,3.45c-0.85,1.52-1.28,3.31-1.28,5.38c0,2.08,0.43,3.89,1.28,5.45
				c0.85,1.56,1.97,2.75,3.36,3.58c1.39,0.83,2.87,1.24,4.45,1.24c1.62,0,3.13-0.4,4.54-1.21c1.41-0.81,2.53-1.97,3.36-3.49
				c0.83-1.51,1.25-3.33,1.25-5.45S389.87,564.25,389.04,562.73z"/>
			<path class="st3" d="M426.63,585.42l-7.1-10.71l-6.29,10.71h-9.34l11.27-17.3l-11.39-17.18h9.83l7.03,10.64l6.35-10.64h9.34
				l-11.33,17.18l11.45,17.3H426.63z"/>
			<path class="st3" d="M450.28,550.94v34.48h-8.71v-34.48H450.28z"/>
			<path class="st3" d="M512.31,554.33c2.59,2.59,3.89,6.21,3.89,10.86v20.23h-8.71v-19.05c0-2.7-0.68-4.76-2.05-6.19
				c-1.37-1.43-3.24-2.15-5.6-2.15s-4.24,0.72-5.63,2.15c-1.39,1.43-2.09,3.5-2.09,6.19v19.05h-8.71v-19.05
				c0-2.7-0.68-4.76-2.05-6.19c-1.37-1.43-3.24-2.15-5.6-2.15c-2.41,0-4.31,0.72-5.7,2.15c-1.39,1.43-2.08,3.5-2.08,6.19v19.05
				h-8.71v-34.48h8.71v4.17c1.12-1.45,2.56-2.59,4.33-3.42c1.76-0.83,3.7-1.25,5.82-1.25c2.7,0,5.1,0.57,7.22,1.71
				c2.12,1.14,3.75,2.77,4.92,4.89c1.12-1.99,2.75-3.59,4.89-4.79c2.14-1.2,4.45-1.81,6.94-1.81
				C506.3,550.44,509.71,551.73,512.31,554.33z"/>
			<path class="st3" d="M533.56,550.94v34.48h-8.71v-34.48H533.56z"/>
		</g>
		<g>
			<path class="st3" d="M406.66,360.97c10.1,0.87,19.94,3,29.7,5.42c13.53,3.35,26.75,1.88,39.94-1.89
				c13.71-3.92,25.6-11.19,37.06-19.38c10.06-7.19,20.06-14.5,31.35-19.73c3.85-1.78,7.82-3.26,12.18-3
				c3.68,0.22,6.77,1.62,9.15,4.49c2.22,2.69,2.42,5.54,0.87,8.62c-2.65,5.27-6.65,9.46-11,13.25
				c-13.61,11.84-27.42,23.48-42.44,33.49c-11.4,7.6-23.74,13.67-35.7,20.37c-3.77,2.12-7.48,4.35-11.29,6.4
				c-11.05,5.95-22.25,6.49-33.85,1.34c-21.05-9.36-42.96-16.26-65.28-21.87c-8.97-2.26-18.13-2.7-27.31-2.81
				c-13.2-0.16-26.41-0.29-39.61-0.23c-3.03,0.01-4.38-1.28-5.49-3.84c-3.28-7.6-3.58-15.58-3.58-23.66
				c0-9.53,0.77-18.93,3.55-28.12c1.18-3.9,3.42-5.99,7.66-6.34c6.8-0.57,13.61-0.47,20.41-0.61c12.86-0.27,24.92-4.34,37.21-7.37
				c13.44-3.32,26.81-3.31,39.74,2.13c10.81,4.56,21.94,5.64,33.58,5.11c14.72-0.66,29.49-1.04,44.21,0.33
				c3.52,0.33,6.81,1.6,9.87,3.39c7.06,4.13,8.39,12.87,2.61,18.66c-5.95,5.96-13.6,8.8-21.55,10.86
				c-11.43,2.95-23.1,2.76-34.75,2.18C424.69,357.7,415.61,358.26,406.66,360.97z"/>
			<path class="st3" d="M487.92,276.11c-0.15,10.64-10.59,19.66-24.32,18.13c-3.91-0.43-7.62-1.28-11.26-2.91
				c-10.01-4.47-20.5-5.04-31.19-3.05c-7.94,1.48-15.99,2.21-23.98,1.25c-9.96-1.2-16.18-7.32-18.43-17
				c-1.46-6.29,1.04-11.23,5.07-15.76c3.99-4.47,9.33-7.09,14.11-10.46c5.5-3.87,9.9-8.74,13.53-14.23
				c6.83-10.31,16.97-12.34,27.95-10.93c6.9,0.89,11.55,6.46,16.06,11.43c2.42,2.66,4.42,5.69,6.71,8.47
				c3.94,4.77,8.12,9.05,13.87,11.99C483.93,257.08,488.36,263.8,487.92,276.11z"/>
			<path class="st3" d="M427.73,194.01c-0.42,6.85-1.53,13.32-5.17,19.26c-4.74,7.74-14.22,5.82-18.15,1.22
				c-8.69-10.17-9.76-30.23-2.07-41.19c3.18-4.53,7.41-6.92,12.91-6.18c5.06,0.68,7.66,4.56,9.51,8.8
				C427.29,181.7,427.2,187.97,427.73,194.01z"/>
			<path class="st3" d="M465.92,188.17c-0.33,7.86-1.2,15.62-5.92,22.29c-4.87,6.89-15.4,6.77-19.26-0.77
				c-6.75-13.15-7.16-26.73,0.42-39.83c5.45-9.41,17.13-6.11,20.95,1.02C464.67,175.67,466.01,181.26,465.92,188.17z"/>
			<path class="st3" d="M397.43,224.47c-0.43,3.89,0.12,9.48-3.86,14.02c-6,6.84-14.88,6.33-19.6-1.46
				c-5.77-9.51-6.54-19.84-3.8-30.38c1.29-4.94,5.41-7.69,10.17-8.38c4.82-0.7,8.8,1.9,11.51,5.83
				C395.75,209.74,397.77,216.05,397.43,224.47z"/>
			<path class="st3" d="M495.9,210.47c-0.07,5.48-0.77,10.87-2.41,16.12c-1.22,3.9-3.57,6.93-6.82,9.28
				c-4.05,2.92-8.97,2.85-13.19-0.39c-4.62-3.56-7.52-8.11-7.28-14.23c0.3-7.76,1.88-15.13,6.68-21.45
				c5.2-6.85,15.03-7.62,20.17-1.67C495.27,200.7,495.96,203.7,495.9,210.47z"/>
			<path class="st3" d="M545.98,316.79c-15.59,5.22-28.36,14.9-42.36,23.51c-0.22-4.03-0.04-7.88-0.78-11.64
				c-0.14-0.72,0.76-1.18,1.39-1.51c8.87-4.77,17.36-10.29,26.78-13.97C536.73,310.95,541.81,312.21,545.98,316.79z"/>
			<path class="st3" d="M489.45,316.3c8.5-4.1,16.25-8.57,24.82-11.21c3.52-1.08,6.82,0.16,10.73,1.88
				c-5.02,2.68-9.46,5.12-13.96,7.42c-3.29,1.68-6.79,2.99-9.98,4.84c-2.82,1.63-5.19,1.37-7.66-0.48
				C492.33,317.96,491.14,317.34,489.45,316.3z"/>
			<path class="st3" d="M456.54,347.37c-4.47-4.48-8.95-8.96-13.42-13.45c-0.14,0.13-0.28,0.27-0.42,0.4
				c4.49,4.48,8.97,8.96,13.46,13.44C456.29,347.64,456.42,347.5,456.54,347.37z"/>
		</g>
	</g>
</g>
<g id="Layer_1_copy" class="st0">
	<g class="st1">
		<path class="st2" d="M-267.61,1562.94h-498.11c-99.62,0-181.13-81.51-181.13-181.13V978.38c0-99.62,81.51-181.13,181.13-181.13
			h498.11c99.62,0,181.13,81.51,181.13,181.13v403.43C-86.48,1481.43-167.99,1562.94-267.61,1562.94z"/>
	</g>
	<g class="st1">
		<g>
			<path class="st3" d="M-516.9,1222.77c-0.75,0.02-1.49,0.07-2.24,0.07c-29.91,0-59.81,0-89.72,0c-6.05,0-8.67-3.19-7.88-9.13
				c1.65-12.47,3.15-24.95,4.7-37.43c1.12-8.99,2.57-17.95,3.24-26.97c0.85-11.48,2.65-22.83,3.97-34.24
				c1.44-12.41,3.07-24.81,4.63-37.21c1.43-11.44,2.92-22.87,4.3-34.31c0.59-4.92,2.95-7.24,7.93-7.25
				c9.35-0.03,18.69,0.01,28.04,0.01c1.35,0.72,1.04,2.04,1.05,3.18c0.05,5.84-0.04,11.68,0.05,17.52c0.06,3.96,2.61,6.18,6.55,5.88
				c2.42-0.19,4.04-1.45,4.83-3.72c0.57-1.64,0.73-3.35,0.72-5.09c-0.01-5.02-0.02-10.03,0.01-15.05c0.01-1.1-0.17-2.28,0.79-3.15
				c1.75-0.78,3.62-0.89,5.49-0.89c16.5-0.02,33.01-0.01,49.51,0c1.04,0,2.1-0.09,3.04,0.52c0.26,0.23,0.29,0.49,0.09,0.78
				c-1.06,0.77-2.28,0.59-3.46,0.59c-7.09,0.02-14.18,0-21.27,0.01c-3.59,0-3.64,0.04-3.64,3.61c-0.01,25.89,0,51.79-0.01,77.68
				c0,1.34,0.15,2.7-0.33,4c-0.75,1.3-2.17,0.74-3.23,1.16c-13.1,1.99-22.45,10.58-24.56,23.03c-2.05,12.11,4.38,21.78,15.31,24.7
				c1.46,0.39,2.98,0.26,4.44,0.58c1.74,0.36,3.5,0.1,5.25,0.19c0.93,0.05,1.93-0.11,2.65,0.74c0.5,0.89,0.46,1.88,0.46,2.84
				c0.01,14.79,0.02,29.59,0,44.38C-516.2,1220.83-516.09,1221.92-516.9,1222.77z"/>
			<path class="st3" d="M-516.9,1222.77c0-16.77,0-33.53-0.01-50.3c1.55-1.11,3.33-0.58,4.99-0.58c3.79,0.01,7.47-0.46,10.88-2.17
				c7.26-3.65,11.3-9.52,11.79-17.72c0.88-14.74-11.04-27.57-25.38-28.84c-0.79-0.07-1.67,0.07-2.27-0.69
				c-0.01-28.1-0.01-56.21-0.05-84.31c0-1.54,0.41-2.07,2.01-2.06c9.04,0.07,18.09,0.05,27.13,0.05c0.9,0.82,0.7,1.93,0.71,2.95
				c0.03,5.4,0.01,10.79,0.02,16.19c0,1.12,0,2.25,0.32,3.35c0.83,2.88,3.73,4.96,6.39,4.59c3.06-0.42,5.33-2.82,5.38-5.95
				c0.1-6.07,0-12.14,0.05-18.21c0.01-1.15-0.28-2.45,0.97-3.26c9.34-0.01,18.69-0.05,28.03-0.02c4.28,0.01,6.94,2.5,7.48,6.78
				c0.45,3.56,0.68,7.16,1.38,10.67c1.37,6.88,2.04,13.85,2.95,20.79c1.17,8.97,2.24,17.95,3.35,26.93c1.1,8.9,2.21,17.8,3.32,26.7
				c1.14,9.12,2.27,18.25,3.42,27.37c1.1,8.75,2.23,17.5,3.33,26.25c1.14,9.05,2.26,18.1,3.4,27.15c0.24,1.93,0.49,3.86,0.77,5.78
				c0.68,4.54-2.37,8.23-6.93,8.18c-26.88-0.29-53.76,0.76-80.64,0.47C-508.38,1222.8-512.64,1222.79-516.9,1222.77z"/>
			<path class="st3" d="M-473.97,1035.8c-0.5,4.7-0.11,9.41-0.21,14.11c-0.06,2.47,0.04,4.94-0.05,7.4
				c-0.14,3.76-3.16,6.69-6.76,6.67c-3.58-0.02-6.73-3.21-6.76-6.97c-0.06-6.96-0.05-13.91-0.07-20.87c0-0.15,0-0.31,0-0.46
				c-0.9-1.64-0.65-3.5-0.94-5.24c-1.91-11.47-11.32-21.13-22.72-23.21c-1.26-0.23-2.53-0.13-3.79-0.2c-0.95-0.05-2,0.09-2.53-1.03
				c-0.55-3.78-0.22-7.58-0.21-11.37c0-0.6,0.2-1.17,0.66-1.61c4.38-0.32,8.54,0.78,12.78,1.67c9.26,1.96,15.55,7.99,21.38,14.84
				c6.08,7.14,8.66,15.51,8.96,24.73C-474.21,1034.79-474.06,1035.3-473.97,1035.8z"/>
			<path class="st3" d="M-517.34,993.04c0,4.45,0,8.91,0,13.36c-1.24,1.06-2.83,0.82-4.26,1.06c-12.14,2-21.84,11.73-23.77,23.83
				c-0.27,1.67,0.41,3.48-0.74,5.02c-0.02,6.22-0.03,12.44-0.08,18.65c-0.01,1.27-0.11,2.55-0.37,3.79
				c-0.71,3.35-3.68,5.26-7.47,4.91c-2.99-0.28-5.52-2.9-5.56-6.04c-0.08-6.22-0.03-12.44-0.05-18.66c0-0.89,0.15-1.81-0.3-2.65
				c0.54-3.98,0.65-8,1.7-11.93c4.4-16.33,19.02-29.05,35.77-31.02C-520.75,993.16-519.07,992.86-517.34,993.04z"/>
			<g>
				<path class="st2" d="M-516.89,1122.46c14.76,0.73,25.5,9.76,28.01,24.38c2.4,14.01-7.52,25.13-20.85,25.54
					c-2.39,0.07-4.78,0.06-7.17,0.08c-2.71-0.46-5.49,0.27-8.19-0.4c1.41-1.24,3.13-0.68,4.73-0.76c2.49-0.13,2.72-0.25,2.72-2.71
					c0.03-14.01-0.04-28.03,0.07-42.04c0.02-2.13-1.18-2.82-2.58-3.64C-519.12,1122.33-517.96,1122.74-516.89,1122.46z"/>
			</g>
			<g>
				<path class="st2" d="M-520.15,1122.92c3.23,0.16,3.23,0.16,3.23,3.54c0,14.39-0.03,28.79,0.04,43.18
					c0.01,1.88-0.52,2.51-2.39,2.38c-1.93-0.14-3.88,0.02-5.83,0.05c-9.7,0.02-18.46-7.78-20.01-17.82
					c-2.21-14.27,9.29-29.51,23.61-31.26C-521.05,1122.92-520.6,1122.94-520.15,1122.92z"/>
			</g>
			<g>
				<path class="st2" d="M-538.06,1107.71c-0.01-3.71,2.92-6.73,6.59-6.77c3.68-0.05,6.89,3.15,6.83,6.82
					c-0.06,3.6-3.18,6.68-6.77,6.67C-535.06,1114.41-538.05,1111.4-538.06,1107.71z"/>
			</g>
			<g>
				<path class="st2" d="M-553.11,1132.44c-3.73-0.04-6.6-3.01-6.56-6.8c0.03-3.68,3.12-6.72,6.76-6.66
					c3.67,0.06,6.61,3.14,6.56,6.85C-546.4,1129.6-549.35,1132.48-553.11,1132.44z"/>
			</g>
			<g>
				<path class="st2" d="M-502.48,1100.94c3.64,0.04,6.66,3.12,6.65,6.76c-0.01,3.64-3.07,6.71-6.7,6.72
					c-3.71,0.02-6.83-3.16-6.76-6.88C-509.21,1103.9-506.11,1100.89-502.48,1100.94z"/>
			</g>
			<g>
				<path class="st2" d="M-474.25,1125.64c0.05,3.74-2.84,6.75-6.52,6.81c-3.76,0.06-6.9-2.99-6.9-6.71c0-3.6,3.09-6.72,6.69-6.75
					C-477.34,1118.96-474.3,1121.97-474.25,1125.64z"/>
			</g>
		</g>
		<g>
			<path class="st3" d="M-621.91,1323.5c-1.2,2.23-3.08,4.02-5.64,5.39c-2.56,1.36-5.79,2.05-9.69,2.05h-7.96v18.27h-9.52v-47.58
				h17.47c3.67,0,6.8,0.64,9.38,1.91c2.58,1.27,4.52,3.02,5.81,5.25c1.29,2.23,1.94,4.75,1.94,7.57
				C-620.11,1318.89-620.71,1321.28-621.91,1323.5z M-631.81,1321.42c1.27-1.2,1.9-2.9,1.9-5.08c0-4.64-2.58-6.95-7.75-6.95h-7.55
				v13.84h7.55C-635.03,1323.23-633.08,1322.63-631.81,1321.42z"/>
			<path class="st3" d="M-578.64,1333.18h-27.54c0.23,2.73,1.18,4.86,2.86,6.41c1.68,1.55,3.74,2.32,6.19,2.32
				c3.54,0,6.05-1.52,7.55-4.57h10.27c-1.09,3.64-3.17,6.62-6.26,8.96c-3.08,2.34-6.87,3.51-11.35,3.51c-3.63,0-6.88-0.81-9.76-2.42
				c-2.88-1.61-5.12-3.9-6.73-6.85c-1.61-2.95-2.41-6.36-2.41-10.23c0-3.91,0.79-7.34,2.38-10.29c1.59-2.95,3.81-5.23,6.66-6.82
				c2.86-1.59,6.14-2.39,9.86-2.39c3.58,0,6.79,0.77,9.62,2.32c2.83,1.55,5.03,3.74,6.6,6.58c1.56,2.84,2.35,6.1,2.35,9.78
				C-578.37,1330.87-578.46,1332.09-578.64,1333.18z M-588.22,1326.78c-0.05-2.45-0.93-4.42-2.65-5.9
				c-1.72-1.48-3.83-2.22-6.32-2.22c-2.36,0-4.34,0.72-5.95,2.15c-1.61,1.43-2.6,3.42-2.96,5.96H-588.22z"/>
			<path class="st3" d="M-560.35,1319.28v18.27c0,1.27,0.31,2.19,0.92,2.76c0.61,0.57,1.64,0.85,3.09,0.85h4.42v8.04h-5.98
				c-8.02,0-12.03-3.91-12.03-11.73v-18.2h-4.49v-7.84h4.49v-9.34h9.59v9.34h8.43v7.84H-560.35z"/>
			<path class="st3" d="M-537.6,1347.98c-2.65-1.14-4.75-2.77-6.29-4.91c-1.54-2.14-2.34-4.66-2.38-7.57h10.2
				c0.14,1.95,0.83,3.5,2.07,4.64c1.25,1.14,2.96,1.7,5.13,1.7c2.22,0,3.97-0.53,5.24-1.6c1.27-1.07,1.9-2.46,1.9-4.19
				c0-1.41-0.43-2.57-1.29-3.48c-0.86-0.91-1.94-1.62-3.23-2.15c-1.29-0.52-3.07-1.1-5.34-1.74c-3.08-0.91-5.59-1.81-7.51-2.69
				c-1.93-0.89-3.58-2.23-4.96-4.02c-1.38-1.79-2.07-4.19-2.07-7.19c0-2.82,0.7-5.27,2.11-7.36c1.4-2.09,3.38-3.69,5.92-4.81
				c2.54-1.11,5.44-1.67,8.7-1.67c4.9,0,8.87,1.19,11.93,3.58c3.06,2.39,4.75,5.72,5.07,9.99h-10.47c-0.09-1.64-0.78-2.99-2.07-4.06
				c-1.29-1.07-3-1.6-5.13-1.6c-1.86,0-3.34,0.48-4.45,1.43c-1.11,0.95-1.67,2.34-1.67,4.16c0,1.27,0.42,2.33,1.26,3.17
				c0.84,0.84,1.88,1.52,3.13,2.05c1.25,0.52,3,1.12,5.27,1.81c3.08,0.91,5.6,1.82,7.55,2.73c1.95,0.91,3.63,2.27,5.03,4.09
				c1.4,1.82,2.11,4.2,2.11,7.16c0,2.55-0.66,4.91-1.97,7.09c-1.32,2.18-3.24,3.92-5.78,5.21c-2.54,1.3-5.55,1.94-9.04,1.94
				C-531.97,1349.68-534.95,1349.11-537.6,1347.98z"/>
			<path class="st3" d="M-474.81,1312.77c2.22,1.25,3.95,3.09,5.2,5.52c1.25,2.43,1.87,5.35,1.87,8.76v22.16h-9.52v-20.86
				c0-3-0.75-5.31-2.24-6.92c-1.5-1.61-3.54-2.42-6.12-2.42c-2.63,0-4.7,0.81-6.22,2.42c-1.52,1.61-2.28,3.92-2.28,6.92v20.86h-9.52
				v-50.45h9.52v17.38c1.22-1.64,2.86-2.92,4.9-3.85c2.04-0.93,4.31-1.4,6.8-1.4C-479.57,1310.89-477.03,1311.52-474.81,1312.77z"/>
			<path class="st3" d="M-451.76,1347.4c-2.9-1.61-5.18-3.9-6.83-6.85c-1.66-2.95-2.48-6.36-2.48-10.23c0-3.86,0.85-7.27,2.55-10.23
				c1.7-2.95,4.02-5.24,6.97-6.85c2.95-1.61,6.23-2.42,9.86-2.42c3.63,0,6.91,0.81,9.86,2.42c2.95,1.61,5.27,3.9,6.97,6.85
				c1.7,2.95,2.55,6.36,2.55,10.23c0,3.86-0.87,7.27-2.62,10.23c-1.75,2.95-4.1,5.24-7.07,6.85c-2.97,1.61-6.29,2.42-9.96,2.42
				C-445.6,1349.82-448.86,1349.01-451.76,1347.4z M-437.11,1340.24c1.52-0.84,2.73-2.1,3.64-3.78c0.91-1.68,1.36-3.73,1.36-6.14
				c0-3.59-0.94-6.35-2.82-8.28c-1.88-1.93-4.18-2.9-6.9-2.9s-5,0.97-6.83,2.9c-1.84,1.93-2.75,4.69-2.75,8.28
				c0,3.59,0.89,6.35,2.69,8.28c1.79,1.93,4.05,2.9,6.77,2.9C-440.25,1341.5-438.63,1341.08-437.11,1340.24z"/>
			<path class="st3" d="M-400.73,1312.56c2.15-1.16,4.61-1.74,7.38-1.74c3.22,0,6.13,0.8,8.74,2.39c2.61,1.59,4.67,3.85,6.19,6.78
				c1.52,2.93,2.28,6.33,2.28,10.19c0,3.86-0.76,7.28-2.28,10.26c-1.52,2.98-3.58,5.28-6.19,6.92c-2.61,1.64-5.52,2.45-8.74,2.45
				c-2.77,0-5.2-0.57-7.31-1.7c-2.11-1.14-3.82-2.57-5.13-4.29v23.38h-9.52v-55.76h9.52v5.45
				C-404.58,1315.16-402.89,1313.72-400.73,1312.56z M-387.27,1324.29c-0.93-1.66-2.15-2.92-3.67-3.78c-1.52-0.86-3.16-1.3-4.93-1.3
				c-1.72,0-3.34,0.44-4.86,1.33c-1.52,0.89-2.74,2.17-3.67,3.85c-0.93,1.68-1.39,3.66-1.39,5.93c0,2.27,0.46,4.25,1.39,5.93
				c0.93,1.68,2.15,2.97,3.67,3.85c1.52,0.89,3.14,1.33,4.86,1.33c1.77,0,3.41-0.45,4.93-1.36c1.52-0.91,2.74-2.2,3.67-3.89
				c0.93-1.68,1.39-3.68,1.39-6C-385.88,1327.91-386.34,1325.95-387.27,1324.29z"/>
		</g>
	</g>
</g>
<g id="Layer_1" class="st0">
	<g class="st1">
		<path class="st2" d="M677.61,1577.34H179.5c-99.62,0-181.13-81.51-181.13-181.13V992.79c0-99.62,81.51-181.13,181.13-181.13
			h498.11c99.62,0,181.13,81.51,181.13,181.13v403.43C858.73,1495.84,777.23,1577.34,677.61,1577.34z"/>
	</g>
	<g class="st1">
		<g>
			<path class="st3" d="M340.58,1287.74v47.58h-9.54v-20.25h-20.38v20.25h-9.54v-47.58h9.54v19.56h20.38v-19.56H340.58z"/>
			<path class="st3" d="M384.82,1319.31h-27.61c0.23,2.73,1.18,4.86,2.86,6.41c1.68,1.55,3.75,2.32,6.2,2.32
				c3.54,0,6.07-1.52,7.57-4.57h10.29c-1.09,3.64-3.18,6.62-6.27,8.96c-3.09,2.34-6.89,3.51-11.38,3.51c-3.64,0-6.9-0.81-9.78-2.42
				c-2.89-1.61-5.14-3.9-6.75-6.85c-1.61-2.95-2.42-6.36-2.42-10.23c0-3.91,0.79-7.34,2.39-10.29c1.59-2.95,3.82-5.23,6.68-6.82
				c2.86-1.59,6.16-2.39,9.88-2.39c3.59,0,6.81,0.77,9.65,2.32c2.84,1.55,5.04,3.74,6.61,6.58c1.57,2.84,2.35,6.1,2.35,9.78
				C385.09,1316.99,385,1318.22,384.82,1319.31z M375.21,1312.9c-0.05-2.45-0.93-4.42-2.66-5.9c-1.73-1.48-3.84-2.22-6.34-2.22
				c-2.36,0-4.35,0.72-5.96,2.15c-1.61,1.43-2.6,3.42-2.97,5.96H375.21z"/>
			<path class="st3" d="M428.18,1297.56l-23.38,55.63h-10.16l8.18-18.82l-15.13-36.81h10.7l9.75,26.38l9.88-26.38H428.18z"/>
			<path class="st3" d="M449.04,1326.53l9.54-28.97h10.16l-13.97,37.77h-11.59l-13.91-37.77h10.23L449.04,1326.53z"/>
			<path class="st3" d="M473.95,1306.15c1.52-2.95,3.59-5.23,6.2-6.82c2.61-1.59,5.53-2.39,8.76-2.39c2.82,0,5.28,0.57,7.4,1.7
				c2.11,1.14,3.81,2.57,5.08,4.29v-5.39H511v37.77h-9.61v-5.52c-1.23,1.77-2.92,3.24-5.08,4.4c-2.16,1.16-4.65,1.74-7.46,1.74
				c-3.18,0-6.08-0.82-8.69-2.45c-2.61-1.64-4.68-3.94-6.2-6.92c-1.52-2.98-2.28-6.4-2.28-10.26
				C471.67,1312.49,472.43,1309.1,473.95,1306.15z M500.03,1310.48c-0.91-1.66-2.14-2.93-3.68-3.82c-1.55-0.89-3.2-1.33-4.98-1.33
				c-1.77,0-3.41,0.43-4.91,1.3c-1.5,0.86-2.72,2.12-3.65,3.78c-0.93,1.66-1.4,3.62-1.4,5.9c0,2.27,0.47,4.26,1.4,5.96
				c0.93,1.7,2.16,3.01,3.68,3.92c1.52,0.91,3.15,1.36,4.87,1.36c1.77,0,3.43-0.44,4.98-1.33c1.54-0.89,2.77-2.16,3.68-3.82
				c0.91-1.66,1.36-3.65,1.36-5.96S500.94,1312.14,500.03,1310.48z"/>
			<path class="st3" d="M552.18,1301.28c2.77,2.84,4.16,6.81,4.16,11.9v22.16h-9.54v-20.86c0-3-0.75-5.31-2.25-6.92
				c-1.5-1.61-3.54-2.42-6.14-2.42c-2.64,0-4.72,0.81-6.24,2.42c-1.52,1.61-2.28,3.92-2.28,6.92v20.86h-9.54v-37.77h9.54v4.7
				c1.27-1.64,2.9-2.92,4.87-3.85c1.98-0.93,4.15-1.4,6.51-1.4C545.77,1297.01,549.41,1298.44,552.18,1301.28z"/>
			<path class="st3" d="M212.04,1415.9c-2.66-1.14-4.76-2.77-6.31-4.91c-1.55-2.14-2.34-4.66-2.39-7.57h10.23
				c0.14,1.95,0.83,3.5,2.08,4.64c1.25,1.14,2.97,1.7,5.15,1.7c2.23,0,3.98-0.53,5.25-1.6c1.27-1.07,1.91-2.46,1.91-4.19
				c0-1.41-0.43-2.57-1.3-3.48c-0.86-0.91-1.94-1.62-3.24-2.15c-1.29-0.52-3.08-1.1-5.35-1.74c-3.09-0.91-5.6-1.81-7.53-2.69
				c-1.93-0.89-3.59-2.23-4.98-4.02c-1.39-1.79-2.08-4.19-2.08-7.19c0-2.82,0.7-5.27,2.11-7.36c1.41-2.09,3.38-3.69,5.93-4.81
				c2.54-1.11,5.45-1.67,8.73-1.67c4.91,0,8.9,1.19,11.96,3.58c3.07,2.39,4.76,5.72,5.08,9.99h-10.5c-0.09-1.64-0.78-2.99-2.08-4.06
				c-1.3-1.07-3.01-1.6-5.15-1.6c-1.86,0-3.35,0.48-4.46,1.43c-1.11,0.95-1.67,2.34-1.67,4.16c0,1.27,0.42,2.33,1.26,3.17
				c0.84,0.84,1.89,1.52,3.14,2.05c1.25,0.52,3.01,1.12,5.28,1.81c3.09,0.91,5.61,1.82,7.57,2.73c1.95,0.91,3.64,2.27,5.04,4.09
				c1.41,1.82,2.11,4.2,2.11,7.16c0,2.55-0.66,4.91-1.98,7.09c-1.32,2.18-3.25,3.92-5.79,5.21c-2.55,1.3-5.57,1.94-9.07,1.94
				C217.69,1417.61,214.7,1417.04,212.04,1415.9z"/>
			<path class="st3" d="M245.93,1387.95c1.52-2.95,3.59-5.23,6.2-6.82c2.61-1.59,5.53-2.39,8.76-2.39c2.82,0,5.28,0.57,7.4,1.7
				c2.11,1.14,3.81,2.57,5.08,4.29v-5.39h9.61v37.77h-9.61v-5.52c-1.23,1.77-2.92,3.24-5.08,4.4c-2.16,1.16-4.65,1.74-7.46,1.74
				c-3.18,0-6.08-0.82-8.69-2.45c-2.61-1.64-4.68-3.94-6.2-6.92c-1.52-2.98-2.28-6.4-2.28-10.26
				C243.64,1394.29,244.4,1390.91,245.93,1387.95z M272,1392.28c-0.91-1.66-2.14-2.93-3.68-3.82c-1.55-0.89-3.2-1.33-4.98-1.33
				c-1.77,0-3.41,0.43-4.91,1.3c-1.5,0.86-2.72,2.12-3.65,3.78c-0.93,1.66-1.4,3.62-1.4,5.9c0,2.27,0.47,4.26,1.4,5.96
				c0.93,1.7,2.16,3.01,3.68,3.92c1.52,0.91,3.15,1.36,4.87,1.36c1.77,0,3.43-0.44,4.98-1.33c1.54-0.89,2.77-2.16,3.68-3.82
				c0.91-1.66,1.36-3.65,1.36-5.96S272.91,1393.94,272,1392.28z"/>
			<path class="st3" d="M321.22,1380.69c2.23,1.25,3.96,3.09,5.22,5.52c1.25,2.43,1.87,5.35,1.87,8.76v22.16h-9.54v-20.86
				c0-3-0.75-5.31-2.25-6.92c-1.5-1.61-3.54-2.42-6.14-2.42c-2.64,0-4.72,0.81-6.24,2.42c-1.52,1.61-2.28,3.92-2.28,6.92v20.86
				h-9.54v-50.45h9.54v17.38c1.23-1.64,2.86-2.92,4.91-3.85c2.05-0.93,4.32-1.4,6.82-1.4
				C316.45,1378.82,318.99,1379.44,321.22,1380.69z"/>
			<path class="st3" d="M338.02,1373.26c-1.11-1.07-1.67-2.4-1.67-3.99c0-1.59,0.56-2.92,1.67-3.99c1.11-1.07,2.51-1.6,4.19-1.6
				c1.68,0,3.08,0.53,4.19,1.6c1.11,1.07,1.67,2.4,1.67,3.99c0,1.59-0.56,2.92-1.67,3.99c-1.11,1.07-2.51,1.6-4.19,1.6
				C340.53,1374.87,339.14,1374.33,338.02,1373.26z M346.92,1379.36v37.77h-9.54v-37.77H346.92z"/>
			<path class="st3" d="M370.95,1380.46c2.16-1.14,4.62-1.7,7.4-1.7c3.23,0,6.15,0.8,8.76,2.39c2.61,1.59,4.68,3.85,6.2,6.78
				c1.52,2.93,2.28,6.33,2.28,10.19c0,3.86-0.76,7.28-2.28,10.26c-1.52,2.98-3.59,5.28-6.2,6.92c-2.61,1.64-5.53,2.45-8.76,2.45
				c-2.82,0-5.28-0.56-7.4-1.67s-3.81-2.56-5.08-4.33v5.39h-9.54v-50.45h9.54v18.2C367.1,1383.07,368.79,1381.59,370.95,1380.46z
				 M384.45,1392.21c-0.93-1.66-2.16-2.92-3.68-3.78c-1.52-0.86-3.17-1.3-4.94-1.3c-1.73,0-3.35,0.44-4.87,1.33
				c-1.52,0.89-2.75,2.17-3.68,3.85c-0.93,1.68-1.4,3.66-1.4,5.93c0,2.27,0.47,4.25,1.4,5.93c0.93,1.68,2.16,2.97,3.68,3.85
				c1.52,0.89,3.15,1.33,4.87,1.33c1.77,0,3.42-0.45,4.94-1.36c1.52-0.91,2.75-2.2,3.68-3.89c0.93-1.68,1.4-3.68,1.4-6
				C385.84,1395.84,385.38,1393.87,384.45,1392.21z"/>
			<path class="st3" d="M412.09,1366.68v50.45h-9.54v-50.45H412.09z"/>
			<path class="st3" d="M447.44,1381.17c2.89,1.61,5.14,3.9,6.75,6.85c1.61,2.95,2.42,6.36,2.42,10.23c0,3.91-0.8,7.34-2.39,10.29
				c-1.59,2.95-3.82,5.23-6.68,6.82c-2.86,1.59-6.16,2.39-9.88,2.39c-3.59,0-6.81-0.77-9.65-2.32c-2.84-1.54-5.04-3.74-6.61-6.58
				c-1.57-2.84-2.35-6.1-2.35-9.78c0-1.36,0.09-2.59,0.27-3.68h27.61c-0.23-2.73-1.18-4.86-2.86-6.41c-1.68-1.54-3.75-2.32-6.2-2.32
				c-3.54,0-6.07,1.52-7.57,4.57H420c1.09-3.64,3.18-6.62,6.27-8.96c3.09-2.34,6.89-3.51,11.38-3.51
				C441.29,1378.75,444.55,1379.56,447.44,1381.17z M443.89,1407.76c1.61-1.43,2.6-3.42,2.97-5.96h-17.93
				c0.04,2.45,0.93,4.42,2.66,5.9c1.73,1.48,3.84,2.22,6.34,2.22C440.29,1409.9,442.28,1409.19,443.89,1407.76z"/>
			<path class="st3" d="M495.39,1383.08c2.77,2.84,4.16,6.81,4.16,11.9v22.16h-9.54v-20.86c0-3-0.75-5.31-2.25-6.92
				c-1.5-1.61-3.54-2.42-6.14-2.42c-2.64,0-4.72,0.81-6.24,2.42c-1.52,1.61-2.28,3.92-2.28,6.92v20.86h-9.54v-37.77h9.54v4.7
				c1.27-1.64,2.9-2.92,4.87-3.85c1.98-0.93,4.15-1.4,6.51-1.4C488.99,1378.82,492.62,1380.24,495.39,1383.08z"/>
			<path class="st3" d="M566.73,1383.08c2.84,2.84,4.26,6.81,4.26,11.9v22.16h-9.54v-20.86c0-2.95-0.75-5.21-2.25-6.78
				c-1.5-1.57-3.54-2.35-6.14-2.35c-2.59,0-4.65,0.78-6.17,2.35c-1.52,1.57-2.28,3.83-2.28,6.78v20.86h-9.54v-20.86
				c0-2.95-0.75-5.21-2.25-6.78c-1.5-1.57-3.54-2.35-6.14-2.35c-2.64,0-4.72,0.78-6.24,2.35c-1.52,1.57-2.28,3.83-2.28,6.78v20.86
				h-9.54v-37.77h9.54v4.57c1.23-1.59,2.81-2.84,4.74-3.75c1.93-0.91,4.06-1.36,6.37-1.36c2.95,0,5.59,0.63,7.91,1.88
				c2.32,1.25,4.11,3.03,5.39,5.35c1.23-2.18,3.01-3.93,5.35-5.25c2.34-1.32,4.87-1.98,7.6-1.98
				C560.16,1378.82,563.89,1380.24,566.73,1383.08z"/>
			<path class="st3" d="M606,1381.17c2.89,1.61,5.14,3.9,6.75,6.85c1.61,2.95,2.42,6.36,2.42,10.23c0,3.91-0.8,7.34-2.39,10.29
				c-1.59,2.95-3.82,5.23-6.68,6.82c-2.86,1.59-6.16,2.39-9.88,2.39c-3.59,0-6.81-0.77-9.65-2.32c-2.84-1.54-5.04-3.74-6.61-6.58
				c-1.57-2.84-2.35-6.1-2.35-9.78c0-1.36,0.09-2.59,0.27-3.68h27.61c-0.23-2.73-1.18-4.86-2.86-6.41c-1.68-1.54-3.75-2.32-6.2-2.32
				c-3.54,0-6.07,1.52-7.57,4.57h-10.29c1.09-3.64,3.18-6.62,6.27-8.96c3.09-2.34,6.89-3.51,11.38-3.51
				C599.85,1378.75,603.11,1379.56,606,1381.17z M602.45,1407.76c1.61-1.43,2.6-3.42,2.97-5.96h-17.93c0.04,2.45,0.93,4.42,2.66,5.9
				c1.73,1.48,3.84,2.22,6.34,2.22C598.85,1409.9,600.84,1409.19,602.45,1407.76z"/>
			<path class="st3" d="M644.48,1417.13l-12.82-16.09v16.09h-9.54v-50.45h9.54v28.7l12.68-16.02h12.41l-16.63,18.95l16.77,18.81
				H644.48z"/>
		</g>
		<g>
			<path class="st3" d="M553.14,1185.67c-1.19,1.89-1.56,4.18-2.94,5.99c-3.44,4.51-7.97,6.69-13.63,6.68
				c-18.17-0.02-36.34,0.03-54.51-0.02c-12.42-0.04-19.79-10.87-15.29-22.48c2.71-6.99,5.62-13.9,8.61-21.27
				c-6.31,1.82-12.24,3.57-18.2,5.21c-1.45,0.4-0.9,1.34-0.77,2.09c1.61,9.01,3.26,18,4.9,27c0.65,3.58,1.34,7.16,1.94,10.76
				c1.56,9.23-3.91,17.17-12.93,18.81c-8.58,1.56-16.64-4.29-18.31-13.4c-3.25-17.68-6.48-35.36-9.66-53.05
				c-1.54-8.6,3.11-16,11.8-18.6c9.37-2.8,18.78-5.48,28.23-8.03c2.13-0.57,2.33-1.37,1.88-3.32c-1.49-6.38-2.76-12.81-4.11-19.23
				c-0.11-0.54-0.13-1.12-0.76-1.6c-3.6,3.95-7.59,7.46-12.19,10.27c-8.23,5.02-17.22,7.67-26.7,8.95c-3.71,0.5-7.44,0.5-11.15,0.76
				c-2.74,0.19-5.35-0.33-7.63-1.91c-0.83-0.58-1.54-0.75-2.42-0.29c-0.14,0.07-0.3,0.13-0.46,0.16c-7,1.29-10.88,5.63-13.97,12.01
				c-7.76,16-16.3,31.61-24.58,47.35c-0.67,1.28-0.96,2.5-0.9,3.92c0.4,9.32,0.75,18.64,1.1,27.96c0.05,1.37,0.13,2.74-0.44,4.07
				c-1.23,2.88-4.19,4.65-7.21,4.23c-3.28-0.46-5.76-3.11-5.97-6.69c-0.28-4.61-0.39-9.24-0.58-13.86
				c-0.03-0.74-0.12-1.48-0.75-2.24c-0.56,3.52-1.08,7.05-1.67,10.57c-0.45,2.71-0.58,5.48-1.44,8.11c-1.14,3.49-4.21,5.33-7.73,4.7
				c-3.34-0.6-5.81-3.43-5.43-6.96c0.66-6.03,1.67-12.03,2.57-18.03c0.82-5.45,1.64-10.89,2.56-16.32c0.19-1.11-0.08-1.68-1.05-2.06
				c-0.08-0.03-0.15-0.06-0.22-0.1c-2.54-1.43-4.99-3.8-7.63-4.02c-2.62-0.21-5.42,1.72-8.13,2.76c-1.81,0.69-3.59,1.47-5.4,2.17
				c-3.59,1.4-6.45,0.5-7.59-2.36c-1.17-2.95,0.19-5.53,3.75-6.99c3.36-1.38,6.72-2.79,10.14-4.01c1.63-0.58,2.69-1.49,3.54-3
				c6.61-11.78,13.32-23.5,19.96-35.27c0.65-1.16,1.45-2.08,2.53-2.87c8.44-6.16,16.87-12.34,25.25-18.58
				c1.21-0.9,2.06-1.05,3.38-0.22c3.08,1.94,6.31,3.63,9.4,5.56c1.24,0.77,2.3,0.86,3.61,0.27c1.62-0.73,3.31-1.29,5-1.86
				c3.25-1.1,6.35-2.07,8.45-5.36c1.9-2.97,5.29-4.01,8.92-4.08c12.93-0.25,24.32-4.29,33.26-14.01c5.82-6.32,9.3-13.8,10.26-22.35
				c1.42-12.67,11.92-23.11,24.74-24.49c9.89-1.07,18.42,1.63,25.2,9.09c3.05,3.36,4.14,7.6,5.05,11.91
				c4.28,20.18,8.57,40.37,12.92,60.54c0.99,4.58,0.69,8.96-1.08,13.31c-4.35,10.7-8.63,21.44-12.93,32.16
				c-0.29,0.73-0.55,1.48-0.92,2.5c4.02,0,7.8,0,11.57,0c6.41,0,12.82,0,19.22,0c9.37,0.01,14.54,3.9,17.18,12.9
				c0.03,0.12,0.23,0.19,0.35,0.28C553.14,1181.77,553.14,1183.72,553.14,1185.67z"/>
			<path class="st3" d="M431.23,1008.29c0.28-16.71,13.85-30.05,30.22-29.71c16.62,0.35,29.85,13.74,29.67,30.05
				c-0.19,16.63-13.78,30.11-30.13,29.87C444.34,1038.25,430.95,1024.67,431.23,1008.29z"/>
			<path class="st3" d="M375.39,1073.42c-0.36,6.17-3.08,11.2-7.67,15.16c-1.84,1.59-2.18,3-1.3,5.21c0.79,1.97,2.66,4.16,1.85,5.99
				c-0.73,1.67-3.18,2.58-4.88,3.81c-6.82,4.94-13.68,9.82-20.42,14.85c-1.63,1.22-2.2,0.82-3.18-0.69
				c-5.07-7.89-9.83-15.99-15.45-23.52c-2.15-2.89-4.76-5.28-7.42-7.66c-1.22-1.09-2.3-2.31-2.75-3.92
				c-1.09-3.97,2.88-7.44,7.66-6.77c2.98,0.42,5.47,1.94,7.96,3.42c1.46,0.87,2.58,0.9,3.95-0.15c3.1-2.38,6.84-3.22,10.57-3.96
				c3.56-0.7,6.73-2.02,9.42-4.59c2.56-2.46,5.35-4.68,8.42-6.55c6.39-3.89,10.72,0.2,12.53,5.09
				C375.18,1070.52,375.32,1071.96,375.39,1073.42z"/>
		</g>
	</g>
</g>
</svg>
